<svg xmlns="http://www.w3.org/2000/svg" width="16.995" height="16.995" viewBox="0 0 16.995 16.995"><defs><style>.a{fill:#fff}</style></defs><path class="a" d="M1076.773 7599.8a.855.855.0 0 0 .084.022.751.751.0 0 1 .631.632.772.772.0 0 0 .023.083v12.6a.643.643.0 0 0-.023.071.751.751.0 0 1-.633.633.676.676.0 0 0-.071.022h-3.62c0-.042.0-.085.0-.129v-5.316h1.717c.113.0.11.0.124-.113.035-.292.072-.587.109-.881.046-.353.093-.7.138-1.055.011-.08.01-.08-.075-.08h-2.01c0-.021.0-.034.0-.047.0-.447.0-.9.0-1.342a1.921 1.921.0 0 1 .039-.364.665.665.0 0 1 .535-.562 2.589 2.589.0 0 1 .475-.055c.151.0.3-.006.453-.006.2.0.4.0.6.0h0c.055.0.071-.018.071-.073.0-.322.0-.644.0-.966.0-.274.0-.548.0-.82.0-.048-.016-.066-.064-.068-.085.0-.171-.019-.256-.022-.46-.016-.92-.037-1.381-.044h-.047a2.9 2.9.0 0 0-1.118.221 2.31 2.31.0 0 0-1.23 1.165 3 3 0 0 0-.283 1.27c-.008.548.0 1.1.0 1.646v.064h-.781c-.328.0-.656.0-.985.0h0c-.058.0-.076.016-.076.076.0.659.0 1.319.0 1.98.0.074.0.074.078.074h1.763v5.357c0 .03.0.059.0.088h-6.773a.592.592.0 0 0-.071-.022.752.752.0 0 1-.633-.632.824.824.0 0 0-.023-.084v-12.585a.744.744.0 0 0 .023-.083.752.752.0 0 1 .632-.632c.028.0.055-.015.083-.022h12.584m.2-1.467h-12.985l-.193.054-.022.006h0a2.214 2.214.0 0 0-1.728 1.73l-.006.021-.054.193v12.986l.055.2.005.02h0a2.218 2.218.0 0 0 1.686 1.717l.212.071h13.076l.214-.071a2.218 2.218.0 0 0 1.675-1.675l.071-.212v-13.035l-.056-.2-.005-.02a2.209 2.209.0 0 0-1.73-1.726l-.021-.007z" transform="translate(-1061.984 -7598.332)"/></svg>