<svg xmlns="http://www.w3.org/2000/svg" width="22.12" height="22.12" viewBox="0 0 22.12 22.12"><defs><style>.a{fill:#003687}</style></defs><path class="a" d="M1081.234 7600.24c.037.01.072.022.109.029a.977.977.0 0 1 .822.822 1.018 1.018.0 0 0 .03.108v16.4a.766.766.0 0 0-.03.093.978.978.0 0 1-.824.823.865.865.0 0 0-.093.029h-4.712c0-.055.0-.11.0-.168v-6.919h2.235c.147.0.143.0.161-.147.045-.381.094-.765.142-1.146.059-.459.12-.916.18-1.373.014-.1.013-.1-.1-.1h-2.615c0-.026.0-.044.0-.061.0-.583.0-1.166.0-1.747a2.5 2.5.0 0 1 .051-.474.867.867.0 0 1 .7-.732 3.374 3.374.0 0 1 .619-.071c.2.0.394-.008.59-.008.259.0.516.0.775.007h0c.071.0.092-.023.092-.1.0-.419.0-.838.0-1.257.0-.357.0-.713.0-1.067.0-.062-.021-.087-.083-.09-.111-.006-.222-.023-.333-.028-.6-.021-1.2-.049-1.8-.058h-.061a3.77 3.77.0 0 0-1.456.287 3.007 3.007.0 0 0-1.6 1.517 3.907 3.907.0 0 0-.369 1.652c-.011.713-.005 1.429-.006 2.142v.084h-1.017c-.427.0-.854.0-1.282.0h0c-.076.0-.1.021-.1.1.0.858.0 1.717.0 2.578.0.1.0.1.1.1h2.295v6.973c0 .039.0.076.0.114h-8.816a.757.757.0 0 0-.092-.029.979.979.0 0 1-.824-.822 1.038 1.038.0 0 0-.03-.109V7601.2a.962.962.0 0 0 .03-.108.979.979.0 0 1 .823-.822c.037-.007.072-.02.109-.029h16.38m.261-1.909h-16.9l-.252.07-.029.007v0a2.881 2.881.0 0 0-2.249 2.252l-.008.026-.07.252v16.9l.071.254.006.025h0a2.885 2.885.0 0 0 2.194 2.234l.276.093h17.02l.278-.093a2.886 2.886.0 0 0 2.18-2.18l.092-.275v-16.967l-.073-.257-.007-.025a2.876 2.876.0 0 0-2.252-2.246l-.027-.009z" transform="translate(-1061.984 -7598.331)"/></svg>