<svg xmlns="http://www.w3.org/2000/svg" width="575.498" height="66.347" viewBox="0 0 575.498 66.347"><defs><style>.a{fill:#003687}</style></defs><path class="a" d="M757.149 143.952a6.928 6.928.0 0 0-.953.243l.034-.321c-.813-1.665-1.765-.8-2.67-.776v0l-.88.066h0q-.015-.579-.029-1.157h0l.8-.457c.441.052.937.214 1.348.216l-.251-.586c.358-.115.432-.642 1.166-.215l.549.612c.368.207.6.2.7-.066l-.434-.487-.444-.977 6.248-3.565c-1.721-1.653-2.914-.018-4.113-.357-.908-.744-1.688-2.322-2.739-2.141h0l-1.371-.114h0l1.448-2.354 3.491-1.191h0c.747-1.286-3.7-.766-2.788-2.34-1.131-.532 3.134-2.775 2.2-3.212l-1.964-.159c-1.068-1.786-2.294-.673-3.442-.99 1.81-1.939 1.806-1.951.9-3.4h0c-.147-3.673 1.315-1.3 1.85-2.418h0c.229.008.46.027.689.046.039.273.173.434.463.419l-.127-.394a11.765 11.765.0 0 0 1.528.064 1.911 1.911.0 0 0 .481.851l-.125-.9a4.386 4.386.0 0 0 .483-.062c.471-.107 1.692-.97.166-2.333q-.287-1.607-.574-3.215c-.708-3-1.972-1.754-3.036-2.034l.014-.113c.153-5.193-2.736-2.523-3.338-5.983.8-.942 1.674-.144 2.24-1.563h0l-.044-.308c1.231-.059.008-.266 1.312-.329-.617-1.73 1.011-.518.349-1.025h0a3.839 3.839.0 0 0-2.773-.649c-.019.02-.042.039-.06.06a.694.694.0 0 0-.323.058 7.358 7.358.0 0 0-2.243.379 18.862 18.862.0 0 1-2.854.123q-.887-.031-1.775-.065c1.543-.136 3.609-.412 4.148-.4h.069l.069-.1-.344-.068-5.149.522-4.465-.191c-.009-.2.126-.233.479-.263l-.825-.068.069.2-.069.034-.068.034a1.185 1.185.0 0 0-1.047.0l-.4-.016v-.083l-.364.068c-13.344-.558-516.814-2.415-530.157-2.066l.65.3c-.152.119-.172-.012-.123.185l.677-.074.247.259-.616-.037.123.259a3.184 3.184.0 0 1 1.355.26c-.416.163-.239.079-.431.3l-.185-.26-.185.334a1.875 1.875.0 0 0-.435-.107l-.058.07c0-.08-.005-.024.055-.071a3.1 3.1.0 0 0-1.471.071c.1.4.558.573 1.109.854l-.123.074-.185.223-.8-.149c.34.172 1.156.455 1.288.667h-.034l-.1.128.094.01c-.006.0-.009.008-.016.012l.492.148-.37-.074-.109.164-.438.025h-.007-.007l-.186.011c.171-.219.163-.148.2-.34h.249l.149-.043-.548.043-.1-.212.149-.043-.05-.127a7.122 7.122.0 0 1-3.436.637.231.231.0 0 1-.1-.382c-.362.029-.693.063-1.394.17v-.255l-.3.043c-.041.317-.017.377-.3.382l.05.637-.3.17.4-.042.05.042a1.181 1.181.0 0 1-.7 1.1c.29-.072.662-.216.946-.043.211.145.137.335-.1.467l.349.17-.349.424.3.085c-.227.261.239.634.5.637l.006.021c-.215.1-.483.248-.283.3a.159.159.0 0 0 .024.02l-.295.168c.29-.055.352-.086.543.013l.042.034c-.232.088-.2.126-.187.335v.127a1.375 1.375.0 0 1-.946.34l.348.424-.448.212-.149.255h.249c-.1.111-.052.3-.448.382a.692.692.0 0 1-.1.764c-.005.219-.1.188-.4.255l.05.085c.076.071-.043.077.2.127a1.1 1.1.0 0 0-.3.637c-.044.029-.376.148-.349.212l-.149.085.349.085c-.1.249.059.122.2.3h.1l.05-.043-.3-.212h.6l-.349.043c.188.1.037.115.3.085-.152.134.0.037-.2.085l.4.382-1 .255.249.043-.3.255c-.094.144.477.134.547.127l-.348.085.5.17v.127h-.2l.1-.127-.4.043-.05.042a3.356 3.356.0 0 1 .349.251V112.3l.248-.085h.05l.05.127H202.1c.028.042.022.083-.052.128.126.156.187.015.1.17a3.153 3.153.0 0 1-.846.637l.348-.255-.5.085.1.17-.6.212-.05-.043c.145-.163.051-.084.249-.127l-.6-.043c.117.161.034.059.2.085l.149.17-.671.2v.008h.27v.043c-.147.112-.217.093-.27-.043H199.9l.026-.008a.735.735.0 0 1-.026-.077h-.05c-.145.144-.073.059-.1.255l-.149-.17-.2.255.448-.043-.7.255c.114-.194.16-.09-.05-.212l.4-.212h-.648l.249.042-.1.34c-.319.347-.462-.032-1.2.382l.2.17.2.085c0-.134.092-.07-.05-.128l.15-.127a6.206 6.206.0 0 1 .747.382c-.339-.079-.547-.274-.847-.085l.3.128-.05.043-.3-.128-.05-.085c-.1.18-.08.072-.049.212-.157.065-.024-.2-.15-.255l-.1-.17c-.181.106-.1.124-.4.17v.043l.348.042-.448.255-.348-.466h-.15l.05.085.2.212v.128l-.4.085-.249-.043c-.01-.122.109-.158-.1-.255l-.1.17.249.255h.5c-.017-.057-.033-.114-.05-.17.285.047.056.149.3.0l-.3.3v.085c.534-.068.276.03.9.042l-.349-.17h-.049l.6-.043-.249.043c.329.132.168.154.4.085l.05.085c.06-.185.059-.041-.05-.212l.349.128c-.123.152-.1.081-.05.255l-.05.085h.249l-.149-.085c.16-.075.348.089.548.254l-.4-.127c-.177.182-.126.434-.149.594.092.141.3.166.149.3.1-.156-.137-.087-.3-.128l-.049.213.049.042-.448.17.1.043.7.043-.2-.17.249-.085.1.34c.363-.019.346.038.6-.128l-.05.128h.548l-.15.043.4.042-.4.043 2.59.043c-.359.466-2.2.366-3.087.552v.043l.049.085.2-.128.05.043c.077.118.0.043-.149.085l.2.17-.6-.085-.1-.043.3.043v-.17l-.764.033a4.444 4.444.0 0 0 .465.068l-.424.12.174.034-.05.043h0a2.984 2.984.0 0 0 .749.212l-.2-.17.2-.043c-.1.125.184.36.448.212v.339l-.448.043.05.17s.271.079.463.141c.051-.013.071-.005.166.059-.029-.013-.09-.034-.166-.059-.025.007-.057.016-.115.029h-.1c.017.057.033.113.049.17a2.22 2.22.0 0 1 1.146.212l-1.245.085.5.085-1.145.127.2.085-.8.057c0 .069.045.054-.026.092l1.575.276-.9.127a1.413 1.413.0 0 0 .946.043l-.149.085c.32.2 1.637.1 2.291.382H202l.05.085.67.121a1.281 1.281.0 0 0 .477.183l-.144-.123.2.037.041.044v.127l-.4.085-.249-.043c-.01-.122.109-.158-.1-.255-.033.057-.067.113-.1.17l.249.254h.5l-.049-.17c.285.047.056.149.3.0l-.3.3v.085c.534-.068.276.03.9.043l-.349-.17h-.049l.6-.043-.249.043c.329.131.168.154.4.085l.04.069c-.017.036-.036.068-.052.1l-.34.032.3.043-.349.127v.043l.267.085c-.015.045-.034.087-.048.134l-.069.036v.042l.05-.005c-.012.041-.021.085-.032.127h-.043l-.055-.072.046.139c-.2-.065-.4-.15-.607-.238l.291.05c.012-.129.042-.187.05-.254l-.548.17.128.022-.408.175.431.111-.431.149v.037a1.358 1.358.0 0 1 .332.431l-.155.007c.041.111.059.031-.055.109l.218.254c.137-.1.094.011.151-.119.021.029.043.058.066.086v.106c-.271.025-.125.0-.272.181-.018-.06-.036-.121-.055-.181l-.376.61-.532-.556c-.306.081-.352.029-.554.223.671-.014.872.43 1.108.779l-.8-.3.062.075v.259l1.17.26a.748.748.0 0 0-.406.263l.032.009h-.04c-.1.185.067.4.237.637v-.055l.149.043-.113.064c.034.051.069.1.1.155l-.036.02.087.075h0a1.089 1.089.0 0 0-.178-.068l-.01-.008c.064-.024-.025-.036-.05-.043l-.049-.043a.556.556.0 0 1 .018.071c-.033-.006-.067-.01-.1-.014l.033-.014-.1-.043-.038.049a.89.89.0 0 0-.157.011l-.109-.036v.217l.654.073-.041.04c-.086.0-.162.0-.239.0l-.319.038-.05-.042v-.045c-.147-.03-.269-.065-.277-.1-.3-.034-.094.04-.327.073l-.1.035a2.588 2.588.0 0 0-.316.0l.025.076a.983.983.0 0 0 .073.1l-.005.007-.164-.145-.109.109.055.036a2.546 2.546.0 0 0 .274.057 1.525 1.525.0 0 0 .174.159l-.557-.07-.078.121h-.033l.015.028-.068.1c-.046-.193.079-.068-.109-.181s-.5-.008-.763.072l.218.037a3.061 3.061.0 0 0 .821.147l.009.015.019-.014a.76.76.0 0 0 .35-.076c.256.026.062-.051.164-.145.125.1-.024.1.161.073v0l-.108.465h0l-.053-.213h-.164l.164.472.054-.072.051-.059.046.132h-.315l-.109-.472c-.133.113-.111.065-.381-.037-.186.043.027.1-.164.073-.056.188-.009.243.164.254-.176.1-.17-.027-.382.181-.182-.13-.239-.121-.163-.254-.391.108-.142.248-.278.362h.005l-.014.006a.421.421.0 0 1-.149.066l.149-.066.009-.007-.158-.035-.041-.055-.013.018v.073h-.054l.054-.073v-.036l.013.018.041-.054-.164-.109-.49.254v.109l-.164-.327c-.016.16-.032.319-.048.479l.048-.043-.055.108.007-.066-.116.1-.163-.218-.055.218v-.109l-.273.326c-.018-.048-.036-.1-.055-.145l-.163.254.109-.145-.055.182-.432-.032-.063.015v.01h-.041l.043-.01.005-.019h.058l.323-.077-.273-.109a.619.619.0 0 1-.545.145c.015.048.029.1.044.145l-.217-.079-.2.085v.042h.43l.01.032.259.138c-.056-.281-.07-.12-.273-.218l.32-.076c-.012.112-.026.072.031.089l-.024.1.055.036c.115-.011.211-.02.3-.03l.041.017-.013-.021a1.932 1.932.0 0 0 .244-.044c.087.134.012.133.465.235.015-.006.026-.012.039-.018l.016.042a.326.326.0 0 0-.038.107c.157-.107.256-.18.256-.18.192-.009.09.054.327-.036l-.163.254h.109a2.118 2.118.0 0 1 .264-.078l.027.212c.218-.126.184-.1.431.037l-.123-.148.185-.075v.037l.123.148-.123.075.123.074-.431.037c.017.048.031.086.046.127l-.063.017a.141.141.0 0 0 .031-.029c-.384.126-.849-.086-.926.181l-.108-.145-.549.275a6.091 6.091.0 0 1-.715-.086c.022-.008.044-.014.066-.023h.1v-.042h0a7.167 7.167.0 0 0 1.089-.614c-.017.0-.045-.008-.1-.017-.152.08-.1.006-.218-.108l-.055-.037.109.254-.327.073.217-.145-.49-.073c.11.108-.026.106.164.073l-1.016.677a.811.811.0 0 1-.269-.04l.348-.042v-.043l-1.43-.076-1.314.32.1.011h-.149l.045-.011-1.091-.117.15.128-.2.043.946.085h-.349l1.544.339h-.747l1.4.245c-.546.553-.01 1.088-.621 1.474l.191.135h-.037l-.154-.093h-.062l.006.068-2.121-.253c.027.128-.041.193-.152.251l.5-.039-.05.085-.1.085.05.128c.286-.14.629.0.647-.255l1.244.212.036.386.492-.074v.149l.061.037-.431-.037V133c.239.078.289.167.273.283a3.955 3.955.0 0 0-1.277.026l.15.085-.6.042.249.043-1.444-.043-.3.17v.043c.534.123 1.8-.283 2.192.127l.3-.255a2.259 2.259.0 0 1 .677-.061c-.011.031-.024.062-.035.1.312-.068-.013-.124.308-.074l-.123.037-.185.26c.132.021.257.234.324.424l-2.808-.089.249.043-.448.17.846.17-.4.127.946.043-.15.085.349-.127.348.085v.042a17.733 17.733.0 0 0-2.092.467h-.149c.915.4 2.706.134 4.4-.034a2.08 2.08.0 0 0 1.351.487l.018.038-1.289-.151.3.042c-.216.17-.416.12-.9.085l.15-.085a15.691 15.691.0 0 0-2.3.243l.161.027-.05.043c.113.01.256.019.424.027l-.175-.111.747.042v.043c-.257.024-.331-.031-.347.036.806.027 2.042.031 3.4.031l.084.182-.153-.009-.349.085a.988.988.0 0 0 .645.115v.061l.246-.037-.128-.019a.982.982.0 0 1 .134.007l.022-.025h.281l-.246.185.616.149.123-.111.027.064c-.044.048-.085.1-.13.146l-.095.016h.08a8.246 8.246.0 0 1-.829.754l-.048.009.011.02q-.27.212-.557.4c-.59.019-1.064.035-1.2.049l.1-.127-1.345.085h.249l-.548.085-.049.043h.9l-.149-.085.547-.043c-.1.136.034.1-.3.128a5.2 5.2.0 0 0 1.361.127 6.861 6.861.0 0 1-1.151.509c-.253.083-.5.192-.747.293-.547.013-1.093.013-1.505.0l.05.085.1.085.941-.013c-.151.068-.3.148-.448.221l-.1-.081h.2v-.043h-.4l.293.125c-.328.161-.65.34-.97.527h.029v.043l-.082-.012a18.126 18.126.0 0 0-1.61 1.07.879.879.0 0 1-.3-.013l-.05.043v.127l.115.016-.052.038-.113-.012c-.011.04-.024.081-.036.121q-.609.478-1.2 1.009l-.158-.027c.074.083.052.1.082.1-.835.752-1.647 1.576-2.442 2.445l-.08-.038c.09.057-.081.041-.1.043l-.1.17c.042.0.08.0.119.0-.146.161-.294.318-.44.482-.64.724-1.781 1.617-1.165 3.14.714 1.768 1.64.408 2.426-.338h.006v.324l.4.085-.249-.085h.3l-.2-.085v-.043c.279.057.243.043.3.17l.15.043c.017-.1.033-.2.049-.3l.3.128h-.149l.7.212h-1.245l2.092.552-.2.17.349.085-.1-.085a4.261 4.261.0 0 1 .667.163l.03-.078c.111.03.061.053.005.087a4 4 0 0 0 .742.125l-.2.085 1.394.128.2.255-.548-.085v.043l.249.085a1.093 1.093.0 0 0-.6.17l-.05-.128.4-.17a1.565 1.565.0 0 0-1 .17c.035.03.041.018.0.043a7.092 7.092.0 0 0 2.341.594c-.227.136-.226.126-.547.128l1.44.168a1.175 1.175.0 0 0-.254.04l.061.01h-.087a.262.262.0 0 0-.162.128h-.1l-.2.043.1.042a.092.092.0 0 0 .006.047l-.227-.023-.128-.109.31-.106c-.212.026-.307-.132-.409.106l-.448-.212c.09.056-.082.041-.1.043l-.1.17a1.338 1.338.0 0 1 .518.072c-.164-.017-.3-.03-.372-.036l-.1.043v.043a4.286 4.286.0 0 0 .9.176h0v.043l.157-.027.089.009c0 .018.0.036.0.06.468-.026.557.1.758.0l.36.028.077.057c.138.17.352.086.484.0q.164.02.324.047l.188.121c-.166.076-.2.291-.249.466l.1.085-.448-.17c0 .108.131.1-.1.212v-.128a1.7 1.7.0 0 0-1.394.213l.2-.128c-.287-.082-.18-.026-.3.043-.153-.184-.012-.171-.348-.255l-.5.127.432.114.067.014h-.007l.157.041c-.219.131-.092-.016-.149.212l-.249-.043.2-.085h-.8c.369.13.286.041.448.043l.7.3c-.143.174-.1.019.0.212-.29.215-.215.6.2.806-.276.139-.562-.225-.747.085l-.1.085.4-.17-.249.255c.231.125.1.016.149.212.35-.035.03-.086.349.043.134-.178.065-.052.049-.212.3.0.283.068.249.212l-.3.212c-.054-.184.067-.044-.1-.17l-.1-.042v.382l.4.085-.249-.085h.3l-.2-.085v-.042c.279.057.243.043.3.17l.15.042.049-.3.3.127h-.149l.7.212h-1.245l2.092.552-.2.17.349.085-.1-.085a4.194 4.194.0 0 1 .667.163l.03-.078c.111.03.061.052.005.087a3.949 3.949.0 0 0 .742.125l-.2.085 1.394.128.2.254-.548-.085v.043l.249.085a1.1 1.1.0 0 0-.6.17l-.05-.127.4-.17a1.565 1.565.0 0 0-1 .17c.035.03.041.018.0.043a7.091 7.091.0 0 0 2.341.594.716.716.0 0 1-.548.127l3.984.467h0c-.484.36-3.6-.044-4.133-.085l-.1.042v.043c.882.309 2.514.184 3.685.51l.5.057a8.456 8.456.0 0 1-.809 2.878 4.279 4.279.0 0 0-.376 3.257c.6.011 1.193.015 1.79.009 10.691-.106 511.491.2 522.181-.157 7.7-.257 15.406-.338 23.11-.419a18.212 18.212.0 0 0 4.141-3.132l.2.434.549-.718a2.071 2.071.0 0 1-.192-.248c1.281-1.427-.47-2.765-.436-4.156h0l-.011-.019c.611-.041 1.484.428 1.591-1.3.091-1.458-.7-.655-1.091-.87h0c-.522-1.72-1.227-1.163-1.917-.8l-.627-1.546h0c.772.612 1.25-1.142 1.944-1.157 1.646-.8.537-2.028.086-3.155h0l1.91-1.417c.592-.016 1.291-.381 1.161-1.823C758.282 143.044 757.585 143.9 757.149 143.952zM208.182 100.268l-.185-.111.185-.037zM201.7 110.3c.173.041.115-.039.15.085zm.4 1.273-.05-.043-.05-.043h.05l.1.085.1.043zm-4.383 3.438c-.017.057-.033.113-.049.17h-.15l-.05-.043.249-.212zm.647.127h.05l.1.085C198.345 115.165 198.414 115.288 198.359 115.142zm.648 1.189-.2-.043c.016-.057.033-.113.049-.17h.1l.05.17zm-.3-.3.1-.127.249.17zm2.142 1.74v.127l-.05-.042-.05-.085zM2e2 118.835l.05-.127.1.127zm.4-.552-.1-.17C200.419 118.193 200.483 118.192 200.4 118.283zm.348-.128v-.043l.15-.043C201.046 118.159 200.847 118.137 200.75 118.156zm2.491 5.444h.109C203.27 123.649 203.332 123.639 203.241 123.6zm-4.139 5.01c.061.068.1.1.145.143l-.348-.039A2.046 2.046.0 0 0 199.1 128.61zm.146.291h-.092l.022.059-.023.019-.249-.085.1-.085.249.085zm.122.0v0 0zm.156-.117-.207-.138v-.037l.272.181zm.12.08-.06-.04.045-.006.014.009zm.294-.525-.4-.2.217-.146.2.341zm-4.16 5.123.109-.072c.087-.118-.03-.051.164-.073zm.948-2.393v.149h-.061l-.061-.074zm-.131 1.848.108.036-.163.109C196.561 133.014 196.579 132.966 196.6 132.917zm-.239.3v-.037h.247l-.11.1h0l.051-.062zm.278.988H196.6c0-.008.0-.013.0-.022zm.029.754h-.4l-.2-.127.4-.043.2.085zm.062-1.111h-.061l.061-.111zm-.012-1.123c.326.028.228-.036.348.17zm.69-1.585v.222l-.062-.222zm.061 3.228-.061-.111.123.111zm.273-1.491.013.007.041.138C197.777 132.978 197.759 132.93 197.741 132.881zm-10.487 16.146-.149-.212.4.085zm.348-.043.15.212C187.6 149.025 187.552 149.16 187.6 148.985zm.3.255.1-.085.149-.127-.249.043c-.043-.126.018-.045-.1-.17l.348.128.1-.085.149.3zm2.042-.949-.3.212c-.054-.184.067-.044-.1-.17l-.024-.01.111-.038.013.006.011-.014c.1-.037.2-.072.3-.1A.368.368.0 0 1 189.942 148.291zm.249.085-.049-.085.149.127zm1.992-3.211.249.043-.15.127-.149-.043zm-.349.0.2.085h-.2zm-.5 3.3h.05l-.05.128zm-.5.043-.15-.043.05-.085h.1zm.149.17-.1-.17C191.015 148.579 191.074 148.583 190.989 148.673zm.1-.679-.4.043.273-.145c.042-.01.084-.017.126-.026zm.1.764v-.043l.2-.085.2.043zm.349-.722.1.043.05.085zm.249-.043h.2l-.15.043c.007.134.049.023-.049.128h-.05l-.05-.128zm-.05 1.019.05-.085h.2zm.212.083a.588.588.0 0 0-.063.129l.05-.128h.013c.065-.094.125-.053.286-.21C192.191 149.007 192.237 149.056 191.948 149.1zm.385-3.8.1.17-.15-.042zm.3 3.8-.249.128h-.05v-.17l.15-.043.149.043zm3.785 1.571c.092.031.037.006.0.085zm-.5-.934c.068.062.054.014.0.085zm-2.988-.594h-.15l.1-.085h.149zm-.2-.212.1-.085.2.043zm-.05-.3.2-.127h.2zm.249-5.163-.05-.085.2.085zm.4-2.547 1.693-.128.7.043v.043l-.1.085zm2.192 6.9v-.085C195.589 147.8 195.575 147.753 195.521 147.824zm-.4-5.672-.149.127.05-.17zm-.348 5.969c.065.064.133.067.071.08l.079.09-.1-.085h.021zm-.2-4.654-.349.085-.1-.17zm-.4-.34.448.085C194.189 143.329 194.082 143.281 194.176 143.128zm.448 5.078-.1-.127C194.688 148.143 194.68 148.06 194.624 148.206zm-.7-5.29c-.111.0-.062-.02-.1-.042zm-.348 6.182.149.085C193.56 149.127 193.509 149.238 193.578 149.1zm.05.722.049-.127h.2zm.249-6.267-.448-.085.049-.085.6.085zm.249 6.1v-.043l.249-.043.149.043zm.6-1.231v.128l-.3-.128c.083-.154.122-.036.0-.17l.3.043.1.085zm.1.51h.049l-.049.128zm-.05 1.486.1-.127h.05zm.05-1.74.1-.085h.15zm.2-5.248.249.043C195.049 143.536 195.2 143.543 195.023 143.425zm.3 5.63.1.127c-.111.009-.037-.005-.1-.043l-.049-.085zm0 1.74.1-.085h.149zm.548-7.921-.149.042-.15-.127zm0 7.752.249.085-.4.043zm0 .594.1-.085.2.043zm.249-.127.149-.212.05.043.15.043zm.621.6h.029v0zm.076-2.214.05-.127h.1c.016.043.033.085.049.127zm.8-1.019c.092.032.037.006.0.085zm-.3-6.988.05-.127.1.043zm.2 10.221-.15-.17v-.043l.205-.048.252.03A.523.523.0 0 0 197.516 151.693zm.2-.728c.173.04.115-.04.15.085zm.05-10.468.2-.043h.149zm-1.99 12.342v-.127h.05zm.249.382-.05.042-.05-.042.1-.128zm-.2 1.273-.2-.085.2-.17c.168.076.143.036.249.17C195.81 154.357 196.028 154.348 195.822 154.494zm2.789-2.334-.1.085v.085l-.2-.17zm-.252-10.9.2.043-.15.085zm.053 12.64-.349.085v-.043l.2-.085zm-.3-.976-1.444.17-.05-.127a.881.881.0 0 0 .8-.17zm-.547 1.018V153.9l.149-.254h.05l.049.127zm.049.934-.049.127v-.127zm.05-1.358.1.043C197.653 153.562 197.742 153.566 197.665 153.518zm-.7-.255.249.17C196.974 153.371 197.078 153.425 196.968 153.263zm.1.3v-.085C197.16 153.507 197.1 153.482 197.067 153.56zm-.05.637c.046.114-.069.051-.1.085zm0-.594.448-.128-.05.128zm.05-1.019.249.213h-.2c-.106-.1-.046.006-.049-.128l-.15-.043zm-.1.255-.2.128-.15-.085.1-.085zm-.3-.127c-.111.0-.022.005-.1-.043zm-.3.339c-.111.0-.022.006-.1-.042zm-.1.085h.2c.267.056.177.0.3.17l-.1.085-.05.043c-.265-.177.01-.132-.348-.085zm.249.382c.1.05.081-.006.05.085l.049.085-.4-.085zm-.349-.721c.093.032.037.006.0.085zm.1 1.315h.05l-.1.128-.1-.085zm-.149.17h.3l-.1.043.05.085zm.3.509-.049-.085.149.127zm.05-.552.1-.085.1.17zm.2-.212.249.127C196.648 154.106 196.717 154.146 196.669 154.027zm.4.891-.15-.043.05-.085h.1zm.149.17-.1-.17C197.243 154.995 197.3 155 197.217 155.089zm.1-.679-.4.043.4-.212zm.1.764v-.042l.2-.085.2.043zm.349-.721.1.043.05.085zm.249-.043h.2l-.15.043c.007.134.049.023-.049.127h-.05l-.05-.127zm-.05 1.018.05-.085h.2zm.212.083a.614.614.0 0 0-.063.129l.05-.127h.013c.065-.094.125-.053.286-.21C198.419 155.423 198.465 155.472 198.176 155.511zm.485-2.927c-.172.086-.024.081-.2.0zm.2 2.929-.249.127h-.05v-.17l.15-.043.149.043zm.246-13.786c-.226.045-.117.076-.3-.043zm-.149-.424.05-.085.149.043zm.2 14.253h-.15l.1-.085h.149zm-.2-.212.1-.085.2.043zm-.05-.3.2-.127h.2zm.246-5.1.1-.127.1.043zm.252 2.935.049-.085h.1C199.51 152.839 199.584 152.852 199.408 152.881zm0-.382.049-.127h.05zm-1.2-11.621.1-.085 1.394.085zm1.843-.043v.043l-.3-.043zm-.246 14.677.149.085C199.789 155.543 199.737 155.654 199.806 155.513zm.05.721.049-.127h.2zm.149-3.65.05-.127.1.043zm2.64 4.5c.092.031.037.006.0.085zm-.152-26.519-.349-.043.2-.042-.049-.128zm-.1 18.331-.008.014-.11.047-.032-.009v-.02zm-.247 7.339v-.085C202.215 156.211 202.2 156.163 202.147 156.234zm0-28.75.081.018a.962.962.0 0 0-.1.008zm0 .958-.123.111-.061-.074zm-.105-.831.043.006h-.049zm.017.28.042.12-.005.017-.055-.073h-.109C202.044 127.879 202.037 127.934 202.06 127.891zm-.311 26.263c.068.062.054.014.0.085zm-.033-26.271v.036l-.164-.036zm-.148 2.783h-.036a.184.184.0 0 1 .025-.036l-.025-.076c.084.079.067.03.025.076zm-.015-3.11-.055.073h-.109zm-.811 1.752.113.091h-.061l-.061-.074zm-.048-.038h-.006l-.018-.022zm-1.612 4.819-.075.023-.062.074C198.991 134.063 199.021 134.1 199.082 134.09zm-.875 1.247v-.148l.061.148zm.2-2.353.2.043-.149.043zm.352 2.242h.123l-.308.149zm.308.223-.221.067h-.029l-.057-.1.369-.075zm.088-3.33h-.109l.327-.145zm.281 4.062v-.065l.119.072zm0-1.92v-.111l.061.111zm.1-2.323.055-.146.163.037zm-.124-1.953v-.01c.256-.093.483-.181.625-.251l.11.062.088-.1a.78.78.0 0 0 .09.18l.094-.169.134.142.235-.142-.123.074-.112.068.112.118.42-.072-.041.029h.1l.02.012a2.15 2.15.0 0 1-.643.073l-.044-.079h-.1a.327.327.0 0 0 .042.037l.071.043h-.2l.008-.009-.185-.223-.061.037c-.074.09-.124.148-.16.191C199.736 130 199.575 129.991 199.414 129.984zM201 154.537c.065.064.133.066.071.08l.079.09-.1-.085h.021zm-.05-1.358.1-.128h.1zm-.161-21.568.108-.145v.036l.109.109-.109.181zm.062 23.011-.1-.127C200.916 154.559 200.908 154.476 200.853 154.622zm-.607-23.592v.108l-.164.037C200.182 131.018 200.065 131.118 200.246 131.03zm-.316 5.495-.036-.065h.036zm0-.185v.1l-.042.009-.081-.147h.117l.028.024zM2e2 136.3h-.038l.09-.027zm-.071-2.592-.061-.149.185-.037zm.187-2.1-.09.04c.091-.073.04-.054.076-.055a.486.486.0 0 0-.051-.05l.247.042V131.5l.055.109h.109l-.109.145H200.3v-.171C200.136 131.656 200.166 131.667 200.117 131.607zm.182 2.4.03-.054a.325.325.0 0 0 .052.054zm.055 22.056v-.042l.249-.043.149.043zm.6-1.231v.128l-.3-.128c.083-.154.122-.036.0-.17l.3.043.1.085zm.1.51h.049c-.017.043-.033.085-.049.127zm-.05 1.485.1-.128h.05zm.05-1.74.1-.085h.15zm.146-24.863.05.043h.15C201.2 130.325 201.2 130.225 201.2 130.225zm.211-.826h-.016c.007-.015.01-.031.016-.047zm.011-.078.112-.034-.119.054zm.13 26.148.1.128c-.111.009-.037-.005-.1-.043l-.05-.085zm0 1.74.1-.085h.15zm.246-26.773v-.085l.149.128zm.3 26.6.249.085-.4.043zm0 .594.1-.085.2.043zm.249-.127.149-.212.05.042.15.043zm.412-27.755c.012-.015.027-.033.047-.055l.01.005.01.03zM204 125l-.109.031.106-.068zm-.028.081-.035.013-.065-.019zm-.713-.21-.384-.4c.184.026.444-.333.86-.363.0-.089.009-.141.007-.178l.064.057-.071.158c.1.17.115.139.235.14.0.061.0.122.0.185l-.029-.024-.149.043-.1.085.278-.034c0 .036.0.071.0.107a.278.278.0 0 0-.03.011l.03.01c0 .078.013.159.018.237h-.151v.163A5.363 5.363.0 0 1 203.256 124.872zm-.016 1.363v-.042l.547-.128.249.128zm-.2 29.66.05-.127h.1l.05.127zm.371-26.06-.035-.064.068.061zm.026-1.021-.185-.037v-.111l.247-.074c.02.074.041.148.061.223zm.4 26.148v-.085C203.933 154.908 203.877 154.882 203.841 154.961zm.1 2.419c.173.041.115-.039.15.085zm3.832-55.353c-.24-.05-.21-.019-.249-.128zm.041 2.961-.123.037-.308-.148zm-.061-2.152-.185.074-.123-.074zm-.173.343.035.092-.05-.008c-.042-.042-.021-.053-.192-.037l-.048-.01zm-.3-.515v.127c-.323-.01-.268-.083-.3-.212h.249zm-1.494-.467 1.2.043a3.8 3.8.0 0 1-1.544.254h-.05c-.016-.071-.033-.141-.049-.212zm.05 3.623c.169-.159.18-.129.2-.339l-.4.042.4-.17.2.3zm.106 4.7c-.036.0-.068.0-.106.0l-.1-.128.008-.013zm-.279-.491c0 .019-.009.033-.013.048-.077-.042-.088-.065-.213.016a.2.2.0 0 1 .011-.058l.03-.043zm-.176-4.547.15.127-.4-.085zm-.288 4.257v.014h-.063A.225.225.0 0 1 205.194 109.738zm-.211 1.839.349.3-.249-.085-.15-.043C205.063 111.612 204.99 111.752 204.983 111.577zm-.448-1.91.149.043-.1.17-.1-.17zm-.05 1.146v.085l-.049-.127zm0 .17-.149.127.05-.127zm-.149-.722-.1-.043-.049-.085zm-.4-.339v.042l-.2.085-.05-.17zm-.05.424c-.192.02-.171.09-.2-.043zm-.4-.537c-.127-.079-.012.0-.05-.127l.149.043zm.1.17-.149-.043.05-.085zm-.147-1.9c0 .006-.006.012-.008.017-.054.013-.011.0-.044-.044l-.05-.042zm-.2 1.459v.085l-.1-.127zm-.548-.254.2.17-.05.17h-.2zm-.5.0.349.042c-.017.094-.056.054.049.085l-.049.127zm.349 1.4.049-.127.15.042zm-.05.424h.05l-.15.085zm.149.212c-.04.07.051.069-.149.127zm-.249.637-.05-.17c.226.076.081.1.05.255h-.05C202.363 111.95 202.311 112.023 202.393 111.959zm-.05.17.15-.127.1.085-.149.128zm.249 1.019.15.042C202.587 113.212 202.624 113.172 202.592 113.148zm.2 1.994v.085l-.1-.128zm-.3-2.419.05-.128h.049zm.149-.382h-.149l.149-.085zm-.149 1.783v.127h-.2zm-.1-1.74c-.031.045.048.062-.149.128zm.05.17-.05.128v-.128zm-.3.185.1.043-.05.042h-.1zm-.049.324v.085l-.1-.128zm-.1.806-.149-.043h-.15l.05-.127zm-.4.806.1-.085h.249zm.5.467-.249.128.1-.128zm-.449-1.485v-.127h.05zm-.049-.382.1.043-.2.085zm0 .679c-.111.009-.037-.005-.1-.043zm-.15.17.05.17-.1.043h-.15zm.05.482-.2-.212h.149zm0 .239-.348-.212A.781.781.0 0 1 201.5 114.845zm-.249-.042-.1.17-.3-.085.1-.085zm-.3-.17-.5.17-.1-.212zm-.9-.51.05.085c.108.057.088.092.149.3l-.448-.212zm.15.552-.1.085.05-.085zm-.249.043-.05.127-.05-.127zm-.448-.509h.2l-.4.085zm-.1.849.2-.043h.05C199.467 115.133 199.608 115.089 199.405 115.058zm.1.212v-.085C199.573 115.247 199.559 115.2 199.505 115.27zm0-.722.1-.212.1.255C199.567 114.559 199.693 114.478 199.505 114.548zm.1.212c-.221.133-.4.135-.448.0zm-.5-.467v.17h-.2zm-.5.34.3-.085h.249zm.2.466.547.085.137.21h.013l-.006.007.106.163h-.249l.143-.163-.006-.009A1.168 1.168.0 0 1 198.808 115.1zm.647 1.019h-.149c.108-.122-.075-.092.1-.128l.05-.085.2.127C199.433 116.051 199.534 115.957 199.455 116.119zm.2-.552.1-.043.249.128zm.348.594.1-.085.05.043zm-.1-.806.287-.03-.038-.1h.05l.1.085-.111.012.012.03zm.6.637c-.364-.07-.266.008-.3-.212h.249c-.111.164-.023.07.2.085zm0-.509.1.042v.085zm.042-.092c-.173.107-.088.056-.042.219l-.049.127-.249-.085c.1-.142-.066-.068.149-.17.0-.151-.046-.026.1-.17l.091.078.058-.036.05.128zm-.042-.205.1-.127C200.773 115.1 200.586 115.145 200.5 115.185zm.249.355.05-.085.149.085zm.05-.143.1-.085h.149v.128l-.1-.043zm.2.143.11.07-.06-.128.149.085-.031.08.231.147C201.08 115.771 201.022 115.73 201 115.54zm.448-.1h.05l.1.085-.2.043zm.2.567h-.1l.05-.127.2.043h-.15zm.3.085c-.146-.009-.374.044-.249-.085l.249.043zm-.249-.4.1-.128.05.085.1.043zm.4.736v0 0zm-.1-2.137.05-.085h.05l.049.042zm.249-.212-.2-.043.149-.17h.05zm-.05-.891c.134.038.16-.024.1.085l.149.043-.2.042zm.1 3.778.049-.085-.049-.043.149.085zm.249.467-.05-.128.149-.043.1.085.149.085zm.2-4.542h-.05l.1-.3.049.085c.1.127.032.023-.1.127l.149.043zm.2-.722-.4.043.249-.17.149.042zm-.149-.212-.1.043.05-.128.2.085zm.2 2.334.1-.085.05.042zm0-1.061.05-.085.149.085zm.3-.552-.049.043-.15-.212.2.042zm-.149-1.061v-.128h.05zm0-1.485.009-.006-.108-.037.1-.085.149.043-.14.079.14.048zm.05-.027h.3v.043zm.351 11.409-.139-.187.21.038c.009.015.03.029.119.022h.026zm.4-.085-.05.17h-.149l-.05-.043.172-.146.077.014zm-.3-8.368.05-.3.149.043a1.237 1.237.0 0 1 .249.085zm.8 8.726a.348.348.0 0 1-.048-.061l.073.027A.306.306.0 0 0 204.436 121.789zm0-9.448.2.085C204.464 112.423 204.573 112.453 204.436 112.341zm1.843-.17c-.786.443-2.789-.212-2.789-.212-.156-.017-.057.007-.05-.127h.05c.545.408 2.406-.212 2.888.254h.15l-.448.085zm.364-1.79-.027.011-.027-.083.054.015zm.283-4.688-.249-.17.349-.085.5.043zm.8-.17.049-.085h.1zm.149-.17-.149.043-1.3-.043-.05-.085 1.2-.043h.2l.1.085zm1.357-3.453v.075l-.011.007h-.034zm-.061.409-.018-.043.112-.014zm.119 1.645h0 .007zm.04-1.9h.025v.068h-.061zm0 .187h.011l.079.029zm1.383-2.645.37.074-.246.074-.123-.074zm.323 60.55a4.852 4.852.0 0 0-.268-.936l.454.051c.1.155.2.317.287.481C211.344 159.748 211.186 159.865 211.03 160.15zm529.319-59.555h-.038v-.082l.137.034zm13.567 52.748v0 0z" transform="translate(-186.837 -98.402)"/></svg>