<svg xmlns="http://www.w3.org/2000/svg" width="530.793" height="63.237" viewBox="0 0 530.793 63.237"><defs><style>.a{fill:#003687}.b{fill:#fff}</style></defs><g transform="translate(-927.077 -2879)"><g transform="translate(927.077 2879)"><g transform="translate(0 0)"><path class="a" d="M662.945 310.49c.5-.028 1.074-.05 1.062-.06a1.142 1.142.0 0 0-.467-.155 8.518 8.518.0 0 0-.866.046C662.638 310.375 662.834 310.43 662.945 310.49z" transform="translate(-387.979 -308.833)"/><path class="a" d="M662.4 311.045l-.193-.093h-.383l-.193.062.576.064z" transform="translate(-389 -308.165)"/><path class="a" d="M669.292 311.843c-.157.0-.244.0-.32.0a10.414 10.414.0 0 0-2.15.056l-.77-.125q-.864.015-1.729.032l.022.01c-.272.022-.389.028-.47.036l-.7-.171-.151.121a2.473 2.473.0 0 1-.492.016l-.318-.012.576-.063-1.922-.032.058.066a20.576 20.576.0 0 1-3.017-.024l-.171.123h3.23.048l.046.052q1.635.015 3.268.032l-.193-.048.232-.008v-.083l.153.075.193.189.193.03c.885-.042 2.513-.151 4.044-.155h.006.032a13.719 13.719.0 0 1 2.644.187l-.961.064h.385l.193.093.961-.093-.385.093 2.735.018-.236.075.383-.03v-.046l2.114.014-.576-.032c-.328-.193-.163-.077-.768-.157-.6.03-2.674-.115-4.657-.22l.345-.083-.707.064c-.236-.012-.466-.024-.695-.034l.042-.03-.242.022-.187-.008z" transform="translate(-392.843 -307.45)"/><path class="a" d="M656.186 310.936c-.316.135-.1.093.538.153z" transform="translate(-394.508 -308.181)"/><path class="a" d="M646.041 310.777l3.652.062a19.915 19.915.0 0 0-3.268-.282 6.951 6.951.0 0 1-.961.063z" transform="translate(-404.928 -308.554)"/><path class="a" d="M660.76 311.362l.576-.032-.961.032z" transform="translate(-390.24 -307.793)"/><path class="a" d="M662.215 311.536l.768.093 2.114.093v-.061l-2.114-.157z" transform="translate(-388.427 -307.621)"/><path class="a" d="M649.725 310.557v.127l.193-.032z" transform="translate(-400.731 -308.554)"/><path class="a" d="M656.426 311.017h-.04l.23.066z" transform="translate(-394.17 -308.105)"/><path class="a" d="M651.271 311.078h-.578C651.221 311.116 650.874 311.148 651.271 311.078z" transform="translate(-399.778 -308.041)"/><path class="a" d="M648.268 310.652l-.576.032.576.032z" transform="translate(-402.734 -308.46)"/><path class="a" d="M651.366 310.856a.29.29.0 0 1 .193-.1 14.664 14.664.0 0 0 3.653.189l-.193-.062v-.032l-.961-.189a12.014 12.014.0 0 0-2.882.125l-.385-.157.193.282z" transform="translate(-399.682 -308.476)"/><path class="a" d="M654.264 311.17l.622-.183-.046.026.385.032h2.5c-.665-.195.016.0.193-.22l.709.1.06.028v-.02l.383.052.193-.25a5.847 5.847.0 0 0-1.922.157l.193-.125-.59.008.012-.008-.046.008-1.683.024-.149.083-1.388-.083-.963.282Q653.5 311.121 654.264 311.17z" transform="translate(-397.775 -308.383)"/><path class="a" d="M660.763 311.378l1.344.064-.576-.1z" transform="translate(-389.858 -307.777)"/><path class="a" d="M662.406 311.378l-.385.032.578.093z" transform="translate(-388.619 -307.745)"/><path class="a" d="M667.7 311.642q-7.974-.268-15.952-.532l-.961.061.193.093h.193c1.489-.012 7.15.236 11.45.363-.24.01-.476.024-.713.036a2.713 2.713.0 0 0 .338.05c.32-.01.619-.032.9-.048l-.167-.028A41.7 41.7.0 0 0 667.7 311.642z" transform="translate(-399.682 -308.009)"/><path class="a" d="M657.558 311.7l-.681.062.85.061z" transform="translate(-393.686 -307.429)"/><path class="a" d="M657.132 311.745l-.169.123.169-.03z" transform="translate(-393.601 -307.384)"/><path class="a" d="M663.086 312.087l.385.032.385-.093-.77.03z" transform="translate(-387.569 -307.108)"/><path class="a" d="M663.013 312.118l-.193-.093C662.8 312.124 662.642 312.039 663.013 312.118z" transform="translate(-387.879 -307.108)"/><path class="a" d="M656.449 311.853l.85.03-.171-.061v-.091z" transform="translate(-394.108 -307.399)"/><path class="a" d="M660.849 311.456l-.578-.061H659.5l-.193.093.578-.032z" transform="translate(-391.289 -307.73)"/><path class="a" d="M658.342 311.268l.768.03-.191-.062z" transform="translate(-392.243 -307.885)"/><path class="a" d="M660.857 311.441h-.385c.087.061-.014.187.385.093l2.882.1-.193-.064z" transform="translate(-390.145 -307.683)"/><path class="a" d="M656.486 311.11l-2.307.093 8.071.157z" transform="translate(-396.344 -308.009)"/><path class="a" d="M652.627 310.952l-.385-.1C652.419 310.928 652.034 310.893 652.627 310.952z" transform="translate(-398.252 -308.259)"/><path class="a" d="M653.4 311.094l1.538.062-.385-.062z" transform="translate(-397.107 -308.025)"/><path class="a" d="M670.146 311.389c-4.091-.246-6.656-.252-8.456-.375l-1.153.061-.576-.157-.192.157-.385-.218v.157h-1.922l.576-.157c.238.05.2.054.385.0.216-.05.2.006.193-.063l-2.5.032a11.063 11.063.0 0 0 2.114.468C660.3 310.947 667.575 311.56 670.146 311.389z" transform="translate(-394.437 -308.321)"/><path class="a" d="M719.209 315.65l-.171.062C719.254 315.767 719.209 315.65 719.209 315.65z" transform="translate(-332.452 -303.537)"/><path class="a" d="M721.6 315.062a7.758 7.758.0 0 0 1.36.0l-.51-.123v-.091l-1.36.183z" transform="translate(-330.427 -304.327)"/><path class="a" d="M718.18 315.774l-.169.062C718.1 315.812 718.2 315.842 718.18 315.774z" transform="translate(-333.463 -303.415)"/><path class="a" d="M716.387 315.8h0z" transform="translate(-335.069 -303.385)"/><path class="a" d="M649.976 311.745l-.067.01.407.052z" transform="translate(-400.551 -307.384)"/><path class="a" d="M721.606 314.508l.339-.03-.51-.032v.214z" transform="translate(-330.09 -304.723)"/><path class="a" d="M644.687 310.589l-.578-.1C644.236 310.558 643.893 310.56 644.687 310.589z" transform="translate(-406.264 -308.616)"/><path class="a" d="M743.611 323.738l.129.117.042.006z" transform="translate(-308.245 -295.57)"/><path class="a" d="M737.792 324.74h-.113l.036.028A.381.381.0 0 0 737.792 324.74z" transform="translate(-314.089 -294.583)"/><path class="a" d="M737.829 324.819l-.077-.064C737.62 324.795 737.567 324.753 737.829 324.819z" transform="translate(-314.125 -294.568)"/><path class="a" d="M710.8 339.548h.355l-.161-.045z" transform="translate(-340.566 -280.038)"/><path class="a" d="M739.286 323.273l.19.093h.324c-.044-.01-.079-.022-.131-.032z" transform="translate(-312.506 -296.028)"/><path class="a" d="M739.545 323.32a1.3 1.3.0 0 1 .161.046l.093-.046z" transform="translate(-312.251 -295.981)"/><path class="a" d="M740.932 320.591l.768.032v-.064z" transform="translate(-310.884 -298.701)"/><path class="a" d="M532.047 310.1l1.153-.157-.383-.032-1.539-.063z" transform="translate(-517.411 -309.25)"/><path class="a" d="M532.148 309.836h-.385C532.045 309.878 531.825 309.87 532.148 309.836z" transform="translate(-516.935 -309.264)"/><path class="a" d="M530.889 309.913l.385.063.961-.125-.578-.064-.383.064c-.556.085.0.006-.77.0l.385.032z" transform="translate(-518.175 -309.312)"/><path class="a" d="M567.261 309.611l-1.538.062-.383.032 1.153.157z" transform="translate(-483.859 -309.486)"/><path class="a" d="M567.556 309.673v-.032l.383-.032c-.766.008-.214.087-.768.0l-.383-.062-.578.062.961.125z" transform="translate(-483.001 -309.548)"/><path class="a" d="M566.014 309.6h-.385C565.953 309.629 565.732 309.639 566.014 309.6z" transform="translate(-483.573 -309.502)"/><path class="a" d="M706.615 339.23l.377.159c.685-.028 1.368-.057 2.053-.087l-.157-.1z" transform="translate(-344.689 -280.34)"/><path class="a" d="M576.322 338.765l.51.123a4.1 4.1.0 0 0 1.36-.214 7.079 7.079.0 0 0 2.039.153l-.339-.153A17.565 17.565.0 0 0 576.322 338.765z" transform="translate(-473.04 -280.908)"/><path class="a" d="M679.018 339.624a3.027 3.027.0 0 0 .339.04c.282-.006.548-.024.82-.036a2.32 2.32.0 0 0-.312-.044C679.578 339.592 679.306 339.608 679.018 339.624z" transform="translate(-371.875 -279.96)"/><path class="a" d="M706.834 339.765a1.991 1.991.0 0 0 .3.044 2.932 2.932.0 0 0 .357-.036 2.017 2.017.0 0 0-.3-.042A3.375 3.375.0 0 0 706.834 339.765z" transform="translate(-344.474 -279.815)"/><path class="a" d="M570.243 338.716c1.636-.042.866-.054 1.87-.03C572.5 338.46 570.958 338.537 570.243 338.716z" transform="translate(-479.028 -280.982)"/><path class="a" d="M573.754 338.787q.592-.015 1.189-.032v-.03h-1.189z" transform="translate(-475.569 -280.806)"/><path class="a" d="M536.864 340.357l.235-.041-.35-.008z" transform="translate(-512.023 -279.246)"/><path class="a" d="M724.085 313.428h-.171l-.681.276z" transform="translate(-328.319 -305.726)"/><path class="a" d="M684.986 310.979l-.867-.058-.33.054c.276.018.542.04.834.052A3.041 3.041.0 0 0 684.986 310.979z" transform="translate(-367.175 -308.195)"/><path class="a" d="M683.506 311.867l-1.346.125.578.032z" transform="translate(-368.78 -307.264)"/><path class="a" d="M681.387 312.1l.193-.03v-.22c-1 .1-.419.171-.385.189z" transform="translate(-369.928 -307.279)"/><path class="a" d="M682.539 311.96v-.093l-1.153.189.961.03C682.333 311.956 682.039 312.01 682.539 311.96z" transform="translate(-369.542 -307.264)"/><path class="a" d="M704.8 311.711c.753-.014 1.5-.038 2.241-.058l-.2-.155c-.76.032-1.524.062-2.263.1C704.541 311.6 704.765 311.711 704.8 311.711z" transform="translate(-346.698 -307.626)"/><path class="a" d="M685.443 312.229a9.794 9.794.0 0 0-1.153.03l.193.1q1.25.045 2.5.093l-.193-.218.193.062.385-.062.19.155.193-.25h-1.922c.393-.081.129-.032-.576-.157-.641.077-.222-.008-.578.125h.578z" transform="translate(-366.682 -307.155)"/><path class="a" d="M697.86 311.671l.312-.119-.983-.042c-.065.032-.258.077-.167.091C697.226 311.631 697.572 311.647 697.86 311.671z" transform="translate(-354.163 -307.615)"/><path class="a" d="M680.212 311.9v-.125a7.932 7.932.0 0 1-1.153-.093l-.578.155A13.574 13.574.0 0 1 680.212 311.9z" transform="translate(-372.404 -307.45)"/><path class="a" d="M664.532 311.724l.193-.125-.383-.032-.578.032.578.125z" transform="translate(-386.902 -307.559)"/><path class="a" d="M680.513 312.2l-.385-.093C680.187 312.138 679.947 312.132 680.513 312.2z" transform="translate(-370.783 -307.03)"/><path class="a" d="M676.835 311.833a14.314 14.314.0 0 0 2.114-.093h-.385v-.062A5.868 5.868.0 0 0 676.835 311.833z" transform="translate(-374.026 -307.45)"/><path class="a" d="M675.851 311.645v.064l-.385.062-1.536-.157.191.1-.383.093c1.114.054 3.7.042 4.8.218l.578-.187-.193.157c.87-.105.917-.091.961-.252-.733.006-1.777-.119-1.153.032l-1.922-.25c-.27.0-.04.006-.193-.032l-.383.157-1.924-.093.385.032z" transform="translate(-377.077 -307.637)"/><path class="a" d="M677.61 312.041q1.921.092 3.843.189-1.536-.128-3.075-.252l-.768.032z" transform="translate(-373.262 -307.155)"/><path class="a" d="M715.344 312.357a1.874 1.874.0 0 0-.3-.044 3.565 3.565.0 0 0-.363.034l.294.048z" transform="translate(-336.742 -306.824)"/><path class="a" d="M723.23 313.026l-.51.032.679.123z" transform="translate(-328.825 -306.122)"/><path class="a" d="M748.138 319.254l-.083-.161-2.984.034.085.151z" transform="translate(-306.807 -300.145)"/><path class="a" d="M744.594 319.852l4.51.058A11.5 11.5.0 0 0 744.594 319.852z" transform="translate(-307.277 -299.585)"/><path class="a" d="M745.942 318.865l-4.454-.03A11.271 11.271.0 0 0 745.942 318.865z" transform="translate(-310.338 -300.4)"/><path class="a" d="M749.354 329.543a14.808 14.808.0 0 0 2.1-.536 1.766 1.766.0 0 0-1.876-.848c-.7.077-1.671.4-1.816.709C747.537 329.323 748.377 329.663 749.354 329.543z" transform="translate(-304.195 -291.229)"/><path class="a" d="M739.514 319.2l-.546-.071-.679.061a2.2 2.2.0 0 0 .324.048C738.92 319.234 739.214 319.216 739.514 319.2z" transform="translate(-313.488 -300.108)"/><path class="a" d="M748.549 326.5l-.026.033.281-.013z" transform="translate(-303.406 -292.851)"/><path class="a" d="M721.816 311.814l-.33.017.3.025z" transform="translate(-330.041 -307.315)"/><path class="a" d="M725.973 318.12l-.171.061C726.028 318.235 725.965 318.13 725.973 318.12z" transform="translate(-325.789 -301.104)"/><path class="a" d="M753.649 336.639c-1.054-.069-1.679.246-1.1.736.4.337.02 1.288 1.757.852a11.8 11.8.0 0 0 2.213-1C755.754 336.462 754.577 336.7 753.649 336.639z" transform="translate(-299.659 -282.871)"/><path class="a" d="M674.979 311.457l-.77.093c-.605-.008-.1.0-.191-.093a5.43 5.43.0 0 1-.963.03l-.383.127.768.062C674.864 311.638 674.49 311.671 674.979 311.457z" transform="translate(-378.126 -307.667)"/><path class="a" d="M735.315 319.417l-.156-.05-.228.045z" transform="translate(-316.796 -299.875)"/><path class="a" d="M737.4 318.933c-.5-.052-.959-.121-1.531-.147a5.005 5.005.0 0 0-.991.117c.214.065.709.117 1.2.191z" transform="translate(-316.848 -300.448)"/><path class="a" d="M729.289 318.928a2.94 2.94.0 0 0-.425-.133c-.419.01-.814.036-1.217.056a1.13 1.13.0 0 0 .359.109C728.415 318.964 728.838 318.94 729.289 318.928z" transform="translate(-323.971 -300.439)"/><path class="a" d="M676.4 312.038l1.7.03.171-.062-.341-.03-1.529-.062z" transform="translate(-374.455 -307.216)"/><path class="a" d="M669.523 311.345c-.169-.056-.133.0.0-.064l-.961-.03c-.411.147-.395.016.0.187C669.533 311.395 669.021 311.451 669.523 311.345z" transform="translate(-382.473 -307.869)"/><path class="a" d="M667.688 310.492l-.369-.129-2.654.107.359.159z" transform="translate(-386.014 -308.745)"/><path class="a" d="M665.5 311.453l6.342.032c-.04-.141-.207-.024.385-.125l-1.538-.1v.157h-.193a14.226 14.226.0 0 0-3.843-.062l-.193-.032-.193-.032.193-.187-2.307.061C665.217 311.2 665.594 311.231 665.5 311.453z" transform="translate(-386.52 -308.009)"/><path class="a" d="M668.4 311.646l-.193-.1-.961.064.961.061z" transform="translate(-383.468 -307.575)"/><path class="a" d="M667.534 311.709l-.768.032.576.032z" transform="translate(-383.944 -307.419)"/><path class="a" d="M668.522 311.908l.339-.032.169-.03C668.441 311.817 668.891 311.821 668.522 311.908z" transform="translate(-382.215 -307.301)"/><path class="a" d="M667.25 311.773l3.651.093-3.268-.157z" transform="translate(-383.468 -307.419)"/><path class="a" d="M664.827 311.741l-.385.03C664.784 311.777 665.155 311.785 664.827 311.741z" transform="translate(-386.234 -307.388)"/><path class="a" d="M667.062 311.867l-.171-.091-.51.032z" transform="translate(-384.324 -307.353)"/><path class="a" d="M664.922 311.472l-.383.032 1.344.032z" transform="translate(-386.138 -307.653)"/><path class="a" d="M664.732 311.6s.03.075.77.03z" transform="translate(-385.948 -307.528)"/><path class="a" d="M679.394 312.116V312.1l.242.028c-.26.026.091.05.335.081l-.111-.054.441.054v-.032l-.484-.044-.038-.018a.815.815.0 0 0-.085.008l-.3-.028v-.012l-.288-.016-.163-.044-.111.03c-2.176-.119-3.95-.171-5.973-.314-.933.036-.473.042-.768.093C673.917 311.86 676.806 312.251 679.394 312.116z" transform="translate(-378.699 -307.388)"/><path class="a" d="M666.292 311.838c.145.016.149.03.169.0l.171-.062-.85.062C666.211 311.887 665.808 311.865 666.292 311.838z" transform="translate(-384.914 -307.353)"/><path class="a" d="M664.669 311.761v.091l.51-.062z" transform="translate(-386.01 -307.368)"/><path class="a" d="M672.812 311.853l-.5.061-.9.028.193.032c2.007.121 3.327.193 5.382.189l-4.006-.218z" transform="translate(-379.367 -307.277)"/><path class="a" d="M671.413 311.741l.768.093.193-.032.193-.03-.768-.063z" transform="translate(-379.367 -307.419)"/><path class="a" d="M672 311.489l-.385-.064-.193.064c.046.05-.215.024.385.125z" transform="translate(-379.376 -307.699)"/><path class="a" d="M675.183 312.086v-.03l-.768-.064.576.125z" transform="translate(-376.41 -307.139)"/><path class="a" d="M671.6 311.93l-.578-.032-.193-.064C671.17 311.946 670.639 311.93 671.6 311.93z" transform="translate(-379.939 -307.295)"/><path class="a" d="M673.056 311.9l.51-.032-.51-.03c-.435.085-.323-.022-.51.153C673.2 311.937 672.725 312.015 673.056 311.9z" transform="translate(-378.25 -307.292)"/><path class="a" d="M669.668 311.788l-.19.064.576.03z" transform="translate(-381.274 -307.341)"/><path class="a" d="M669.459 311.807l-.681.091.681.032z" transform="translate(-381.962 -307.323)"/><path class="a" d="M670.472 311.457c-.115-.008-.26-.026-.343-.022-.143.008-.248.028-.369.042l.709.024A.164.164.0 0 1 670.472 311.457z" transform="translate(-380.996 -307.689)"/><path class="a" d="M669.632 311.822l-.169-.03-.171.06.339.032z" transform="translate(-381.456 -307.337)"/><path class="a" d="M671.019 311.489l.193-.064-.961.093.961.064z" transform="translate(-380.511 -307.699)"/><path class="a" d="M670.732 311.866l-.578-.061.385.093z" transform="translate(-380.607 -307.326)"/><path class="a" d="M670.636 311.33l-.385.1C670.793 311.354 670.7 311.443 670.636 311.33z" transform="translate(-380.511 -307.793)"/><path class="a" d="M693.291 334.094l.193-.093-.576.03z" transform="translate(-358.192 -285.46)"/><path class="a" d="M725.2 328.415l-.171.06C725.277 328.528 725.229 328.469 725.2 328.415z" transform="translate(-326.548 -290.962)"/><path class="a" d="M731.019 328.044l-.171-.185h-.679l.169.091-.169.032z" transform="translate(-321.487 -291.51)"/><path class="a" d="M730.764 328.279c-.611.0-.23-.038-.51.062h.681z" transform="translate(-321.403 -291.102)"/><path class="a" d="M729.478 327.905l-.169-.062-.51.183 2.209.061-.339-.244.169-.061z" transform="translate(-322.836 -291.586)"/><path class="a" d="M730.244 328.089v-.062c-.816-.064-.429.071-.85-.091l-.681.153h1.531z" transform="translate(-322.921 -291.434)"/><path class="a" d="M728.536 328.661v-.216l-.679.185z" transform="translate(-323.764 -290.933)"/><path class="a" d="M729.388 328.26l.34.06-.34-.183-.51.183a1.428 1.428.0 0 0-1.02-.03l1.531.091z" transform="translate(-323.764 -291.236)"/><path class="a" d="M729.226 328.152l-.342.123.342.03z" transform="translate(-322.753 -291.221)"/><path class="a" d="M730.853 328.106l-.171.062C730.9 328.223 730.853 328.106 730.853 328.106z" transform="translate(-320.981 -291.267)"/><path class="a" d="M731.533 328.229l-.679.123.51.032z" transform="translate(-320.812 -291.146)"/><path class="a" d="M731.8 328.151l.852.032-.171-.091z" transform="translate(-319.885 -291.282)"/><path class="a" d="M729.993 328.291l.171.093.339-.123-1.191-.032A3.257 3.257.0 0 0 729.993 328.291z" transform="translate(-322.331 -291.146)"/><path class="a" d="M733.641 330.8c1.336-.131 2.97.143 3.78-.7a15.994 15.994.0 0 0-8.121-.421C730.092 330.981 732.135 330.6 733.641 330.8z" transform="translate(-322.343 -290.04)"/><path class="a" d="M729.655 328.058l.679.032-.679-.123z" transform="translate(-321.993 -291.404)"/><path class="a" d="M729.912 328.384h.679l-.51-.155z" transform="translate(-321.74 -291.146)"/><path class="a" d="M746.861 323.615l.339-.062-.85.121C746.957 323.656 746.589 323.712 746.861 323.615z" transform="translate(-305.546 -295.752)"/><path class="a" d="M741.039 324.324l.169-.123-.679.091z" transform="translate(-311.281 -295.113)"/><path class="a" d="M742.049 324.8a3 3 0 0 0-.341.038 4.379 4.379.0 0 0 .534.06c.23.0.441-.036.659-.058C742.617 324.83 742.341 324.812 742.049 324.8z" transform="translate(-310.12 -294.52)"/><path class="a" d="M745.834 323.723l-.51.091.34.03z" transform="translate(-306.558 -295.584)"/><path class="a" d="M739.844 324.386c.572-.04.121.026.51-.062z" transform="translate(-311.956 -294.992)"/><path class="a" d="M743.817 325.381a5.278 5.278.0 0 0-1.074-.115 8.082 8.082.0 0 0-1.014.121l1.578.145C743.506 325.477 743.925 325.415 743.817 325.381z" transform="translate(-310.099 -294.064)"/><path class="a" d="M734.193 328.2v.121l1.189-.03z" transform="translate(-317.523 -291.175)"/><path class="a" d="M733.679 328.568l.339-.091-.339-.032-.171.093z" transform="translate(-318.197 -290.933)"/><path class="a" d="M736.768 325.734l.578-.032-.193-.063z" transform="translate(-314.986 -293.697)"/><path class="a" d="M735.8 328.32l-.171-.121h-2.378l-.681.244.339.153a8.851 8.851.0 0 1 2.551.032l-.171-.308.171.123z" transform="translate(-319.126 -291.175)"/><path class="a" d="M739.758 324.648c.564-.075.2.01.51-.123l-.51.032z" transform="translate(-312.041 -294.794)"/><path class="a" d="M739.239 324.416l-.339-.153-.339.153.339.091v.032z" transform="translate(-313.221 -295.052)"/><path class="a" d="M739.755 324.4l.171.091v-.214h-.171l-.339.123z" transform="translate(-312.378 -295.038)"/><path class="a" d="M741.128 324.247l1.02-.123h-.339z" transform="translate(-310.691 -295.189)"/><path class="a" d="M727.6 328.044l-.51.062C727.7 328.115 727.215 328.131 727.6 328.044z" transform="translate(-324.524 -291.328)"/><path class="a" d="M727.083 328.183l-.339.153.679.032.171-.123h-.339z" transform="translate(-324.861 -291.191)"/><path class="a" d="M728.106 328.556l.171.093c.6-.194-.824-.206-1.191-.185A4.492 4.492.0 0 0 728.106 328.556z" transform="translate(-324.524 -290.921)"/><path class="a" d="M727.341 328.492l-.339.123.51.03z" transform="translate(-324.608 -290.886)"/><path class="a" d="M727.258 328.229l.51.061-.171-.091z" transform="translate(-324.354 -291.175)"/><path class="a" d="M727.171 327.75l-.171-.123-.171.061z" transform="translate(-324.777 -291.739)"/><path class="a" d="M730.587 327.534v-.03l-1.189.091.51.032.171.062C730.371 327.577 729.831 327.591 730.587 327.534z" transform="translate(-322.246 -291.86)"/><path class="a" d="M728.526 329.1a3.382 3.382.0 0 0-.528-.079c-.288.0-.6.026-.9.042l.5.087z" transform="translate(-324.513 -290.366)"/><path class="a" d="M726.141 328.322h-.171l-.339.153.85.062z" transform="translate(-325.957 -291.054)"/><path class="a" d="M725.973 328.538l.005.006h0z" transform="translate(-325.62 -290.841)"/><path class="a" d="M726.478 328.523l-.5.036.331.179C726.909 328.616 726.544 328.723 726.478 328.523z" transform="translate(-325.615 -290.856)"/><path class="a" d="M726.312 328.72l-.165-.179-.345.026z" transform="translate(-325.789 -290.838)"/><path class="a" d="M727.081 328.152l-.339-.123-.169.123z" transform="translate(-325.029 -291.343)"/><path class="a" d="M735.391 327.658l-.171.062.51.062z" transform="translate(-316.511 -291.708)"/><path class="a" d="M736.076 328.568c-.447-.014-.861-.036-1.274-.034-.117.0-.373.085-.324.091.349.034.762.056 1.153.081z" transform="translate(-317.248 -290.845)"/><path class="a" d="M733.08 328.463v.062l.679.03C733.556 328.411 733.568 328.477 733.08 328.463z" transform="translate(-318.619 -290.919)"/><path class="a" d="M732.309 326.671c.323.018.089.04.341.0l.508.03A1.262 1.262.0 0 0 732.309 326.671z" transform="translate(-319.379 -292.742)"/><path class="a" d="M732.815 326.609l-1.191.123 1.02.121c.292-.125-.346-.063.339-.121z" transform="translate(-320.053 -292.741)"/><path class="a" d="M734.193 327.194l.339.062.51-.121z" transform="translate(-317.523 -292.224)"/><path class="a" d="M732.909 328.121l.508.061A1.4 1.4.0 0 0 732.909 328.121z" transform="translate(-318.788 -291.252)"/><path class="a" d="M731.2 327.473l.339-.093-.169-.091z" transform="translate(-320.475 -292.073)"/><path class="a" d="M730.511 327.35l-.171.062h.51l.169-.123C730.429 327.318 730.628 327.26 730.511 327.35z" transform="translate(-321.318 -292.073)"/><path class="a" d="M731.955 327.809l-.51-.306v.091c-.534-.121-.167-.012-.169-.153l-.85.123 1.36.185z" transform="translate(-321.233 -291.921)"/><path class="a" d="M730.939 327.411l.341.061-.171-.185z" transform="translate(-320.728 -292.073)"/><path class="a" d="M731.282 327.574l.339.091C731.612 327.64 731.79 327.513 731.282 327.574z" transform="translate(-320.39 -291.807)"/><path class="a" d="M730.423 327.41l-.169-.153-.171.123z" transform="translate(-321.571 -292.103)"/><path class="a" d="M731.622 327.458l-.339.03C731.661 327.49 731.358 327.492 731.622 327.458z" transform="translate(-320.39 -291.905)"/><path class="a" d="M732.9 328.336v-.091c-.866.072-.693.0-1.02.153l1.02.123z" transform="translate(-319.8 -291.13)"/><path class="a" d="M687.773 312.228l.191.125v-.218l-.768.125z" transform="translate(-363.82 -307)"/><path class="a" d="M722.16 316.155c.113.012.3.008.461.01l-.091-.077-.435.016C722.112 316.121 722.082 316.149 722.16 316.155z" transform="translate(-329.441 -303.107)"/><path class="a" d="M722.375 314.878l-.339.062.679.062z" transform="translate(-329.499 -304.298)"/><path class="a" d="M722.891 314.261a3.742 3.742.0 0 1 .85.03v-.03c-.348-.113.081-.061-.85-.093z" transform="translate(-328.656 -304.997)"/><path class="a" d="M725.288 328.536h.51l-.169-.121z" transform="translate(-326.295 -290.962)"/><path class="a" d="M1054.521 358.628c-1.922-.875-4.3-.85-6.68-.907-6.241-.147-12.472-.068-18.712.141a31.293 31.293.0 0 1-7.748.355 13.45 13.45.0 0 0-3.454.433 8.533 8.533.0 0 1-1.356.218 7.162 7.162.0 0 0-2.888-.069c-.685-.065-1.372-.143-2.057-.191v-.05l-.431.024c-.873-.038-1.747-.06-2.612-.044l-.032-.042.575-.125c2.565.117 3.166-.266 5.574-.564l-.768-.439c.6-.077 2.132-.258 1.344-.314-.121-.054-2.106-.308-1.729-.625 1.122-.949 3.482-1.1 2.859-1.445a8.273 8.273.0 0 1 1.608.141 9.2 9.2.0 0 0 1.711-.105c.74-.208 1.131-.5 1.12-.9l.085.028a3.944 3.944.0 0 0 1.358.064c1.614.407 3.792.286 4.772 1.286-.006.185.0.367.006.552q1.2.307 2.394.615h0c3.428 1.388 5.955-.387 8.915-.647a3.45 3.45.0 0 0 .959.359 46.078 46.078.0 0 0 7.414-.252c1.314 2.178 5.225-.04 7.526.469q-1.664-.977-3.335-1.953h0c-2.051-1.1-5.391-1.523-6.68-3.361 3.774.846 6.427-.423 9.62-.808-2.533-1.493-5.953-.177-8.534-.987l-2.549-.2c-1.92-.967-4.445-.33-6.614-.633-1.737-1-3.474-2.219-5.229-.006h0c-1.064.044-2.134.062-3.188.137-4.415.316-8.188.786-2.823 3.267.1.048-.31.375-.482.572h0l.4.228c-.208.052-.417.1-.627.149v0a3.98 3.98.0 0 0 .228-.379c-2.8.629-5.092-.893-7.845-.473-.02.107-.05.214-.075.322l-1.509-.022-.171.141 1.637.05-.01.05c-2.733.341-5.173.3-6.469-1.249l-1.316-.03c-.8 1.04.826 1.429 1.916 1.963l-.528.2-.576-.032c.169-.21.5-.141-.193-.282l-1.922-.375-.193.282-.193-.032-.193-.077v-.173l-1.153.093-.262-.071c-.111-.605-.314-1.169-2.285-1.044-.806.05-1.088.28-1.161.572-.091.008-.193.022-.288.034l.278.018a1.323 1.323.0 0 0 .028.48l-.923-.081.77-.189-1.731-.093-.383.282c-.059-.222.038-.264-.578-.314l-1.378-.117c.161-.133.32-.27.47-.419l-6.615-1.918a1.744 1.744.0 0 1-.71-.093 9.057 9.057.0 0 1 1.122-.208c-.848-.143-.792-.159-.768-.22-.208-.155.187-.109.768-.218-2.3-.155-2.4-.028-2.884-.375a3.314 3.314.0 0 1-1.151.093l.576-.093-.193-.032c-1.326.034-1.213.081-1.729-.064l1.153-.282c-1.117-.109-3.379-.193-3.845-.25a4.941 4.941.0 0 0 1.153-.093l-.768-.032-1.153-.157.961-.157 3.645.125-.147.087a16.082 16.082.0 0 0 5.169-.054l-3.647-.117a20.869 20.869.0 0 1 3.629-.26c-.121-.318-1.278-.5-1.729-.814.347-.03.671-.064 1.009-.1v.091l1.191.091-.341-.091-.846-.091c.484-.046.969-.089 1.431-.139l.1.016.1-.038.184-.02-.119.149c.818-.01.163-.03.681.093-.81.018-.838-.022-.85.214l1.189-.276.171.153-.51.091a8.641 8.641.0 0 0 1.36.061l-.339-.306 1.018-.123-.169-.306.169.091a8.1 8.1.0 0 1 1.531.03c1.028-.064.272.024.679-.153l.681.246c.145-.064-.21-.062.171-.062.22-.056.137.018.169.062l.85-.062.171-.246-1.02.032.51-.276-.679.123c-.185-.075-.085.026.169.091l-.169.062-.681.03-.5-.244c.121-.016.26-.032.377-.046l-.351-.1a34.753 34.753.0 0 1 3.529-.044c.459-.018.028-.008.681.062l.168-.153.342.153 1.018-.03-.51-.185.341.061-.51-.367c-.607.064-.7-.069-1.191.091l-.85-.185.171.185-1.02-.123-.679.214.163-.294.177.079c.516-.091.373-.135.244-.256h.081l.185.1h.679l.1-.062.754.032.169.06c.177-.016.28-.028.357-.038q3.937.158 7.871.32l-.193-.093-5.209-.308h.064l-.264-.01-.552-.034c.349-.1.2-.133.306-.232.5.153.246-.016.51.153 1.076-.187 1.006-.129 1.189-.306l.171.244.169-.367a5.5 5.5.0 0 1-2.039-.032l-.171.276-.339-.306-.339.214-.341-.337h-.339l.107-.115c.83.081 2.67.155 4.369.214v.014c.743.042 1.471.067 2.247.063l.584.022v.109l1.531-.062-.3-.133c.433-.028.9-.069 1.386-.119l.524.081.085-.014v.032l.339-.061.129-.048h.022-.006l.026-.008h-.04a12.171 12.171.0 0 0-2.452-.552c.383.0 1.05-.006 1.3-.032h.51l-.679-.093a1.72 1.72.0 0 0-1.274.091c-.063-.016-.125-.028-.191-.046.032-.014.062-.03.105-.046l-.171-.03a5.079 5.079.0 0 0-.963.109l-.464.026.407-.2a17.129 17.129.0 0 1-1.727.054l-1.878-.153.578-.032-2.207-.33 1.223.046 2.328.191-.383-.157c1.149-.107 2.1-.125 2.5-.22-.044.0-.079-.01-.123-.014a2.931 2.931.0 0 0 .373-.06l1.02.155.508-.123a4.275 4.275.0 0 0 1.191.061l-.171-.214h.681l.169.062-.145-.119c.683.062 1.358.141 2.07.22l1.346-.155-1.346-.1 1.346-.125v-.032a4.161 4.161.0 0 1-1.034-.363l.482-.006c-.127-.093-.183-.026.171-.091l-.681-.214c-.427.081-.292-.01-.473.1-.063-.024-.135-.048-.206-.072v-.034l.222-.062c.53-.012.216-.01.627-.147l.171.153 1.173-.514 1.661.469a7.561 7.561.0 0 0 1.731-.189 7.006 7.006.0 0 1-3.46-.657l2.5.25-.191-.061v-.22l-3.653-.218c2.71-.264.758-.592-.034-1.028a11.524 11.524.0 0 0 1.973.085l.339.032v-.185l-2.039-.062.125-.034c.371-.006.7-.006 1.03.0a13.341 13.341.0 0 1 1.733.129 5.079 5.079.0 0 0 1.02-.06l.328-.03c.335.0.661.0.985.0l-.079-.063a2.36 2.36.0 0 0-.228-.083l.014-.006.51.123.341-.093-.171-.03c-.337-.024-.615-.038-.855-.048-.173-.05-.355-.093-.542-.133l1.737.057.169-.069c.161.01.322.018.48.018a.757.757.0 0 0 .137-.02l.063.01a11.482 11.482.0 0 0 2.38-.06l-.681-.032s-1.368-.123-2.561-.125l-.026-.012-.06.012a8.189 8.189.0 0 0-1.092.063c-.8-.022-.195.044-.51.123-.391-.083.075-.087-.5-.062h-.006l.335-.393h.006l.167.181h.51l-.51-.4h.51l.339.4c.415-.1.347-.056 1.189.03.58-.036-.083-.087.51-.06.177-.159.03-.2-.51-.214a6.113 6.113.0 0 0 1.191-.155c.568.111.746.1.51.214 1.221-.089.441-.208.865-.3l.494.03.127.046-.127.046.51.091 1.528-.214v-.091l.51.276.149-.4.361-.085.51.183.169-.183v.091l.85-.276.171.123.51-.214-.339.123.169-.155 1.348.028-1.006.066.85.091a5.977 5.977.0 0 1 1.7-.123l-.21-.189-.617-.089.9-.081-3.585-.079-.226-.143 1.02-.062-.681.123 1.531.062c-.343-.091.083-.089-.51-.062l3.569-.643a33.721 33.721.0 0 0-5.745.659c.052.0.139.008.306.014.393-.056.361-.02.542.048l-.953-.022.022-.024-.119.022-1.253-.028.062-.026h-.339c-.359.034-.6.052-.824.066l-.085-.179a2.746 2.746.0 0 1-1.344-.032l.383.125-.576.064v-.032l-.385-.125.385-.064-.385-.061 1.346-.032a1.728 1.728.0 0 0-.476-.3l-.292.143-.421-.119-.349-.1q-.673.033-1.344.064l-.385-.064.193-.218c.468.087.032.119.768.093-.594-.129-.062-.05.768-.125l.77.189.383-.157c-.675.014-.214.034-.576-.064l.733.062.014.01c.1-.012.262-.028.461-.044l.33.161c-1.032.01-.407-.079-.961.064l.578.187.193-.03c.846-.28.734-.2.766-.453.123-.01.24-.018.339-.024l-.145.067 1.344.032-.32.236c-1.231.121-2.259.232-2.416.294 1.2-.107 2.65.071 2.891-.153l.339.121 3.4-.459v-.014c.929-.012 3.13-.054 3.8-.151 3.8-.554 1-1.118 3.267-1.5l-1.153-.218 1.153.187h.193l-.193-.564-1.536.063V334.2l-.193-.032 1.346.032v-.032c-1.243-.109-.864-.246-.578-.47-.973.058.042.105-.961.064l.385-.032.576-.218a1.68 1.68.0 0 1-1.153-.5c-.58.1-.325.0-.383.157-1.822-.334-.046-.33-2.116-.532l.578-.064a26.654 26.654.0 0 0-5.574-.657l-.54-.318.055.008a5.481 5.481.0 0 0 .746-.191c.068-.036-.25-.083-.393-.125l-.778.091-.052-.03h-1.922l.768-.157-1.922-.125-.385.093-.192-.125c.022-.093-.1-.01.385-.157a3.585 3.585.0 0 1-1.463-.268h.006-.028a6.216 6.216.0 0 0-.822-.1l-.034.016-.071-.006.105-.1q-2.209-.22-4.421-.439l-.576.125-.193-.25c-.76.03-.218.044-.768-.064-.5.058-.338.123-.578.032-1.445.044-4.274-.244-6.078-.324-2.922-.723-7.289-1.677-9.917-1.332l-1.36-.7.51-.276v.123c.653-.318-.326-.641-.51-.7l-.51.123-.51-.276v.183l-1.018-.153-.341.061c.268-.1-.089-.085.51-.061l-.34-.4v.121c-.28-.147-.951-.449-1.864-.808-.058-.022-.121-.048-.181-.069-2.708-1.052-7.349-2.533-10.533-2.156l-.171-.367-.169.062c-.584.087-.286.012-.171.185l-.679-.032.169-.367c-.492.04-.474.224-1.026.4a2.491 2.491.0 0 1-.695-.234l.361.02c-.278-.127-.006-.075-.339-.121l-.1.054a2.025 2.025.0 0 0-.578-.3l.169-.062.339.062.51.153c.4-.065-.028-.028.51-.03.057-.3-1.5-.3-2.209-.429l-.679.123.339-.246-.339-.062a1.884 1.884.0 0 1-.681.062c.52.1.0.028.681.062l-.681.185v-.214l-.679.121v-.091l.339-.244c.135.0.23.0.334.0H980a2.454 2.454.0 0 0 1.02-.212c.157.137-.083.105-.51.274l.51-.06c.044.06.066.036.339.0.339.141.125.04.85.06l.339.308c.185-.216-.135-.143.681-.367-.621.018-.55.127-.681.03l-.679-.153.679.123.341-.185-1.191.03.85-.121v-.153l-.169.091c-.953-.131.266-.286.169-.49.865.01.391.0.171-.153h.681l-.341-.093-.169.062c-.713.083-.3.006-.341.153l-.508-.153v-.153c-.385.065-.873-.028-.51.061l-.51-.032.339-.153.339-.03 1.02.276.171-.032-.51-.244.85.244.339-.091a1.451 1.451.0 0 1 .637.609l-.467-.028-.171.093.641-.058a.681.681.0 0 1 .04.087l.679-.091c.137.048-.189.069.339.244h.171c.121-.173-.25-.238-1.02-.337v-.06l1.02-.093.171.214c.1-.234.764-.363-.171-.4l.51-.246.339.185c.055.067.089.01-.171.061l1.02.183-.51-.153c.659-.065 1.078-.01.849-.214l-.339.153-.169-.091a1.45 1.45.0 0 0-.611-.224c.441-.061.312-.008.1-.143l-.149.133a4.86 4.86.0 0 0-.871-.1l.85-.49-.339.276c1.012-.1.449-.044.51-.214l1.189-.091-.171.121-1.189.246.339.062.681-.153.339.214.171-.185.51.4.508-.032-.508-.429c1.028-.109 2.017-.105 1.868-.458l1.191.183-.681.093.171.03.169.03.681-.06-1.189-.337.679.03-.85-.276H990.2l-.679.246-.171-.123-.339.185.681-.429-.681.091-1.189-.643h.169c.334.343.79.433 1.87.52-.157-.062-.139-.022.171-.062-.058-.234-.113-.469-.171-.7h.339l.171.032c.326.151.079.0-.171.183l.51.032c.373-.048.846-.091 1.3-.129.183-.01.2-.01.185-.016.748-.06 1.406-.1 1.406-.1l.339-.183c-.731-.1-.707-.091-1.02-.4l-.679.185-.171-.062-.51-.246.51.185.51-.032-.171-.244c-.864.012-.3-.089-.85.03l.171-.306v.153a2.664 2.664.0 0 1 1.36-.061l.339-.306-.169.185.85-.185c-.905-.173-.74-.125-1.02-.337l-.339.061c-.733-.327.069-.629-2.041-1.072-1.048.288-15.926-.754-20.226-.461q-5.863-.089-11.728-.183c-3.178.371-28.436-.6-34.5-.4-.1.0-.2.006-.308.008l-.155-.151v.125l.087.028c-.736.022-1.465.036-2.183.046.177-.169.01-.2.367-.355a9.166 9.166.0 0 1-1.539-.064l.193.189-.578-.064-.383.25.383-.062 1.33.107c-3.21.038-6.219-.036-8.889-.111l-1.09-.153-.4.111c-2.737-.077-5.046-.127-6.733-.012l-1.1-.065-.077-.042c-.532-.032-.284-.006-.331.071l-.083-.014-.264-.119-.171.153c-.625-.02-1-.036-1.28-.052l-.129-.064-.457.026c-.145-.01-.3-.022-.512-.032l-.85-.032v.032l1.018.062c-1.411.093-3.792.123-6.7.117l-.191-.077-.2.075h-.32l.139-.046c-.161.02-.3.032-.431.044-4.218-.02-9.38-.107-14.354-.191l-.016-.008-.1.006-.6-.01.125-.06-.955.046c-7.909-.131-15-.234-16.508-.02l-7.385-.091c-1.66-.079-3.18-.157-4.514-.228v-.109L847.94 314l-.667.1c-.191-.01-.365-.022-.546-.032-.1-.079-.157-.169-.107-.258h.361l.278.1.161-.173h.01v.145l.613-.083-.524-.067.159-.014 1.709.056-.429.077h.85l.171-.03v-.143c.062.012.123.026.171.034v.109l.292.026.121.06.907-.123.3.054c.07.044.216.0.715.1h.193l.383-.189v.189c4.84-.187 16.274.607 18.451.343a3.926 3.926.0 0 1-1.153-.218c-1.971.075-3.474-.294-5.189.03v-.155c-1.711.228-2.543-.147-4.036.062l-.578-.343-2.307-.064v-.032c1.241-.127.5-.048.578-.218l2.114-.157c-1.872-.137-10.908-.022-12.109-.189a60.411 60.411.0 0 0-6.277-.349 5.734 5.734.0 0 0-.9-.054c-.22-.085-.482-.165-.74-.244l1 .022.611-.117.349.085v.062h.193l.383-.187h.385v.032l-.578.125c1.485.044 3.944.1 5 .157v.125l.768-.064.385.032c.034-.052-.089-.115.191-.064a24.108 24.108.0 0 0-4.611-.157l-1.346-.25-1.009.083.433-.083-.385-.062a6.84 6.84.0 0 1-1.346-.064l-.768.157c-.073-.036.159-.2-.385-.125-.147-.028-.377-.054-.675-.079-1.046-.23-2.293-.431-3.692-.6l.139-.069-.193-.03v.091l-.756-.089h-.012.0c-8.147-.915-151.764-1.03-164.641-.985v-.018h-.385l.081.02c-.333.0-.663.0-.995.0l.338-.056c-.764-.008-1.38.093-.961-.032l-.193-.032v.121h-.643l-.318-.155a2.892 2.892.0 0 1-.961.093l.137.067c-3.67.02-7.287.048-10.735.067-5.082-.393-18.751-.413-29.183-.474l-.006-.006v.006c-5.965-.036-10.874-.083-12.492-.224l-2.882.157.383-.125-.768.125-.578.032.578.061c-4.381.333-15.516-.421-20.566.125-.437-.2-8.871-.207-11.148-.125l-37.864.314-4.657.23c-.532-.016-1.03-.034-1.449-.066l.576-.063-.576-.032-.77-.125.385.125q-1.441-.077-2.882-.157c-1.137.1-3.917.153-7.525.187v62.324l.79-.056h0l6.231-.177c4.179 1.012 6.461-1.906 10.453-1.278h0c3.758.143 6.99-.8 10.444-1.284l2.591-.058 1.421-.046a12.069 12.069.0 0 0 5.691-.133c9.381-2.888 19.964-1.765 29.955-2.182 6.426-.268 12.854-.4 19.281-.449l-.061.006v.032l1.7-.032-.183-.016q2.853-.015 5.7-.01l-.591.026.681.091.679-.03v-.087c.272.0.544.0.816.0l-.135.024h.679l-.121-.022 1.765.012.056.01-.014-.01.842.006h.022.341.006q1.849.015 3.7.036l.03.028c.042-.012.072-.016.109-.026q2.737.03 5.475.073l-1.334.075.339.123.171.03a2.663 2.663.0 0 1 1.36-.123l.2-.091h.078l-.113.062h.342l-.109-.06h.246l.2.056q.7-.015 1.394-.028c15.063.27 30.124.758 45.185.963 25.074.337 180.721.093 205.747-.649q23.589-.7 47.114-.319c-.1.0-.2.022-.3.034a2.657 2.657.0 0 0 .331.04 2.747 2.747.0 0 0 .361-.04c-.089-.01-.179-.026-.268-.032q20.355.36 40.658 1.7c4.044.272 8.526.8 11.809-1.4.852-.572 3.212-.7 4.244.431v0c-.01 1.342-.042 1.465 2.714 1.652 14.743 1 29.034.542 42.082-3.569 3.869.869 7.68-.276 11.537-.1.469.022 1.759.308 1.213-.578-.941-1.527 2.449-2.146 3.055-3C1051.854 360.957 1056.722 360.574 1054.521 358.628zm-94.808-4.349c-.071.006-.133.024-.21.024l-.018-.05C959.56 354.261 959.635 354.273 959.713 354.279zm-22.733-.355c-.1.0-.2.0-.322.0l-.339-.5A1.867 1.867.0 0 1 936.979 353.924zm-70.27 4.093c-.339.052-.681.1-1.022.143l-.143-.069c-.133.069-.131.081.0.087-4.091.508-8.308.437-12.474.558a1.859 1.859.0 0 1-.786-.238c.623-.026 4.419.107 5.957.0-1.681-.185-2.142-.153-3-.314h.506a7.851 7.851.0 0 1 .961.032l-.578-.125-.915.089c-.131-.026-.272-.054-.429-.089-2.057.153-5.421-.26-7.113-.064l.961.064c-.753.062-2.094.05-3.5.006a6.312 6.312.0 0 0-3.357-.387 4.1 4.1.0 0 1-.393.212c-.711-.046-1.231-.087-1.4-.113v-.064h1.538l.193-.093-.77-.032-1.729-.093V357.4l2.69-.032-.383-.157 1.536.189 5.767-.064v.032c-.28.149-.582.067.385.189l-1.346.125h5c.365-.087-.7-.026-1.346-.064h.385l-.193-.093a23.777 23.777.0 0 1 3.845.25l.768-.093-.385-.1c1.449.087 7.912.288 9.034.1l.768.282.578-.125V358l.576-.125zm20.168.512-1.153.218a23.883 23.883.0 0 0-2.692-.032l-.576-.187-.576.03v.032l2.166.572a19.135 19.135.0 0 0-6.281-.234c-.83-.111-1.648-.232-2.406-.411-.405-.087-.812-.193-1.223-.3.814-.173 3.516-.264 5.052-.6 1.8.232 2.12-.091 2.882.282l.385-.157.768.25.578-.218v.407l.383.093v-.125l.193.189a4.077 4.077.0 0 1 1.346.0h-1.153l.576.125.963.157a1.755 1.755.0 0 1 .768-.125zm42.213.774-.121-.085a1.753 1.753.0 0 1 .234.048C929.166 359.279 929.126 359.289 929.091 359.3zm1.59-.447c-.389.081-.74.177-1.078.28-.179-.032-.377.032-.248-.075.0.0.131-.177.768-.125l-.385-.22.193.1 2.882-.252.173.024A19.4 19.4.0 0 0 930.681 358.857z" transform="translate(-524.293 -309.424)"/><path class="a" d="M658.409 311.985l-.376-.028-.026.049z" transform="translate(-392.573 -307.175)"/><path class="a" d="M720.75 315.263h.341l-.171-.091z" transform="translate(-330.765 -304.008)"/><path class="a" d="M722.377 315.017v.093h.85z" transform="translate(-329.162 -304.161)"/><path class="a" d="M725.368 328.584v-.123l-.681-.062-.169.091.679.032z" transform="translate(-327.053 -290.978)"/><path class="a" d="M720.75 315.154l.51.032.51-.123v-.03l-1.02-.093.51.185-.339-.032z" transform="translate(-330.765 -304.236)"/><path class="a" d="M722.716 314.955l-.169-.123-.171.153z" transform="translate(-329.162 -304.343)"/><path class="a" d="M722.2 314.215l-.51.214.51-.062.171-.123z" transform="translate(-329.837 -304.951)"/><path class="a" d="M722.867 314.551l-.5-.069-.641.068a3.145 3.145.0 0 0 .357.038C722.352 314.582 722.606 314.564 722.867 314.551z" transform="translate(-329.803 -304.689)"/><path class="a" d="M722.714 314.714c-.526-.083-.165-.03-.679.032l.679.091-.169.062C723.093 314.829 722.688 314.748 722.714 314.714z" transform="translate(-329.499 -304.501)"/><path class="a" d="M692.365 334.142l-.193-.032-.193-.03C691.7 334.155 692.208 334.13 692.365 334.142z" transform="translate(-359.188 -285.382)"/><path class="a" d="M692.036 334.11l.961.064-.193-.093z" transform="translate(-359.051 -285.382)"/><path class="a" d="M725.025 328.692l.171-.185-1.021.153z" transform="translate(-327.391 -290.872)"/><path class="a" d="M693.195 333.938h-.578v.093l.77.032z" transform="translate(-358.479 -285.522)"/><path class="a" d="M690.681 333.984l.576-.064-.383-.062z" transform="translate(-360.386 -285.599)"/><path class="a" d="M685.641 333.891v-.064l-.576.032z" transform="translate(-365.918 -285.631)"/><path class="a" d="M693.132 334.173l-.193-.093C692.352 334.1 692.918 334.138 693.132 334.173z" transform="translate(-358.416 -285.382)"/><path class="a" d="M696.489 334.032l-.193.064C696.515 334.046 696.495 334.1 696.489 334.032z" transform="translate(-354.855 -285.429)"/><path class="a" d="M725.2 328.291l-.51.214.679-.091z" transform="translate(-326.885 -291.085)"/><path class="a" d="M705.3 334.19l.193-.1-.576.032z" transform="translate(-346.365 -285.367)"/><path class="a" d="M725.882 328.661l.171-.123-.85.032z" transform="translate(-326.379 -290.841)"/><path class="a" d="M693.682 334.2l1.153.093v-.282l-.961.1C694.022 334.207 694.188 334.149 693.682 334.2z" transform="translate(-357.43 -285.445)"/><path class="a" d="M696.1 334.094 696.3 334l-.193.03z" transform="translate(-355.045 -285.46)"/><path class="a" d="M718.433 315.774l-.51-.155-.169.123z" transform="translate(-333.717 -303.568)"/><path class="a" d="M719.209 315.942l.681.091.169-.367z" transform="translate(-332.283 -303.521)"/><path class="a" d="M720.061 315.5l-.681.03C719.886 315.613 719.585 315.589 720.061 315.5z" transform="translate(-332.115 -303.689)"/><path class="a" d="M719.209 316.235v-.091l-.171.214S719.737 316.285 719.209 316.235z" transform="translate(-332.452 -303.05)"/><path class="a" d="M720.237 315.156v.093l.679.091z" transform="translate(-331.271 -304.024)"/><path class="a" d="M719.549 316.3h-.169l-.171.093.339.03z" transform="translate(-332.283 -302.899)"/><path class="a" d="M720.147 315.758l-.51.123h.341z" transform="translate(-331.862 -303.431)"/><path class="a" d="M719.637 315.357v.185l.51-.032z" transform="translate(-331.862 -303.826)"/><path class="a" d="M720.488 315.929V315.9l-.679.123C720.5 315.97 720.027 316.056 720.488 315.929z" transform="translate(-331.692 -303.294)"/><path class="a" d="M717.925 316.314l.339.06v-.153l-.169.032z" transform="translate(-333.548 -302.975)"/><path class="a" d="M718.519 315.943l-.508.062.339.062z" transform="translate(-333.463 -303.248)"/><path class="a" d="M718.52 315.9c-.661.072-.381.014-.681.153z" transform="translate(-333.633 -303.294)"/><path class="a" d="M718.011 315.4v.061C718.241 315.421 718.2 315.455 718.011 315.4z" transform="translate(-333.463 -303.78)"/><path class="a" d="M717.754 315.726l.85-.276c-.425.05-.121.057-.51.0z" transform="translate(-333.717 -303.734)"/><path class="a" d="M719.3 316.206v.123l.51.06z" transform="translate(-332.199 -302.989)"/><path class="a" d="M719.38 316.036l.51.03-.169-.062.169-.062z" transform="translate(-332.115 -303.248)"/><path class="a" d="M718.353 315.835c.286-.048.309.026.51-.123h-.171z" transform="translate(-333.127 -303.476)"/><path class="a" d="M719.3 315.093l.339.032-.171-.123z" transform="translate(-332.199 -304.175)"/><path class="a" d="M720.491 315.649l.171-.246-.51.061z" transform="translate(-331.355 -303.78)"/><path class="a" d="M719.894 315.233l.51-.153-.51-.032z" transform="translate(-331.609 -304.13)"/><path class="a" d="M718.608 315.928h.341l-.51-.093v.123z" transform="translate(-333.042 -303.355)"/><path class="a" d="M719.8 315.666h-.169l-.681.153.681.03z" transform="translate(-332.537 -303.521)"/><path class="a" d="M719.038 316.036c.371-.063.207-.008.0-.093z" transform="translate(-332.452 -303.248)"/><path class="a" d="M718.267 315.7l.341.03-.171-.153z" transform="translate(-333.211 -303.613)"/><path class="a" d="M719.036 315.926l.169-.183H718.7v.091l.339-.03z" transform="translate(-332.789 -303.445)"/><path class="a" d="M719.038 316.1l.339.091h.171l.169-.091-.679-.062z" transform="translate(-332.452 -303.157)"/><path class="a" d="M718.867 315.882l.51.061A1.316 1.316.0 0 0 718.867 315.882z" transform="translate(-332.62 -303.309)"/><path class="a" d="M718.353 316.1l.681.214C719.469 316.112 718.452 316.1 718.353 316.1z" transform="translate(-333.127 -303.096)"/></g></g><g transform="translate(965.155 2896.237)"><g transform="translate(0 0)"><path class="b" d="M548.638 327.968h9.824v4.5h-9.824v7.51h-5.163V319.019h16.21v4.536H548.638z" transform="translate(-543.475 -317.455)"/><path class="b" d="M566.944 323.777a8.35 8.35.0 0 1 0 11.922 8.662 8.662.0 0 1-6.1 2.315 8.8 8.8.0 0 1-6.178-2.315 8.313 8.313.0 0 1 0-11.922 8.8 8.8.0 0 1 6.178-2.315A8.663 8.663.0 0 1 566.944 323.777zm-3.442 8.871a4 4 0 0 0 1.128-2.926 3.953 3.953.0 0 0-1.143-2.924 3.624 3.624.0 0 0-2.644-1.143 3.749 3.749.0 0 0-2.722 1.143 3.926 3.926.0 0 0-1.157 2.924 3.967 3.967.0 0 0 1.141 2.926 3.731 3.731.0 0 0 2.737 1.141A3.608 3.608.0 0 0 563.5 332.648z" transform="translate(-534.934 -315.048)"/><path class="b" d="M573.715 321.681l-.22 5.006h-.907q-5.41.0-5.413 5.884v4.911h-5V321.774h5v3.005a6.032 6.032.0 0 1 5.413-3.224A4.655 4.655.0 0 1 573.715 321.681z" transform="translate(-525.059 -314.956)"/><path class="b" d="M581.724 338.984a9.022 9.022.0 0 1-4.286 1.157 6.347 6.347.0 0 1-4.615-1.6 6.209 6.209.0 0 1-1.642-4.663v-5.945h-2.849v-3.974h2.849v-4.629h5v4.629h4.631v3.974h-4.631v5.445q0 2.284 2.1 2.285a4.549 4.549.0 0 0 2.283-.627z" transform="translate(-518.988 -317.144)"/><path class="b" d="M592.915 337.607h-5v-1.251a7.013 7.013.0 0 1-4.881 1.721 7.246 7.246.0 0 1-5.429-2.331 9.121 9.121.0 0 1 0-11.968 7.22 7.22.0 0 1 5.429-2.348 7.013 7.013.0 0 1 4.881 1.721V321.9h5zm-6.148-4.927a4.292 4.292.0 0 0 0-5.834 3.666 3.666.0 0 0-2.708-1.159 3.551 3.551.0 0 0-2.722 1.143 4.581 4.581.0 0 0 0 5.866 3.578 3.578.0 0 0 2.722 1.126A3.693 3.693.0 0 0 586.767 332.68z" transform="translate(-512.062 -315.08)"/><path class="b" d="M586.033 340.758V318.231h5.008v22.527z" transform="translate(-501.552 -318.231)"/><path class="b" d="M606.293 331.036H594.777A4.036 4.036.0 0 0 596 333.257a3.132 3.132.0 0 0 2.16.814 3.519 3.519.0 0 0 3.351-1.814l4.443.907a7.5 7.5.0 0 1-3.021 3.678 8.954 8.954.0 0 1-4.772 1.235 8.148 8.148.0 0 1-5.882-2.331 8.635 8.635.0 0 1 0-11.968 8.156 8.156.0 0 1 5.914-2.348 7.828 7.828.0 0 1 5.725 2.285 8.307 8.307.0 0 1 2.38 6.039zm-10.138-4.879a3.264 3.264.0 0 0-1.282 1.814h6.473a3.337 3.337.0 0 0-1.185-1.848 3.231 3.231.0 0 0-1.973-.623A3.466 3.466.0 0 0 596.155 326.157z" transform="translate(-497.778 -315.08)"/><path class="b" d="M610.912 330.943l4.6 1a7.36 7.36.0 0 1-2.815 4.443 8.331 8.331.0 0 1-5.2 1.689 8.572 8.572.0 0 1-6.084-2.331 8.442 8.442.0 0 1 0-11.968 8.536 8.536.0 0 1 6.084-2.348 8.333 8.333.0 0 1 5.133 1.66 7.488 7.488.0 0 1 2.876 4.379l-4.691 1.128a3.575 3.575.0 0 0-1.191-2.08 3.281 3.281.0 0 0-2.128-.7 3.549 3.549.0 0 0-2.721 1.112 4.422 4.422.0 0 0 0 5.679A3.579 3.579.0 0 0 607.5 333.7 3.321 3.321.0 0 0 610.912 330.943z" transform="translate(-488.849 -315.08)"/><path class="b" d="M624.5 331.036H612.982a4.048 4.048.0 0 0 1.219 2.221 3.132 3.132.0 0 0 2.16.814 3.519 3.519.0 0 0 3.351-1.814l4.443.907a7.5 7.5.0 0 1-3.021 3.678 8.955 8.955.0 0 1-4.772 1.235 8.147 8.147.0 0 1-5.882-2.331 8.634 8.634.0 0 1 0-11.968 8.156 8.156.0 0 1 5.914-2.348 7.828 7.828.0 0 1 5.725 2.285 8.307 8.307.0 0 1 2.38 6.039zm-10.138-4.879a3.265 3.265.0 0 0-1.282 1.814h6.475a3.35 3.35.0 0 0-1.187-1.848 3.23 3.23.0 0 0-1.973-.623A3.47 3.47.0 0 0 614.36 326.157z" transform="translate(-479.844 -315.08)"/><path class="b" d="M642.281 323.2A6.3 6.3.0 0 1 644 327.782v9.824h-4.977v-8.76a2.957 2.957.0 0 0-.748-2.112 2.474 2.474.0 0 0-1.878-.8 2.727 2.727.0 0 0-2.237 1.014 4.579 4.579.0 0 0-.83 2.958v7.7h-5.008v-8.76a2.95 2.95.0 0 0-.75-2.112 2.5 2.5.0 0 0-1.91-.8 2.648 2.648.0 0 0-2.205 1.014 4.727 4.727.0 0 0-.8 2.958v7.7h-5.008V321.9h5.008v1.441a5.922 5.922.0 0 1 4.631-1.91 5.625 5.625.0 0 1 5.131 2.66 6.627 6.627.0 0 1 5.568-2.66A5.747 5.747.0 0 1 642.281 323.2z" transform="translate(-470.404 -315.08)"/><path class="b" d="M646.922 323.777a8.345 8.345.0 0 1 0 11.922 8.658 8.658.0 0 1-6.1 2.315 8.789 8.789.0 0 1-6.178-2.315 8.308 8.308.0 0 1 0-11.922 8.789 8.789.0 0 1 6.178-2.315A8.658 8.658.0 0 1 646.922 323.777zm-3.44 8.871a3.994 3.994.0 0 0 1.126-2.926 3.952 3.952.0 0 0-1.141-2.924 3.627 3.627.0 0 0-2.644-1.143A3.742 3.742.0 0 0 638.1 326.8a3.918 3.918.0 0 0-1.157 2.924 3.959 3.959.0 0 0 1.141 2.926 3.731 3.731.0 0 0 2.738 1.141A3.608 3.608.0 0 0 643.482 332.648z" transform="translate(-456.149 -315.048)"/><path class="b" d="M646.493 332.507q.313 1.846 2.787 1.846a2.677 2.677.0 0 0 1.485-.359 1.05 1.05.0 0 0 .546-.891q0-.878-1.562-1.157l-3.192-.627q-4.571-.846-4.57-4.568a4.651 4.651.0 0 1 1.878-3.865 7.736 7.736.0 0 1 4.881-1.455 8.629 8.629.0 0 1 4.77 1.221 5.151 5.151.0 0 1 2.364 3.287l-4.57.907a2.007 2.007.0 0 0-.83-1.316 2.9 2.9.0 0 0-1.8-.532 2.078 2.078.0 0 0-1.362.361 1.107 1.107.0 0 0-.423.86c0 .562.4.929 1.191 1.1l3.69.75a5.871 5.871.0 0 1 3.256 1.705 4.389 4.389.0 0 1 1.1 3.019 4.491 4.491.0 0 1-1.969 3.911A8.853 8.853.0 0 1 649 338.077a10.02 10.02.0 0 1-4.991-1.141 4.622 4.622.0 0 1-2.394-3.426z" transform="translate(-446.801 -315.08)"/><path class="b" d="M653.922 340.758V318.231h5.006v22.527z" transform="translate(-434.675 -318.231)"/><path class="b" d="M675.308 337.607H670.3v-1.251a7.013 7.013.0 0 1-4.881 1.721 7.255 7.255.0 0 1-5.429-2.331 9.122 9.122.0 0 1 0-11.968 7.23 7.23.0 0 1 5.429-2.348 7.013 7.013.0 0 1 4.881 1.721V321.9h5.008zm-6.15-4.927a4.3 4.3.0 0 0 0-5.834 3.667 3.667.0 0 0-2.706-1.159 3.548 3.548.0 0 0-2.722 1.143 4.568 4.568.0 0 0 0 5.866 3.576 3.576.0 0 0 2.722 1.126A3.7 3.7.0 0 0 669.158 332.68z" transform="translate(-430.902 -315.08)"/><path class="b" d="M688.415 339.982H672.08V319.019h16.242v4.443H677.245V327.4h10.17V331.6h-10.17v3.942h11.17z" transform="translate(-416.787 -317.455)"/><path class="b" d="M693.4 330.943l4.6 1a7.37 7.37.0 0 1-2.815 4.443 8.337 8.337.0 0 1-5.2 1.689 8.573 8.573.0 0 1-6.084-2.331 8.442 8.442.0 0 1 0-11.968 8.537 8.537.0 0 1 6.084-2.348 8.334 8.334.0 0 1 5.134 1.66A7.5 7.5.0 0 1 698 327.469L693.3 328.6a3.561 3.561.0 0 0-1.189-2.08 3.286 3.286.0 0 0-2.13-.7 3.549 3.549.0 0 0-2.721 1.112 4.428 4.428.0 0 0 0 5.679 3.578 3.578.0 0 0 2.721 1.094A3.319 3.319.0 0 0 693.4 330.943z" transform="translate(-407.595 -315.08)"/><path class="b" d="M705.354 323.777a8.35 8.35.0 0 1 0 11.922 8.663 8.663.0 0 1-6.1 2.315 8.8 8.8.0 0 1-6.18-2.315 8.318 8.318.0 0 1 0-11.922 8.8 8.8.0 0 1 6.18-2.315A8.663 8.663.0 0 1 705.354 323.777zm-3.444 8.871a4.333 4.333.0 0 0-.014-5.85 3.627 3.627.0 0 0-2.644-1.143 3.75 3.75.0 0 0-2.723 1.143 4.294 4.294.0 0 0-.014 5.85 3.727 3.727.0 0 0 2.737 1.141A3.6 3.6.0 0 0 701.91 332.648z" transform="translate(-398.588 -315.048)"/><path class="b" d="M714.832 323.229a6.689 6.689.0 0 1 1.674 4.742v9.636h-4.975v-8.574a3.272 3.272.0 0 0-.75-2.237 2.462 2.462.0 0 0-1.941-.858 2.885 2.885.0 0 0-2.392 1.078 5.251 5.251.0 0 0-.86 3.3v7.289h-5.008V321.9h5.008v1.5a6.356 6.356.0 0 1 4.818-1.971A5.77 5.77.0 0 1 714.832 323.229z" transform="translate(-388.713 -315.08)"/><path class="b" d="M724.6 323.777a8.345 8.345.0 0 1 0 11.922 8.662 8.662.0 0 1-6.1 2.315 8.8 8.8.0 0 1-6.18-2.315 8.318 8.318.0 0 1 0-11.922 8.8 8.8.0 0 1 6.18-2.315A8.663 8.663.0 0 1 724.6 323.777zm-3.444 8.871a4.332 4.332.0 0 0-.014-5.85 3.624 3.624.0 0 0-2.644-1.143 3.743 3.743.0 0 0-2.722 1.143 3.926 3.926.0 0 0-1.157 2.924 3.967 3.967.0 0 0 1.141 2.926 3.731 3.731.0 0 0 2.737 1.141A3.6 3.6.0 0 0 721.156 332.648z" transform="translate(-379.629 -315.048)"/><path class="b" d="M744.45 323.2a6.283 6.283.0 0 1 1.723 4.583v9.824H741.2v-8.76a2.959 2.959.0 0 0-.75-2.112 2.467 2.467.0 0 0-1.876-.8 2.725 2.725.0 0 0-2.237 1.014 4.568 4.568.0 0 0-.83 2.958v7.7h-5.008v-8.76a2.959 2.959.0 0 0-.75-2.112 2.5 2.5.0 0 0-1.91-.8 2.641 2.641.0 0 0-2.2 1.014 4.7 4.7.0 0 0-.8 2.958v7.7h-5.008V321.9h5.008v1.441a5.918 5.918.0 0 1 4.629-1.91 5.626 5.626.0 0 1 5.133 2.66 6.624 6.624.0 0 1 5.566-2.66A5.736 5.736.0 0 1 744.45 323.2z" transform="translate(-369.754 -315.08)"/><path class="b" d="M734.988 340.743V325.035h4.975v15.708zM735.3 323l2.223-4.756h5.943L739.746 323z" transform="translate(-354.817 -318.216)"/><path class="b" d="M756.529 337.607h-5.006v-1.251a7.013 7.013.0 0 1-4.881 1.721 7.249 7.249.0 0 1-5.427-2.331 9.122 9.122.0 0 1 0-11.968 7.223 7.223.0 0 1 5.427-2.348 7.012 7.012.0 0 1 4.881 1.721V321.9h5.006zm-6.146-4.927a4.3 4.3.0 0 0 0-5.834 3.677 3.677.0 0 0-2.71-1.159 3.553 3.553.0 0 0-2.721 1.143 4.574 4.574.0 0 0 0 5.866 3.581 3.581.0 0 0 2.721 1.126A3.7 3.7.0 0 0 750.383 332.68z" transform="translate(-350.888 -315.08)"/></g></g></g></svg>