<svg xmlns="http://www.w3.org/2000/svg" xmlns:xlink="http://www.w3.org/1999/xlink" width="1366" height="609" viewBox="0 0 1366 609"><defs><style>.a{fill:#fff;stroke:#707070}.b{fill:#0000000d}.c{clip-path:url(#c)}.d{fill:#003687}.e{clip-path:url(#d)}.f{filter:url(#a)}</style><filter id="a" x="-8" y="-4" width="1383" height="627" filterUnits="userSpaceOnUse"><feOffset dy="5" input="SourceAlpha"/><feGaussianBlur stdDeviation="3" result="b"/><feFlood flood-opacity=".161"/><feComposite operator="in" in2="b"/><feComposite in="SourceGraphic"/></filter><clipPath id="c"><path class="a" d="M0 0h1366v609H0z" transform="translate(0 73)"/></clipPath><clipPath id="d"><g class="f" transform="matrix(1, 0, 0, 1, 0, 0)"><path class="b" d="M0 0h1365v609H0z" transform="translate(1 73)"/></g></clipPath></defs><g class="c" transform="translate(0 -73)"><g transform="translate(3 322)"><path class="d" d="M663.3 310.767c1.134-.064 2.453-.113 2.426-.136a2.609 2.609.0 0 0-1.066-.354 19.449 19.449.0 0 0-1.977.1C662.6 310.5 663.044 310.631 663.3 310.767z" transform="translate(48.664 -306.981)"/><path class="d" d="M663.389 311.165l-.44-.213h-.875l-.44.141 1.315.145z" transform="translate(44.283 -304.585)"/><path class="d" d="M684.138 312.054c-.358.0-.558.0-.73.0a23.788 23.788.0 0 0-4.911.127l-1.76-.286q-1.973.034-3.95.072l.05.023c-.621.05-.889.063-1.074.082-.536-.132-1.071-.259-1.61-.39l-.345.277a5.648 5.648.0 0 1-1.124.036l-.726-.027 1.315-.145-4.39-.073.132.15a47 47 0 0 1-6.893-.054l-.39.281h7.378l.109.009.1.118q3.734.034 7.464.073l-.44-.109.531-.018V312l.349.172.44.431.44.068c2.022-.1 5.741-.345 9.237-.354l.013.009.073-.009a31.348 31.348.0 0 1 6.04.426l-2.195.145h.88l.44.213 2.2-.213-.88.213 6.249.041-.539.172.875-.068v-.1l4.829.032-1.315-.073c-.748-.44-.372-.177-1.755-.358-1.365.068-6.108-.263-10.638-.5l.789-.191-1.614.145c-.54-.027-1.065-.054-1.587-.077l.1-.068-.553.05-.426-.018z" transform="translate(31.024 -302.019)"/><path class="d" d="M656.371 310.936c-.721.308-.231.213 1.229.349z" transform="translate(21.122 -304.642)"/><path class="d" d="M646.78 311.06l8.344.141c-1.451-.5-4.53-.417-7.464-.644a15.884 15.884.0 0 1-2.195.145z" transform="translate(-22.173 -305.982)"/><path class="d" d="M661.254 311.4l1.315-.073-2.195.073z" transform="translate(39.1 -303.249)"/><path class="d" d="M662.215 311.577l1.755.213L668.8 312v-.141l-4.829-.358z" transform="translate(47.022 -302.634)"/><path class="d" d="M649.725 310.557v.29l.44-.072z" transform="translate(-5.102 -305.982)"/><path class="d" d="M656.477 311.022l-.091-.009.526.15z" transform="translate(22.476 -304.37)"/><path class="d" d="M652.013 311.078h-1.319C651.9 311.164 651.106 311.237 652.013 311.078z" transform="translate(-1.04 -304.14)"/><path class="d" d="M649.007 310.652l-1.315.072 1.315.073z" transform="translate(-13.463 -305.646)"/><path class="d" d="M652.105 311.139a.663.663.0 0 1 .44-.218c1.737.435 3.3.462 8.344.431l-.44-.141v-.072l-2.195-.431c-3.582.091-6.04-.141-6.584.286l-.88-.358.44.644z" transform="translate(-0.079 -305.702)"/><path class="d" d="M656.24 311.733l1.42-.417-.1.059.88.073h5.709c-1.519-.445.036.0.44-.5l1.619.222.136.064v-.045l.875.118.44-.572c-3.5.05-2.648.0-4.389.358l.44-.286-1.347.018.027-.018-.1.018-3.845.054-.34.19-3.17-.19-2.2.644Q654.487 311.622 656.24 311.733z" transform="translate(8.26 -305.367)"/><path class="d" d="M660.763 311.419l3.07.145-1.315-.218z" transform="translate(40.767 -303.193)"/><path class="d" d="M662.9 311.378l-.88.073 1.32.213z" transform="translate(45.855 -303.08)"/><path class="d" d="M689.425 312.325q-18.215-.612-36.44-1.215l-2.195.14.44.213h.44c3.4-.027 16.333.54 26.156.83-.549.023-1.088.054-1.628.082a6.2 6.2.0 0 0 .771.113c.73-.023 1.415-.073 2.063-.109-.118-.018-.254-.041-.381-.064A95.279 95.279.0 0 0 689.425 312.325z" transform="translate(1.795 -304.027)"/><path class="d" d="M658.432 311.7l-1.555.141 1.941.14z" transform="translate(24.601 -301.945)"/><path class="d" d="M657.348 311.745l-.385.281.385-.068z" transform="translate(24.854 -301.783)"/><path class="d" d="M663.086 312.166l.88.073.88-.213-1.76.068z" transform="translate(50.294 -300.793)"/><path class="d" d="M663.323 312.238l-.44-.213C662.847 312.252 662.475 312.057 663.323 312.238z" transform="translate(48.908 -300.793)"/><path class="d" d="M656.449 312.011l1.941.068-.39-.141v-.209z" transform="translate(22.83 -301.835)"/><path class="d" d="M662.824 311.535l-1.32-.141H659.75l-.44.213 1.32-.073z" transform="translate(34.78 -303.023)"/><path class="d" d="M658.342 311.309l1.755.068-.435-.141z" transform="translate(30.654 -303.582)"/><path class="d" d="M661.352 311.441h-.88c.2.141-.032.426.88.213l6.584.218-.44-.145z" transform="translate(39.863 -302.857)"/><path class="d" d="M659.448 311.11l-5.269.213q9.216.177 18.438.358z" transform="translate(14.518 -304.027)"/><path class="d" d="M653.122 311.075l-.88-.218C652.646 311.02 651.766 310.939 653.122 311.075z" transform="translate(5.345 -304.921)"/><path class="d" d="M653.4 311.094l3.514.141-.88-.141z" transform="translate(10.325 -304.084)"/><path class="d" d="M688.166 312.154c-9.346-.562-15.2-.576-19.317-.857-.88.045-1.755.1-2.635.141l-1.315-.358-.44.358-.88-.5v.358H659.19l1.315-.358c.544.113.458.122.88.0.494-.113.454.014.44-.145q-2.857.034-5.709.072a25.271 25.271.0 0 0 4.83 1.07C665.679 311.143 682.293 312.544 688.166 312.154z" transform="translate(23.482 -305.144)"/><path class="d" d="M719.428 315.65l-.39.141C719.532 315.918 719.428 315.65 719.428 315.65z" transform="translate(281.797 -287.98)"/><path class="d" d="M722.258 315.338a17.723 17.723.0 0 0 3.106.0l-1.165-.281v-.209l-3.106.417z" transform="translate(290.684 -290.815)"/><path class="d" d="M718.4 315.774l-.385.141C718.215 315.86 718.433 315.928 718.4 315.774z" transform="translate(277.545 -287.542)"/><path class="d" d="M716.394 315.805h-.013.013z" transform="translate(270.761 -287.435)"/><path class="d" d="M650.062 311.745l-.154.023.929.118z" transform="translate(-4.313 -301.783)"/><path class="d" d="M721.825 314.587l.775-.068-1.166-.072v.489z" transform="translate(291.794 -292.236)"/><path class="d" d="M645.429 310.712l-1.32-.218C644.4 310.639 643.615 310.644 645.429 310.712z" transform="translate(-28.295 -306.204)"/><path class="d" d="M743.611 323.738l.295.268.1.014z" transform="translate(412.521 -259.489)"/><path class="d" d="M737.937 324.74h-.258l.082.063A.868.868.0 0 0 737.937 324.74z" transform="translate(358.941 -255.954)"/><path class="d" d="M738.068 324.9l-.177-.145C737.591 324.846 737.469 324.751 738.068 324.9z" transform="translate(358.806 -255.901)"/><path class="d" d="M710.8 339.6h.811l-.369-.1z" transform="translate(247.742 -203.88)"/><path class="d" d="M739.286 323.273l.435.213h.739c-.1-.023-.181-.05-.3-.073z" transform="translate(397.233 -261.129)"/><path class="d" d="M739.545 323.32a2.981 2.981.0 0 1 .367.1l.213-.1z" transform="translate(398.149 -260.964)"/><path class="d" d="M740.932 320.632l1.755.073v-.145z" transform="translate(403.051 -270.704)"/><path class="d" d="M533.034 310.427l2.635-.358-.875-.072-3.514-.145z" transform="translate(-499.6 -308.477)"/><path class="d" d="M532.643 309.836h-.88C532.407 309.931 531.9 309.913 532.643 309.836z" transform="translate(-497.89 -308.53)"/><path class="d" d="M531.384 310.074l.88.145 2.195-.286-1.319-.145-.875.145c-1.27.2.0.014-1.76.0l.88.072z" transform="translate(-502.34 -308.7)"/><path class="d" d="M569.729 309.611l-3.514.141-.875.072c.875.118 1.755.24 2.635.358z" transform="translate(-379.212 -309.325)"/><path class="d" d="M569.285 309.834v-.072l.875-.072c-1.75.018-.49.2-1.755.0l-.875-.141-1.319.141 2.194.286z" transform="translate(-376.133 -309.548)"/><path class="d" d="M566.508 309.6h-.879C566.368 309.672 565.865 309.695 566.508 309.6z" transform="translate(-378.187 -309.382)"/><path class="d" d="M706.615 339.271l.862.363c1.565-.063 3.125-.131 4.689-.2l-.358-.236C710.075 339.221 708.347 339.248 706.615 339.271z" transform="translate(230.846 -204.965)"/><path class="d" d="M576.322 338.95l1.165.281a9.373 9.373.0 0 0 3.106-.49c1.633.417 1.066.2 4.657.349l-.776-.349S578.136 338.365 576.322 338.95z" transform="translate(-308.711 -207.002)"/><path class="d" d="M679.018 339.675a6.933 6.933.0 0 0 .776.091c.643-.014 1.251-.054 1.873-.082a5.29 5.29.0 0 0-.712-.1C680.3 339.6 679.675 339.639 679.018 339.675z" transform="translate(116.32 -203.601)"/><path class="d" d="M706.834 339.808a4.552 4.552.0 0 0 .689.1 6.705 6.705.0 0 0 .817-.081 4.608 4.608.0 0 0-.685-.1A7.723 7.723.0 0 0 706.834 339.808z" transform="translate(231.383 -203.081)"/><path class="d" d="M570.243 338.934c3.736-.1 1.977-.122 4.271-.068C575.39 338.349 571.876 338.525 570.243 338.934z" transform="translate(-361.878 -207.267)"/><path class="d" d="M573.754 338.866c.9-.023 1.809-.045 2.716-.073v-.068h-2.716z" transform="translate(-349.468 -206.637)"/><path class="d" d="M537.012 340.42l.537-.094-.8-.018z" transform="translate(-480.266 -201.041)"/><path class="d" d="M725.179 313.428h-.39l-1.555.63z" transform="translate(299.314 -295.834)"/><path class="d" d="M686.524 311.053l-1.982-.132-.753.122c.63.041 1.238.091 1.9.118A6.972 6.972.0 0 0 686.524 311.053z" transform="translate(136.08 -304.695)"/><path class="d" d="M685.235 311.867l-3.075.285 1.319.073z" transform="translate(129.362 -301.351)"/><path class="d" d="M681.891 312.422l.44-.068v-.5c-2.294.231-.957.39-.88.431z" transform="translate(124.399 -301.408)"/><path class="d" d="M684.021 312.08v-.213l-2.635.431 2.195.068C683.549 312.071 682.878 312.193 684.021 312.08z" transform="translate(126.123 -301.351)"/><path class="d" d="M705.085 311.984c1.719-.032 3.419-.086 5.12-.132l-.449-.354c-1.737.073-3.482.141-5.169.231C704.5 311.735 705.008 311.984 705.085 311.984z" transform="translate(222.406 -302.652)"/><path class="d" d="M686.924 312.553a22.352 22.352.0 0 0-2.634.068l.44.218q2.856.1 5.709.213l-.44-.5.44.141.88-.141.435.354.44-.572H687.8c.9-.186.295-.072-1.315-.358-1.464.177-.508-.018-1.319.286h1.319z" transform="translate(138.57 -300.962)"/><path class="d" d="M698.967 311.877l.712-.272-2.245-.1c-.149.073-.589.177-.38.209C697.52 311.787 698.309 311.823 698.967 311.877z" transform="translate(190.765 -302.613)"/><path class="d" d="M682.435 312.177v-.286a18.131 18.131.0 0 1-2.635-.213l-1.32.354A31.005 31.005.0 0 1 682.435 312.177z" transform="translate(114.197 -302.019)"/><path class="d" d="M665.519 311.925l.44-.286-.875-.073-1.32.073 1.32.286z" transform="translate(53.131 -302.412)"/><path class="d" d="M681.01 312.317l-.879-.213C680.266 312.181 679.717 312.168 681.01 312.317z" transform="translate(120.77 -300.513)"/><path class="d" d="M676.835 312.032a32.694 32.694.0 0 0 4.829-.213h-.88v-.141A13.406 13.406.0 0 0 676.835 312.032z" transform="translate(107.448 -302.019)"/><path class="d" d="M678.566 311.846v.145l-.88.141-3.51-.358.435.218-.875.213c2.544.122 8.443.1 10.974.5l1.319-.426-.44.358c1.986-.24 2.095-.208 2.195-.576-1.673.013-4.059-.272-2.635.073l-4.39-.572c-.617.009-.09.014-.44-.072l-.875.358-4.394-.213.88.073z" transform="translate(95.315 -302.691)"/><path class="d" d="M677.61 312.122q4.387.211 8.779.431-3.51-.292-7.024-.576l-1.755.073z" transform="translate(110.963 -300.962)"/><path class="d" d="M716.193 312.413a4.284 4.284.0 0 0-.68-.1 8.155 8.155.0 0 0-.83.077l.671.109z" transform="translate(263.876 -299.775)"/><path class="d" d="M723.885 313.026l-1.165.073 1.551.281z" transform="translate(297.151 -297.255)"/><path class="d" d="M752.077 319.46l-.191-.367q-3.408.041-6.815.077l.2.345z" transform="translate(417.681 -275.876)"/><path class="d" d="M744.594 320.1c4.72.059 7.509.1 10.3.131A26.27 26.27.0 0 0 744.594 320.1z" transform="translate(415.995 -273.867)"/><path class="d" d="M751.663 318.9l-10.175-.068A25.747 25.747.0 0 0 751.663 318.9z" transform="translate(405.013 -276.786)"/><path class="d" d="M751.449 331.341a33.814 33.814.0 0 0 4.788-1.224 4.035 4.035.0 0 0-4.285-1.936c-1.605.177-3.818.925-4.149 1.619C747.3 330.837 749.218 331.613 751.449 331.341z" transform="translate(427.052 -243.948)"/><path class="d" d="M741.087 319.294l-1.247-.163-1.551.141a5.035 5.035.0 0 0 .739.109C739.731 319.367 740.4 319.326 741.087 319.294z" transform="translate(393.71 -275.741)"/><path class="d" d="M748.583 326.5l-.06.075.643-.03z" transform="translate(429.882 -249.753)"/><path class="d" d="M722.24 311.814l-.755.039.68.058z" transform="translate(291.961 -301.537)"/><path class="d" d="M726.192 318.12l-.39.14C726.319 318.383 726.174 318.143 726.192 318.12z" transform="translate(309.794 -279.308)"/><path class="d" d="M755.348 336.651c-2.408-.159-3.836.562-2.521 1.682.907.771.045 2.943 4.013 1.945A26.961 26.961.0 0 0 761.9 338C760.155 336.247 757.466 336.787 755.348 336.651z" transform="translate(443.327 -214.045)"/><path class="d" d="M677.941 311.457l-1.76.213c-1.383-.018-.231.009-.435-.213a12.407 12.407.0 0 1-2.2.068l-.875.29 1.755.141C677.678 311.87 676.826 311.947 677.941 311.457z" transform="translate(90.24 -302.8)"/><path class="d" d="M735.808 319.482l-.356-.115-.521.1z" transform="translate(347.631 -274.909)"/><path class="d" d="M740.645 319.123c-1.148-.118-2.19-.276-3.5-.335a11.445 11.445.0 0 0-2.263.268c.49.15 1.619.267 2.748.435C739.067 319.313 739.856 319.218 740.645 319.123z" transform="translate(347.929 -276.96)"/><path class="d" d="M731.4 319.1a6.721 6.721.0 0 0-.97-.3c-.957.022-1.859.081-2.78.127a2.583 2.583.0 0 0 .821.249C729.4 319.18 730.368 319.126 731.4 319.1z" transform="translate(317.772 -276.927)"/><path class="d" d="M676.4 312.2l3.881.068.39-.141-.78-.068-3.492-.141z" transform="translate(105.6 -301.182)"/><path class="d" d="M671.145 311.465c-.385-.127-.3-.009.0-.145l-2.195-.068c-.939.336-.9.036.0.426C671.168 311.578 670 311.705 671.145 311.465z" transform="translate(71.794 -303.525)"/><path class="d" d="M671.571 310.658l-.843-.295-6.063.245.821.363z" transform="translate(57.194 -306.667)"/><path class="d" d="M667.225 311.894q7.244.034 14.488.073c-.091-.322-.472-.055.88-.286l-3.514-.218v.358h-.44c-4.707-.254-4.734-.689-8.779-.141l-.44-.072-.44-.072.44-.426c-1.755.045-3.51.1-5.269.14C666.586 311.319 667.447 311.387 667.225 311.894z" transform="translate(55.886 -304.027)"/><path class="d" d="M669.884 311.769l-.44-.218-2.195.145 2.195.14z" transform="translate(67.595 -302.468)"/><path class="d" d="M668.521 311.709l-1.755.073 1.315.072z" transform="translate(65.529 -301.91)"/><path class="d" d="M668.522 312.008l.776-.073.386-.068C668.336 311.8 669.366 311.809 668.522 312.008z" transform="translate(72.755 -301.484)"/><path class="d" d="M667.25 311.854l8.339.213q-3.727-.177-7.464-.358z" transform="translate(68.005 -301.91)"/><path class="d" d="M665.322 311.741l-.88.068C665.222 311.823 666.07 311.841 665.322 311.741z" transform="translate(55.866 -301.797)"/><path class="d" d="M667.937 311.985l-.39-.209-1.165.073z" transform="translate(63.92 -301.673)"/><path class="d" d="M665.414 311.472l-.875.073 3.07.072z" transform="translate(56.401 -302.747)"/><path class="d" d="M664.732 311.6s.068.172 1.759.068z" transform="translate(57.108 -302.298)"/><path class="d" d="M688.774 312.6v-.036l.553.063c-.594.059.209.113.766.186l-.254-.122 1.007.122v-.073l-1.107-.1-.086-.041a1.9 1.9.0 0 0-.195.018l-.684-.063v-.027c-.231-.013-.431-.023-.658-.036l-.372-.1-.254.068c-4.97-.272-9.024-.39-13.645-.716-2.131.082-1.08.1-1.755.213C676.263 312.013 682.861 312.906 688.774 312.6z" transform="translate(88.847 -301.797)"/><path class="d" d="M666.947 311.917c.331.036.34.068.386.0l.39-.141-1.941.141C666.761 312.03 665.841 311.98 666.947 311.917z" transform="translate(61.468 -301.673)"/><path class="d" d="M664.669 311.761v.209l1.166-.141z" transform="translate(56.806 -301.726)"/><path class="d" d="M674.61 311.853l-1.147.141-2.049.064.44.072c4.585.277 7.6.44 12.294.431q-4.578-.252-9.151-.5z" transform="translate(85.582 -301.401)"/><path class="d" d="M671.413 311.782l1.755.213.44-.072.44-.068-1.755-.145z" transform="translate(84.831 -301.91)"/><path class="d" d="M672.765 311.57l-.88-.145-.44.145c.1.113-.49.054.88.286z" transform="translate(84.7 -302.914)"/><path class="d" d="M676.17 312.206v-.068l-1.755-.145 1.315.286z" transform="translate(97.194 -300.906)"/><path class="d" d="M672.592 312.053l-1.32-.072-.44-.145C671.6 312.089 670.392 312.053 672.592 312.053z" transform="translate(82.362 -301.464)"/><path class="d" d="M673.711 311.979l1.166-.072-1.166-.068c-.993.195-.739-.05-1.165.349C674.038 312.065 672.954 312.242 673.711 311.979z" transform="translate(89.5 -301.454)"/><path class="d" d="M669.912 311.788l-.435.145 1.315.068z" transform="translate(76.72 -301.63)"/><path class="d" d="M670.333 311.807l-1.555.209 1.555.072z" transform="translate(73.844 -301.563)"/><path class="d" d="M671.387 311.486c-.263-.018-.594-.059-.784-.05-.327.018-.567.064-.844.1l1.619.054A.376.376.0 0 1 671.387 311.486z" transform="translate(77.91 -302.879)"/><path class="d" d="M670.068 311.86l-.385-.068-.39.136.775.073z" transform="translate(75.915 -301.616)"/><path class="d" d="M672.006 311.57l.44-.145-2.195.213 2.195.145z" transform="translate(79.988 -302.914)"/><path class="d" d="M671.474 311.945l-1.32-.141.88.213z" transform="translate(79.523 -301.574)"/><path class="d" d="M671.131 311.33l-.88.218C671.489 311.385 671.267 311.589 671.131 311.33z" transform="translate(79.9 -303.249)"/><path class="d" d="M693.783 334.214l.44-.213-1.315.068z" transform="translate(173.716 -223.284)"/><path class="d" d="M725.421 328.415l-.39.136C725.593 328.673 725.484 328.537 725.421 328.415z" transform="translate(306.607 -242.99)"/><path class="d" d="M732.11 328.281l-.39-.422h-1.551l.385.208-.385.072z" transform="translate(328.029 -244.951)"/><path class="d" d="M731.419 328.287c-1.4.0-.526-.086-1.165.141h1.555z" transform="translate(328.341 -243.491)"/><path class="d" d="M730.35 328.063l-.385-.141-1.165.417 5.047.14-.775-.558.385-.141z" transform="translate(322.676 -245.223)"/><path class="d" d="M732.209 328.285v-.141c-1.864-.145-.979.163-1.941-.209l-1.555.349h3.5z" transform="translate(322.16 -244.68)"/><path class="d" d="M729.408 328.939v-.494l-1.551.422z" transform="translate(318.417 -242.884)"/><path class="d" d="M731.353 328.418l.776.136-.776-.417-1.165.417a3.261 3.261.0 0 0-2.331-.068l3.5.209z" transform="translate(318.695 -243.971)"/><path class="d" d="M729.664 328.152l-.78.281.78.068z" transform="translate(322.59 -243.918)"/><path class="d" d="M731.072 328.106l-.39.141C731.181 328.374 731.072 328.106 731.072 328.106z" transform="translate(329.994 -244.08)"/><path class="d" d="M732.4 328.229l-1.551.281 1.166.073z" transform="translate(330.825 -243.646)"/><path class="d" d="M731.8 328.227l1.945.072-.39-.208z" transform="translate(334.761 -244.133)"/><path class="d" d="M730.868 328.37l.39.213.775-.281-2.721-.073A7.443 7.443.0 0 0 730.868 328.37z" transform="translate(324.561 -243.646)"/><path class="d" d="M739.217 332.67c3.052-.3 6.784.327 8.634-1.61A36.536 36.536.0 0 0 729.3 330.1C731.109 333.074 735.776 332.194 739.217 332.67z" transform="translate(326.157 -239.691)"/><path class="d" d="M729.655 328.176l1.551.073-1.551-.281z" transform="translate(325.861 -244.57)"/><path class="d" d="M729.912 328.583h1.551l-1.165-.354z" transform="translate(326.925 -243.646)"/><path class="d" d="M747.516 323.694l.775-.141-1.941.277C747.734 323.789 746.9 323.916 747.516 323.694z" transform="translate(422.205 -260.142)"/><path class="d" d="M741.695 324.482l.385-.281-1.551.209z" transform="translate(401.627 -257.856)"/><path class="d" d="M742.488 324.8a6.863 6.863.0 0 0-.78.086 10.007 10.007.0 0 0 1.22.136c.526.0 1.006-.082 1.506-.131C743.785 324.863 743.154 324.823 742.488 324.8z" transform="translate(405.794 -255.729)"/><path class="d" d="M746.49 323.723l-1.166.209.776.068z" transform="translate(418.575 -259.542)"/><path class="d" d="M739.844 324.465c1.306-.091.277.059 1.166-.141z" transform="translate(399.206 -257.422)"/><path class="d" d="M746.5 325.529a12.057 12.057.0 0 0-2.453-.263 18.456 18.456.0 0 0-2.317.277l3.605.331C745.788 325.747 746.745 325.606 746.5 325.529z" transform="translate(405.869 -254.099)"/><path class="d" d="M734.193 328.2v.277l2.716-.068z" transform="translate(344.77 -243.752)"/><path class="d" d="M733.9 328.726l.776-.209-.776-.073-.39.213z" transform="translate(341.771 -242.884)"/><path class="d" d="M736.768 325.857l1.32-.073-.44-.145z" transform="translate(355.283 -252.783)"/><path class="d" d="M739.944 328.476l-.39-.277h-5.432l-1.555.558.775.349a20.219 20.219.0 0 1 5.827.073l-.39-.7.39.281z" transform="translate(338.521 -243.752)"/><path class="d" d="M739.758 324.806c1.288-.172.458.023 1.166-.281l-1.166.073z" transform="translate(398.902 -256.713)"/><path class="d" d="M740.111 324.612l-.775-.349-.776.349.776.209v.073z" transform="translate(394.667 -257.637)"/><path class="d" d="M740.191 324.559l.39.209v-.49h-.39l-.775.281z" transform="translate(397.693 -257.584)"/><path class="d" d="M741.128 324.405l2.331-.281h-.775z" transform="translate(403.744 -258.128)"/><path class="d" d="M728.252 328.044l-1.166.141C728.483 328.207 727.381 328.244 728.252 328.044z" transform="translate(315.187 -244.299)"/><path class="d" d="M727.519 328.183l-.775.349 1.551.073.39-.281h-.776z" transform="translate(313.849 -243.808)"/><path class="d" d="M729.417 328.684l.39.213c1.374-.444-1.882-.471-2.721-.422A10.26 10.26.0 0 0 729.417 328.684z" transform="translate(315.378 -242.842)"/><path class="d" d="M727.776 328.492l-.775.281 1.165.068z" transform="translate(314.835 -242.718)"/><path class="d" d="M727.258 328.267l1.166.14-.39-.208z" transform="translate(315.899 -243.752)"/><path class="d" d="M727.609 327.908l-.39-.281-.39.14z" transform="translate(314.084 -245.77)"/><path class="d" d="M732.114 327.572V327.5l-2.716.209 1.165.073.39.141C731.62 327.672 730.387 327.7 732.114 327.572z" transform="translate(324.917 -246.204)"/><path class="d" d="M730.362 329.2a7.722 7.722.0 0 0-1.206-.181c-.657.0-1.369.059-2.059.1l1.138.2C728.947 329.279 729.655 329.238 730.362 329.2z" transform="translate(315.445 -240.856)"/><path class="d" d="M726.8 328.322h-.39l-.775.349 1.941.141z" transform="translate(309.241 -243.318)"/><path class="d" d="M725.973 328.538l.012.013H726z" transform="translate(310.466 -242.555)"/><path class="d" d="M727.121 328.523l-1.143.081.757.408C728.1 328.736 727.27 328.981 727.121 328.523z" transform="translate(310.637 -242.609)"/><path class="d" d="M726.968 328.949l-.377-.408-.789.059z" transform="translate(309.871 -242.546)"/><path class="d" d="M727.734 328.31l-.775-.281-.386.281z" transform="translate(313.063 -244.352)"/><path class="d" d="M735.61 327.658l-.39.141 1.166.141z" transform="translate(348.858 -245.66)"/><path class="d" d="M738.137 328.611c-1.02-.032-1.968-.082-2.911-.077-.268.0-.852.195-.739.209.8.077 1.741.127 2.635.186z" transform="translate(346.024 -242.57)"/><path class="d" d="M733.08 328.467v.141l1.551.068C734.168 328.349 734.2 328.5 733.08 328.467z" transform="translate(340.04 -242.833)"/><path class="d" d="M732.309 326.752c.739.041.2.091.78.0l1.161.068A2.884 2.884.0 0 0 732.309 326.752z" transform="translate(336.888 -249.363)"/><path class="d" d="M734.345 326.609l-2.721.281 2.331.277c.666-.286-.789-.145.776-.277z" transform="translate(334.173 -249.361)"/><path class="d" d="M734.193 327.27l.776.141 1.165-.277z" transform="translate(344.688 -247.509)"/><path class="d" d="M732.909 328.121l1.161.141A3.2 3.2.0 0 0 732.909 328.121z" transform="translate(339.291 -244.027)"/><path class="d" d="M731.2 327.71l.775-.213-.386-.209z" transform="translate(332.16 -246.966)"/><path class="d" d="M730.73 327.429l-.39.141h1.165l.385-.281C730.544 327.356 731 327.224 730.73 327.429z" transform="translate(328.697 -246.966)"/><path class="d" d="M733.918 328.281l-1.165-.7v.209c-1.22-.277-.381-.027-.386-.349l-1.941.281 3.106.422z" transform="translate(329.253 -246.423)"/><path class="d" d="M730.939 327.569l.78.14-.39-.422z" transform="translate(331.097 -246.966)"/><path class="d" d="M731.282 327.6l.776.208C732.035 327.745 732.443 327.455 731.282 327.6z" transform="translate(332.521 -246.014)"/><path class="d" d="M730.858 327.606l-.385-.349-.39.281z" transform="translate(327.553 -247.075)"/><path class="d" d="M732.058 327.458l-.776.068C732.148 327.531 731.454 327.535 732.058 327.458z" transform="translate(332.516 -246.366)"/><path class="d" d="M734.212 328.454v-.209c-1.977.163-1.583-.009-2.331.349l2.331.281z" transform="translate(335.157 -243.59)"/><path class="d" d="M688.515 312.348l.435.286v-.5l-1.755.286z" transform="translate(150.102 -300.404)"/><path class="d" d="M722.244 316.241c.259.027.689.018 1.052.023l-.209-.177-.993.036C722.135 316.164 722.067 316.228 722.244 316.241z" transform="translate(294.525 -286.48)"/><path class="d" d="M722.81 314.878l-.775.141 1.551.141z" transform="translate(294.316 -290.709)"/><path class="d" d="M722.891 314.381a8.547 8.547.0 0 1 1.941.068v-.068c-.794-.258.186-.14-1.941-.213z" transform="translate(297.898 -293.218)"/><path class="d" d="M725.288 328.692h1.165l-.385-.277z" transform="translate(307.744 -242.99)"/><path class="d" d="M1896.948 421.333c-4.975-2-11.136-1.938-17.293-2.069-16.157-.335-32.289-.154-48.441.321-6.624.67-13.166 1.6-20.058.81a39.273 39.273.0 0 0-8.942.987 24.858 24.858.0 0 1-3.51.5 20.991 20.991.0 0 0-7.478-.158c-1.773-.149-3.551-.326-5.324-.435v-.113l-1.115.055c-2.261-.086-4.522-.136-6.763-.1l-.082-.1 1.49-.285c6.64.267 8.2-.607 14.431-1.286l-1.989-1c1.547-.177 5.519-.588 3.479-.715-.314-.122-5.453-.7-4.476-1.426 2.9-2.164 9.014-2.5 7.4-3.3a24.234 24.234.0 0 1 4.163.321 26.985 26.985.0 0 0 4.43-.24c1.917-.475 2.929-1.146 2.9-2.051l.221.063a11.56 11.56.0 0 0 3.515.145c4.178.928 9.816.652 12.354 2.934-.015.421-.01.838.016 1.259q3.1.7 6.2 1.4h0c8.875 3.165 15.417-.883 23.079-1.476a9.7 9.7.0 0 0 2.482.819c6.527.62 12.822-.29 19.194-.575 3.4 4.967 13.526-.091 19.482 1.069q-4.308-2.228-8.634-4.455h0c-5.308-2.517-13.958-3.473-17.292-7.665 9.769 1.929 16.64-.965 24.9-1.843-6.557-3.4-15.412-.4-22.092-2.25l-6.6-.448c-4.969-2.205-11.507-.752-17.123-1.444-4.5-2.291-8.993-5.062-13.536-.014h-.005c-2.754.1-5.524.14-8.253.313-11.429.72-21.2 1.793-7.308 7.453.262.109-.8.856-1.249 1.3h0c.344.172.689.348 1.033.521-.54.118-1.08.236-1.624.34v0a8.942 8.942.0 0 0 .591-.865c-7.251 1.435-13.181-2.038-20.309-1.078-.051.244-.128.489-.2.733l-3.906-.05-.442.322 4.239.113-.026.113c-7.076.779-13.392.675-16.748-2.848l-3.407-.068c-2.071 2.373 2.138 3.26 4.959 4.478l-1.367.457-1.49-.072c.436-.48 1.3-.322-.5-.643l-4.975-.856-.5.643-.5-.072-.5-.176v-.394c-1 .072-1.989.14-2.986.213l-.679-.163c-.288-1.381-.812-2.667-5.915-2.382-2.087.113-2.817.639-3.007 1.3-.236.018-.5.05-.745.077l.719.041a2.671 2.671.0 0 0 .072 1.1l-2.39-.186 1.995-.43c-1.5-.072-2.986-.14-4.482-.213l-.992.643c-.154-.507.1-.6-1.5-.715l-3.566-.267c.416-.3.827-.616 1.218-.955l-17.124-4.374a5.083 5.083.0 0 1-1.839-.213 26.3 26.3.0 0 1 2.9-.475c-2.194-.326-2.051-.362-1.989-.5-.539-.353.483-.249 1.989-.5-5.967-.353-6.208-.063-7.467-.856a9.7 9.7.0 0 1-2.981.213l1.49-.213-.5-.073c-3.432.077-3.14.186-4.476-.145l2.985-.643c-2.893-.249-8.746-.439-9.954-.57a14.477 14.477.0 0 0 2.986-.213l-1.989-.073-2.986-.358 2.487-.358 9.435.285-.381.2c3.233.53 6.871.607 13.382-.122-3.885-.109-6.8-.195-9.441-.267 2.3-.494 4.481-.4 9.394-.593-.313-.724-3.31-1.132-4.476-1.856.9-.068 1.737-.145 2.611-.217v.208l3.083.208-.884-.208-2.189-.208c1.254-.1 2.507-.2 3.705-.317l.247.036.267-.086.478-.045-.308.34c2.117-.023.422-.068 1.763.213-2.1.041-2.169-.05-2.2.489l3.078-.629.442.349-1.32.208a25.35 25.35.0 0 0 3.52.14l-.879-.7 2.636-.281-.437-.7.437.208a23.768 23.768.0 0 1 3.962.068c2.662-.145.7.054 1.758-.349l1.763.561c.375-.145-.545-.141.442-.141.571-.127.355.041.437.141l2.2-.141.442-.561-2.641.072 1.32-.629-1.758.281c-.478-.172-.22.059.437.208l-.437.14-1.763.068-1.285-.557c.313-.036.673-.073.976-.1l-.909-.217c3.628-.29 6.337-.091 9.137-.1 1.187-.041.072-.018 1.763.14l.436-.349.884.349 2.637-.068-1.321-.421.884.14-1.321-.838c-1.572.145-1.824-.158-3.083.208l-2.2-.421.442.421-2.641-.281-1.758.489c.139-.222.283-.448.421-.67l.458.181c1.336-.208.966-.308.632-.584l.21.009.478.226h1.758l.252-.14 1.953.073.437.136c.457-.036.725-.063.924-.086q10.192.36 20.377.729l-.5-.213q-6.745-.353-13.485-.7h.165l-.683-.023-1.429-.077c.9-.235.514-.3.791-.53 1.285.349.637-.036 1.321.349 2.785-.426 2.605-.294 3.078-.7l.442.557.437-.838a16.142 16.142.0 0 1-5.278-.073l-.442.629-.878-.7-.879.489-.884-.77h-.879l.277-.263c2.148.186 6.912.353 11.311.489l.005.032c1.922.1 3.808.154 5.818.145l1.511.05v.249l3.962-.14-.766-.3c1.12-.063 2.318-.158 3.587-.272l1.357.186.221-.032v.072l.879-.14.334-.109.057-.009h-.016l.067-.018h-.1c-1.85-.761-3.33-.666-6.347-1.259.992.0 2.718-.014 3.366-.073h1.321l-1.758-.213c-2.194-.331-2.564-.045-3.3.208-.164-.036-.323-.063-.493-.1.082-.032.159-.068.272-.1l-.442-.068a14.832 14.832.0 0 0-2.492.249l-1.2.059 1.054-.448c-2.508.159-2.436.109-4.471.122l-4.861-.349 1.5-.072-5.715-.752 3.166.1 6.028.435-.992-.358c2.976-.244 5.432-.285 6.465-.5-.113.0-.206-.023-.319-.032a8.537 8.537.0 0 0 .966-.136l2.641.353 1.315-.281a12.53 12.53.0 0 0 3.084.14l-.442-.489h1.763l.437.14-.375-.272c1.768.14 3.515.322 5.36.5l3.484-.353-3.484-.217 3.484-.285v-.073a11.763 11.763.0 0 1-2.677-.828l1.249-.014c-.329-.213-.473-.059.442-.208l-1.763-.489c-1.1.186-.755-.022-1.223.227-.164-.055-.35-.109-.534-.163v-.077l.576-.14c1.372-.027.56-.023 1.624-.335l.442.349 3.037-1.173 4.3 1.069a22.106 22.106.0 0 0 4.481-.43c-5.432.027-7.046-.824-8.957-1.5l6.465.57-.494-.14v-.5q-4.733-.251-9.456-.5c7.015-.6 1.963-1.349-.087-2.345a33.836 33.836.0 0 0 5.108.195l.879.072v-.421l-5.278-.141.324-.077c.961-.014 1.819-.014 2.667-.009a39.1 39.1.0 0 1 4.486.294 14.9 14.9.0 0 0 2.642-.136l.848-.068c.868.009 1.711.009 2.549.0l-.206-.145c-.18-.073-.391-.131-.591-.19l.036-.013 1.321.281.884-.213-.442-.068c-.873-.054-1.593-.086-2.214-.109-.447-.113-.92-.213-1.4-.3 1.5.045 3 .086 4.5.131l.437-.159c.416.023.833.041 1.244.041a2.207 2.207.0 0 0 .354-.045l.164.023a33.707 33.707.0 0 0 6.162-.136l-1.762-.073s-3.541-.281-6.629-.285l-.067-.027-.154.027a24.04 24.04.0 0 0-2.826.145c-2.071-.05-.5.1-1.321.281-1.012-.19.2-.2-1.3-.14h-.015l.868-.9h.016l.432.412h1.321l-1.321-.91h1.321l.879.91c1.074-.217.9-.127 3.078.068 1.5-.082-.216-.2 1.321-.136.458-.362.077-.466-1.321-.489a17.858 17.858.0 0 0 3.083-.353c1.47.253 1.932.235 1.321.489 3.161-.2 1.141-.475 2.24-.693l1.28.068.329.1-.329.1 1.321.208 3.957-.489V375.1l1.321.629.386-.924.935-.195 1.321.417.437-.417v.208l2.2-.629.442.28 1.321-.489-.879.281.437-.353 3.489.063-2.606.149 2.2.208a17.5 17.5.0 0 1 4.4-.281l-.545-.43-1.6-.2c.74-.059 1.511-.122 2.328-.186-3.546-.068-6.239-.122-9.281-.181l-.585-.326 2.641-.14-1.763.281L1840 373c-.889-.208.216-.2-1.32-.14l9.24-1.467c-3.911-.149-11.182.915-14.872 1.5.134.0.36.018.791.032 1.017-.127.936-.045 1.4.109l-2.467-.05.057-.054-.308.05-3.243-.063.159-.059h-.879c-.93.077-1.542.118-2.132.149l-.221-.408a8.043 8.043.0 0 1-3.48-.072l.992.285-1.491.145v-.073l-1-.285 1-.145-1-.14 3.484-.073a4.6 4.6.0 0 0-1.233-.684l-.756.326-1.089-.272-.9-.231c-1.161.05-2.323.1-3.479.145l-1-.145.5-.5c1.213.2.082.272 1.989.213-1.536-.294-.159-.113 1.989-.285l1.994.43.992-.358c-1.747.032-.555.077-1.491-.145l1.9.14.036.023c.247-.027.679-.063 1.192-.1l.854.367c-2.672.022-1.054-.181-2.488.145l1.5.425.5-.068c2.189-.639 1.9-.457 1.984-1.032.318-.023.622-.041.879-.055-.113.045-.236.1-.375.154l3.479.073-.827.539c-3.186.276-5.848.53-6.255.67 3.1-.245 6.861.163 7.483-.349l.879.276 8.8-1.046v-.032c2.4-.027 8.1-.122 9.826-.344 9.826-1.263 2.6-2.549 8.459-3.427l-2.986-.5 2.986.426h.5l-.5-1.286c-1.326.05-2.652.1-3.977.145v-.285l-.5-.073 3.484.073v-.073c-3.217-.249-2.236-.561-1.5-1.073-2.518.132.108.24-2.487.145l1-.072 1.49-.5a4.615 4.615.0 0 1-2.986-1.145c-1.5.235-.842.009-.992.358-4.718-.761-.118-.752-5.478-1.214l1.5-.145c-3.706-.521-8.264-1.616-14.431-1.5l-1.4-.724.143.018a15.759 15.759.0 0 0 1.932-.435c.175-.081-.648-.19-1.017-.285l-2.015.208-.133-.068H1827.7l1.989-.358-4.975-.285-1 .213-.5-.285c.056-.213-.247-.023 1-.358a10.368 10.368.0 0 1-3.787-.611h.015l-.072-.009a18.168 18.168.0 0 0-2.128-.235l-.087.036-.185-.014.272-.236q-5.72-.5-11.444-1l-1.491.285-.5-.57c-1.968.068-.565.1-1.989-.145-1.3.131-.874.281-1.5.073-3.741.1-11.064-.557-15.736-.738-7.564-1.648-18.87-3.826-25.674-3.038l-3.52-1.607 1.321-.629v.281c1.691-.724-.843-1.462-1.321-1.607l-1.32.281-1.321-.629v.417l-2.636-.349-.884.14c.694-.226-.231-.195 1.321-.14l-.879-.906v.276c-.724-.335-2.461-1.023-4.825-1.843-.149-.05-.313-.108-.468-.158-7.01-2.4-19.025-5.777-27.268-4.917l-.442-.838-.437.14c-1.511.2-.74.027-.442.421l-1.757-.073.437-.838c-1.275.091-1.228.512-2.657.906a7.051 7.051.0 0 1-1.8-.534l.935.045c-.719-.29-.015-.172-.879-.276l-.262.122a5.52 5.52.0 0 0-1.5-.684l.437-.14.879.14 1.321.349c1.028-.149-.072-.063 1.321-.068.149-.693-3.9-.674-5.72-.978l-1.757.281.878-.561-.878-.141a5.5 5.5.0 0 1-1.763.141 5.7 5.7.0 0 0 1.763.14l-1.763.421v-.489c-.586.091-1.172.186-1.758.276v-.208l.878-.557c.35.009.6.0.864.0h.016a7.085 7.085.0 0 0 2.641-.484c.406.313-.216.24-1.32.625l1.32-.136c.113.136.17.081.879.0.879.321.324.091 2.2.136l.879.7c.478-.493-.349-.326 1.763-.838-1.609.041-1.424.29-1.763.068l-1.757-.349 1.757.281.884-.421-3.083.068 2.2-.276v-.349l-.437.208c-2.467-.3.689-.652.437-1.118 2.241.023 1.013.0.442-.349h1.763l-.884-.213-.437.14c-1.845.19-.781.014-.884.349l-1.315-.349v-.349c-1 .149-2.261-.063-1.321.14l-1.321-.072.879-.349.879-.068 2.642.629.442-.072-1.321-.557 2.2.557.879-.208a3.6 3.6.0 0 1 1.65 1.39l-1.208-.063-.442.213 1.66-.131a1.463 1.463.0 0 1 .1.2l1.757-.208c.355.109-.488.158.879.557h.442c.313-.394-.647-.543-2.641-.77v-.136l2.641-.213.442.489c.252-.534 1.979-.828-.442-.905l1.321-.561.879.421c.144.154.231.023-.442.14l2.641.417-1.32-.349c1.706-.149 2.79-.023 2.2-.489l-.879.349-.436-.208a4.046 4.046.0 0 0-1.583-.512c1.141-.14.806-.018.261-.326l-.385.3a14.2 14.2.0 0 0-2.256-.236l2.2-1.118-.879.629c2.621-.222 1.161-.1 1.32-.489l3.078-.208-.442.276-3.078.561.879.14 1.763-.349.878.489.442-.421 1.321.91 1.315-.072-1.315-.978c2.662-.249 5.221-.24 4.836-1.046l3.083.416-1.763.213.442.068.437.068 1.763-.136-3.078-.77 1.758.068-2.2-.629h-.442l-1.758.562-.442-.281-.879.421c.586-.326 1.171-.652 1.763-.978l-1.763.208-3.078-1.467h.437c.864.783 2.045.987 4.841 1.186-.406-.14-.36-.05.442-.14-.149-.534-.293-1.069-.442-1.607h.879l.442.072c.843.344.206.0-.442.417l1.321.072c.966-.108 2.189-.208 3.366-.294.473-.023.524-.023.478-.036 1.938-.136 3.639-.231 3.639-.231l.879-.417c-1.891-.235-1.83-.208-2.642-.91l-1.758.421-.442-.141-1.321-.561 1.321.421 1.321-.073-.442-.557c-2.235.027-.786-.2-2.2.068l.442-.7v.349a7.794 7.794.0 0 1 3.52-.14l.879-.7-.437.421 2.2-.421c-2.344-.394-1.917-.285-2.641-.77l-.879.14c-1.9-.747.18-1.435-5.283-2.445-2.713.657-41.23-1.72-52.361-1.05q-15.179-.2-30.361-.417c-8.228.847-73.616-1.363-89.321-.91-.267.009-.53.014-.8.018l-.4-.344v.285l.226.063q-2.86.075-5.652.1c.457-.385.025-.457.95-.81a26.907 26.907.0 0 1-3.983-.145l.5.43-1.5-.145-.992.571.992-.14 3.443.245c-8.31.086-16.1-.081-23.013-.254l-2.822-.349-1.048.254c-7.086-.177-13.063-.29-17.431-.027l-2.837-.149-.2-.1c-1.377-.073-.735-.014-.858.163l-.216-.032-.684-.272-.442.349c-1.619-.045-2.595-.081-3.314-.118l-.334-.145-1.182.059c-.375-.022-.776-.05-1.326-.073l-2.2-.072v.072l2.636.141c-3.654.213-9.816.281-17.339.267l-.494-.177-.524.172h-.827l.359-.1c-.416.045-.786.072-1.115.1-10.92-.045-24.281-.245-37.16-.435l-.041-.018-.252.014-1.562-.023.324-.136-2.472.1c-20.474-.3-38.841-.534-42.736-.045q-9.559-.1-19.117-.208c-4.3-.181-8.233-.358-11.686-.521v-.249l-.437-.072-1.727.222c-.493-.022-.945-.05-1.413-.073-.252-.181-.406-.385-.277-.589h.935l.719.231.417-.394h.026v.331l1.587-.19-1.356-.154c.129-.009.2-.014.411-.032l4.425.127-1.11.177h2.2l.442-.068V318.8c.159.027.319.059.442.077v.249l.755.059.314.136 2.348-.281.776.122c.18.1.56.0 1.85.231h.5l.992-.43v.43c12.529-.426 42.13 1.385 47.767.783-2.7-.2-.915-.136-2.986-.5-5.1.172-8.993-.67-13.433.068v-.353c-4.43.521-6.583-.335-10.448.14l-1.5-.783-5.972-.145v-.072c3.212-.29 1.285-.109 1.5-.5l5.473-.358c-4.846-.312-28.239-.05-31.348-.43-3.731-.453-9.805-.7-16.249-.8a16.823 16.823.0 0 0-2.339-.122c-.57-.195-1.249-.376-1.917-.557l2.6.05c.524-.091 1.053-.177 1.583-.267l.9.195v.14h.5l.992-.425h1v.072l-1.5.285c3.844.1 10.211.226 12.94.358v.285l1.989-.145 1 .073c.087-.118-.231-.263.493-.145-2.307-.611-8.068-.367-11.938-.358l-3.484-.57-2.611.19 1.12-.19-1-.14a20.07 20.07.0 0 1-3.484-.145l-1.989.358c-.19-.082.412-.457-1-.285-.38-.063-.976-.122-1.747-.181-2.708-.525-5.935-.983-9.558-1.376l.36-.158-.5-.068v.208c-.642-.068-1.29-.136-1.958-.2h-.031.0c-21.091-2.087-392.888-2.35-426.224-2.246v-.041h-1l.211.045c-.863.0-1.717.0-2.575.009l.874-.127c-1.979-.018-3.572.213-2.487-.073l-.5-.073v.276l-1.665.009-.822-.353a8.454 8.454.0 0 1-2.487.213l.354.154c-9.5.045-18.865.109-27.791.154-13.156-.9-48.543-.942-75.549-1.082l-.015-.013v.013c-15.443-.081-28.151-.19-32.34-.511q-3.731.177-7.462.358l.992-.285-1.988.285-1.5.073 1.5.14c-11.342.761-40.167-.96-53.241.285-1.13-.466-22.966-.471-28.86-.285q-49 .36-98.021.715-6.029.265-12.056.525c-1.377-.036-2.668-.077-3.752-.15l1.491-.145-1.491-.072-1.994-.285 1 .285q-3.731-.177-7.462-.358c-2.945.226-10.139.348-19.482.426V453.339c.684-.041 1.362-.086 2.045-.127h0q8.071-.2 16.132-.4c10.817 2.309 16.727-4.347 27.062-2.916h0c9.729.326 18.095-1.825 27.036-2.929l6.707-.131c1.223-.036 2.451-.068 3.679-.1a35.341 35.341.0 0 0 14.734-.3c24.287-6.588 51.683-4.025 77.548-4.976 16.635-.611 33.275-.91 49.915-1.023l-.159.014v.073l4.4-.073-.473-.036q7.385-.034 14.764-.023l-1.531.059 1.762.208 1.758-.068v-.2c.7.0 1.409.0 2.113.0l-.35.054h1.758l-.314-.05 4.569.027.144.023-.036-.023 2.179.014.057.009h.884.015q4.787.034 9.584.081l.077.063c.108-.027.185-.036.282-.059q7.084.068 14.173.168l-3.453.172.879.281.442.068c2.05-.408.791-.353 3.52-.281l.529-.208h.2l-.293.14h.885l-.283-.136.637.009.524.127q1.8-.034 3.608-.064c38.995.616 77.984 1.73 116.974 2.2 64.911.77 467.85.213 532.637-1.481q61.067-1.589 121.97-.729c-.252.009-.509.05-.766.077a7.78 7.78.0 0 0 .858.09 8.043 8.043.0 0 0 .935-.09c-.231-.023-.462-.059-.694-.073q52.695.822 105.257 3.867c10.469.62 22.072 1.829 30.572-3.187 2.2-1.3 8.315-1.6 10.987.982v0c-.026 3.061-.108 3.341 7.025 3.767 38.167 2.277 75.163 1.236 108.942-8.141 10.016 1.983 19.883-.629 29.868-.236 1.213.05 4.553.7 3.14-1.317-2.437-3.482 6.341-4.895 7.909-6.851C1890.046 426.644 1902.647 425.77 1896.948 421.333zm-245.439-9.92c-.185.013-.344.054-.545.054l-.046-.113C1651.113 411.372 1651.308 411.4 1651.509 411.412zm-58.852-.811c-.257.0-.514.0-.833.0l-.878-1.132A4.822 4.822.0 0 1 1592.657 410.6zm-181.915 9.336c-.879.118-1.763.226-2.647.326l-.37-.158c-.345.158-.339.186-.005.2-10.591 1.159-21.507 1-32.294 1.272a5.268 5.268.0 0 1-2.035-.543c1.614-.059 11.44.244 15.422.0-4.353-.421-5.545-.349-7.775-.716h1.311a23.075 23.075.0 0 1 2.487.073l-1.495-.285-2.369.2c-.34-.059-.7-.122-1.11-.2-5.324.349-14.035-.593-18.413-.145l2.487.145c-1.948.14-5.422.113-9.066.013a18.381 18.381.0 0 0-8.69-.883 11.131 11.131.0 0 1-1.018.484c-1.839-.1-3.186-.2-3.617-.258v-.145h3.982l.5-.213-1.993-.072-4.476-.213v-.285l6.963-.073-.992-.358 3.978.43 14.929-.145v.072c-.725.34-1.506.154 1 .43l-3.484.285h12.935c.946-.2-1.809-.059-3.484-.145h1l-.5-.213c5.869.181 8.438.213 9.954.571l1.989-.213-1-.217c3.751.2 20.484.657 23.388.217l1.989.643 1.5-.285v.353l1.49-.285zm52.212 1.168-2.986.5c-3.253-.163-5.083-.149-6.968-.072l-1.491-.426-1.49.068v.073l5.606 1.3a56.112 56.112.0 0 0-16.26-.534c-2.148-.254-4.266-.53-6.228-.937-1.049-.2-2.1-.439-3.166-.679 2.107-.394 9.1-.6 13.079-1.367 4.666.53 5.489-.208 7.462.643l1-.358 1.989.57 1.5-.5v.928l.992.213v-.285l.5.43a11.961 11.961.0 0 1 3.484.0h-2.986l1.491.285 2.492.358a5.093 5.093.0 0 1 1.989-.285zm109.281 1.766-.313-.195a5.1 5.1.0 0 1 .606.109C1572.43 422.818 1572.327 422.84 1572.234 422.872zm4.117-1.019c-1.007.186-1.917.4-2.791.639-.463-.073-.976.072-.643-.172.0.0.339-.4 1.989-.285l-1-.5.5.217c2.487-.19 4.979-.385 7.462-.575l.448.055A56.742 56.742.0 0 0 1576.351 421.853z" transform="translate(-544.293 -309.103)"/><path class="d" d="M658.925 312.021l-.859-.064-.059.112z" transform="translate(29.212 -301.034)"/><path class="d" d="M720.75 315.381h.78l-.39-.209z" transform="translate(288.92 -289.669)"/><path class="d" d="M722.377 315.017v.213h1.941z" transform="translate(295.77 -290.217)"/><path class="d" d="M726.459 328.821v-.281L724.9 328.4l-.385.209 1.551.072z" transform="translate(304.634 -243.047)"/><path class="d" d="M720.75 315.43l1.165.073 1.165-.281v-.068l-2.331-.213 1.165.422-.775-.073z" transform="translate(289.072 -290.489)"/><path class="d" d="M723.153 315.113l-.385-.281-.39.349z" transform="translate(295.655 -290.871)"/><path class="d" d="M722.857 314.215l-1.165.49 1.165-.141.39-.281z" transform="translate(292.896 -293.052)"/><path class="d" d="M724.33 314.64l-1.138-.159-1.465.154a7.184 7.184.0 0 0 .816.086C723.156 314.712 723.736 314.672 724.33 314.64z" transform="translate(293.145 -292.112)"/><path class="d" d="M723.586 314.769c-1.2-.19-.376-.068-1.551.073l1.551.208-.385.141C724.452 315.032 723.527 314.846 723.586 314.769z" transform="translate(294.343 -291.439)"/><path class="d" d="M692.966 334.221l-.44-.072-.44-.068C691.447 334.252 692.608 334.193 692.966 334.221z" transform="translate(169.512 -223.005)"/><path class="d" d="M692.036 334.148l2.194.145-.44-.213z" transform="translate(170.18 -223.005)"/><path class="d" d="M726.116 328.929l.39-.422-2.331.349z" transform="translate(303.253 -242.666)"/><path class="d" d="M693.937 333.938h-1.32v.213l1.76.073z" transform="translate(172.549 -223.506)"/><path class="d" d="M690.681 334.145 692 334l-.875-.141z" transform="translate(164.497 -223.785)"/><path class="d" d="M686.38 333.972v-.145l-1.315.072z" transform="translate(141.249 -223.898)"/><path class="d" d="M693.712 334.293l-.44-.213C691.93 334.134 693.222 334.212 693.712 334.293z" transform="translate(172.751 -223.005)"/><path class="d" d="M696.736 334.032l-.44.145C696.8 334.064 696.75 334.191 696.736 334.032z" transform="translate(187.667 -223.174)"/><path class="d" d="M725.854 328.291l-1.165.49 1.551-.208z" transform="translate(305.303 -243.428)"/><path class="d" d="M705.789 334.313l.44-.218-1.315.073z" transform="translate(223.417 -222.952)"/><path class="d" d="M726.754 328.819l.39-.281-1.941.073z" transform="translate(307.47 -242.556)"/><path class="d" d="M693.682 334.447l2.635.213v-.644l-2.195.218C694.458 334.451 694.838 334.32 693.682 334.447z" transform="translate(177.032 -223.231)"/><path class="d" d="M696.1 334.214l.44-.213-.44.068z" transform="translate(186.868 -223.284)"/><path class="d" d="M719.3 315.973l-1.165-.354-.385.281z" transform="translate(276.593 -288.09)"/><path class="d" d="M719.209 316.3l1.555.209.385-.839z" transform="translate(282.654 -287.923)"/><path class="d" d="M720.936 315.5l-1.556.068C720.536 315.763 719.847 315.709 720.936 315.5z" transform="translate(283.325 -288.524)"/><path class="d" d="M719.428 316.353v-.208l-.39.49S720.634 316.466 719.428 316.353z" transform="translate(281.84 -286.279)"/><path class="d" d="M720.237 315.156v.213l1.551.209z" transform="translate(286.872 -289.726)"/><path class="d" d="M719.984 316.3H719.6l-.39.213.775.068z" transform="translate(282.541 -285.736)"/><path class="d" d="M720.8 315.758l-1.165.281h.78z" transform="translate(284.351 -287.598)"/><path class="d" d="M719.637 315.357v.422l1.165-.073z" transform="translate(284.351 -289.016)"/><path class="d" d="M721.36 315.969V315.9l-1.551.281C721.392 316.065 720.308 316.26 721.36 315.969z" transform="translate(285.101 -287.15)"/><path class="d" d="M717.925 316.434l.775.136v-.349l-.385.072z" transform="translate(277.226 -286.007)"/><path class="d" d="M719.172 315.943l-1.161.141.775.141z" transform="translate(277.619 -286.988)"/><path class="d" d="M719.395 315.9c-1.51.163-.871.032-1.555.349z" transform="translate(276.945 -287.15)"/><path class="d" d="M718.011 315.4v.14C718.537 315.444 718.433 315.521 718.011 315.4z" transform="translate(277.541 -288.853)"/><path class="d" d="M717.754 316.08l1.941-.63c-.97.113-.277.131-1.166.0z" transform="translate(276.631 -288.687)"/><path class="d" d="M719.3 316.206v.281l1.166.136z" transform="translate(282.935 -286.06)"/><path class="d" d="M719.38 316.156l1.165.068-.385-.141.385-.141z" transform="translate(283.287 -286.988)"/><path class="d" d="M718.353 315.993c.653-.109.707.059 1.165-.281h-.39z" transform="translate(279.036 -287.761)"/><path class="d" d="M719.3 315.211l.776.072-.39-.281z" transform="translate(282.897 -290.27)"/><path class="d" d="M720.927 315.965l.39-.562-1.165.14z" transform="translate(286.478 -288.853)"/><path class="d" d="M719.894 315.47l1.166-.349-1.166-.073z" transform="translate(285.415 -290.108)"/><path class="d" d="M718.824 316.048h.78l-1.165-.213v.281z" transform="translate(279.392 -287.326)"/><path class="d" d="M720.893 315.666h-.386l-1.555.349 1.555.068z" transform="translate(281.591 -287.923)"/><path class="d" d="M719.038 316.156c.848-.145.472-.018.0-.213z" transform="translate(281.807 -286.988)"/><path class="d" d="M718.267 315.854l.78.068-.39-.349z" transform="translate(278.642 -288.252)"/><path class="d" d="M719.471 316.16l.386-.417H718.7v.209l.775-.068z" transform="translate(280.455 -287.651)"/><path class="d" d="M719.038 316.177l.775.209h.39l.386-.209-1.551-.141z" transform="translate(281.909 -286.66)"/><path class="d" d="M718.867 315.882l1.166.14A3.006 3.006.0 0 0 718.867 315.882z" transform="translate(281.163 -287.16)"/><path class="d" d="M718.353 316.1l1.555.49C720.9 316.13 718.58 316.107 718.353 316.1z" transform="translate(279.097 -286.441)"/></g></g></svg>