<svg xmlns="http://www.w3.org/2000/svg" width="50" height="50" viewBox="0 0 50 50"><defs><style>.a{fill:none}.b{fill:#003687}</style></defs><g transform="translate(-14 -2)"><path class="a" d="M0 0h50v50H0z" transform="translate(14 2)"/><g transform="translate(-497.173 -670.324)"><path class="b" d="M519.148 697.1H517.5v-3.446l-1.806 3.446H514.64l-1.816-3.467V697.1h-1.651v-6.912h1.671l2.322 4.282 2.321-4.282h1.661z" transform="translate(0 -0.707)"/><path class="b" d="M563.233 697.1l-.485-1.259h-2.91l-.485 1.259h-1.826l2.889-6.912h1.744l2.889 6.912zm-1.94-4.994-.877 2.27h1.764z" transform="translate(-38.03 -0.707)"/><path class="b" d="M605.639 697.1l-2.084-2.373h-.5V697.1h-1.7v-6.912h3.5a2.568 2.568.0 0 1 1.806.624 2.115 2.115.0 0 1 .681 1.636 2.16 2.16.0 0 1-.485 1.429 2.313 2.313.0 0 1-1.331.769l2.167 2.455zm-.97-3.8a1.1 1.1.0 0 0 .727-.227.751.751.0 0 0 .273-.609.739.739.0 0 0-.273-.6 1.1 1.1.0 0 0-.727-.227H603.06V693.3z" transform="translate(-73.988 -0.707)"/><path class="b" d="M644.247 693.8a3.171 3.171.0 0 1-1.187 2.012 3.654 3.654.0 0 1-2.3.732 3.589 3.589.0 0 1-2.605-1.042 3.618 3.618.0 0 1 0-5.133 3.58 3.58.0 0 1 2.605-1.047 3.673 3.673.0 0 1 2.265.722 3.108 3.108.0 0 1 1.212 1.929l-1.671.392a1.734 1.734.0 0 0-1.806-1.486 1.876 1.876.0 0 0-1.4.588 2.167 2.167.0 0 0 0 2.935 1.869 1.869.0 0 0 1.4.593 1.791 1.791.0 0 0 1.161-.387 1.985 1.985.0 0 0 .655-1.14z" transform="translate(-103.301)"/><path class="b" d="M686.3 697.1h-5.385v-6.912h5.355v1.465h-3.652v1.3h3.353v1.383h-3.353v1.3H686.3z" transform="translate(-139.259 -0.707)"/><path class="b" d="M720.545 697.1h-5.107v-6.912h1.7v5.427h3.4z" transform="translate(-167.582 -0.707)"/><path class="b" d="M751.608 690.376a3.606 3.606.0 0 1 0 5.122 3.79 3.79.0 0 1-5.231.0 3.605 3.605.0 0 1 0-5.122 3.776 3.776.0 0 1 5.231.0zm-1.2 4.029a2.009 2.009.0 0 0 .568-1.46 2.039 2.039.0 0 0-.568-1.475 1.993 1.993.0 0 0-2.827.0 2.04 2.04.0 0 0-.567 1.475 2.01 2.01.0 0 0 .567 1.46 2.005 2.005.0 0 0 2.827.0z" transform="translate(-192.088)"/><path class="b" d="M541.039 742.656v5.427h-1.692v-5.427h-2.239V741.17h6.17v1.486z" transform="translate(-21.277 -42.535)"/><path class="b" d="M577.987 741.361a3.606 3.606.0 0 1 0 5.123 3.79 3.79.0 0 1-5.231.0 3.605 3.605.0 0 1 0-5.123 3.777 3.777.0 0 1 5.231.0zm-1.2 4.029a2.009 2.009.0 0 0 .568-1.46 2.04 2.04.0 0 0-.568-1.475 1.993 1.993.0 0 0-2.827.0 2.04 2.04.0 0 0-.567 1.475 2.01 2.01.0 0 0 .567 1.46 2.005 2.005.0 0 0 2.827.0z" transform="translate(-49.647 -41.829)"/><path class="b" d="M620.948 748.082l-2.084-2.373h-.495v2.373h-1.7V741.17h3.5a2.568 2.568.0 0 1 1.805.624 2.114 2.114.0 0 1 .681 1.635 2.159 2.159.0 0 1-.485 1.429 2.314 2.314.0 0 1-1.331.769L623 748.082zm-.97-3.8a1.1 1.1.0 0 0 .727-.227.75.75.0 0 0 .273-.609.739.739.0 0 0-.273-.6 1.1 1.1.0 0 0-.727-.227h-1.609v1.661z" transform="translate(-86.548 -42.535)"/><path class="b" d="M658.573 748.082l-2.084-2.373h-.495v2.373h-1.7V741.17h3.5a2.568 2.568.0 0 1 1.805.624 2.114 2.114.0 0 1 .681 1.635 2.159 2.159.0 0 1-.485 1.429 2.314 2.314.0 0 1-1.331.769l2.166 2.455zm-.97-3.8a1.1 1.1.0 0 0 .727-.227.75.75.0 0 0 .274-.609.739.739.0 0 0-.274-.6 1.1 1.1.0 0 0-.727-.227h-1.609v1.661z" transform="translate(-117.416 -42.535)"/><path class="b" d="M697.3 748.082h-5.385V741.17h5.355v1.465h-3.652v1.3h3.353v1.382h-3.353v1.3H697.3z" transform="translate(-148.283 -42.535)"/><path class="b" d="M730.06 740.84a2.3 2.3.0 0 1 .96 1.47l-1.671.341a1.13 1.13.0 0 0-.433-.717 1.263 1.263.0 0 0-.774-.253 1.059 1.059.0 0 0-.671.2.612.612.0 0 0-.258.5q0 .454.557.578l1.434.32q1.9.423 1.9 2.012a1.918 1.918.0 0 1-.815 1.651 3.383 3.383.0 0 1-2.033.588 3.652 3.652.0 0 1-2.048-.552 2.106 2.106.0 0 1-.975-1.542l1.754-.341a1.251 1.251.0 0 0 1.362 1.021 1.263 1.263.0 0 0 .748-.2.606.606.0 0 0 .274-.516.542.542.0 0 0-.139-.392.96.96.0 0 0-.5-.217l-1.444-.309q-1.857-.423-1.857-2a1.91 1.91.0 0 1 .753-1.589 3.128 3.128.0 0 1 1.981-.588A3.244 3.244.0 0 1 730.06 740.84z" transform="translate(-175.617 -41.829)"/></g></g></svg>