<svg xmlns="http://www.w3.org/2000/svg" width="26.621" height="24.999" viewBox="0 0 26.621 24.999"><defs><style>.a{fill:#fff;stroke:#fff;stroke-width:.5px}</style></defs><g transform="translate(0.251 0.272)"><path class="a" d="M145.712 166.541c.008-5.851-4.349-10.845-10.471-12.036-7.026-1.367-14.055 3.017-15.4 9.63a11.505 11.505.0 0 0 1.682 8.792.848.848.0 0 1 .083.638c-.4 1.306-.843 2.6-1.228 3.908a.967.967.0 0 0 .1.842 1.185 1.185.0 0 0 .9.034c1.348-.405 2.677-.87 4.024-1.278a1.14 1.14.0 0 1 .776.063 13.622 13.622.0 0 0 7.812 1.538 13.041 13.041.0 0 0 7.147-2.891 11.946 11.946.0 0 0 4.5-7.869C145.708 167.448 145.692 166.975 145.712 166.541zm-23.964 10.511c.392-1.242.736-2.365 1.106-3.481a1.026 1.026.0 0 0-.123-.974 14.34 14.34.0 0 1-.857-1.481 10.727 10.727.0 0 1 4.193-13.875 12.378 12.378.0 0 1 14.537 1.033c3.678 3.165 4.807 7.14 3.355 11.576-2.249 6.872-10.753 9.857-17.347 6.207a1.506 1.506.0 0 0-1.357-.131C124.14 176.322 123 176.656 121.748 177.053z" transform="translate(-119.592 -154.256)"/><path class="a" d="M163.186 198.057c.276-.213.561-.428.84-.649a.584.584.0 0 0 .134-.874q-1.265-1.938-2.523-3.88a.748.748.0 0 0-.979-.3 3.909 3.909.0 0 0-2.777 5.28 12.16 12.16.0 0 0 2.915 4.8 16.062 16.062.0 0 0 6.024 4.313 6.274 6.274.0 0 0 3.713.4 4.2 4.2.0 0 0 3.1-2.972.7.7.0 0 0-.287-.614q-2.092-1.283-4.238-2.486a1.132 1.132.0 0 0-.758.079c-.171.061-.29.25-.432.383-.59.552-.59.552-1.264.136A10.953 10.953.0 0 1 163.186 198.057zm9.138 6.2a2.875 2.875.0 0 1-3.078 1.871 8.7 8.7.0 0 1-2.435-.632 15.118 15.118.0 0 1-5.726-4.509 9.754 9.754.0 0 1-2.2-4.259 2.674 2.674.0 0 1 1.346-2.99c.417-.241.685-.237.877.221a3.151 3.151.0 0 0 .285.44c.52.811 1.04 1.624 1.57 2.452-.314.286-.587.539-.863.787a.512.512.0 0 0-.116.719 12.209 12.209.0 0 0 4.392 4.464c1.165.647 1.165.645 2.106-.233.071-.066.13-.163.216-.191a.571.571.0 0 1 .383-.028C170.16 202.989 171.23 203.621 172.325 204.261z" transform="translate(-152.599 -187.525)"/></g></svg>