<svg xmlns="http://www.w3.org/2000/svg" xmlns:xlink="http://www.w3.org/1999/xlink" width="245.227" height="358" viewBox="0 0 245.227 358"><defs><style>.a,.c,.e{fill:#fff}.a{stroke:#707070}.b{clip-path:url(#a)}.d,.f{fill:#003687}.d{stroke:#0000;stroke-miterlimit:10}.e{font-size:12px;font-family:Montserrat-Regular,Montserrat}</style><clipPath id="a"><path class="a" d="M0 0h358v245.227H0z" transform="translate(0 857)"/></clipPath></defs><g transform="translate(-52 -657)"><g class="b" transform="translate(1154.227 657) rotate(90)"><rect class="c" width="369.86" height="245.227" rx="30" transform="translate(-11.86 857)"/></g><g transform="translate(97 5)"><g transform="translate(193.305 982.605) rotate(180)"><path class="d" d="M43.188 70.374c-9.064-.371-18.161-.724-26.922-5.5A41.921 41.921.0 0 0 3.509 60.107c-1.592-.277-2.42-2.34-2.955-4.85-1.08-2.388.554-3.614.716-5.47a1.072 1.072.0 0 1 .077-.991l.791.719c.362.248.545 1.454 1.083.718a1.283 1.283.0 0 0 .138-1.42c-1.3-2.314.307-2.6.778-3.686v0c-.324-.469-.655-.928-.972-1.416-.229-.352-.593-.852-.4-1.3.163-.373.624-.318.954-.453-.706-1.643-1.766-2.981-1.481-5.843A12.5 12.5.0 0 1 4.6 39.866c-.345.658.6 1.98-.364 2.318-.1 1.269 1.489 1.469.623 3.222.327.6.444 1.733 1.122 1.46.441-1.362 1.5.035 1.925-1.412.339.0.649.1.831.707.116.248.232.5.348.743.591-.16 1.183-.322 2.089-.57-.166.356-.322.665-.472.922a.437.437.0 0 1 .252-.036l.114-.6.17.232.171-.032c-.05-.223-.149-.15.057-.3L11.5 46.5c.023-.046.055-.093.085-.141l.09.017.36-.253.057.3.057-.032.056-.084v-.183l.341.1.171-.167.232.028v0l.026.006h.031v0c.237.055.121.051.17.146L13 46.122v.168c-.3-.028-.081-.038-.284.067h.454l.739-.234-.227-.2.511-.1.114.3c.018-.233-.012-.278.171-.33l2.748-.842.091-.187.366.048.488-.15-.114-.132c.3-.109.606-.22.909-.332-.266.257-.014.242-.341.4l.057.1h.284l.284-.133.171.1c-.076-.109-.152-.22-.227-.332l.056-.032c.092.034.155.059.206.08A1 1 0 0 1 20.5 44.19l.053-.124.114.068-.155.059.218.056c0-.006.005-.018-.006-.038l.284.035.227.035-.17.035-.057.036-.057-.089h-.078a.335.335.0 0 0-.071.0l.044.01.046.17c-.224.011-.449.019-.7.032-.03.021-.033.019-.059.0l-.185.008-.025.042h-.17c-.119.021-.053.03-.111-.029H19.64l-.394.427.285.132.568-.4a3.634 3.634.0 0 1 .909.133c.034-.162-.1-.1-.227-.331l.454.2.171-.1.227-.067-.227-.132-.057.067h-.056l.056-.233v.067l.284.132v-.132l.17.2.057-.034-.113-.2a4.285 4.285.0 0 0 1.538.162c-.084-.04-.17-.084-.263-.139l1.072.046a.916.916.0 0 0 .493-.236c-.625.011-1.25.023-1.874.034l.113-.366-.17-.1-.846.032.2.038a1.894 1.894.0 0 1-.362.137.627.627.0 0 1-.259-.044.444.444.0 0 1 .078-.118l-2.333.089-.227.2-.057-.166a3.952 3.952.0 0 1-.8.067c-.072-.2.0-.257-.454-.234l-.682-.166L16.8 43.5c.136-.124.119-.113.187-.1a.6.6.0 0 0 .1.005.826.826.0 0 0-.511-.532c.25-.151.233-.169.227-.231.061-.164-.056-.116-.227-.234.681-.164.709-.027.852-.4.17.094.168.149.341.1l-.171-.1.056-.034c.163.015.251.032.311.036a.972.972.0 0 0-.361-.143 2.233 2.233.0 0 1-2.08-.49c-2.575.108-5.065-1.176-7.613-1.5.473-1.12 1.046-.873 1.615-.673v-.044h.792c.343-.892.636-1.058.907-.886l3.694-.782c-.021-.11-.039-.221-.054-.333q-.249-.022-.48-.063v.031h-.542c-.087.291-.38.583-.573.594-.3.016-.43-.223-.474-.556-.548.1-1.357.185-1.728.234l-.284-.1.114-.1a2.587 2.587.0 0 1 .834-.417l-.039-.116c.238-.044.278-.09.34-.164h-.354v-.027l-.1-.008-.056-.032.681-.2-.17-.034.682-.364h-.171l-.909.265.114-.166a3.67 3.67.0 0 1-.739-.231c.36-.089.463-.532.852-.764l.341.1c-.313-.2-.23-.193-.17-.431l-.227.034-.909.73a2.486 2.486.0 0 0-1.534.3l-.4-.167.4-.1-.4-.132v-.034c.334-.244.328-.728 1.022-1.1-.117-.11-.088-.207-.03-.324-.159-.034-.313-.08-.466-.126l.027-.208.57.015a.506.506.0 0 0 .012-.053l-.284-.1a5.119 5.119.0 0 0-.625.2l-.107.11a1 1 0 0 1 .107.1V33.71l.17-.034h.114l-.057.2-.165-.048a1.816 1.816.0 0 1 .261.448c-.267.964-.795.625-1.221.8-.384-.261-1-.558-.258-1.3a1.106 1.106.0 0 1 .134-.112v-.179l1.079-.234c-.861-.3-.13-.677.057-1.195l-.114-.065a6.407 6.407.0 0 0-.96.019l-.018.078c-.172-.015-.345-.03-.516-.047V32.02c-.021.0-.041.0-.062.0l.024-.067c.247-.385.7-.463.795-.8a.775.775.0 0 1-.568-.032l.227-.034H8l.171-.465h-.4c-.115.175-.011.118-.341.166-.521-.191-.82-.185-1.363-.366v-.022a1.2 1.2.0 0 1-.271-.113l.306-.15c.025-.193.05-.385.075-.578.2.113.169.094.4-.034l-.114.132.171.067v-.034l.114-.132L6.637 29.5l.114-.067-.4-.034.027-.072L5.6 29.35a2.5 2.5.0 0 1 .622-.238c-.238-.28-.2-.194-.212-.482.244.091.09.08.284.067l-.114.2a.668.668.0 0 0 .164-.011c.063-.015.005-.031.12.076L6.35 29.1a1.287 1.287.0 0 1 .13.0c0-.006.008-.016.014-.025l.016.027c.051.006.108.013.169.023L6.7 29.1l.1-.105.4.065L7.319 29l-.057-.234c-.139.1-.01.127-.227.1.175-.139.018-.053-.228-.132l-.227.2-.114-.167c.2.015.064.036.171-.065l-.227.065.056-.265-.227.132c-.114-.109-.227-.221-.341-.33l-.341.065c.266.132.272.115.4.332l-.4.034.114.3L5.558 29c-.513.029-.539-.179-1.023-.234a5.362 5.362.0 0 1-1.25-.164c-1.121-.589-.3-1.184-.966-1.595l.341-.231-.341.2H2.264l.056-.6.455.065v-.132l.056-.034c-.133.01-.265.023-.4.034v-.034c.367-.116.254-.259.17-.5.288.061-.012.11.285.065l-.114-.034L2.6 25.578c.161-.025.312-.35.341-.53.171.107.1.0.114.164.539-.352.014-.35.625-.564l-.171-.065a2.839 2.839.0 0 1 1.647-.7q.143-.3.285-.6h.568l-.228-.164.568-.134.114.1.057-.132c-.007-.1.028-.013-.114-.167.438-.04.2-.267.681-.4l.057.1-.057-.2q.654-.23 1.307-.465l.171.133.057-.265c.224.032.064.049.227-.065.147.059.1.129.17.032a3.752 3.752.0 0 0 1.083-.18 4.341 4.341.0 0 1 .961-.184c.289.008.12.082.284.034a22.684 22.684.0 0 0 4.373-1c3.915-.949 8.517-1.256 11.644-2.39l-.739-.463.057-.2.056.132v.132s.384.009.4.0v-.166l.284.1v-.034l-.114-.067-.227-.1-.114.166-.227-.1.114-.034a.446.446.0 0 1 .454-.132l-.227-.3c.1-.034.31-.115.227-.267a2.423 2.423.0 0 0 1.023-.2c-.124-.153-.146-.065-.057-.166.078-.053.05-.045.072-.037a.294.294.0 0 0 .1.0l-.057-.167a7.324 7.324.0 0 1-2.5-.332c-.034.112.1.057-.114.134l-.114-.166.228-.431c-.221-.063-.233.015-.341-.2v-.2l.284.234v-.067l.114-.1-.056-.034a.074.074.0 0 0-.052.011c-.016.011-.016.023-.062-.011l-.341-.231.114-.1h.284l-.114.166c.317-.236.064-.145.171-.333l.227.068c-.11-.116-.093-.013.0-.133l-.171-.1c-.352-.016-.249-.013-.341.133l-.568-.133c-.034-.227-.256-.461-.3-.772L24.7 13.43h.041a.731.731.0 0 1 .016-.265L24.074 13c.224-.126.087-.175.114-.3h.057l.17.065-.113-.53c.237.12.1.15.4.1.2-.019.012.01.171-.065-.165-.091-.119-.146-.227-.366-.655.075-2.5-1.309-2.1-1.892.029.006.068.017.106.027L22.6 9.779c.521-.089.291-.393.909-.333l-.17-.1 1.306-.762.114.1c.113-.03.134-.236.455-.333v.132l.4-.166-.056.1-.171.265.057-.067c.537.04.445-.06.852-.165a1.075 1.075.0 0 1-.341.3l.114.231a1.531 1.531.0 0 1 .8.065l.227-.33.4.034-.114.1a17.757 17.757.0 0 0 3.806-1.362l.114.232c.413-.114 1-.177 1.25.067l-.114-.067-.17.134-.4.065a22.842 22.842.0 0 1-3.579.831l-.114-.067a2.734 2.734.0 0 1-.966.663l-.113-.065c.048.276-.042.156.17.265.059-.044.858-.373 1.193-.5v.1l-.568.829a3.159 3.159.0 0 1 1.249-.132l.057-.2c.56.0.493-.149 1.136-.265v.1l.057.065c-.405.08-.244.068-.4.265l-.114-.2h-.057c0 .168.04.147.057.166.188.1.441.038.568.1l.181.126.159-.093V9.844l.228.1-.382.065.1.07-.114.132-.114-.1.057.2a2.175 2.175.0 0 1 1.08-.333L31.4 9.745l-.454.132c.11-.189.1-.076.0-.2l1.647-.4c-.107.28-.295.341-.909.431v.2c.948-.132 5.029-1.367 5.4-1.262V8.516c-.254-.048-.09-.075-.284-.034-.124.008-.092.118-.512.034v.2a8.546 8.546.0 0 0-.966-.1l.057-.065.4-.1v-.1c-.133.023-.265.044-.4.067l.056-.3L36 8.051l.284.3.284-.1c.008.048-.048.11.056.065.4.057.8.112 1.193.166l.739-.53h.227l1.307.065c.051.0.1-.013.148-.016-.055-.023-.129-.078-.113-.1a1.275 1.275.0 0 1 .3-.173l.233.2a12.381 12.381.0 0 1 2.266-.514l-.113.2a25.324 25.324.0 0 0 4.373-.73l-.056-.2c.791.032 4.069-.381 7.209-.85a.45.45.0 0 1 .162-.65.766.766.0 0 1 .271-.166l-.4.054.053.019-.1.015.009-.027A6.453 6.453.0 0 1 52.19 5.2c.308-.093.1-.061.341-.231a1.82 1.82.0 0 0 .63-.05 1.053 1.053.0 0 1 .9.084V4.833a.854.854.0 0 0 .629.039.75.75.0 0 1 .563.027c.057-.12.114-.242.17-.364l.682-.067V4.435c-.366-.135-.146-.053-.17-.234-.208-.054-.417-.109-.625-.166.552-.143 3.223-.021 3.578-.2a8.7 8.7.0 0 1 3.977-.3c.238-.2.115-.084.454-.234l-.114-.231L63.1 3.006q-1.079.086-2.158.166l-.182-.124-.1.091v.067H60.6l-.114-.2h-.114V3.04l.17.132c-.438.046-1.165.108-1.476.167v.132l-.227-.065-.114.032c-.011-.053.026-.122-.057-.065.263-.286.922-.172 1.364-.167l.4-.265.3.086L60.6 2.941l.114-.067c.1.0.146.0.172.0.068.0-.013.008.225-.065l.228.164c.022-.036-.048-.213.114-.132.728-.484 7.957-.615 9.6-1V1.78l-.568-.2.341.065.284-.164.114-.034.057.1-.228.1h.568l.341-.132.17-.032.171.331c.352-.217 1.037-.284 1.079-.53.133.054.265.109.4.166.4-.189 2.937-.5 3.124-.2.858-.6 5.59-.619 9.087-.692v0c.527-.01 1.022-.023 1.476-.04V.86a11.393 11.393.0 0 0 2.216-.2c.284.058.568.114.852.17L90.416.692l.227.136.171.034-.171.069A2.811 2.811.0 0 0 91.071 1l1.377-.25 11.189-.34a10.82 10.82.0 0 1 3.294.136 8.993 8.993.0 0 1 3.424-.131 9.446 9.446.0 0 0 2.654.0l-.17-.067.17-.035.228-.136-.114.136.852-.17a21.533 21.533.0 0 0 3.693.243v0c3.083.067 7.122.088 8.624.514 1.019-.022 2.088-.052 3.173-.073l-.041-.073a1.165 1.165.0 0 1 .166-.018c.018.0-.035.0.118-.084l.094.168h.19V.684l.057.034c-.084.091-.029.071.086.051a.889.889.0 0 1 .2-.016l-.1.06c.1.0.2.0.294.0L130.5.787h.113v.02c3.806-.049 32.66.075 35.067 1.068v0l.223.1v-.1l.057.032-.041.075a5.058 5.058.0 0 1 1.091.654.8.8.0 0 1 .2.086c.161-.082.092.1.114.136l.227-.17c.236.075.158.072.223.068.025.0.074.0.174.0l.114.067-.128.091.3-.091.4.271c.441.0 1.1-.122 1.363.17-.083-.056-.046.013-.057.068L169.83 3.3l-.228.069V3.232c-.31-.063-1.038-.123-1.476-.17l.17-.136V2.892h-.113l-.114.2h-.057V3.028l-.1-.092-.182.127-.3-.023a2.935 2.935.0 0 1 .219.265.5.5.0 0 1 .267.058 5.206 5.206.0 0 1 1.855.379c.355.181 3.025.056 3.579.2l-.625.17c-.024.185.2.1-.171.236v.035l.682.069.17.372a.73.73.0 0 1 .563-.027.835.835.0 0 0 .63-.039v.168a1.036 1.036.0 0 1 .9-.084 1.785 1.785.0 0 0 .633.052c.236.172.033.142.341.237a8.19 8.19.0 0 1-2.559-.173 12.715 12.715.0 0 0-2.894-.2v-.2l-.113.2h-.057c-.147-.112-.19-.063-.211-.11l-.089-.058-.268.134-.036-.065-.087-.028V4.515l-.05-.037v.155l-.051.032h-.251l.127-.084-.505-.06-.048.015.155.073-.182.091V4.543v0l-.047.188-.083-.11h-.107a.614.614.0 0 0 .032.28c.053.011.105.022.161.035l.2-.106.05.034v.118c.394.078.844.162 1.334.248l2.182.1c.446-.233 2.542-.12 4.879.022l.282-.049-.036.065.178.011.029-.006v.009c1.47.09 3 .185 4.242.207.037-.013.08-.026.127-.048l-.04.049h.095l.06-.082.056.084a9.385 9.385.0 0 0 1.979-.127l-.3-.067V5.363l.251.035c.063.011.108.023.152.034l.135-.028.037.069c.083.017.194.034.379.056l.051-.166.078.129.025.015c.014-.084-.06-.112.1-.077l.022.045.324.071a6.329 6.329.0 0 1 1.99.013l.12-.121.322.166a17.7 17.7.0 0 0 2.626.12l-.392-.116-.114.067.114-.271.17.069-.056-.2a.775.775.0 0 0 .454.069c-.105.168-.056.2-.109.385.213-.011.428-.026.645-.049l-.025-.03V5.508l.046.163c.031.0.061.0.091-.008a37.225 37.225.0 0 1 4.96.248c2.368.2 4.734.4 5.236.184q1.732.1 3.466.2a11.817 11.817.0 0 1 3.357.248l.49.078.02-.005-.01.006a5.878 5.878.0 0 0 2.119.172c.624.48.386.807.6 1.163l.1-.067c.083.23.034.179.3.366l-.251.2.05-.2-.1.331c-.183-.084-.184-.11-.4.067V8.487l-.05.331c.106-.086.07-.067.107-.048a.3.3.0 0 0 .144.015l.051.265-.151.035-.15-.2.15.267.05.067.2-.2c.092.334.086.321.3.433l-.1.2s-.194.045-.416.11c.005.006.0.006-.054.017a3.094 3.094.0 0 0-.384.14l-.15-.034c.073-.2.146-.035.05-.2l-.05-.034h-.1c.016.256.033.51.05.764-.091.043-.1.0-.05.067a.654.654.0 0 1-.553-.564h-.051l.352.7.2-.1-.2.464.1-.2.051.134.2-.267h.05l.251.3-.2-.032.352.366-.2.065-.05-.032-.05-.032.2-.1-.351-.2c.044.383-.248.379-.553.5l.15.465-.15.034-.151-.432-.05.2-.1-.233-.2.165-.1-.067.351-.267.051-.132-.352.1c-.017.185.149.127-.15.233l.1-.3-.251.532a.51.51.0 0 1 .258.112l.043-.144c.062.146.1.088-.029.155a.539.539.0 0 1 .18.243l.05.1.1-.165c.068.222-.056.162-.251.233l.15.165-.3-.2c.077-.056.067.006.051-.067l-.1-.2-.15.267c.277.036.079.176.05.43l-.05-.233-.3.1v.065c.228.108.337.179.3.366h-.05c-.156-.19-.061-.214-.1-.265l-.2.1c0-.034-.008-.063-.012-.1l-.189.063.05-.1.138.03a2.053 2.053.0 0 0-.188-.661l-.1.1-.252-.265.15.265-.05.034-.3-.3-.1.032-.1.166.15.034c-.057-.052-.043-.048.0-.042a.229.229.0 0 0 .15-.024v.165l.15.166c.012-.159-.109-.075.1-.166l.051-.067.1.1h-.2c.065.163.205.176-.051.165.029.222-.331.39-.05.532l.05-.1v.168l-.251.131.351-.032-.1.2-.2-.134.2.166c.039.106.018-.013.2-.032-.242.243-.147.163-.2.4l-.1-.334a.342.342.0 0 0-.138.008c-.052.015-.046.029-.113-.072-.082.039-.088.065-.1.0l-.15.065c.126-.183.2-.148.15-.3-.1.137-.154.222-.3.233h0a.493.493.0 0 1-.1.0l-.1.265v.1l.2-.131V13.8l.2-.2a.3.3.0 0 0-.112-.01c-.016.0.006.008-.088-.057.223-.013.023.019.2-.067l.1.067-.1.267.2-.134c.208.144.669.136.653.465a.354.354.0 0 1-.079-.005c-.03-.007.012-.014-.072.037L209.29 14l-.1-.067-.05.067a1.128 1.128.0 0 1 .171.325l.03-.058c.1.049.018-.006.1.131l-.107-.022a.72.72.0 0 0 .206.254c.162-.188.157-.388.3-.431l-.05.4.2.034c-.035-.187-.122-.105.05-.2l.051-.067.05.4c.94-.409 2.313 1.2 3.113 2.337l.053.075a9.473 9.473.0 0 1 .551.876v-.131l.1.43c-.177-.026-.071-.041-.15.067l.1-.067.171.094.03-.021s0 .024.0.035l.1.057v-.2l.15.3.151-.134a.71.71.0 0 1 .15.764v-.134l-.15.3.4.764c.777-.374 2.068.661 2.93 1.445a10.13 10.13.0 0 0 1.8.35c.071.1.023.029.171-.034.163.116.0.1.228.069l.056.271.171-.136q.653.236 1.306.476l-.031.112.021.006.01-.017a.667.667.0 0 1 .243.112h.008.0c.156.125.105.26.433.29-.142.16-.107.069-.114.17l.056.136.114-.1.569.136-.228.17h.569l.015.032.23-.1c.043.046.137.1.117.136a1.115 1.115.0 0 1-.221.207l-.017-.009.16.345c.7-.056 1.224.464 1.647.712l-.171.069c.611.219.086.215.625.577.017-.165-.058-.058.114-.17.03.185.181.519.341.545l-.171.236-.114.035c.3.045.0-.007.284-.069-.084.243-.2.392.17.51v.034l-.4-.034.056.034v.136l.455-.068.057.611h-.057l-.341-.2.341.239c-.669.418.155 1.029-.966 1.63a4.183 4.183.0 0 1-1.122.163v.015l-1 .5-.1-.132c-.042.142-.206.135-.406.128a1.292 1.292.0 0 0-.448.038 2.664 2.664.0 0 1 .714-.319l.094-.256-.4-.034.043-.073c-.029.006-.064.015-.1.026-.008.273.024.187-.226.49l-.056.033-.171-.2c.115-.109.058-.094.119-.079a.592.592.0 0 0 .165.01l-.1-.174a1.2 1.2.0 0 0-.137.048v-.011l-.217-.067c.107.105-.029.084.171.068l-.113.17-.227-.2c-.246.082-.4.0-.227.136-.217.028-.089-.006-.228-.1l-.057.237.114.069c.133-.022.265-.046.4-.069l.1.11.124.129.061-.11-.023-.011h.029l.019-.034a.353.353.0 0 1 .023.034h0v0a1.768 1.768.0 0 1 .117.288l-.4.034.113.067-.113.069.113.136v.034l.171-.068-.113-.136c.228.129.2.148.4.034l.025.194a2.272 2.272.0 0 0 .243-.071h.1l-.018.028.371.03.034-.023-.006.026.282.023c-.054-.073-.045-.112-.161-.051-.049-.007-.075-.013-.091-.015a3.453 3.453.0 0 1 1.7-.715l-1.055.7c.175-.03.049-.032.15.067l-.452-.067.2-.134-.3.067.066.155c.347.028.655.052 1.059.086-.093.03-.181.06-.266.088l.149.079-.005-.009.007.01.031.016.063.2a.574.574.0 0 0-.5.133l-.251-.1.3-.071-.4-.03-.05.168.1-.133-.151.233-.05-.134-.251.3v-.1l-.05.2-.15-.2-.107.093-.044.439-.151-.3v.1l-.452.233-.15-.1.038-.049-.038-.049-.146-.032c-.125.1.105.233-.256.329.07-.121.017-.112-.15-.233-.195.191-.19.077-.352.168.159.01.2.06.15.233-.176-.03.021.025-.15.064-.25-.092-.229-.136-.352-.032l-.1-.432h-.15l.15.432h-.15l-.05-.2h0l-.1.426v0c.171-.028.034-.023.149.067.093-.086-.086-.157.15-.134a.715.715.0 0 1 .323-.069l.018-.013.007.013a2.933 2.933.0 0 1 .757.136l.2.035c-.24.073-.544.176-.7.065l-.018-.011c-.014.008-.027.022-.041.022a.649.649.0 0 1-.142-.02l-.05.075c-.172-.022-.343-.041-.514-.063a1.349 1.349.0 0 1 .161.144 2.442 2.442.0 0 1 .253.052l.05.032-.1.1-.15-.133v.006a.731.731.0 0 1 .068.091l.023.068a2.77 2.77.0 0 1-.291.0l-.1.032c-.214.028-.026.1-.3.064-.013-.056-.3-.1-.512-.139-.1.0-.194.0-.3.0l-.037.037.6.067v.2l-.1-.035a.982.982.0 0 1-.583-.092c.234.474.811.829.011 1.115l1.079.237V34.3l.056.067-.738-.271c.219.321.4.725 1.022.713-.186.179-.229.131-.511.2l-.491-.508-.347.558-.05-.166c-.121.148-.029.146-.185.159l-.066.067v.037c.022.025.042.051.061.077.053-.118.014-.02.14-.108l.2.233c-.1.071-.088.0-.05.1l-.143.006a1.232 1.232.0 0 0 .306.394V35.9l-.4.135.4.1-.4.168c-.211-.086-.411-.172-.612-.239l.043.129-.051-.067h-.2l.05.233c-.246.015-.183.022-.352-.067l-.15.133-.3-.168a.354.354.0 0 1-.11.065.242.242.0 0 0 .036.015 3.434 3.434.0 0 1-.739.239l.114.17-.688-.207-.361-.049.652.357-.17.034.555.166c.053.0.095.0.129.0a1.151 1.151.0 0 0 .382-.057l-.121.214.137-.028c.062-.065.1-.065.285-.118l.05.032c-.013.017-.021.034-.031.049.02.019.039.032.057.049.084-.12.126-.256.376-.1l.2.1h-.15a1.556 1.556.0 0 1-.384.035c.344.282.513.236.724.6h.012l-.007.008v0h-.006l-.038.051-.1.067v-.034l-.025.015-.155-.088a3.393 3.393.0 0 1-.409.129l.087.144-.452.067v-.118l-.172-.023a2.931 2.931.0 0 1-.664-.069v-.015a8.219 8.219.0 0 1-1.291-.233l-.032.125h.1l.1.366.1-.233.1.332.05-.3c.167.175.329.125.6.035l-.051.4-.05-.265c-.054.192-.033.129-.352.332-.04-.094-.04-.092-.05-.089s-.029.0-.1-.077c-.031.108.013.14-.09.252l.164.036.077.011h-.018l1.539.333.057.1q-1.163-.175-2.326-.347a.916.916.0 0 1-.1.041l-.05-.064-.223-.035-.029.067h-.2l-.054-.108h-.024c.039.131.081.179-.071.278l-.053-.086c-.016.106-.032.214-.048.319l.2-.233.3.134-.051-.2.251.2c.086-.105.131-.1.192-.086a.282.282.0 0 0 .159-.014l.15.4-.1-.067.151.2-.3.032-.1-.166-.051.166c-.193-.075-.065-.086-.2-.067-.1.0-.191-.006-.287-.014a1.768 1.768.0 0 0-.756.061l.1.1c-.035.015-.075.032-.111.049l.147.265.2-.032.05-.067c-.075-.071-.105-.181-.05-.1l.2-.134-.151.3.3-.034-.05.267-.251.067c-.009-.049.015-.127-.05-.067-.112.0-.007.0-.05.067l-.2-.267c-.12.192.1.1-.2.166a.672.672.0 0 0-.452-.032l-.051-.1.051.331-.3.133.1.332a.468.468.0 0 0-.2-.013.21.21.0 0 1-.2-.054l.15-.1-.05-.166-.352.3c0-.257.012-.214.251-.233-.154-.134.04-.112-.2-.1l.035-.162-.054.022-.031.041-.027-.017c-.137.054-.28.1-.424.15l.251.1.1.1-.352-.1v-.1c-.1.035-.2.072-.3.1.133.344.476.538.512.882-.562.093-.81.048-1.073.283.3.034.634.075 1.078.127-.742.347-1.158.31-1.527.058l.043-.1-1.077-.136-.284.17.341.17.227.034c-.13.1-.167.094-.221.091a.338.338.0 0 0-.12.011c.137.063.806.153 1.136.271l-.341.306c.153.157.12.105.512.068l.057.035-.171.1c.172.052.171-.006.341-.1.143.376.172.239.853.407-.172.118-.289.068-.228.237-.006.067-.023.084.228.239a1.241 1.241.0 0 0-.332.226c.069.078.139.132.209.1l1.956 2.079c-.045.162-.092.31-.14.454l.408.127c.182.054.153.1.17.34l.114-.305.511.1-.227.2.273.088c-.01-.179-.016-.357-.009-.521l-.082-.019a.829.829.0 0 1 .085-.037c.022-.317.105-.566.343-.62.583-.136.642.475.676 1.132l.077.077.341-.1v.188l.057.084.056.035.057-.306.569.407c.205.153.107.078.056.306l.171.034.156-.217a2.466 2.466.0 0 1-.567-2.129l.389.032c.383 1.675 1.1 1.724 1.912 1.354v-.054l-.484-.054.051-.153.446.023c.008-.116.016-.233.023-.348.385-.217.741.041 1.1.3.393.286.787.571 1.222.213-.02.137-.043.274-.067.409.062-.049.124-.105.184-.161-.039-.082-.078-.166-.117-.248a3.009 3.009.0 0 0 .143-.62c-1.586-2.691-.471-3.2.834-3.544a9.017 9.017.0 0 1 .942-.148v0c.518-2.4 1.032-1.081 1.545.008a1.347 1.347.0 0 0 .74.086 1.05 1.05.0 0 1 1.215.6l.752.214a1.055 1.055.0 0 0 1.083.279 1.141 1.141.0 0 1 1.439.791c-.943.418-1.727 1.793-2.843.876.381 1.993 1.369 2.447 1.975 3.644l.986 2.118c-.26-.211-.591.011-.921.233-.532.358-1.064.716-1.3-.741-.728.136-1.446.568-2.191.274a1.148 1.148.0 0 1-.284-.39c-.874.282-1.621 2.206-2.635.7q-.354-.335-.707-.667c0-.2.0-.4.0-.6-.289-1.085-.933-.954-1.41-1.4a.36.36.0 0 1-.4-.069l-.025-.03a1.327 1.327.0 0 1-.331.975.814.814.0 0 1-.506.114.787.787.0 0 0-.475-.153c.184.38-.513.539-.845 1.567-.111.345.475.62.511.678.233.06-.221.257-.4.34l.228.476c-.712.322-.89.738-1.647.611l-.171.136.009.045a3.454 3.454.0 0 1 .773.048l.127-.026V53.2c.2.052.405.136.608.207a.656.656.0 0 1 .854.075 1.047 1.047.0 0 0 .4-.237 1.457 1.457.0 0 1 1.02-.469c.787.374 1.534-.067 2.289-.385a26.57 26.57.0 0 1 5.53-.153 2.047 2.047.0 0 1 1.974.984c.65 2.11-.788 2.525-1.066 3.967-.179.929-1.181 1.6-.9 3.257.162.96-.22.65-.359.627a2.856 2.856.0 0 0-1.348.224 1.933 1.933.0 0 1-2.061-.113c-3.856 4.458-8.08 4.953-12.436 3.87-.815-.2-.805-.336-.8-1.793-.305-1.231-1-1.087-1.254-.467-.97 2.385-2.295 1.81-3.49 1.515a68.65 68.65.0 0 0-12.015-1.839.672.672.0 0 1 .079.034c-.039.018-.073.046-.107.043s-.065-.028-.1-.043a.381.381.0 0 1 .087-.036 80.756 80.756.0 0 0-13.923.347c-7.4.8-39.8 1.069-47.214.7-4.451-.222-8.9-.751-13.352-1.044-.138.009-.275.02-.412.03l-.06-.06h-.073l.033.065h-.1l.033-.067h-.023l-.06.1c-.312-.034-.168-.06-.4.134l-.051-.032-.1-.134.394-.082c-.539-.03-1.078-.058-1.618-.079a.309.309.0 0 0-.032.028l-.009-.03q-.547-.023-1.094-.039v0h-.1-.007l-.249-.007v.011l-.016-.011-.522-.013.035.023h-.2l.041-.025c-.08.0-.16.0-.242.0v.1l-.2.032-.2-.1.175-.028q-.843-.006-1.686.011l.054.017-.5.035v-.035l.018-.006a46.347 46.347.0 0 0-5.7.487 16.018 16.018.0 0 1-2.487.119c-2.174-.008-4.362-.016-6.365 2.247a1.154 1.154.0 0 1-1.682.144l-.42.049-.766.062c-1.021.525-1.975 1.548-3.087 1.393-.56-.323-1.006.219-1.451.761-.494.6-.989 1.2-1.638.625l-1.841.191h0l-.233.06V66.572C84.971 67.186 82.5 68 79.98 67.885l-.01.006a4.575 4.575.0 0 1-2.955.6c-.214-.006-.428-.012-.641-.011l-1.535.1c-1 .749-2.057.539-3.1.53-3.342.843-6.687 1.363-10.042.22h0a17.951 17.951.0 0 1-6.75.7c-.717-.017-1.433-.035-2.149-.025a17.552 17.552.0 0 1-4.767.57C46.416 70.571 44.8 70.44 43.188 70.374zm35.9-6.016h.069c-.018-.061-.036-.118-.054-.173A.547.547.0 0 0 79.088 64.359zM.554 55.257.619 55.2.608 55.19zm214.922-1.3c.011-.015.022-.026.033-.041a.249.249.0 0 0-.069-.052zM202.164 53.8l-.64-.62V53.15l.17-.032.17.2a1.961 1.961.0 0 1 .8.035l.341-.237v-.034c-.223.056-.061-.011-.227.136l-.285-.17-.17-.136h.341c-.315-.084-.173-.073-.4.0l-.057-.2v.136l-.113-.1V52.3l-.171.236-.227-.271-.114.17c-.125-.226-.21-.217-.352-.208a.908.908.0 0 1-.5-.1c-.454.364-1.252.463-1.493.65.121.114.242.228.362.323a3.2 3.2.0 0 0 .711.445 1.919 1.919.0 0 1 .756-.162A1.676 1.676.0 0 1 202.164 53.8zm13.463-.028a2.31 2.31.0 0 1 .318-.3 2 2 0 0 1 .681-.3l-.051-.026-.852.274-.057-.1.114.239a.172.172.0 0 0-.227.136c-.024.074-.01.072.018.071h.014A.07.07.0 0 1 215.627 53.776zm-22.85-.693a.5.5.0 0 0 .232.258 11.219 11.219.0 0 0 3.686-.6c-.038-.006-.039-.02.0-.1l.042.075q.151-.071.3-.155l.053-.16-.17.136V52.37l-.171.136-.227-.305a8.011 8.011.0 0 1-2.67-.1l.114.1-.227.1c-.173-.17-.467-.186-1.137-.272l.057.1h-.114a1.242 1.242.0 0 0 .253.015c.121.0.209.0.144.054H191.47l.4-.136c-.286-.132-.2-.043-.114-.2v-.034l-1.7.068-.454-.2.114.17-.8.034v.136l.511.1.228.034-.057.1h-.455v.069a2.345 2.345.0 0 0 .413.123c.039-.067.077-.143.116-.231a.584.584.0 0 1 .53-.027l.134-.015v.036l-.114-.012a1.225 1.225.0 0 1 .442.437 3.044 3.044.0 0 0 1.035-.006l-.284-.068a2.127 2.127.0 0 1 1.053.023 2.671 2.671.0 0 0 1.049.045c.046.039.088.069.127.1l.27-.1.171.136c-.227-.043-.2-.045-.284-.034h-.149a4.665 4.665.0 0 0 .888.34 4.952 4.952.0 0 1-1.2.021c-.205-.013-.383-.025-.488-.025A.564.564.0 0 0 192.777 53.083zM1.807 52.006c.065-.073.127-.134.19-.2-.053-.008-.107-.016-.161-.023zm8.265-1.075.029-.061-.079-.035A1 1 0 0 0 10.073 50.931zm-.2-.532v.015l.026-.016zm-.063-.221a.947.947.0 0 1 .343-.018.312.312.0 0 0 .061-.284 2.458 2.458.0 0 0-.334-.663.329.329.0 0 1-.1.006.238.238.0 0 1-.169-.15c0-.01.054-.034.116-.05-.359-.421-.626-.541-.06-.987a1.307 1.307.0 0 1-.587-.511q-.207.748-.417 1.5c0 .093.009.186.013.28a2.1 2.1.0 0 1 .265.067.932.932.0 0 1 .253.345.389.389.0 0 1 .229-.1C9.619 49.611 9.723 49.873 9.812 50.178zm214.651-1.643c.023.0.041-.02.062-.026a.7.7.0 0 1-.068-.028zM6.331 48.314v0l.008-.013v-.038C6.34 48.28 6.337 48.295 6.331 48.314zm.034-.053.012-.019H6.36zm-.015-.016h.01v-.016zm211.361-.119a.44.44.0 0 1 .1.0 1.9 1.9.0 0 0-.2-.536zM11.332 38.351a15.113 15.113.0 0 1 .922 1.412l4.114.8c.079-.284.371-.469.493-.777a21.534 21.534.0 0 1-2.272-.9l.341-.333-.4-.33.171-.366zm-1.078.97c.01-.028.018-.044.027-.07h-.6A1.223 1.223.0 0 0 10.255 39.321zM8.84 33.514h.007v-.009zm85.92 33.7.1.005-.07.023zm108.263-.6a.316.316.0 0 1-.089-.024.556.556.0 0 1 .106-.02.327.327.0 0 1 .089.024.571.571.0 0 1-.1.02zm-16.31-.163a.551.551.0 0 1-.1-.022c.085-.009.165-.018.25-.023a.419.419.0 0 1 .092.025c-.08.007-.159.017-.242.02zm18.548-.109.057-.024.048.025zm-2.456-.35c.224-.007.448-.013.672-.018l.046.058c-.2.016-.4.034-.607.049zm-84.83-.583a2.742 2.742.0 0 1 1.055-.051l.1.086c-.465-.038-.392.016-.6-.086-.111.086-.167.082-.4.121zm-1.507.035h.351v.016l-.351.018zm-1.507-.121a3.06 3.06.0 0 0-.552.016C114.621 65.234 115.075 65.19 114.962 65.318zm114.725-1.807c-.171-.277.014-.455.326-.416a1.526 1.526.0 0 0 .2.006.6.6.0 0 1 .652.328 3.185 3.185.0 0 1-.654.563.537.537.0 0 1-.222.063C229.725 64.055 229.783 63.667 229.687 63.511zM195.219 52.787c.15-.031.1.0.057-.053l.284-.054v.16zm6.589.007.171-.018-.057.054zm-7.1-.051.057.053C194.7 52.776 194.535 52.757 194.708 52.743zm-.43.02c-.06.0-.15.0-.082-.033l.057.017.033.01.194-.014.057.053zm2.531-.135c0 .039.007.008-.057.036zm-.171-.038.057-.017-.057.053zm-1.874.0.171-.017-.057.053zm-.171-.087v-.053h.171l.057.07zm-1.079-.222.113.034-.17.036zM7.4 45.24H9.013a5.373 5.373.0 0 1-.939.15A2.136 2.136.0 0 1 7.4 45.24zm8.195.126a.419.419.0 0 1-.1-.027c.09-.008.178-.018.271-.021a.4.4.0 0 1 .1.027c-.09.008-.179.018-.271.022zm-4.056-.044.067-.1.746.038-.055.068C12.045 45.328 11.793 45.324 11.54 45.321zm3.186-.464-1.56.022A2.388 2.388.0 0 1 14.726 44.858zM9.391 44.7l1.523.031a3.916 3.916.0 0 1-.83.115A1.68 1.68.0 0 1 9.391 44.7zm1.681-.5 1.787.03a4.912 4.912.0 0 1-1.115.249A1.172 1.172.0 0 1 11.072 44.2zm4.021.071a2.347 2.347.0 0 1 1.521-.009 2.216 2.216.0 0 1-.709.113A3.7 3.7.0 0 1 15.093 44.275zm-9.644-.89a3.459 3.459.0 0 1 2.946.6.931.931.0 0 1-.848.3C6.935 44.019 6.323 43.758 5.449 43.385zm210.665-.175a2.607 2.607.0 0 1 2.4.238c-.239.478-.722.324-1.117.4C216.952 43.727 216.348 43.945 216.114 43.21zm-198.571.579.227-.036.227.018-.171.018zM17.5 43.64l.086.016-.1.008zm-7.631-.147h.112l-.068.025zm5.768-.274a3.2 3.2.0 0 1-.382-.042 2.883 2.883.0 0 1 .4-.083 2.379 2.379.0 0 1 .379.077 3.518 3.518.0 0 1-.386.049zM7.7 43.052a1.4 1.4.0 0 1 .148-.028.53.53.0 0 1 .1.022l-.119.018zm5.715-.414.059-.054.572.013-.13.094C13.748 42.674 13.581 42.656 13.415 42.638zm-3.656-.1.125.01c0 .008.0.022-.014.023-.037.0-.087.0-.13.007zm5.25-.423h1.742a2.8 2.8.0 0 1-.818.131A3.975 3.975.0 0 1 15.009 42.12zm199.813-.22a2.448 2.448.0 0 1 .267-.024.575.575.0 0 1 .156.045l-.275.028zm12.11-1.1a.778.778.0 0 1 .536-.4c.256-.053.464.13.554.479a2.882 2.882.0 0 1-.619.3.493.493.0 0 1-.116.013A.325.325.0 0 1 226.931 40.8zm-12.87.073.1-.015.049.1zm.1-.022.148-.02c.019.113.127.053-.05.121zm4.985.042c-.015.0.061-.052.1-.052.122.0.244.011.376.019l-.131.079C219.375 40.927 219.252 40.914 219.15 40.9zm-5.439-.041.251-.018-.05.07zm-.6.021.3-.087-.051.1zm1.658-.059.1-.07.051.086zm-.6-.016v0h0zm.954-.061c-.223.0-.025.0-.3-.051.108-.013.53-.006.352.1zm.151.03.2-.1v.122zm3.064-.075v-.034a.8.8.0 0 0 .09.0c.057.0.068-.007.111.052zm.251-.006.051-.053.1.018-.1.052zm-5.073-.063-.2-.018.05-.051.2.034v.07zm.251.014.1-.068.05.068zm-.15-.047.05-.034c.006.022.015.046-.008.046A.121.121.0 0 1 213.61 40.594zm.352-.106.1-.086h.051l.1.121zm-.4-.153.05.07-.2.051zm4.571.092-.1-.086.2-.138h.7l.051.068-.1.07-.051-.07.051.174A1.39 1.39.0 0 0 218.13 40.426zm-.5-.086c.1-.089.045-.046.3-.086v.156zm-.955-.052c.063-.043.012-.04.066-.037h.084l.051.035zm.352-.036.2-.07-.05.087zm-.553.018.05-.087.151.087zm-.151-.053a.529.529.0 0 1-.2-.035l.352.018-.1.07zm-1.707-.039.1-.086.05.035h.1l-.05.07zm4.37-.071.351.051-.351.017zm-4.069.008.1-.016.051.051zm.352-.017a.241.241.0 0 1 .3.016l.15-.1.1.1-.1-.034v.068zm.6-.013.1-.069V40.1zm2.361-.163h.034c.024.0.04.0.116.034zm-1.307.007.051-.035s.01.043-.022.043A.072.072.0 0 1 216.924 39.929zm.653-.029.2-.034.051.051zM15.524 39.815a.507.507.0 0 1 .108-.022c.084.006.16.018.24.027l-.109.022zm198.99.0.05-.07.1.07zm.3-.019.15-.035c-.072.032-.04.039-.054.039S214.88 39.8 214.815 39.793zm1.507-.132v-.052l.2.07zm-.251-.023h-.3l.2-.086c.074.054.063.049.094.044a.488.488.0 0 1 .157.008v.034zm.552-.172.05-.018-.05-.051h.2l.051.1zm-203.159-.12a1.18 1.18.0 0 1 .41-.087 1.911 1.911.0 0 1 .4.084l-.607.11C13.579 39.407 13.425 39.363 13.464 39.346zM215.82 39.4l.151-.1.05.035.4-.07-.05.035.1.138zm3.767-.424.05-.034.1.069zm-4.923-.067.051-.035.05.07zm2.612-.179c.15-.035.1.037.1.051zm-.1-.008-.4-.1.251-.07c0 .08-.108.017.05.087v-.052l.151.173zm-.854-.025-.15-.018.351-.052v.017c-.223.032-.064.025-.15.087zM11.856 38.6l.1-.01-.01.024zm205.421-.1.1-.017c-.06.015-.021.018-.051.018zm0-.338.05.051-.1.052zm-.2.07.051-.07.05.1zm-.352-.018.051-.034c.022-.032.006-.031.035-.03a.881.881.0 0 0 .115.0l-.05.069zm-.15-.058.05-.07.05.086zm-203.224.006.005-.047h.634l-.009.054zm205.635-.316.251-.034-.15.068zm-207.36-.322c.092-.008.183-.018.278-.023a.305.305.0 0 1 .09.03c-.088.007-.175.016-.266.02A.475.475.0 0 1 11.624 37.528zm-1.636-.5c.238-.217.418-.158.852-.373l.511.054-.057.035-1.136.336zM9.6 37.01c0-.032.061-.063.1-.094l.354.029a.925.925.0 0 1-.191.089h-.021A1.338 1.338.0 0 1 9.6 37.01zm207.878-.218.352-.07.05.07c-.2.032-.014.0-.1.068zm.5-.078c-.074.023-.005.01-.1.0.1-.067.164-.025.251.017zm9.418-.29.075.011-.083.007zM5.251 35.4c.218-.318.806-.236 1.084.241l-.379.364C5.673 35.828 5.045 35.7 5.251 35.4zm2.622-.076c.117-.019.226-.044.355-.054.041.0.2.036.187.049a1.1 1.1.0 0 1-.245.1zM220.608 34.6l.057.036-.171.018zm2.8-.69a1.318 1.318.0 0 1 .3-.068.852.852.0 0 1 .317.065c.032.019-.092.054-.151.086zM1.964 33.532H3.239a1.716 1.716.0 0 1-.63.125 1.836 1.836.0 0 1-.645-.125zm4.246.018a.5.5.0 0 1 .1-.021.526.526.0 0 1 .1.021.53.53.0 0 1-.111.023A.372.372.0 0 1 6.21 33.55zm1.6-.5.883.018-.858.07zm-4.068.016c.084-.009.173-.021.267-.027a.43.43.0 0 1 .1.028c-.087.009-.172.02-.262.025H3.836A.467.467.0 0 1 3.737 33.064zm4.951-.028.112-.009h0s.014-.013.014-.013l-.01.025zm214.858-.18a.8.8.0 0 1-.154-.034.535.535.0 0 1 .1-.022c.086.0.167.015.251.023a1.16 1.16.0 0 1-.195.032zm-2.507-.169.023.035C220.985 32.686 221 32.71 221.04 32.687zm-.011-.039h.033a.088.088.0 0 1-.023.016zm-215.546-.2 1.529-.02a2.476 2.476.0 0 1-.768.135A2.87 2.87.0 0 1 5.483 32.446zm-3.514.009.054-.117c.261.016.523.029.779.048.018.0-.01.067-.024.067-.126.0-.251.0-.377.0zm220.279-.229.15-.018c-.091.075.016.027-.15.07zM7.625 32.064c.04.022.055.0-.023.036zM7.6 32.025h.033l-.011.017zm-3.389-.172a.709.709.0 0 1 .106-.022.55.55.0 0 1 .1.011.219.219.0 0 0 0 .026zm217.433-.034-.1-.052.1-.086.1.086-.1.07zm.5-.051h-.1l.1-.069h.05v.121zm.3-.007c-.068.028-.05.027-.058.027a.478.478.0 0 0-.093.008zm.251-.2.2-.051-.05.069zm-215.382.0.114-.105c.167.067.129.025.056.105zm215.935-.222h.1l-.3.07zM6.218 31.294l.134-.062.307.023a.905.905.0 0 1-.2.06h-.026C6.38 31.317 6.29 31.3 6.218 31.294zm.646-.425.057-.053c.259.031.153.0.284.07zm218.65-.335.151-.051-.051.068zM1.954 30.2l.714-.029.069.054c-.2.023-.391.049-.6.065h0A1.2 1.2.0 0 1 1.954 30.2zm224.261-.021a.894.894.0 0 0-.1.0l.251-.068-.1.034c-.041.028-.033.034-.039.034zM4.06 29.7a.494.494.0 0 1 .117-.024c.09.0.173.016.259.026l-.108.028zm217.968-.138-.056-.053.114.035c.015.006.026.013.039.018zM1.962 29.243l.026-.081L3 29.192l-.034.072zm4.5-.2h.075a.369.369.0 0 0-.048.025zM6.542 29a.177.177.0 0 1 .039-.018l.114-.036L6.637 29zM1.391 25.248.075 25.3A2.482 2.482.0 0 1 1.391 25.248zM5.5 23.231l.228.018-.228.017zm219.585-1.353a1.831 1.831.0 0 1 1.333.032zm-5.668-.749.067-.026.046.029zm2.063-.462a.417.417.0 0 1-.093-.027l.2-.035.161.041c-.089.008-.175.018-.266.022zm3.885-.113.882-.019.025.091-.881.014zm-2.1-.566 1.316.017a2.343 2.343.0 0 1-.672.116A1.756 1.756.0 0 1 223.263 19.988zm-3.876-.029a.832.832.0 0 1 .293-.066 4.052 4.052.0 0 1 .452.082l-.39.091A2.355 2.355.0 0 1 219.387 19.96zm-4.137.025c-.041.0-.071-.039-.106-.061.119-.011.236-.026.36-.032a.618.618.0 0 1 .126.075c-.122.006-.237.018-.348.018zM8.092 19.729l.377-.1a1.259 1.259.0 0 1 .288.075c.021.02-.132.051-.223.083zm6.061-.493.021-.08.767.013-.022.08zm-3.493-.065a1.36 1.36.0 0 1 .148-.029.58.58.0 0 1 .1.022l-.119.017zm1.191-.57 1.046-.085.121.086-1.034.092zM8.136 18.6c0-.017.1-.034.148-.052.047.019.133.039.13.056s-.1.035-.148.051C8.219 18.633 8.134 18.614 8.136 18.6zM.184 18.567v-.051h.8v.051zm4.016.0a.784.784.0 0 1-.092-.035 1.081 1.081.0 0 1 .134.0.207.207.0 0 1 .07.024c-.036.005-.093.015-.108.015zm17.766-.437a.934.934.0 0 1 .2-.035c.039.022.079.041.118.061l-.209.034C22.032 18.169 21.959 18.148 21.967 18.129zM0 17.474a2.1 2.1.0 0 1 1.316.0zm18.115-.43a1.141 1.141.0 0 1 .231-.029 1.334 1.334.0 0 1 .22.077l-.307.039A.533.533.0 0 1 18.115 17.044zm6.156-.337c-.09.0-.174-.017-.26-.026a.461.461.0 0 1 .1-.028c.094.006.182.019.271.029a.619.619.0 0 1-.111.025zm-4.061-.165a.859.859.0 0 1 .118-.02c.084.0.161.017.241.026a1.106 1.106.0 0 1-.2.034A.675.675.0 0 1 20.21 16.542zM8.2 16.4l.553-.035.111.063-.516.061zM.022 16.28l1.035-.063.056.109-1.018.041zM26 15.978a.571.571.0 0 1 .117-.025.462.462.0 0 1 .1.067c.005.007-.075.017-.116.026A.537.537.0 0 1 26 15.978zm-3.666-1.09.18-.108a2.753 2.753.0 0 1 .343.076c.023.009-.091.056-.151.057h-.023C22.565 14.913 22.446 14.9 22.329 14.887zm187.865-.319.05-.053h.05v.07zm-.753-.162.051-.035.05-.018v.086zm.8-.012v-.07l.151.1zm-.1-.2v.051c.156.028-.05.07-.05.07zm-.452-.1c.029.0.329.008.2.121zm2.214.0c-.023.0-.014-.019-.02-.029l.129-.009.027.044A.984.984.0 0 1 211.906 14.095zm-1.712-.053-.1-.051v-.035l.2.035-.05.051zm.1-.237.15-.053-.05.035.05.035zm-.8-.018.15-.035-.05.07zm.6-.038c.061.048.109.017.0.053zm-.5-.092-.2.086C209.479 13.664 209.4 13.7 209.592 13.656zm1.155.0v.018c-.083.043-.063.042-.082.042a.622.622.0 0 0-.119.01zm-.452-6.97.2-.016c-.08.03-.086.048-.1.048A.646.646.0 0 1 210.294 6.683zm.452-.086.151-.035-.051.139zm-.3-.086.151.086-.151.018zm-.954.051c.054.029.068.01.0.035zm1.306-.224V6.285l.2.1zm.3.016.05-.051.051.051zm-.5-.191.15.018-.15.086zm1.457.018V6.13l.251.053zm-.955-.018.05-.035.1.018-.15-.1.3.053v.017l-.151.07zm-.854.0.05-.051.05.07zm1.206-.1-.151-.018.4-.1v.051l.151.07a1.142 1.142.0 0 0-.23.018C211.6 6.08 211.559 6.075 211.45 6.061zm.4-.053.1-.034.1.069zm.251-.086.05.07-.1.016zm-.05-.086-.2-.051c.152-.035.045-.065.2-.018-.008.019.112.065-.05.1zm-.553-.347.151.018-.1.016-.051.086zm.273.1a.57.57.0 0 1-.1-.022l.19-.038.147.039c-.077.008-.152.018-.231.02zm.028-.357.051.016-.051.07-.15.035zM30.379 5.273l2.215-.354c.18.048.173.118.057.2a5.363 5.363.0 0 0-2.159.23zm-1.7.053-.057-.018.171.018zm183.679-.094V5.178c.275.018.148-.011.251.053v.016C212.373 5.219 212.528 5.219 212.354 5.231zM32.765 5.219l.057-.034.114.053zm-3.692-.229.17.018-.227.053zm.4-.035.17.053-.284.018zm3.351.0.454-.089c.206.056.159.029.056.106A1.078 1.078.0 0 0 32.822 4.954zm-3.067-.018V4.918l.681-.105-.114.124zm3.919-.124.512-.054.17.018-.113.071zm.345-.1c.16.0.319.0.478.0.011.0.02.017.029.025l-.487.022zm-.686.027.114-.054.114.07zM26.46 4.724 26.4 4.689h.284c-.1.032-.073.039-.1.039zm5.055-.035.114-.035a1.171 1.171.0 0 0 .625-.036l.284.018v.034l-1.023.054zm-3.465.018.057-.053.284-.054.284.106zm2.5-.046a.659.659.0 0 1 .109-.019.322.322.0 0 1 .086.025l-.11.02zm-3.81-.184.227.035V4.389l.512.018-.114.018.114.035-.056.018L27.2 4.424l-.17.141.8-.07v.016l-.114.072-.8.071zm-1.136.16.114-.036.057.054zM36.8 4.6l.4-.089h.114l-.171.089-.34.018zm-3.806-.053.114.018-.17.035zm-6.986.018.4-.089.057.018h.17a1.728 1.728.0 0 1-.46.085A.961.961.0 0 1 26.006 4.565zM37.422 4.5l.113-.018h.114l-.284.071zm175.333-.146h.05l-.251.155zM33.73 4.459l.512-.089.17.018-.114.018-.227.089zm3.976.0 1.249-.141.341.018a7.77 7.77.0 0 1-1.281.155A1.2 1.2.0 0 1 37.707 4.459zm-1.545-.041a.447.447.0 0 1 .106-.02.318.318.0 0 1 .089.025.675.675.0 0 1-.105.02A.326.326.0 0 1 36.161 4.418zm-1.579-.029V4.335l1.7-.195.171.106a10.037 10.037.0 0 0-1.59.194zm1.477-.018.057.036C36.051 4.379 36.057 4.411 36.059 4.37zm-8.577.018.057-.071-.114.018.341-.088c-.01.072-.055.1-.227.159zm.8-.018c.17-.061.018-.04.057-.141.162.017.109-.041.284-.106l.227.071c.06-.12-.018-.111.341-.159h.057c-.164.084-.126.031-.17.142l.056-.035a.619.619.0 0 0 .285-.018c-.005-.094-.023-.087.227-.141l.114-.034q.2.025.4.053c-.079.021-.15.0-.114.07h.284l.17-.141c.089.053.092.047.112.042s.05-.009.172.029l-.056-.177L31 3.787l-.171.124a1.812 1.812.0 0 0 .4-.159l.057.229c-.186-.054-.043.005-.114-.07l-.171.2c-1.313.118-1.417.214-2.726.283zm1.931-.053.227.018-.171.017zm9.2.0.114.018h-.041C39.426 4.336 39.336 4.334 39.41 4.318zm.228-.035c.173.014.006.034-.057.053zm1.079-.124c.133-.018.265-.036.4-.053l.17.016-.113.036-.512.018zm-7.838-.018.057.035C32.871 4.149 32.877 4.18 32.878 4.141zm1.591-.177a1.44 1.44.0 0 0 .4.036l.056.07c-.647.027-1.245.045-1.7.089zm2.158.159 2.386-.282.341.07-.114.053-.4-.07a6.2 6.2.0 0 1-1.927.248A1.432 1.432.0 0 1 36.627 4.123zm5.964-.035.4.018-.4.035zm-1.25.018.682-.089h.114a1.413 1.413.0 0 1-.573.1C41.491 4.114 41.417 4.111 41.341 4.106zm1.988-.089c.055.061.012.028-.114.07zM31.174 4.07l.056-.053V4.07zm3.862-.053.057.035C35.03 4.025 35.035 4.057 35.037 4.017zM43.5 4l.284.018a1.1 1.1.0 0 1-.161.018C43.547 4.035 43.557 4.01 43.5 4zM33.332 4V3.981l.228-.07-.056.106zm178.921-.084.15-.018.05.087zM31.345 3.77 31.8 3.8l-.17-.105.284.088L31.97 3.7 32.2 3.8a5.862 5.862.0 0 1 1.363-.23v.089l.057-.105.284.087c-.166.025-.309.046-.444.067.0.0-.008.007-.068.022L33.4 3.72a16.792 16.792.0 0 1-2 .227C31.462 3.8 31.362 3.889 31.345 3.77zm2.953.141.4-.053a.527.527.0 0 1-.263.061A1.252 1.252.0 0 1 34.3 3.911zm5.567-.053-.171.018L39.638 3.8l.341-.053.114.124zm-5.055.0.341-.054c-.055.037-.03.064-.157.064C34.952 3.869 34.893 3.865 34.81 3.858zm1.477.0.057-.018.511-.071.057.035-.057.054zm6.759-.036-.057-.035v-.07l.171.087.113.018zM35.264 3.8l.171-.035.171.018-.114.035zM40.546 3.7l.113-.089a6.241 6.241.0 0 0 1.023.018c.015.1-.121.125-.32.125C41.131 3.753 40.815 3.715 40.546 3.7zm-4.09-.018.114-.035.171.054zm2.726-.354a3.543 3.543.0 0 1 1.023.143 4.584 4.584.0 0 1-.989.051h-.034-.007c-.2-.01-.422-.022-.731-.013v.018l.228.089-.228.035a4.85 4.85.0 0 0-1.7.018zM33.957 3.5a1.12 1.12.0 0 0 .625-.053l.114.088-.625.053zm9.031.054-.227-.089.114.017a13.382 13.382.0 0 1 2.783-.194l.113-.089.171.123-.227.054L45.6 3.31v.035c-.026.008-1.671.24-2.351.24A.806.806.0 0 1 42.988 3.558zM30.451 3.532a1.465 1.465.0 0 1 .29-.108 3.879 3.879.0 0 1 .431.036 1.432 1.432.0 0 1-.309.089c-.022.0-.045.0-.069.0C30.689 3.552 30.565 3.538 30.451 3.532zm18.615-.063h.114l-.114.053zm-14.2.053-.057-.053.057-.018a.848.848.0 0 1 .087.0c.035.0-.013.008.083-.02l-.057-.053c.241.048.18.035.171.141zm5.509-.106 1.307-.123.171.018-1.477.141zm-5.169-.035.626-.035.113-.035-.057.123c-.133.0-.225.006-.3.006A1.159 1.159.0 0 1 35.207 3.381zm12.439-.018.284-.053.17.053zm-1.761-.141c.2.046.34.035.171.105zm-8.633-.106a1.448 1.448.0 0 0 .455-.035l-.057.105.17-.034.114.141-.114-.036-.454.07C37.3 3.219 37.361 3.207 37.252 3.115zm4.657.177.909-.107.057.036.113-.036.057.071-.114-.017-1.022.071zM36.741 3.2v.07l-.057.036zm11.51.023A1.953 1.953.0 0 1 48.68 3.1a3.669 3.669.0 0 1 .555.1 3.046 3.046.0 0 1-.524.1H48.7A2.824 2.824.0 0 1 48.251 3.227zm-8.273.047.4-.106.171.089-.682.036zm-2.953-.035V3.168l.227.072-.171-.018-.056.071zm1.193-.106-.057.035-.114-.035-.057.089-.056-.141H38.5c-.116-.046-.038-.018.171-.089.19.043.065-.005.17.071h-.17l-.057.07a1.5 1.5.0 0 1 .341.018L38.9 3.2l-.739.053zM50.43 3.1 51 3.151l-.455.053zm-.171.035.114.018c-.073.059.0.038-.227.053C50.288 3.144 50.191 3.2 50.258 3.133zM43.5 3.151l.17.016-.227.036zm-2.1-.018c-.017.019.053.016-.114.053zm166.141-.015a.585.585.0 0 1 .107-.019.332.332.0 0 1 .088.025l-.109.022zM42.648 2.992l.228.017v.018l-1.136.106zM53.837 3.1l.057-.035.057.018h.114l.056.017zm-2.272-.053c.005.056.053.009-.056.053zm-.4.0.227.018V3.08l-.114.017zm-6.646.018V3.045l.228-.036-.171.072zm5-.018V3.02l-.625.006.17-.018c.1-.109.048-.042.227-.087a9.672 9.672.0 0 0 1.052-.092 4.966 4.966.0 0 1 1.5-.051l.228-.07c.17.007.341.012.511.018l-.056.053-.057.106-.056.018a5.373 5.373.0 0 0-1.988.018l.284.035H50.6l-.057.053-.284-.053.114.053-.808.01.069.044zm-4.658-.018 1.363-.141.284.018-.057.018a12.137 12.137.0 0 1-1.537.106zm146.722-.075-.171.018.227-.071v.124zM43.841 2.938c.17.018.026.033-.057.054zm-3.125.036V2.85c.3.057.124.1.114.106l-.056.035zm-.4-.053V2.868l.34.106-.284.018C40.38 2.919 40.467 2.949 40.319 2.921zm149.447.014-.057-.054a1.535 1.535.0 0 1 .341-.017l-.056-.072h-.171c.105-.075-.018-.027.171-.07.208.07.286.042.17.089h.568l-.057.141-.056-.087L190.5 2.9l-.056-.035.056.124C190.259 2.97 190.012 2.952 189.766 2.935zM39.808 2.868l.4.07-.17.018zm4.146.07V2.921c.724-.083 1.281-.106 1.931-.2.276.022.139.023.227.053-.459.014-1.146.176-1.812.176A3.308 3.308.0 0 1 43.954 2.938zm143.313-.073.114.053C187.214 2.88 187.285 2.884 187.267 2.864zM46.624 2.885l.17-.018.057-.035c-.075.047.0.054-.087.054zm139.167-.127V2.74l.227-.018.909.142zM47.078 2.833l.171-.035-.114.053zm.512-.054.056.036-.171.018zm129.681.032V2.793l.228-.016-.114.053zm-.17-.035.056.053C177.048 2.784 177.1 2.831 177.1 2.776zM52.928 2.656l.057.089.227-.018-.171-.035.568-.017-.057.124-.966.018zm130.988.084.227.036v.016l-.057.018zm-4.815.01-.809-.01.114-.053-.284.053-.057-.053h-.114l.284-.036a2.18 2.18.0 0 0-.781-.105h-.009v0c-.452.0-.933.064-1.2.087l-.057-.016-.057-.107-.045-.042v.048h-.069l.057.027c-.322-.007-.644-.012-.966-.018L175.1 2.5h-.014-.955l.051-.069a3.188 3.188.0 0 0 .891.013l-.017-.037.569.018-.171.035.093.007a.389.389.0 0 0 .146-.009l.044-.068.209.1.139-.02-.006-.006.511-.018.228.07a1.633 1.633.0 0 1 .635-.031h.094l.023.008h.055l.071-.012-.012.016.205.019.209-.035-.1.046c.586.061 1.2.143 1.376.125.179.045.13-.02.227.089l.17.018-.625-.008v.026l-.114.016zM48.839 2.691l.114.035q-.54.028-1.08.053zm-6.986.018a1.23 1.23.0 0 0 .341-.053l.17.089c-.13.0-.185.0-.218.0a1.274 1.274.0 0 0-.294.032zm4.373.036-.056-.018.228-.035.113.018-.227.054zm137.523.013a11.914 11.914.0 0 1-1.537-.106l-.057-.018.265-.016.148-.035.05.052 1.184.123zM50.486 2.726l.114.018h-.1C50.446 2.746 50.424 2.743 50.486 2.726zm-6.93-.089.057.089c-.257-.06-.271-.051-.284-.141a2.028 2.028.0 0 0 .215-.013c.147-.013.251-.028.126.031l.568-.143c.08.0.012.0.057-.017l.114.089.568-.054-.114.018-.341.035v.035l.114.036.455-.089-.056.053.113.053a9.573 9.573.0 0 0-1.42.125zm-.852.053h.114V2.656c.348.013.361.018.511.089A2.291 2.291.0 0 1 42.7 2.691zm142.376.032v-.07l.452.035.1.017-.051.034zM174.3 2.7l.111.016-.119.011zM49.009 2.691l.228.018-.171.018zm139 .015.341-.106v.053c-.148.029-.061.0-.057.071zm-.171-.018c-.01-.01-.183-.049.114-.106v.124l-.057.017zm-2.986.0.033.03c-.072-.018-.176-.032-.1-.046l-.072-.015V2.67a14.631 14.631.0 0 1-2.158-.159c.088-.029-.049-.033.227-.053.6.081 1.122.11 1.766.177l.033-.017.048.025.085.009v.007l.089.016a.088.088.0 0 1 .025.0l.011.01.144.025v.018zM48.194 2.721A.394.394.0 0 1 48.1 2.7c.084-.006.167-.016.255-.02a.4.4.0 0 1 .1.024c-.085.008-.168.017-.256.02zM188.46 2.67l.4-.071-.227.089zm-5.489-.1.151.016-.151.018c-.1.065.042.02-.15.051C182.875 2.554 182.842 2.615 182.97 2.567zM50.77 2.62l-.057-.07.114-.017.17.017-.17.07zm131.044-.056.057.035.171.018h-.131C181.814 2.618 181.892 2.612 181.814 2.563zm-1.2.02.2-.051V2.6zm0-.016-.05.017-.1.018C180.568 2.552 180.435 2.549 180.61 2.567zM50.2 2.585l.227-.018s-.005.026-.109.026A1.049 1.049.0 0 1 50.2 2.585zm.852-.035.625-.089.227.018-.227.054-.625.053zm-2.442.018.056-.053.285.035-.285.035zm132.8-.039.171.035-.056.018zm-.506.02.051-.034.05.016v.035zm30.619.0.1-.01-.01.024zm-30.51.0.057-.036.114.053zM179.2 2.515l.15-.018.051.052zm-.352.016L179.1 2.5l-.051.035c-.006.017-.007.009-.05.0a.228.228.0 0 0-.083.016S178.907 2.544 178.852 2.532zM45.09 2.408l.227.053c.179.0.031.0.057-.053a.864.864.0 0 0 .284.018l.113.071-.227.035C45.124 2.51 45.234 2.529 45.09 2.408zM178.2 2.48l.15.016-.15.035zm-4.471-.018v.053l-.05.016zm-.352.053.2-.069V2.5l.051.035zm13.143-.037c-.032.0-.086.0-.219.0l.171-.087a1.251 1.251.0 0 0 .341.053v.07A1.254 1.254.0 0 0 186.52 2.477zm-6.807-.02.114-.035.966.088zm-10.173.01.02-.006.1.035zM52.02 2.461l.8-.071h.114c-.026.035.0.106-.114.054l-.852.053zM182.155 2.44l.114-.018.227.035-.057.017-.057.018zm-8.527.006.2-.035.05.07zM46.34 2.408l.113-.035.057.035c-.013.029.063.015-.113.07zm131.726.067.114-.017c.061.016.04.02-.01.02zm7.781-.087v.035h.114a2.246 2.246.0 0 1-.625.053A.958.958.0 0 1 185.847 2.387zm-2.328-.036.114-.053-.057-.054.454.089.114-.035V2.263l-.341-.035-.114-.018.569.053.114-.089c.045.021-.023.02.056.018l.568.141c-.125-.058-.023-.044.122-.03a2.088 2.088.0 0 0 .218.013c-.013.091-.027.083-.284.142l.056-.088-.171.105A9.738 9.738.0 0 0 183.518 2.351zM50.43 2.426l.113.018-.4.017zm-3.465-.018-.056-.035.284.053-.284.035zm132.465.032.227-.018-.057.035zM51.906 2.319l.114.018-.171.053zm1.534.054h-.285l.171-.036h.227l.057.053zm.17-.054 4.714-.3.284.036-.057.053h-.056c-.3-.005-1.174.058-2.1.122-.9.061-1.843.123-2.374.123A1.405 1.405.0 0 1 53.61 2.319zm124.229.032-.171-.07.171-.018.114.018-.057.07zM52.531 2.285l.228.017-.4.035zM178.236 2.3l.228.017a1.1 1.1.0 0 1-.12.008C178.241 2.324 178.236 2.3 178.236 2.3zM47.073 2.3c-.018.0.0.0.005-.035l.114.053A.413.413.0 0 0 47.073 2.3zm132.64-.022L180 2.245l.057.054L180 2.316zm-2.726-.018-.227-.053.227-.018.625.089v.035zm24.624-.02c.218-.022.444-.039.669-.057l.058.087c-.22.011-.44.025-.663.032C201.665 2.306 201.6 2.245 201.611 2.243zm-4.44.007c-.027-.008.03-.034.049-.051l.29.023-.092.067C197.334 2.276 197.232 2.268 197.171 2.25zm-144.3.034-.17-.018.284.018zm-4.884-.054c.049-.031.039.0.0-.035l.284-.018c.121.083.117.01.0.106C47.983 2.26 48.135 2.29 47.987 2.231zm134.907.0.113-.072a.837.837.0 0 0 .285-.016c.026.055-.122.048.056.053l.228-.053c-.144.121-.034.1-.455.124zM48.384 2.16l.455-.053V2.2H48.9c.609-.063.612-.171 1.136-.035l.057-.018.057-.017-.057-.106.682.036c-.315.015-.427.032-.4.159L48.5 2.231C48.51 2.152 48.559 2.217 48.384 2.16zm127.467.014c-.118.053-.088-.018-.114-.053h.114l.795.07.057.036zm6.3-.035.057-.036.113.036-.056.07C182.092 2.153 182.169 2.167 182.155 2.14zM54.008 2.16l.171.018-.227.018zm127.466.0.284-.053-.057.036.057.053zm-3.351.018.114-.018.284.036zM55.939 2.019c.227.018.454.036.681.053l-2.385.089zm125.246.119a.94.94.0 0 1 .109-.023.6.6.0 0 1 .1.013.184.184.0 0 0 0 .024zM48.151 2.085a2.007 2.007.0 0 1 .253-.038c.028.023.1.052.071.068a1.508 1.508.0 0 1-.257.03C48.192 2.124 48.12 2.1 48.151 2.085zm128.495-.016.114-.018.057.071zm-1.533.0h.227l.171.035h-.284l-.171.018zm-1.67.023a.535.535.0 0 1-.1-.028c.07-.007.14-.015.211-.02-1.271-.072-2.944-.212-3.384-.205h-.057l-.057-.053.284-.035 4.714.3a6.424 6.424.0 0 1-1.394.0l.05.015c-.084.01-.173.022-.267.027zm2.466-.058.227-.018.17.053zM181.587 2c.018.064.046.014-.113.054zM56.734 2h.341l-.455.035zm-5.4.0c1.209-.139 1.967-.141 2.5-.212l.341.035.171-.087.056.087.114-.123v.088h.568L54.916 1.7c-.07.028-.059.031-.114.0s-.059.0-.057-.035l.739.016a2.015 2.015.0 0 1-.625.265 7.307 7.307.0 0 0-1.919.0c-.457.034-.907.067-1.251.067A2.809 2.809.0 0 1 51.338 2zM180.395 1.91l.284.017c-.039.034-.05.0.0.035-.148.06.0.029-.284.053C180.278 1.919 180.274 1.993 180.395 1.91zm-4.715.106L175.964 2l-.17.018zM58.495 1.983h.17a.5.5.0 0 0-.1.024C58.555 2.007 58.546 2 58.495 1.983zM28.607 1.97l.083-.007-.008.018zm149.686-.026c.029-.125-.082-.142-.4-.159l.682-.035-.057.105.057.018.057.018c.523-.136.527-.028 1.136.035h.057V1.838l.455.054c-.175.057-.126-.009-.114.07zM55.314 1.913h.011l-.068.037zm119.173.0.171-.018.056.035zM52.02 1.9l.057-.054h.113l.057.036-.17.035zm3.465-.072c.093.077.031.054-.159.087zM172.045 1.8l.682-.053 1.7.141zM56.834 1.739l.013.015-.114.018H56c.2-.109-.005.0-.057-.124l-.21.054-.017.017V1.706l-.113.03-.057-.142c.452.013.343.0.568.088l-.057-.07h.174v0h.014l.5.013.044.048.411-.048.284.159-.455.053zm.922.0c-.052.039.062.02-.114.053zm113.834.0h.341l.114.035zm4.137-.049a7.323 7.323.0 0 0-1.921.0 2.049 2.049.0 0 1-.625-.265l.739-.018c0 .039.007.008-.057.036s-.043.027-.113.0l-.17.087h.568V1.432l.114.123.056-.088.171.088c.114-.011.227-.023.341-.035.532.07 1.29.073 2.5.213a2.89 2.89.0 0 1-.348.017C176.636 1.75 176.185 1.717 175.727 1.683zM170 1.715h.171c-.05.016-.06.023-.067.023A.484.484.0 0 0 170 1.715zm3.339-.073h.012l.056.035zM57.3 1.666l.057-.036V1.612l.284-.105c.149.006.284.005.4.0.243.0.4-.006.452.067l.114-.089-.057.159-.114-.035a.093.093.0 0 0-.056-.053 1.713 1.713.0 0 1-.8.108zm119.117-.058.057-.034h.114l.056.053-.056.018zm-3.238-.053.159.087C173.151 1.608 173.088 1.632 173.181 1.555zm16.481.042c-.087-.006-.165-.019-.247-.029l.1-.03.257.032a.6.6.0 0 1-.105.027zM171.193 1.52l.285-.158.41.048.044-.048.5-.013h.013v0h.174l-.057.07c.225-.087.116-.076.568-.088l-.056.141-.114-.029v.011l-.017-.015-.21-.055c-.052.124-.253.015-.057.124h-.738l-.114-.018.014-.015-.184.1zM61.449 1.4c.292.028-.022.031.284.034l-.171.089-1.079.036A3.115 3.115.0 0 1 61.449 1.4zm-1.193.106.171.016-.171.018zm110.653-.04.113.053C170.847 1.487 170.961 1.507 170.909 1.467zM59.176 1.453l.056-.053v.07zM170.284 1.29a.1.1.0 0 0-.057.054l-.113.035-.057-.159.114.088c.047-.071.206-.068.446-.066.117.0.253.0.405.0l.284.106v.018l.057.035h-.312A1.627 1.627.0 0 1 170.284 1.29zM62.868 1.365l.114-.053v.07zM62.7 1.33l.056-.018v.07zm-.171.0c-.037.035.064.036-.17.053zM167.1 1.255l-.17-.088c.306-.005-.009-.008.284-.036a3.2 3.2.0 0 1 .966.159zm1.136.0.171-.018v.036zm-101-.084h.171a12.3 12.3.0 0 0 1.307-.106c.146-.048.106-.019.17-.106l.171.018v.089c.1-.115-.007-.091.284-.159l.4.018-.113.018a.4.4.0 0 1-.241.023.413.413.0 0 0-.213.012l.171.054.4-.036-.056.177-2.443.089zm-.682.018.285-.035.34.053-.056.018a3.69 3.69.0 0 1-.369.02C66.607 1.243 66.492 1.23 66.56 1.189zm102.872-.058.057.054-.057.018zM65.708 1.153l.114-.018V1.046c.324.025.325.0.454.089l-.227.054zm4.26.0.114-.089.4.07-.454.036zM66.39 1.117l.114-.035.227.018a.794.794.0 0 1-.143.035C66.56 1.135 66.514 1.129 66.39 1.117zm99.748-.057.171.054C166.074 1.1 166.175 1.1 166.138 1.06zm-99.407.022-.114-.07c.312.023.17.005.228.07zM178.2.974l.785-.061.109.074-.787.077zM72.751 1.03l.114.016h-.054C72.754 1.047 72.682 1.044 72.751 1.03zm-4.43.016L68.264.958l.568.054-.056.018-.056.016zM70.252.941l.227.017c-.021.0-.14.013-.213.013C70.209.971 70.181.964 70.252.941zm106.776-.1a1.322 1.322.0 0 1 .256-.026.261.261.0 0 1 .138.087c0 .006-.167.018-.314.034C177.075.9 177.017.871 177.028.841zM70.593.905l.113.018h-.064C70.633.928 70.656.922 70.593.905zM71.729.887 71.9.852V.8h.17V.871l-.057.016zM73.49.782 73.319.728a1.784 1.784.0 0 1 .2.009c.116.011.173.022.089-.025L73.66.693V.8zM73.035.746h.114L73.035.8zm.8.036.113-.106c.153.043.1.043.118.043s.046.0.167.01l-.057.054zM91.551.34l.455.036.114.018-.341.089zm-.341.0V.322L91.1.3c.227.0.063.048.227.0l.114-.035.17.035-.284.071zm.625-.017h.114c-.051.01-.056.016-.063.016S91.875.334 91.836.322zm19.7-.2.114-.018L112.1.07l-.227.141zm.511-.089L112.214.0l.113.035c.164.049.0.0.228.0l-.114.018V.07l-.114.035zM111.7.053h.114c-.039.011-.045.016-.051.016S111.753.063 111.7.053z" transform="translate(0 0)"/></g><text class="e" transform="translate(-14.503 931.513)"><tspan x="8.958" y="12">Coahuilense comprometido</tspan><tspan x="6.534" y="24">con el bienestar de Torren y</tspan><tspan x="65.454" y="36">Coahuila.</tspan></text><g transform="translate(-5.269 844.315)"><path class="f" d="M537.958 713.4h-5.544V701.829L526.35 713.4h-3.534l-6.1-11.643V713.4h-5.544V690.186h5.613l7.8 14.38 7.8-14.38h5.579z" transform="translate(-511.173 -689.666)"/><path class="f" d="M576.69 713.4l-1.629-4.227h-9.772l-1.628 4.227h-6.133l9.7-23.216h5.856l9.7 23.216zm-6.515-16.771-2.945 7.623h5.925z" transform="translate(-529.569 -689.666)"/><path class="f" d="M615.737 713.4l-7-7.969h-1.663V713.4h-5.718V690.186H613.1a8.625 8.625.0 0 1 6.064 2.1 7.1 7.1.0 0 1 2.287 5.493 7.254 7.254.0 0 1-1.629 4.8 7.77 7.77.0 0 1-4.47 2.581l7.276 8.247zm-3.257-12.751a3.7 3.7.0 0 0 2.443-.762 2.521 2.521.0 0 0 .918-2.045 2.483 2.483.0 0 0-.918-2.01 3.7 3.7.0 0 0-2.443-.762h-5.405v5.579z" transform="translate(-546.963 -689.666)"/><path class="f" d="M661.135 704.362a10.651 10.651.0 0 1-3.985 6.757 12.271 12.271.0 0 1-7.727 2.46 12.056 12.056.0 0 1-8.749-3.5 12.151 12.151.0 0 1 0-17.239 12.024 12.024.0 0 1 8.749-3.518 12.335 12.335.0 0 1 7.606 2.426 10.44 10.44.0 0 1 4.071 6.48l-5.613 1.317a5.823 5.823.0 0 0-6.064-4.99 6.3 6.3.0 0 0-4.695 1.975 7.278 7.278.0 0 0 0 9.859 6.275 6.275.0 0 0 4.695 1.992 6.015 6.015.0 0 0 3.9-1.3 6.667 6.667.0 0 0 2.2-3.829z" transform="translate(-561.142 -689.324)"/><path class="f" d="M699 713.4H680.915V690.186H698.9v4.921H686.633v4.366h11.261v4.644H686.633v4.365H699z" transform="translate(-578.535 -689.666)"/><path class="f" d="M732.59 713.4H715.438V690.186h5.718v18.227H732.59z" transform="translate(-592.236 -689.666)"/><path class="f" d="M766.463 692.858a12.11 12.11.0 0 1 0 17.2 12.728 12.728.0 0 1-17.568.0 12.109 12.109.0 0 1 0-17.2 12.682 12.682.0 0 1 17.568.0zm-4.037 13.532a6.749 6.749.0 0 0 1.907-4.9 6.849 6.849.0 0 0-1.907-4.955 6.692 6.692.0 0 0-9.494.0 6.851 6.851.0 0 0-1.905 4.955 6.751 6.751.0 0 0 1.905 4.9 6.736 6.736.0 0 0 9.494.0z" transform="translate(-604.09 -689.324)"/><path class="f" d="M550.31 746.16v18.226h-5.683V746.16h-7.519v-4.99h20.721v4.99z" transform="translate(-521.465 -709.899)"/><path class="f" d="M592.843 743.843a12.111 12.111.0 0 1 0 17.2 12.728 12.728.0 0 1-17.568.0 12.108 12.108.0 0 1 0-17.2 12.684 12.684.0 0 1 17.568.0zm-4.038 13.532a6.747 6.747.0 0 0 1.907-4.9 6.851 6.851.0 0 0-1.907-4.955 6.693 6.693.0 0 0-9.494.0 6.852 6.852.0 0 0-1.905 4.955 6.749 6.749.0 0 0 1.905 4.9 6.735 6.735.0 0 0 9.494.0z" transform="translate(-535.188 -709.557)"/><path class="f" d="M631.046 764.386l-7-7.969h-1.662v7.969h-5.718V741.17h11.747a8.624 8.624.0 0 1 6.063 2.1 7.1 7.1.0 0 1 2.287 5.492 7.251 7.251.0 0 1-1.628 4.8 7.772 7.772.0 0 1-4.469 2.582l7.276 8.246zm-3.258-12.751a3.7 3.7.0 0 0 2.443-.762 2.519 2.519.0 0 0 .919-2.044 2.482 2.482.0 0 0-.919-2.01 3.7 3.7.0 0 0-2.443-.762h-5.4v5.579z" transform="translate(-553.038 -709.899)"/><path class="f" d="M668.671 764.386l-7-7.969h-1.662v7.969h-5.718V741.17h11.747a8.624 8.624.0 0 1 6.063 2.1 7.1 7.1.0 0 1 2.287 5.492 7.251 7.251.0 0 1-1.629 4.8 7.771 7.771.0 0 1-4.469 2.582l7.276 8.246zm-3.258-12.751a3.7 3.7.0 0 0 2.443-.762 2.519 2.519.0 0 0 .919-2.044 2.482 2.482.0 0 0-.919-2.01 3.7 3.7.0 0 0-2.443-.762h-5.4v5.579z" transform="translate(-567.97 -709.899)"/><path class="f" d="M710 764.386H691.915V741.17H709.9v4.921H697.633v4.366h11.261V755.1H697.633v4.366H710z" transform="translate(-582.901 -709.899)"/><path class="f" d="M741.448 742.093a7.711 7.711.0 0 1 3.223 4.937l-5.614 1.144a3.794 3.794.0 0 0-1.455-2.408 4.243 4.243.0 0 0-2.6-.849 3.557 3.557.0 0 0-2.253.675 2.055 2.055.0 0 0-.866 1.68q0 1.525 1.87 1.941l4.817 1.074q6.376 1.42 6.376 6.757a6.441 6.441.0 0 1-2.738 5.544 11.361 11.361.0 0 1-6.826 1.975 12.264 12.264.0 0 1-6.878-1.854 7.072 7.072.0 0 1-3.275-5.18l5.89-1.144q.832 3.431 4.574 3.431a4.242 4.242.0 0 0 2.512-.659 2.036 2.036.0 0 0 .919-1.732 1.818 1.818.0 0 0-.468-1.317 3.225 3.225.0 0 0-1.681-.727l-4.851-1.039q-6.236-1.421-6.237-6.723a6.415 6.415.0 0 1 2.53-5.336 10.505 10.505.0 0 1 6.653-1.975A10.893 10.893.0 0 1 741.448 742.093z" transform="translate(-596.123 -709.557)"/></g></g></g></svg>