<svg xmlns="http://www.w3.org/2000/svg" width="16.558" height="17.014" viewBox="0 0 16.558 17.014"><defs><style>.a{fill:#fff;}</style></defs><path class="a" d="M1128.841,7598.32h-6.924a4.832,4.832,0,0,0-4.817,4.817v7.378a4.832,4.832,0,0,0,4.817,4.818h6.924a4.832,4.832,0,0,0,4.817-4.818v-7.378a4.831,4.831,0,0,0-4.817-4.817m3.544,12.2a3.56,3.56,0,0,1-3.544,3.545h-6.924a3.56,3.56,0,0,1-3.544-3.545v-7.378a3.56,3.56,0,0,1,3.544-3.544h6.924a3.56,3.56,0,0,1,3.544,3.544Z" transform="translate(-1117.1 -7598.32)"/><path class="a" d="M1126.6,7603.44a4.56,4.56,0,1,0,4.559,4.56,4.559,4.559,0,0,0-4.559-4.56m-.022,7.549a2.986,2.986,0,1,1,2.986-2.985,2.985,2.985,0,0,1-2.986,2.985" transform="translate(-1118.296 -7599.559)"/><path class="a" d="M1133.822,7601.921a1.08,1.08,0,1,0,1.079,1.08,1.08,1.08,0,0,0-1.079-1.08" transform="translate(-1120.885 -7599.192)"/></svg>