<svg xmlns="http://www.w3.org/2000/svg" width="21.552" height="22.146" viewBox="0 0 21.552 22.146"><defs><style>.a{fill:#003687;}</style></defs><path class="a" d="M1132.382,7598.319h-9.013a6.289,6.289,0,0,0-6.27,6.271v9.6a6.29,6.29,0,0,0,6.27,6.271h9.013a6.289,6.289,0,0,0,6.269-6.271v-9.6a6.288,6.288,0,0,0-6.269-6.271m4.613,15.874a4.633,4.633,0,0,1-4.613,4.613h-9.013a4.633,4.633,0,0,1-4.612-4.613v-9.6a4.633,4.633,0,0,1,4.612-4.612h9.013a4.633,4.633,0,0,1,4.613,4.612Z" transform="translate(-1117.1 -7598.319)"/><path class="a" d="M1127.975,7603.439a5.935,5.935,0,1,0,5.934,5.935,5.935,5.935,0,0,0-5.934-5.935m-.029,9.825a3.886,3.886,0,1,1,3.886-3.885,3.884,3.884,0,0,1-3.886,3.885" transform="translate(-1117.166 -7598.388)"/><path class="a" d="M1134.148,7601.921a1.4,1.4,0,1,0,1.4,1.405,1.405,1.405,0,0,0-1.4-1.405" transform="translate(-1117.309 -7598.369)"/></svg>