<svg xmlns="http://www.w3.org/2000/svg" xmlns:xlink="http://www.w3.org/1999/xlink" width="318" height="143" viewBox="0 0 318 143"><defs><style>.a{fill:#fff;}.b{fill:#003687;}.c{filter:url(#a);}</style><filter id="a" x="0" y="0" width="318" height="143" filterUnits="userSpaceOnUse"><feOffset dy="5" input="SourceAlpha"/><feGaussianBlur stdDeviation="3" result="b"/><feFlood flood-opacity="0.161"/><feComposite operator="in" in2="b"/><feComposite in="SourceGraphic"/></filter></defs><g transform="translate(-23 4)"><g class="c" transform="matrix(1, 0, 0, 1, 23, -4)"><rect class="a" width="300" height="125" transform="translate(9 4)"/></g><g transform="translate(-449.173 -666.324)"><path class="b" d="M549.819,723.683h-8v-16.7l-8.75,16.7h-5.1l-8.8-16.8v16.8h-8v-33.5h8.1l11.25,20.748,11.249-20.748h8.049Z" transform="translate(0 -0.112)"/><path class="b" d="M585.176,723.683l-2.35-6.1h-14.1l-2.349,6.1h-8.85l14-33.5h8.449l14,33.5Zm-9.4-24.2-4.249,11h8.548Z" transform="translate(-6.015 -0.112)"/><path class="b" d="M622.105,723.683l-10.1-11.5h-2.4v11.5h-8.25v-33.5h16.949a12.444,12.444,0,0,1,8.75,3.024,10.249,10.249,0,0,1,3.3,7.925,10.466,10.466,0,0,1-2.35,6.924,11.21,11.21,0,0,1-6.449,3.725l10.5,11.9Zm-4.7-18.4a5.341,5.341,0,0,0,3.524-1.1,3.638,3.638,0,0,0,1.325-2.95,3.583,3.583,0,0,0-1.325-2.9,5.341,5.341,0,0,0-3.524-1.1h-7.8v8.05Z" transform="translate(-11.702 -0.112)"/><path class="b" d="M671.784,711.022a15.367,15.367,0,0,1-5.75,9.749,17.7,17.7,0,0,1-11.149,3.549,17.394,17.394,0,0,1-12.624-5.048,17.532,17.532,0,0,1,0-24.872,17.348,17.348,0,0,1,12.624-5.075,17.8,17.8,0,0,1,10.974,3.5,15.063,15.063,0,0,1,5.874,9.349l-8.1,1.9a8.4,8.4,0,0,0-8.749-7.2,9.093,9.093,0,0,0-6.774,2.85,10.5,10.5,0,0,0,0,14.224,9.054,9.054,0,0,0,6.774,2.874,8.678,8.678,0,0,0,5.624-1.875,9.62,9.62,0,0,0,3.175-5.524Z" transform="translate(-16.338)"/><path class="b" d="M707.012,723.683h-26.1v-33.5h25.947v7.1h-17.7v6.3h16.248v6.7H689.165v6.3h17.847Z" transform="translate(-22.025 -0.112)"/><path class="b" d="M740.186,723.683H715.438v-33.5h8.25v26.3h16.5Z" transform="translate(-26.504 -0.112)"/><path class="b" d="M775.831,694.424a17.473,17.473,0,0,1,0,24.822,18.364,18.364,0,0,1-25.348,0,17.471,17.471,0,0,1,0-24.822,18.3,18.3,0,0,1,25.348,0Zm-5.825,19.524a9.738,9.738,0,0,0,2.751-7.075,9.882,9.882,0,0,0-2.751-7.149,9.655,9.655,0,0,0-13.7,0,9.885,9.885,0,0,0-2.749,7.149,9.74,9.74,0,0,0,2.749,7.075,9.718,9.718,0,0,0,13.7,0Z" transform="translate(-30.38)"/><path class="b" d="M556.156,748.37v26.3h-8.2v-26.3H537.108v-7.2h29.9v7.2Z" transform="translate(-3.365 -6.727)"/><path class="b" d="M602.211,745.408a17.474,17.474,0,0,1,0,24.823,18.364,18.364,0,0,1-25.348,0,17.47,17.47,0,0,1,0-24.823,18.3,18.3,0,0,1,25.348,0Zm-5.825,19.524a9.735,9.735,0,0,0,2.751-7.075,9.884,9.884,0,0,0-2.751-7.149,9.657,9.657,0,0,0-13.7,0,9.886,9.886,0,0,0-2.749,7.149,9.737,9.737,0,0,0,2.749,7.075,9.718,9.718,0,0,0,13.7,0Z" transform="translate(-7.852 -6.615)"/><path class="b" d="M637.414,774.667l-10.1-11.5h-2.4v11.5h-8.25v-33.5h16.949a12.442,12.442,0,0,1,8.749,3.025,10.243,10.243,0,0,1,3.3,7.924,10.462,10.462,0,0,1-2.35,6.924,11.214,11.214,0,0,1-6.449,3.726l10.5,11.9Zm-4.7-18.4a5.338,5.338,0,0,0,3.525-1.1,3.634,3.634,0,0,0,1.325-2.949,3.58,3.58,0,0,0-1.325-2.9,5.339,5.339,0,0,0-3.525-1.1h-7.8v8.049Z" transform="translate(-13.688 -6.727)"/><path class="b" d="M675.039,774.667l-10.1-11.5h-2.4v11.5h-8.25v-33.5H671.24a12.442,12.442,0,0,1,8.749,3.025,10.243,10.243,0,0,1,3.3,7.924,10.462,10.462,0,0,1-2.35,6.924,11.213,11.213,0,0,1-6.449,3.726l10.5,11.9Zm-4.7-18.4a5.338,5.338,0,0,0,3.525-1.1,3.634,3.634,0,0,0,1.325-2.949,3.58,3.58,0,0,0-1.325-2.9,5.339,5.339,0,0,0-3.525-1.1h-7.8v8.049Z" transform="translate(-18.57 -6.727)"/><path class="b" d="M718.012,774.667h-26.1v-33.5h25.947v7.1h-17.7v6.3h16.247v6.7H700.165v6.3h17.847Z" transform="translate(-23.452 -6.727)"/><path class="b" d="M748.629,742.883a11.125,11.125,0,0,1,4.65,7.124l-8.1,1.651a5.475,5.475,0,0,0-2.1-3.475,6.123,6.123,0,0,0-3.749-1.224,5.132,5.132,0,0,0-3.25.975,2.964,2.964,0,0,0-1.249,2.424q0,2.2,2.7,2.8l6.95,1.549q9.2,2.049,9.2,9.749a9.293,9.293,0,0,1-3.95,8,16.391,16.391,0,0,1-9.849,2.85,17.7,17.7,0,0,1-9.923-2.674,10.2,10.2,0,0,1-4.725-7.474l8.5-1.65q1.2,4.95,6.6,4.95a6.122,6.122,0,0,0,3.625-.95,2.938,2.938,0,0,0,1.325-2.5,2.624,2.624,0,0,0-.675-1.9,4.652,4.652,0,0,0-2.425-1.049l-7-1.5q-9-2.051-9-9.7a9.255,9.255,0,0,1,3.651-7.7q3.648-2.85,9.6-2.849A15.717,15.717,0,0,1,748.629,742.883Z" transform="translate(-27.775 -6.615)"/></g></g></svg>