<svg xmlns="http://www.w3.org/2000/svg" width="18.579" height="12.994" viewBox="0 0 18.579 12.994"><defs><style>.a{fill:#fff;}.b{fill:none;stroke:#fff;stroke-linecap:round;stroke-linejoin:round;}</style></defs><path class="a" d="M1011.088,7597.418c-1.9,0-3.807-.008-5.711,0a3.4,3.4,0,0,0-3.435,2.557,4.119,4.119,0,0,0-.112,1c-.01,1.95-.016,3.9,0,5.852a3.357,3.357,0,0,0,2.435,3.422,4.619,4.619,0,0,0,1.226.154q5.619.018,11.239.006a3.4,3.4,0,0,0,3.664-3.625q.012-2.88,0-5.759a3.394,3.394,0,0,0-3.638-3.6c-1.889-.006-3.777,0-5.666,0m-.026.81c1.888,0,3.778.048,5.663-.015a2.691,2.691,0,0,1,2.854,2.82q-.041,2.877,0,5.758a2.7,2.7,0,0,1-2.851,2.82q-5.617-.072-11.235,0a2.7,2.7,0,0,1-2.854-2.818q.045-2.88,0-5.758a2.691,2.691,0,0,1,2.851-2.822c1.855.063,3.714.015,5.571.015" transform="translate(-1001.819 -7597.415)"/><path class="b" d="M1.421,1.436,9.748,7.958,17.3,1.436" transform="translate(-0.069 -0.006)"/></svg>