<svg xmlns="http://www.w3.org/2000/svg" width="447.524" height="63.856" viewBox="0 0 447.524 63.856"><defs><style>.a{fill:#003687;}.b{fill:#fff;}</style></defs><g transform="translate(-472.447 -508.461)"><g transform="translate(472.447 508.461)"><path class="a" d="M566.968,509.405c.5-.028,1.084-.05,1.073-.06a1.155,1.155,0,0,0-.471-.156,8.56,8.56,0,0,0-.874.046C566.656,509.289,566.856,509.345,566.968,509.405Z" transform="translate(-377.777 -507.731)"/><path class="a" d="M566.43,509.959l-.195-.094h-.389l-.192.062.581.064Z" transform="translate(-378.818 -507.051)"/><path class="a" d="M573.423,510.758c-.158,0-.245,0-.321,0a10.516,10.516,0,0,0-2.171.056l-.778-.126c-.581.01-1.165.02-1.746.032l.022.01c-.275.022-.395.028-.475.036l-.712-.172-.152.122a2.5,2.5,0,0,1-.5.016l-.321-.012.581-.064-1.94-.032.058.066a20.77,20.77,0,0,1-3.047-.024l-.172.124h3.261l.048,0,.046.052q1.648.015,3.3.032l-.194-.048.232-.008v-.084l.156.076.192.19.194.03c.9-.042,2.54-.152,4.085-.156l.006,0,.032,0a14.033,14.033,0,0,1,2.67.188l-.97.064h.389l.192.094.97-.094-.387.094,2.76.018-.237.076.387-.03v-.046l2.135.014-.581-.032c-.331-.194-.164-.078-.776-.158-.6.03-2.7-.116-4.7-.222l.349-.084-.716.064c-.237-.012-.471-.024-.7-.034l.042-.03-.245.022-.188-.008Z" transform="translate(-382.736 -506.321)"/><path class="a" d="M560.208,509.849c-.319.136-.1.094.543.154Z" transform="translate(-384.435 -507.067)"/><path class="a" d="M550.067,509.691l3.688.062a19.956,19.956,0,0,0-3.3-.283,7.405,7.405,0,0,1-.972.062Z" transform="translate(-395.061 -507.446)"/><path class="a" d="M564.784,510.274l.581-.03-.97.03Z" transform="translate(-380.082 -506.67)"/><path class="a" d="M566.235,510.449l.776.094,2.135.094v-.062l-2.135-.158Z" transform="translate(-378.234 -506.496)"/><path class="a" d="M553.745,509.471v.126l.192-.032Z" transform="translate(-390.781 -507.446)"/><path class="a" d="M560.444,509.93l-.038,0,.232.068Z" transform="translate(-384.089 -506.989)"/><path class="a" d="M555.294,509.991h-.581C555.244,510.029,554.9,510.061,555.294,509.991Z" transform="translate(-389.808 -506.924)"/><path class="a" d="M552.294,509.565l-.583.032.583.032Z" transform="translate(-392.824 -507.352)"/><path class="a" d="M555.391,509.772a.3.3,0,0,1,.195-.1,14.8,14.8,0,0,0,3.688.19l-.194-.062v-.032l-.97-.19a12.159,12.159,0,0,0-2.913.126l-.387-.158.193.285Z" transform="translate(-389.711 -507.368)"/><path class="a" d="M558.3,510.087l.627-.184-.046.026.389.032h2.524c-.671-.2.016,0,.193-.222l.718.1.06.028v-.02l.387.052.194-.253a5.965,5.965,0,0,0-1.94.158l.194-.126-.6.008.012-.008-.048.008-1.7.024-.15.084-1.4-.084-.97.285Q557.522,510.038,558.3,510.087Z" transform="translate(-387.766 -507.273)"/><path class="a" d="M564.782,510.291l1.359.064-.581-.1Z" transform="translate(-379.694 -506.655)"/><path class="a" d="M566.43,510.291l-.389.032.583.094Z" transform="translate(-378.429 -506.623)"/><path class="a" d="M571.889,510.56q-8.055-.271-16.108-.537l-.97.062.193.1h.194c1.505-.014,7.22.237,11.562.365-.242.01-.479.024-.718.036a2.686,2.686,0,0,0,.341.05c.323-.01.625-.032.912-.048l-.17-.028A42.122,42.122,0,0,0,571.889,510.56Z" transform="translate(-389.711 -506.892)"/><path class="a" d="M561.583,510.612l-.686.062.858.062Z" transform="translate(-383.596 -506.3)"/><path class="a" d="M561.154,510.658l-.172.124.172-.03Z" transform="translate(-383.511 -506.254)"/><path class="a" d="M567.106,511l.389.032.387-.094-.776.03Z" transform="translate(-377.359 -505.973)"/><path class="a" d="M567.034,511.032l-.192-.094C566.823,511.038,566.661,510.952,567.034,511.032Z" transform="translate(-377.676 -505.973)"/><path class="a" d="M560.469,510.767l.858.03-.172-.062v-.092Z" transform="translate(-384.026 -506.269)"/><path class="a" d="M564.883,510.369l-.583-.062h-.776l-.194.094.583-.032Z" transform="translate(-381.152 -506.607)"/><path class="a" d="M562.362,510.181l.776.03-.195-.062Z" transform="translate(-382.125 -506.765)"/><path class="a" d="M564.881,510.354h-.389c.088.062-.014.188.389.094l2.911.1-.194-.064Z" transform="translate(-379.985 -506.559)"/><path class="a" d="M560.527,510.023l-2.329.094,8.152.158Z" transform="translate(-386.307 -506.892)"/><path class="a" d="M556.651,509.866l-.389-.1C556.44,509.842,556.05,509.806,556.651,509.866Z" transform="translate(-388.252 -507.146)"/><path class="a" d="M557.424,510.007l1.552.062-.387-.062Z" transform="translate(-387.085 -506.908)"/><path class="a" d="M574.3,510.308c-4.131-.249-6.721-.255-8.539-.379l-1.165.062-.583-.158-.194.158-.387-.22v.158h-1.94l.581-.158c.238.05.2.054.389,0,.219-.05.2.006.194-.064l-2.524.032a11.277,11.277,0,0,0,2.135.475C564.361,509.861,571.707,510.481,574.3,510.308Z" transform="translate(-384.362 -507.209)"/><path class="a" d="M623.229,514.563l-.17.062C623.277,514.681,623.229,514.563,623.229,514.563Z" transform="translate(-321.154 -502.331)"/><path class="a" d="M625.626,513.978a7.825,7.825,0,0,0,1.373,0l-.513-.124v-.092l-1.373.185Z" transform="translate(-319.089 -503.137)"/><path class="a" d="M622.2,514.687l-.172.062C622.122,514.725,622.219,514.755,622.2,514.687Z" transform="translate(-322.186 -502.207)"/><path class="a" d="M620.406,514.718h0Z" transform="translate(-323.823 -502.177)"/><path class="a" d="M554,510.658l-.068.01.411.052Z" transform="translate(-390.597 -506.254)"/><path class="a" d="M625.628,513.421l.343-.03-.515-.032v.216Z" transform="translate(-318.746 -503.541)"/><path class="a" d="M548.71,509.5l-.581-.1C548.257,509.471,547.909,509.473,548.71,509.5Z" transform="translate(-396.422 -507.511)"/><path class="a" d="M647.631,522.651l.13.118.042.006Z" transform="translate(-296.469 -494.207)"/><path class="a" d="M641.813,523.653l-.114,0,.036.028A.4.4,0,0,0,641.813,523.653Z" transform="translate(-302.428 -493.2)"/><path class="a" d="M641.851,523.734l-.078-.066C641.638,523.708,641.586,523.666,641.851,523.734Z" transform="translate(-302.466 -493.185)"/><path class="a" d="M614.821,538.461l.359,0-.163-.046Z" transform="translate(-329.428 -478.368)"/><path class="a" d="M643.305,522.186l.194.094h.327c-.044-.01-.08-.022-.132-.03Z" transform="translate(-300.815 -494.674)"/><path class="a" d="M643.565,522.233a1.327,1.327,0,0,1,.162.046l.094-.046Z" transform="translate(-300.554 -494.627)"/><path class="a" d="M644.951,519.5l.778.032v-.062Z" transform="translate(-299.161 -497.399)"/><path class="a" d="M480.209,509.019l1.165-.158-.387-.032-1.554-.064Z" transform="translate(-465.429 -508.157)"/><path class="a" d="M480.306,508.749h-.389C480.2,508.791,479.979,508.783,480.306,508.749Z" transform="translate(-464.943 -508.172)"/><path class="a" d="M479.046,508.827l.389.064.97-.126-.581-.064-.389.064c-.559.086,0,.006-.776,0l.387.032Z" transform="translate(-466.207 -508.22)"/><path class="a" d="M513.433,508.524l-1.553.064-.387.03q.58.081,1.165.158Z" transform="translate(-433.224 -508.398)"/><path class="a" d="M513.723,508.587v-.032l.389-.032c-.776.008-.217.088-.778,0l-.387-.062-.583.062.97.128Z" transform="translate(-432.349 -508.461)"/><path class="a" d="M512.172,508.508h-.389C512.11,508.542,511.887,508.552,512.172,508.508Z" transform="translate(-432.933 -508.414)"/><path class="a" d="M610.635,538.143l.381.16c.69-.028,1.381-.058,2.071-.088l-.158-.1Z" transform="translate(-333.633 -478.677)"/><path class="a" d="M522.476,537.68l.515.124a4.146,4.146,0,0,0,1.373-.217,7.154,7.154,0,0,0,2.061.154l-.345-.154A17.742,17.742,0,0,0,522.476,537.68Z" transform="translate(-422.191 -479.256)"/><path class="a" d="M583.037,538.537a3.03,3.03,0,0,0,.345.04c.283-.006.551-.024.828-.036a2.333,2.333,0,0,0-.317-.044C583.6,538.505,583.328,538.523,583.037,538.537Z" transform="translate(-361.356 -478.289)"/><path class="a" d="M610.854,538.678a2.049,2.049,0,0,0,.3.044,2.917,2.917,0,0,0,.361-.036,2.056,2.056,0,0,0-.3-.042A3.406,3.406,0,0,0,610.854,538.678Z" transform="translate(-333.413 -478.141)"/><path class="a" d="M516.4,537.631c1.652-.042.874-.054,1.888-.03C518.672,537.372,517.119,537.45,516.4,537.631Z" transform="translate(-428.298 -479.331)"/><path class="a" d="M519.908,537.7c.4-.01.8-.02,1.2-.032v-.03h-1.2Z" transform="translate(-424.771 -479.152)"/><path class="a" d="M485.02,539.271l.238-.041-.354-.008Z" transform="translate(-459.934 -477.561)"/><path class="a" d="M628.111,512.341h-.17l-.688.279Z" transform="translate(-316.94 -504.564)"/><path class="a" d="M589.019,509.894l-.876-.06-.335.054c.281.018.549.042.844.052A3.5,3.5,0,0,0,589.019,509.894Z" transform="translate(-356.563 -507.082)"/><path class="a" d="M587.539,510.78l-1.359.126.583.032Z" transform="translate(-358.199 -506.132)"/><path class="a" d="M585.411,511.017l.194-.03v-.222c-1.014.1-.423.172-.389.19Z" transform="translate(-359.37 -506.148)"/><path class="a" d="M586.57,510.874v-.094l-1.165.19.972.03C586.363,510.87,586.066,510.924,586.57,510.874Z" transform="translate(-358.977 -506.132)"/><path class="a" d="M608.821,510.627c.76-.014,1.511-.038,2.263-.058l-.2-.156c-.766.032-1.537.062-2.283.1C608.56,510.516,608.787,510.627,608.821,510.627Z" transform="translate(-335.682 -506.501)"/><path class="a" d="M589.475,511.145a9.837,9.837,0,0,0-1.165.03l.194.1q1.26.045,2.524.094l-.195-.221.195.062.387-.062.194.156.194-.253h-1.94c.4-.082.13-.032-.583-.158-.647.078-.223-.008-.581.126h.581Z" transform="translate(-356.059 -506.021)"/><path class="a" d="M601.889,510.585l.315-.12-.992-.042c-.066.032-.261.078-.17.092C601.249,510.547,601.6,510.563,601.889,510.585Z" transform="translate(-343.294 -506.49)"/><path class="a" d="M584.247,510.812v-.126a8.041,8.041,0,0,1-1.165-.094l-.581.156A13.665,13.665,0,0,1,584.247,510.812Z" transform="translate(-361.894 -506.321)"/><path class="a" d="M568.56,510.638l.194-.126-.389-.032-.581.032.581.126Z" transform="translate(-376.678 -506.433)"/><path class="a" d="M584.536,511.111l-.387-.094C584.207,511.051,583.964,511.045,584.536,511.111Z" transform="translate(-360.243 -505.893)"/><path class="a" d="M580.855,510.747a14.438,14.438,0,0,0,2.135-.094H582.6v-.062A5.918,5.918,0,0,0,580.855,510.747Z" transform="translate(-363.548 -506.321)"/><path class="a" d="M579.893,510.559v.064l-.389.062-1.553-.158.194.1-.389.094c1.127.054,3.734.042,4.853.221l.583-.188-.195.158c.876-.106.926-.092.97-.255-.74.006-1.794-.12-1.165.032l-1.94-.253c-.275,0-.04.006-.194-.032l-.389.158-1.94-.094.389.032Z" transform="translate(-366.661 -506.512)"/><path class="a" d="M581.629,510.954q1.942.093,3.883.19-1.552-.129-3.1-.255l-.778.032Z" transform="translate(-362.77 -506.021)"/><path class="a" d="M619.371,511.27a1.969,1.969,0,0,0-.3-.044,3.548,3.548,0,0,0-.367.034l.3.048Z" transform="translate(-325.528 -505.684)"/><path class="a" d="M627.254,511.939l-.515.032.688.124Z" transform="translate(-317.456 -504.967)"/><path class="a" d="M652.188,518.168l-.084-.162-3.013.034.084.152Z" transform="translate(-295.003 -498.873)"/><path class="a" d="M648.613,518.767l4.556.058A11.619,11.619,0,0,0,648.613,518.767Z" transform="translate(-295.483 -498.301)"/><path class="a" d="M650.005,517.778l-4.5-.03A11.384,11.384,0,0,0,650.005,517.778Z" transform="translate(-298.603 -499.132)"/><path class="a" d="M653.388,528.47a15.194,15.194,0,0,0,2.119-.539,1.782,1.782,0,0,0-1.894-.858c-.712.078-1.688.409-1.836.716C651.556,528.248,652.4,528.591,653.388,528.47Z" transform="translate(-292.34 -489.781)"/><path class="a" d="M643.546,518.116l-.551-.072-.686.062a2.2,2.2,0,0,0,.327.048C642.947,518.148,643.243,518.13,643.546,518.116Z" transform="translate(-301.815 -498.835)"/><path class="a" d="M652.569,525.411l-.027.033.284-.013Z" transform="translate(-291.535 -491.434)"/><path class="a" d="M625.839,510.728l-.334.017.3.026Z" transform="translate(-318.696 -506.184)"/><path class="a" d="M629.992,517.033l-.17.062C630.049,517.149,629.986,517.043,629.992,517.033Z" transform="translate(-314.359 -499.85)"/><path class="a" d="M657.683,535.552c-1.066-.07-1.7.249-1.115.744.4.341.018,1.3,1.772.86a11.983,11.983,0,0,0,2.237-1.006C659.805,535.374,658.617,535.612,657.683,535.552Z" transform="translate(-287.714 -481.257)"/><path class="a" d="M579.02,510.37l-.776.094c-.611-.008-.1,0-.194-.094a5.746,5.746,0,0,1-.97.032l-.389.126.778.062C578.9,510.552,578.529,510.587,579.02,510.37Z" transform="translate(-367.731 -506.543)"/><path class="a" d="M639.339,518.331l-.157-.051-.23.046Z" transform="translate(-305.189 -498.598)"/><path class="a" d="M641.448,517.848c-.507-.052-.968-.122-1.546-.148a5.02,5.02,0,0,0-1,.118c.214.066.716.118,1.215.192Z" transform="translate(-305.242 -499.182)"/><path class="a" d="M633.324,517.841a2.59,2.59,0,0,0-.427-.132c-.423.008-.824.034-1.231.054a1.14,1.14,0,0,0,.365.11C632.442,517.878,632.871,517.853,633.324,517.841Z" transform="translate(-312.507 -499.171)"/><path class="a" d="M580.418,510.952l1.718.03.17-.062-.343-.03-1.545-.062Z" transform="translate(-363.987 -506.083)"/><path class="a" d="M573.554,510.259c-.168-.056-.132,0,0-.064l-.97-.03c-.415.148-.4.018,0,.188C573.566,510.309,573.049,510.366,573.554,510.259Z" transform="translate(-372.163 -506.749)"/><path class="a" d="M571.738,509.406l-.375-.13-2.678.108.363.16Z" transform="translate(-375.773 -507.642)"/><path class="a" d="M569.53,510.37l6.4.032c-.04-.14-.208-.024.389-.126-.517-.032-1.036-.064-1.553-.094v.156h-.194a14.366,14.366,0,0,0-3.881-.062l-.194-.032-.194-.032.194-.188-2.329.062C569.247,510.115,569.626,510.145,569.53,510.37Z" transform="translate(-376.289 -506.892)"/><path class="a" d="M572.434,510.56l-.192-.1-.972.064.972.062Z" transform="translate(-373.177 -506.449)"/><path class="a" d="M571.563,510.622l-.778.032.583.032Z" transform="translate(-373.663 -506.29)"/><path class="a" d="M572.541,510.822l.345-.032.17-.03C572.461,510.729,572.916,510.733,572.541,510.822Z" transform="translate(-371.899 -506.169)"/><path class="a" d="M571.269,510.686l3.688.094-3.3-.158Z" transform="translate(-373.177 -506.29)"/><path class="a" d="M568.849,510.654l-.387.03C568.807,510.69,569.182,510.7,568.849,510.654Z" transform="translate(-375.997 -506.258)"/><path class="a" d="M571.087,510.781l-.17-.092-.515.032Z" transform="translate(-374.049 -506.223)"/><path class="a" d="M568.947,510.386l-.389.03,1.359.032Z" transform="translate(-375.9 -506.527)"/><path class="a" d="M568.752,510.512s.03.076.776.03Z" transform="translate(-375.706 -506.401)"/><path class="a" d="M583.486,511.033v-.016l.243.028c-.261.026.094.05.339.082l-.112-.054.447.054V511.1l-.489-.044-.04-.018c-.048,0-.05.006-.084.008l-.3-.028V511l-.291-.016-.166-.044-.11.03c-2.2-.12-3.989-.172-6.032-.317-.942.036-.477.042-.776.094C577.955,510.774,580.872,511.169,583.486,511.033Z" transform="translate(-368.313 -506.258)"/><path class="a" d="M570.316,510.751c.148.016.152.03.172,0l.172-.062-.86.062C570.236,510.8,569.827,510.779,570.316,510.751Z" transform="translate(-374.652 -506.223)"/><path class="a" d="M568.688,510.674v.092l.515-.062Z" transform="translate(-375.77 -506.238)"/><path class="a" d="M576.844,510.766l-.507.062-.9.028.194.032c2.027.122,3.358.194,5.434.19l-4.047-.22Z" transform="translate(-368.994 -506.146)"/><path class="a" d="M575.433,510.654l.776.094.194-.032.194-.03-.778-.064Z" transform="translate(-368.994 -506.29)"/><path class="a" d="M576.024,510.4l-.387-.064-.194.064c.046.05-.219.024.387.126Z" transform="translate(-369.004 -506.576)"/><path class="a" d="M579.212,511v-.03l-.778-.064.583.126Z" transform="translate(-365.98 -506.005)"/><path class="a" d="M575.628,510.844l-.581-.032-.194-.064C575.193,510.86,574.658,510.844,575.628,510.844Z" transform="translate(-369.578 -506.164)"/><path class="a" d="M577.079,510.813l.515-.032-.515-.03c-.437.086-.325-.022-.513.154C577.226,510.851,576.745,510.929,577.079,510.813Z" transform="translate(-367.856 -506.161)"/><path class="a" d="M573.69,510.7l-.194.064.583.03Z" transform="translate(-370.94 -506.211)"/><path class="a" d="M573.486,510.72l-.688.092.688.032Z" transform="translate(-371.641 -506.192)"/><path class="a" d="M574.5,510.37c-.114-.008-.261-.026-.345-.022-.144.008-.25.028-.373.042l.714.024A.164.164,0,0,1,574.5,510.37Z" transform="translate(-370.656 -506.566)"/><path class="a" d="M573.655,510.735l-.172-.03-.17.06.343.032Z" transform="translate(-371.125 -506.207)"/><path class="a" d="M575.047,510.4l.194-.064-.97.1.97.062Z" transform="translate(-370.162 -506.576)"/><path class="a" d="M574.757,510.779l-.583-.062.389.094Z" transform="translate(-370.259 -506.195)"/><path class="a" d="M574.66,510.244l-.389.094C574.818,510.266,574.72,510.356,574.66,510.244Z" transform="translate(-370.162 -506.67)"/><path class="a" d="M597.316,533.008l.194-.094-.583.03Z" transform="translate(-347.403 -483.897)"/><path class="a" d="M629.223,527.328l-.172.062C629.3,527.442,629.252,527.382,629.223,527.328Z" transform="translate(-315.133 -489.509)"/><path class="a" d="M635.047,526.958l-.172-.187h-.685l.17.092-.17.032Z" transform="translate(-309.972 -490.067)"/><path class="a" d="M634.789,527.192c-.619,0-.234-.038-.515.062h.688Z" transform="translate(-309.887 -489.651)"/><path class="a" d="M633.5,526.819l-.172-.062-.513.184,2.231.062-.345-.246.172-.062Z" transform="translate(-311.348 -490.144)"/><path class="a" d="M634.277,527v-.06c-.822-.066-.431.07-.858-.094l-.686.154h1.543Z" transform="translate(-311.435 -489.99)"/><path class="a" d="M632.563,527.576v-.216l-.686.184Z" transform="translate(-312.295 -489.477)"/><path class="a" d="M633.421,527.174l.345.06-.345-.184-.515.184a1.436,1.436,0,0,0-1.028-.03l1.543.092Z" transform="translate(-312.295 -489.788)"/><path class="a" d="M633.247,527.065l-.343.124.343.03Z" transform="translate(-311.263 -489.773)"/><path class="a" d="M634.875,527.019l-.172.062C634.921,527.137,634.875,527.019,634.875,527.019Z" transform="translate(-309.457 -489.819)"/><path class="a" d="M635.561,527.142l-.688.124.515.032Z" transform="translate(-309.285 -489.695)"/><path class="a" d="M635.815,527.064l.858.032L636.5,527Z" transform="translate(-308.339 -489.834)"/><path class="a" d="M634.02,527.2l.17.094.345-.124-1.2-.032A3.289,3.289,0,0,0,634.02,527.2Z" transform="translate(-310.833 -489.695)"/><path class="a" d="M637.705,529.731c1.349-.132,3,.144,3.814-.712a16.148,16.148,0,0,0-8.2-.425C634.121,529.91,636.184,529.521,637.705,529.731Z" transform="translate(-310.846 -488.568)"/><path class="a" d="M633.675,526.972l.686.032-.686-.124Z" transform="translate(-310.489 -489.959)"/><path class="a" d="M633.932,527.3h.686l-.515-.156Z" transform="translate(-310.23 -489.695)"/><path class="a" d="M650.886,522.528l.343-.062-.858.122C650.98,522.57,650.612,522.628,650.886,522.528Z" transform="translate(-293.717 -494.393)"/><path class="a" d="M645.062,523.238l.172-.124-.686.092Z" transform="translate(-299.565 -493.742)"/><path class="a" d="M646.072,523.717a3,3,0,0,0-.345.038,4.51,4.51,0,0,0,.541.06c.232,0,.443-.036.663-.058C646.647,523.743,646.369,523.725,646.072,523.717Z" transform="translate(-298.382 -493.136)"/><path class="a" d="M649.858,522.636l-.515.092.345.03Z" transform="translate(-294.749 -494.222)"/><path class="a" d="M643.864,523.3c.577-.04.122.026.513-.06Z" transform="translate(-300.253 -493.617)"/><path class="a" d="M647.857,524.294a5.183,5.183,0,0,0-1.082-.114,7.858,7.858,0,0,0-1.026.12l1.6.146C647.544,524.391,647.967,524.328,647.857,524.294Z" transform="translate(-298.361 -492.671)"/><path class="a" d="M638.213,527.112v.122l1.2-.03Z" transform="translate(-305.93 -489.726)"/><path class="a" d="M637.7,527.481l.345-.092-.345-.03-.17.092Z" transform="translate(-306.618 -489.477)"/><path class="a" d="M640.788,524.648l.581-.032-.193-.064Z" transform="translate(-303.343 -492.297)"/><path class="a" d="M639.847,527.234l-.172-.122h-2.4l-.685.247.343.154a8.928,8.928,0,0,1,2.574.032l-.17-.311.17.124Z" transform="translate(-307.564 -489.726)"/><path class="a" d="M643.778,523.562c.569-.076.2.01.515-.124l-.515.032Z" transform="translate(-300.34 -493.416)"/><path class="a" d="M643.267,523.33l-.343-.154-.345.154.345.092v.032Z" transform="translate(-301.544 -493.679)"/><path class="a" d="M643.779,523.315l.171.092v-.217h-.171l-.343.124Z" transform="translate(-300.683 -493.664)"/><path class="a" d="M645.148,523.161l1.03-.124h-.343Z" transform="translate(-298.964 -493.819)"/><path class="a" d="M631.621,526.957l-.515.062C631.724,527.029,631.236,527.045,631.621,526.957Z" transform="translate(-313.069 -489.881)"/><path class="a" d="M631.107,527.1l-.343.154.686.032.172-.124h-.345Z" transform="translate(-313.413 -489.742)"/><path class="a" d="M632.136,527.47l.171.094c.607-.2-.83-.206-1.2-.186A4.538,4.538,0,0,0,632.136,527.47Z" transform="translate(-313.069 -489.466)"/><path class="a" d="M631.365,527.405l-.345.124.515.03Z" transform="translate(-313.155 -489.431)"/><path class="a" d="M631.277,527.142l.515.062-.17-.092Z" transform="translate(-312.897 -489.726)"/><path class="a" d="M631.192,526.663l-.17-.122-.172.06Z" transform="translate(-313.327 -490.299)"/><path class="a" d="M634.619,526.447v-.03l-1.2.092.515.032.17.062C634.4,526.491,633.855,526.505,634.619,526.447Z" transform="translate(-310.747 -490.424)"/><path class="a" d="M632.558,528.013a3.413,3.413,0,0,0-.531-.08c-.293,0-.605.026-.91.042l.5.088Z" transform="translate(-313.058 -488.901)"/><path class="a" d="M630.164,527.235h-.17l-.343.154.858.062Z" transform="translate(-314.531 -489.602)"/><path class="a" d="M629.993,527.451l.005.006h0Z" transform="translate(-314.187 -489.385)"/><path class="a" d="M630.5,527.436l-.505.036.333.18C630.936,527.53,630.569,527.639,630.5,527.436Z" transform="translate(-314.182 -489.4)"/><path class="a" d="M630.337,527.635l-.166-.18-.349.026Z" transform="translate(-314.359 -489.382)"/><path class="a" d="M631.107,527.066l-.343-.124-.172.124Z" transform="translate(-313.585 -489.896)"/><path class="a" d="M639.412,526.571l-.172.062.515.062Z" transform="translate(-304.898 -490.269)"/><path class="a" d="M640.112,527.481c-.451-.014-.87-.034-1.289-.034-.116,0-.375.086-.325.092.353.034.768.056,1.165.082Z" transform="translate(-305.65 -489.389)"/><path class="a" d="M637.1,527.376v.062l.686.03C637.579,527.324,637.591,527.39,637.1,527.376Z" transform="translate(-307.048 -489.464)"/><path class="a" d="M636.329,525.585c.325.02.09.042.343,0l.515.03A1.275,1.275,0,0,0,636.329,525.585Z" transform="translate(-307.822 -491.323)"/><path class="a" d="M636.845,525.522l-1.2.124,1.03.122c.293-.126-.351-.064.343-.122Z" transform="translate(-308.511 -491.323)"/><path class="a" d="M638.213,526.107l.343.062.515-.122Z" transform="translate(-305.93 -490.795)"/><path class="a" d="M636.928,527.034l.515.062A1.423,1.423,0,0,0,636.928,527.034Z" transform="translate(-307.221 -489.804)"/><path class="a" d="M635.216,526.388l.343-.094-.17-.092Z" transform="translate(-308.94 -490.641)"/><path class="a" d="M634.53,526.263l-.17.062h.515l.17-.124C634.45,526.231,634.651,526.173,634.53,526.263Z" transform="translate(-309.8 -490.641)"/><path class="a" d="M635.991,526.728l-.515-.311v.092c-.539-.122-.168-.012-.172-.154l-.858.124,1.373.187Z" transform="translate(-309.715 -490.486)"/><path class="a" d="M634.959,526.325l.343.062-.17-.187Z" transform="translate(-309.199 -490.641)"/><path class="a" d="M635.3,526.487l.343.092C635.635,526.556,635.815,526.425,635.3,526.487Z" transform="translate(-308.854 -490.37)"/><path class="a" d="M634.446,526.324l-.17-.154-.172.124Z" transform="translate(-310.059 -490.672)"/><path class="a" d="M635.645,526.371l-.343.03C635.685,526.4,635.376,526.405,635.645,526.371Z" transform="translate(-308.854 -490.47)"/><path class="a" d="M636.931,527.25v-.092c-.874.072-.7,0-1.03.154l1.03.124Z" transform="translate(-308.252 -489.679)"/><path class="a" d="M591.8,511.142l.194.128v-.223l-.776.126Z" transform="translate(-353.141 -505.862)"/><path class="a" d="M626.18,515.068c.114.012.3.008.463.01l-.09-.078-.439.016C626.132,515.034,626.1,515.062,626.18,515.068Z" transform="translate(-318.084 -501.892)"/><path class="a" d="M626.4,513.792l-.345.06.688.062Z" transform="translate(-318.144 -503.106)"/><path class="a" d="M626.911,513.174a3.788,3.788,0,0,1,.858.03v-.03c-.351-.114.08-.06-.858-.092Z" transform="translate(-317.283 -503.819)"/><path class="a" d="M629.308,527.45h.515l-.172-.122Z" transform="translate(-314.875 -489.509)"/><path class="a" d="M919.4,558.021c-1.94-.884-4.344-.858-6.745-.916-6.3-.148-12.594-.068-18.9.142a31.579,31.579,0,0,1-7.824.359,13.582,13.582,0,0,0-3.486.437,8.61,8.61,0,0,1-1.369.221,7.232,7.232,0,0,0-2.917-.07c-.694-.066-1.385-.144-2.079-.193v-.05l-.433.024c-.884-.038-1.764-.06-2.64-.044l-.032-.042.583-.126c2.588.118,3.2-.269,5.629-.569l-.778-.443c.605-.078,2.155-.261,1.359-.317-.124-.054-2.127-.311-1.746-.631,1.133-.958,3.514-1.107,2.887-1.457a8.211,8.211,0,0,1,1.624.14,9.294,9.294,0,0,0,1.728-.106c.746-.208,1.141-.507,1.13-.908l.086.028a3.982,3.982,0,0,0,1.371.064c1.63.411,3.829.289,4.817,1.3,0,.187,0,.371.006.557q1.209.309,2.42.621h0c3.462,1.4,6.014-.391,9-.653a3.522,3.522,0,0,0,.97.363,46.488,46.488,0,0,0,7.485-.255c1.329,2.2,5.278-.04,7.6.473L915.783,554h0c-2.071-1.114-5.444-1.537-6.747-3.394,3.813.854,6.493-.427,9.714-.816-2.558-1.507-6.012-.178-8.618-1l-2.572-.2c-1.938-.976-4.488-.333-6.679-.64-1.754-1.014-3.508-2.241-5.282-.006h0c-1.074.044-2.155.062-3.219.138-4.458.321-8.271.794-2.85,3.3.1.048-.313.379-.487.577h0c.134.076.269.154.4.231-.208.052-.419.1-.631.152h0c.084-.126.162-.255.231-.383-2.828.635-5.144-.9-7.922-.477-.022.108-.05.216-.078.325l-1.521-.022-.174.142,1.656.05-.012.05c-2.76.345-5.222.3-6.533-1.261l-1.329-.03c-.806,1.05.836,1.443,1.936,1.983l-.533.2-.583-.032c.172-.213.509-.142-.193-.285l-1.942-.379-.192.285-.194-.032-.194-.078v-.175c-.389.032-.776.064-1.165.094l-.265-.072c-.112-.611-.317-1.181-2.309-1.054-.814.05-1.1.283-1.171.577-.092.008-.2.024-.293.034l.281.018a1.385,1.385,0,0,0,.03.485l-.932-.082.776-.19q-.872-.045-1.746-.094l-.389.285c-.058-.224.04-.266-.581-.317l-1.391-.118c.162-.134.321-.273.475-.423l-6.681-1.936a1.757,1.757,0,0,1-.716-.094,9.071,9.071,0,0,1,1.133-.21c-.856-.144-.8-.16-.778-.22-.208-.158.19-.112.778-.223-2.327-.156-2.424-.028-2.913-.379a3.358,3.358,0,0,1-1.165.094l.583-.094-.194-.032c-1.339.034-1.227.082-1.748-.064l1.165-.285c-1.126-.11-3.41-.194-3.881-.253a4.985,4.985,0,0,0,1.165-.094l-.776-.032-1.165-.158.97-.158,3.678.126-.146.088a16.238,16.238,0,0,0,5.22-.054c-1.517-.048-2.652-.086-3.684-.118a21.082,21.082,0,0,1,3.666-.263c-.122-.321-1.293-.5-1.748-.822.353-.03.68-.064,1.02-.1v.092l1.2.092-.343-.092-.856-.092c.491-.046.98-.09,1.447-.14l.1.016.1-.038.187-.02-.12.15c.824-.01.162-.028.687.094-.818.018-.846-.022-.858.216l1.2-.279.17.154-.513.092a8.707,8.707,0,0,0,1.373.062l-.345-.309,1.03-.124-.172-.309.172.092a8.164,8.164,0,0,1,1.546.03c1.038-.064.275.024.686-.154l.688.249c.146-.064-.213-.062.17-.062.224-.056.14.018.172.062l.858-.062.172-.249-1.03.032.515-.279-.687.124c-.186-.076-.086.026.172.092l-.172.062-.686.03-.5-.246c.122-.016.261-.032.379-.046l-.353-.1c1.415-.126,2.472-.04,3.564-.044.463-.018.026-.008.686.062l.172-.154.343.154,1.03-.03-.515-.187.343.062-.513-.371c-.614.064-.712-.07-1.2.092l-.858-.186.172.186-1.03-.124-.688.217c.056-.1.11-.2.166-.3l.178.08c.521-.092.377-.134.245-.259l.082,0,.188.1h.686l.1-.062.762.032.17.062c.176-.018.281-.03.359-.04q3.975.159,7.948.323l-.193-.094-5.262-.311.064,0-.265-.01-.559-.032c.355-.106.2-.136.309-.237.5.154.249-.016.515.154,1.089-.188,1.016-.13,1.2-.309l.17.247.172-.371a5.617,5.617,0,0,1-2.061-.03l-.17.277-.343-.309-.345.217-.343-.341h-.343l.108-.116c.838.082,2.7.156,4.412.219l0,.012c.75.042,1.485.068,2.269.064l.589.022v.11l1.543-.062-.3-.134c.437-.028.9-.07,1.4-.12l.529.082.086-.014v.032l.345-.062.13-.048.022,0-.006,0,.024-.008-.04,0a12.248,12.248,0,0,0-2.474-.557c.385,0,1.06-.006,1.313-.032h.515l-.687-.094a1.731,1.731,0,0,0-1.285.092c-.064-.014-.126-.028-.195-.046.034-.014.062-.03.106-.046l-.17-.03a5.189,5.189,0,0,0-.974.11l-.469.026.413-.2a17.278,17.278,0,0,1-1.744.054l-1.9-.154.581-.032-2.229-.333,1.235.046,2.353.193-.389-.158c1.163-.108,2.121-.126,2.524-.223-.044,0-.082-.01-.124-.012a3.16,3.16,0,0,0,.375-.062l1.03.156.515-.124a4.3,4.3,0,0,0,1.2.062l-.17-.216h.686l.172.062-.146-.12c.688.062,1.371.142,2.091.224l1.359-.158-1.359-.1,1.359-.126v-.032a4.168,4.168,0,0,1-1.044-.367l.487-.006c-.13-.094-.184-.026.172-.092l-.687-.216c-.431.082-.295-.01-.477.1-.066-.024-.136-.048-.21-.072v-.034l.226-.062c.535-.012.219-.01.633-.148l.17.154,1.187-.519,1.678.473a7.616,7.616,0,0,0,1.746-.191,7.086,7.086,0,0,1-3.494-.663l2.524.253-.194-.062v-.223l-3.686-.22c2.734-.267.766-.6-.036-1.038a11.673,11.673,0,0,0,1.993.086l.345.032v-.186l-2.061-.062.128-.034c.375-.006.71-.006,1.041,0a13,13,0,0,1,1.75.132,5.215,5.215,0,0,0,1.028-.062l.331-.03c.341,0,.67,0,.994,0l-.078-.064a2.438,2.438,0,0,0-.233-.084l.016-.006.515.124.343-.092-.17-.032c-.343-.024-.621-.038-.866-.048-.172-.05-.357-.094-.545-.134l1.754.058.17-.07c.162.01.325.018.485.018a.832.832,0,0,0,.138-.02l.064.01a11.6,11.6,0,0,0,2.4-.06l-.688-.032s-1.381-.124-2.586-.124l-.026-.014-.06.012a8.291,8.291,0,0,0-1.1.064c-.808-.022-.2.044-.515.124-.4-.084.074-.088-.507-.062l-.006,0,.337-.4h.008l.168.182h.515l-.515-.4h.515l.343.4c.419-.1.351-.054,1.2.032.585-.038-.086-.09.515-.062.178-.16.03-.207-.515-.217a6.177,6.177,0,0,0,1.2-.156c.573.112.754.1.513.218,1.235-.092.447-.212.876-.309l.5.03.13.046-.13.046.515.092,1.546-.216v-.092l.515.279.15-.409.365-.086.513.184.172-.184v.092l.858-.279.172.124.515-.217-.345.124.172-.156,1.361.028-1.018.066.858.092a6.054,6.054,0,0,1,1.718-.124l-.214-.19-.623-.09.908-.082-3.618-.08-.229-.144,1.03-.062-.687.124,1.545.062c-.347-.092.084-.09-.515-.062l3.6-.65a34.088,34.088,0,0,0-5.8.666c.054,0,.142.008.311.014.395-.056.365-.02.547.048l-.962-.022.02-.024-.118.022L893,536.588l.062-.026h-.343c-.363.034-.6.052-.832.066l-.086-.18a2.781,2.781,0,0,1-1.359-.032l.389.126-.581.064v-.032l-.389-.126.389-.064-.389-.062,1.359-.032a1.757,1.757,0,0,0-.483-.3l-.295.144-.423-.12-.353-.1-1.359.062-.387-.062.192-.223c.475.088.034.12.778.094-.6-.13-.064-.05.776-.126l.776.19.389-.158c-.682.014-.217.034-.581-.062l.74.06.012.01c.1-.012.267-.028.467-.044l.333.162c-1.042.01-.411-.08-.97.064l.581.188.194-.03c.854-.283.744-.2.776-.457.124-.01.243-.018.343-.024-.044.02-.092.042-.148.07l1.359.03-.323.239c-1.243.122-2.281.234-2.44.3,1.211-.108,2.676.072,2.919-.154l.343.122,3.432-.463v-.014c.938-.012,3.159-.054,3.833-.152,3.831-.559,1.014-1.129,3.3-1.517l-1.165-.22,1.165.188h.194l-.194-.569-1.554.064v-.126l-.192-.032,1.357.032v-.032c-1.255-.11-.87-.249-.581-.475-.984.058.042.106-.97.064l.387-.032.583-.22a1.688,1.688,0,0,1-1.165-.507c-.585.1-.329,0-.389.158-1.84-.335-.044-.333-2.135-.537l.583-.064a26.916,26.916,0,0,0-5.629-.663l-.547-.321.058.008a5.648,5.648,0,0,0,.754-.192c.068-.036-.252-.084-.4-.126l-.786.092-.05-.03h-1.942l.778-.158-1.94-.126-.389.094-.195-.126c.022-.094-.1-.01.389-.158a3.647,3.647,0,0,1-1.479-.271h.008l-.028,0a6.288,6.288,0,0,0-.83-.1l-.034.016-.072-.006.106-.1-4.464-.443-.581.126-.194-.253c-.768.03-.22.044-.778-.064-.5.058-.339.124-.581.032-1.459.044-4.316-.247-6.14-.327-2.949-.73-7.359-1.694-10.013-1.345l-1.373-.712.515-.279v.124c.659-.321-.329-.647-.515-.712l-.515.124-.515-.279v.184l-1.03-.154-.343.062c.271-.1-.09-.086.515-.062l-.343-.4v.122c-.283-.146-.96-.453-1.882-.816l-.182-.07c-2.734-1.062-7.421-2.558-10.636-2.177l-.172-.371-.172.062c-.587.088-.289.012-.171.186l-.687-.032.172-.371c-.5.04-.481.226-1.036.4a2.512,2.512,0,0,1-.7-.236l.365.02c-.281-.128-.008-.076-.343-.122l-.1.054a2.03,2.03,0,0,0-.585-.3l.172-.062.343.062.515.154c.4-.066-.028-.028.515-.03.056-.3-1.519-.3-2.231-.433l-.688.124.345-.249-.345-.062a1.884,1.884,0,0,1-.686.062c.523.1,0,.028.686.062l-.686.187v-.217l-.688.122v-.092l.345-.246c.136,0,.232,0,.337,0h.006a2.481,2.481,0,0,0,1.03-.214c.158.138-.086.106-.515.277l.515-.06c.044.06.064.036.343,0,.343.142.126.042.858.06l.343.311c.186-.219-.138-.144.688-.371-.627.018-.555.128-.687.03l-.686-.154.686.124.343-.187-1.2.03.858-.122v-.154l-.172.092c-.96-.132.269-.289.172-.5.874.01.395,0,.172-.154h.686l-.343-.094-.172.062c-.718.084-.3.006-.343.154l-.515-.154V519.7c-.389.066-.88-.028-.515.062l-.513-.03.343-.156.343-.03,1.03.279.17-.032-.515-.247.86.247.343-.092a1.457,1.457,0,0,1,.643.618l-.471-.03-.172.094.646-.058a.493.493,0,0,1,.04.088l.688-.092c.136.048-.19.07.343.246h.172c.122-.174-.253-.24-1.03-.341v-.06l1.03-.094.17.217c.1-.236.774-.365-.17-.4l.515-.249.343.186c.054.068.09.01-.172.062l1.03.184-.515-.154c.665-.066,1.088-.01.858-.217l-.343.154-.172-.092a1.457,1.457,0,0,0-.615-.226c.445-.062.313-.008.1-.144l-.148.134a4.921,4.921,0,0,0-.88-.1l.858-.5-.343.279c1.022-.1.453-.044.513-.216l1.2-.092-.172.124-1.2.246.343.062.688-.154.343.216.17-.186.515.4.515-.032-.515-.433c1.04-.11,2.039-.1,1.888-.463l1.2.184-.686.094.172.03.17.032.688-.062-1.2-.341.688.03-.858-.279h-.172l-.686.249-.172-.124-.343.186.685-.433-.685.092-1.2-.65h.172c.337.347.8.437,1.888.525-.16-.062-.14-.022.17-.062-.056-.236-.114-.473-.17-.712h.343l.172.032c.329.152.078,0-.172.184l.515.032c.375-.048.854-.092,1.313-.13.182-.01.2-.01.184-.016.758-.06,1.421-.1,1.421-.1l.343-.184c-.738-.1-.714-.092-1.03-.4l-.687.187-.17-.062-.515-.249.515.187.515-.03-.172-.249c-.872.012-.307-.09-.858.032l.172-.311v.154a2.688,2.688,0,0,1,1.373-.062l.343-.309-.172.186.858-.186c-.912-.174-.746-.126-1.028-.341l-.345.062c-.738-.331.072-.635-2.059-1.082-1.058.291-16.082-.762-20.424-.465q-5.92-.09-11.843-.184c-3.211.375-28.715-.6-34.841-.4-.1,0-.206.006-.311.008l-.156-.152v.126l.088.028c-.746.022-1.479.036-2.207.046.18-.17.012-.2.371-.359a9.219,9.219,0,0,1-1.552-.064l.192.19-.581-.064-.389.255.389-.064,1.341.11c-3.239.036-6.278-.038-8.974-.114l-1.1-.154-.411.112c-2.762-.078-5.093-.128-6.8-.01l-1.109-.068-.076-.042c-.539-.032-.287-.006-.335.072l-.084-.014-.267-.12-.172.154c-.631-.02-1.012-.036-1.293-.052l-.13-.064-.463.026c-.146-.01-.3-.022-.517-.032l-.858-.032v.032l1.03.062c-1.427.094-3.829.124-6.763.118l-.192-.078-.2.076H756l.138-.046c-.16.02-.307.032-.433.044-4.26-.02-9.471-.106-14.495-.192l-.016-.008-.1.008-.609-.012.124-.06-.962.046c-7.986-.132-15.15-.236-16.672-.02l-7.455-.092c-1.676-.08-3.211-.158-4.558-.231v-.11l-.172-.032-.674.1c-.19-.01-.367-.022-.549-.032-.1-.08-.158-.17-.108-.261h.365l.281.1.16-.174h.01v.144l.62-.084-.529-.068.162-.014,1.726.056-.433.078h.858l.172-.03v-.144c.062.012.124.026.17.034v.11l.295.026.122.06.918-.124.3.054c.07.044.219,0,.722.1h.192l.389-.19v.19c4.887-.188,16.433.613,18.632.347a3.959,3.959,0,0,1-1.165-.22c-1.993.076-3.508-.3-5.24.03v-.156c-1.728.231-2.568-.148-4.075.062l-.583-.347-2.329-.064v-.032c1.253-.128.5-.048.583-.22l2.135-.158c-1.89-.138-11.015-.022-12.228-.19a61.026,61.026,0,0,0-6.338-.353,5.805,5.805,0,0,0-.914-.054c-.22-.086-.485-.166-.746-.247l1.01.022.619-.118.351.086v.064h.194l.389-.19h.387v.032l-.581.126c1.5.044,3.983.1,5.045.158v.126l.778-.064.387.032c.036-.052-.09-.116.194-.064a24.2,24.2,0,0,0-4.657-.156l-1.359-.255-1.02.084.437-.084-.387-.062a6.9,6.9,0,0,1-1.359-.064l-.776.158c-.074-.034.16-.2-.389-.126-.148-.028-.383-.054-.682-.08-1.056-.233-2.317-.433-3.728-.609l.14-.07-.194-.03v.094c-.251-.032-.5-.062-.764-.092l-.012,0h0c-8.227-.924-68.79-1.04-81.795-.994v-.018h-.387l.08.02c-.335,0-.669,0-1,0l.341-.056c-.772-.008-1.393.094-.97-.032l-.194-.032v.122l-.65,0-.321-.156a2.918,2.918,0,0,1-.97.094l.14.068c-3.708.02-7.361.048-10.843.068-5.132-.4-18.935-.417-29.469-.479l0,0v0c-6.026-.036-10.983-.084-12.616-.227l-2.911.158.389-.126-.778.126-.581.032.581.062c-4.424.337-15.667-.425-20.767.126-.441-.206-8.958-.208-11.257-.126-12.743.106-21.481.21-34.223.317l-4.7.232c-.537-.016-1.04-.034-1.463-.066l.583-.064-.583-.032-.776-.126.387.126q-1.455-.078-2.911-.158c-1.149.1-3.953.154-7.6.188v62.934l.8-.056h0q3.145-.087,6.29-.178c4.219,1.022,6.525-1.924,10.556-1.291h0c3.8.144,7.06-.808,10.546-1.3l2.616-.058,1.435-.046a12.185,12.185,0,0,0,5.747-.134c9.473-2.917,16.151-1.782,26.239-2.2,6.489-.271,12.979-.4,19.47-.453l-.062.006v.032l1.716-.032-.184-.016q2.881-.015,5.761-.01l-.6.026.688.094.686-.032v-.088c.275,0,.549,0,.824,0l-.136.024h.685l-.122-.022,1.782.012.056.01-.014-.01.85.006.024,0h.343l.006,0q1.867.015,3.738.036l.032.028c.04-.012.07-.016.108-.026q2.766.03,5.529.076l-1.347.074.343.124.172.03a2.689,2.689,0,0,1,1.373-.124l.207-.092h.078l-.112.062h.343l-.11-.06.251,0,.2.056q.7-.015,1.409-.028c15.208.273,30.417.766,45.625.972,25.319.341,98.03.094,123.3-.655q23.82-.7,47.576-.323c-.1,0-.2.022-.3.034a2.63,2.63,0,0,0,.335.04,2.833,2.833,0,0,0,.365-.04c-.092-.01-.181-.026-.271-.032q20.554.364,41.057,1.712c4.083.275,8.607.81,11.925-1.411.86-.577,3.241-.71,4.284.437h0c-.008,1.355-.042,1.479,2.742,1.668,14.886,1.008,29.318.547,42.494-3.6,3.907.878,7.753-.279,11.648-.1.475.022,1.778.311,1.227-.583-.95-1.541,2.472-2.167,3.083-3.033C916.707,560.372,921.622,559.987,919.4,558.021Zm-95.739-4.392c-.072.006-.132.024-.21.026l-.018-.052C823.509,553.613,823.583,553.623,823.661,553.629Zm-22.956-.359c-.1,0-.2,0-.323,0l-.343-.5A1.857,1.857,0,0,1,800.705,553.27ZM729.749,557.4q-.514.078-1.032.144l-.146-.07c-.132.07-.13.082,0,.088-4.131.513-8.389.441-12.6.563a1.865,1.865,0,0,1-.794-.241c.629-.026,4.462.108,6.016,0-1.7-.186-2.163-.154-3.033-.317h.509a7.981,7.981,0,0,1,.972.032l-.583-.126-.924.09c-.134-.026-.277-.054-.435-.09-2.075.156-5.474-.263-7.18-.064l.97.064c-.76.062-2.115.05-3.538.006a6.373,6.373,0,0,0-3.39-.391,3.86,3.86,0,0,1-.395.215c-.718-.046-1.243-.088-1.411-.114v-.064h1.554l.192-.094-.776-.032-1.746-.094v-.126l2.716-.032-.387-.158,1.551.191,5.823-.064v.032c-.285.15-.589.068.387.19l-1.357.126h5.045c.369-.088-.706-.026-1.359-.064h.389l-.194-.094a24.02,24.02,0,0,1,3.883.253l.776-.094-.389-.1c1.463.088,7.99.291,9.123.1l.776.285.583-.126v.156l.581-.126Zm20.366.517-1.165.22a24.168,24.168,0,0,0-2.718-.032l-.581-.188-.583.03v.032l2.189.577a19.323,19.323,0,0,0-6.342-.237c-.838-.112-1.664-.234-2.432-.415-.409-.088-.82-.195-1.233-.3.822-.174,3.55-.267,5.1-.605,1.82.234,2.141-.092,2.911.285l.389-.158.776.253.583-.221v.411l.387.094v-.126l.194.19a4.113,4.113,0,0,1,1.359,0h-1.165l.581.126.97.158a1.782,1.782,0,0,1,.778-.126Zm42.624.782-.12-.086a1.637,1.637,0,0,1,.234.048C792.817,558.678,792.775,558.688,792.739,558.7Zm1.606-.451c-.391.082-.748.178-1.086.283-.18-.032-.381.032-.253-.076,0,0,.134-.178.778-.126l-.389-.223.195.1q1.455-.126,2.911-.255l.174.024A19.674,19.674,0,0,0,794.345,558.251Z" transform="translate(-472.447 -508.335)"/><path class="a" d="M562.433,510.9l-.38-.028-.026.049Z" transform="translate(-382.461 -506.041)"/><path class="a" d="M624.77,514.177h.343l-.17-.092Z" transform="translate(-319.434 -502.811)"/><path class="a" d="M626.4,513.93v.094h.858Z" transform="translate(-317.8 -502.967)"/><path class="a" d="M629.4,527.5v-.124l-.688-.062-.172.094.688.03Z" transform="translate(-315.65 -489.525)"/><path class="a" d="M624.77,514.07l.515.032.515-.124v-.03l-1.03-.094.515.186-.343-.032Z" transform="translate(-319.434 -503.045)"/><path class="a" d="M626.74,513.869l-.17-.124-.172.154Z" transform="translate(-317.8 -503.153)"/><path class="a" d="M626.227,513.128l-.515.217.515-.062.17-.124Z" transform="translate(-318.488 -503.773)"/><path class="a" d="M626.9,513.464l-.5-.07-.647.068a2.786,2.786,0,0,0,.361.038C626.378,513.5,626.635,513.478,626.9,513.464Z" transform="translate(-318.452 -503.506)"/><path class="a" d="M626.742,513.628c-.533-.084-.168-.03-.687.032l.688.092-.172.062C627.125,513.744,626.716,513.662,626.742,513.628Z" transform="translate(-318.144 -503.314)"/><path class="a" d="M596.39,533.055l-.194-.032-.194-.03C595.717,533.069,596.232,533.043,596.39,533.055Z" transform="translate(-348.418 -483.818)"/><path class="a" d="M596.056,533.023l.97.064-.194-.094Z" transform="translate(-348.278 -483.818)"/><path class="a" d="M629.053,527.607l.172-.187-1.03.154Z" transform="translate(-315.993 -489.416)"/><path class="a" d="M597.218,532.851h-.581v.094l.776.032Z" transform="translate(-347.694 -483.961)"/><path class="a" d="M594.7,532.9l.583-.064-.389-.062Z" transform="translate(-349.64 -484.04)"/><path class="a" d="M589.666,532.8v-.064l-.581.032Z" transform="translate(-355.28 -484.072)"/><path class="a" d="M597.155,533.087l-.193-.094C596.369,533.019,596.938,533.051,597.155,533.087Z" transform="translate(-347.631 -483.818)"/><path class="a" d="M600.511,532.945l-.195.064C600.534,532.959,600.517,533.017,600.511,532.945Z" transform="translate(-343.999 -483.866)"/><path class="a" d="M629.224,527.2l-.515.217.686-.092Z" transform="translate(-315.477 -489.633)"/><path class="a" d="M609.322,533.1l.194-.1-.583.032Z" transform="translate(-335.343 -483.803)"/><path class="a" d="M629.91,527.575l.172-.124-.86.032Z" transform="translate(-314.962 -489.385)"/><path class="a" d="M597.7,533.119l1.165.094v-.285l-.97.1C598.045,533.121,598.211,533.063,597.7,533.119Z" transform="translate(-346.624 -483.882)"/><path class="a" d="M600.123,533.008l.193-.094-.193.03Z" transform="translate(-344.193 -483.897)"/><path class="a" d="M622.461,514.688l-.515-.156-.172.124Z" transform="translate(-322.444 -502.363)"/><path class="a" d="M623.229,514.858l.686.092.172-.371Z" transform="translate(-320.982 -502.315)"/><path class="a" d="M624.088,514.409l-.687.03C623.911,514.527,623.607,514.5,624.088,514.409Z" transform="translate(-320.81 -502.486)"/><path class="a" d="M623.229,515.149v-.092l-.17.216S623.764,515.2,623.229,515.149Z" transform="translate(-321.154 -501.835)"/><path class="a" d="M624.256,514.069v.094l.688.092Z" transform="translate(-319.95 -502.828)"/><path class="a" d="M623.572,515.211h-.17l-.172.094.343.03Z" transform="translate(-320.982 -501.68)"/><path class="a" d="M624.172,514.671l-.515.124H624Z" transform="translate(-320.552 -502.223)"/><path class="a" d="M623.657,514.27v.186l.515-.032Z" transform="translate(-320.552 -502.626)"/><path class="a" d="M624.516,514.842v-.032l-.688.124C624.53,514.884,624.051,514.972,624.516,514.842Z" transform="translate(-320.38 -502.083)"/><path class="a" d="M621.945,515.228l.343.06v-.154l-.172.032Z" transform="translate(-322.272 -501.758)"/><path class="a" d="M622.545,514.856l-.515.062.345.062Z" transform="translate(-322.186 -502.037)"/><path class="a" d="M622.547,514.81c-.668.072-.387.014-.688.154Z" transform="translate(-322.358 -502.083)"/><path class="a" d="M622.03,514.316v.062C622.265,514.334,622.216,514.368,622.03,514.316Z" transform="translate(-322.186 -502.58)"/><path class="a" d="M621.773,514.642l.86-.279c-.429.05-.122.058-.515,0Z" transform="translate(-322.444 -502.532)"/><path class="a" d="M623.315,515.119v.124l.513.06Z" transform="translate(-320.895 -501.773)"/><path class="a" d="M623.4,514.95l.515.03-.172-.062.172-.062Z" transform="translate(-320.81 -502.037)"/><path class="a" d="M622.373,514.749c.287-.048.313.026.515-.124h-.172Z" transform="translate(-321.842 -502.269)"/><path class="a" d="M623.315,514.007l.343.032-.172-.124Z" transform="translate(-320.895 -502.982)"/><path class="a" d="M624.514,514.565l.172-.249-.515.062Z" transform="translate(-320.036 -502.58)"/><path class="a" d="M623.914,514.147l.515-.154-.515-.032Z" transform="translate(-320.294 -502.936)"/><path class="a" d="M622.631,514.842h.343l-.515-.094v.124Z" transform="translate(-321.756 -502.146)"/><path class="a" d="M623.83,514.579h-.17l-.688.154.688.03Z" transform="translate(-321.24 -502.315)"/><path class="a" d="M623.058,514.95c.375-.064.208-.008,0-.094Z" transform="translate(-321.154 -502.037)"/><path class="a" d="M622.287,514.61l.343.03-.17-.154Z" transform="translate(-321.928 -502.409)"/><path class="a" d="M623.058,514.84l.172-.184h-.515v.092l.343-.03Z" transform="translate(-321.498 -502.238)"/><path class="a" d="M623.058,515.011l.343.092h.172l.17-.092-.686-.062Z" transform="translate(-321.154 -501.944)"/><path class="a" d="M622.886,514.8l.515.062A1.32,1.32,0,0,0,622.886,514.8Z" transform="translate(-321.326 -502.098)"/><path class="a" d="M622.373,515.011l.686.217C623.5,515.025,622.473,515.015,622.373,515.011Z" transform="translate(-321.842 -501.881)"/></g><g transform="translate(506.225 525.203)"><path class="b" d="M504.085,519.322a7.028,7.028,0,0,1,2.939,4.5l-5.117,1.044a3.469,3.469,0,0,0-1.327-2.2,3.87,3.87,0,0,0-2.371-.776,3.237,3.237,0,0,0-2.053.617,1.875,1.875,0,0,0-.792,1.533q0,1.389,1.708,1.768l4.392.98q5.815,1.293,5.813,6.162a5.867,5.867,0,0,1-2.5,5.053,10.358,10.358,0,0,1-6.222,1.8,11.184,11.184,0,0,1-6.272-1.69A6.455,6.455,0,0,1,489.3,533.4l5.372-1.044a4.427,4.427,0,0,0,6.461,2.528,1.857,1.857,0,0,0,.838-1.58,1.656,1.656,0,0,0-.427-1.2,2.916,2.916,0,0,0-1.531-.663l-4.424-.948q-5.686-1.3-5.687-6.13A5.848,5.848,0,0,1,492.2,519.5a9.572,9.572,0,0,1,6.066-1.8A9.936,9.936,0,0,1,504.085,519.322Z" transform="translate(-489.298 -515.926)"/><path class="b" d="M517.018,536.68h-5.057v-1.265a7.078,7.078,0,0,1-4.929,1.738,7.32,7.32,0,0,1-5.48-2.353,9.211,9.211,0,0,1,0-12.085,7.293,7.293,0,0,1,5.48-2.371,7.078,7.078,0,0,1,4.929,1.738v-1.265h5.057Zm-6.21-4.977a4.34,4.34,0,0,0,0-5.891,3.7,3.7,0,0,0-2.732-1.171,3.583,3.583,0,0,0-2.748,1.155,4.619,4.619,0,0,0,0,5.923,3.61,3.61,0,0,0,2.748,1.137A3.732,3.732,0,0,0,510.808,531.7Z" transform="translate(-479.259 -513.267)"/><path class="b" d="M509.963,539.893V517.144h5.053v22.749Z" transform="translate(-468.539 -516.481)"/><path class="b" d="M530.285,536.443H525.23v-1.517a6.423,6.423,0,0,1-4.867,1.99,5.819,5.819,0,0,1-4.47-1.816,6.752,6.752,0,0,1-1.69-4.787v-9.734h5.023v8.66a3.305,3.305,0,0,0,.76,2.259,2.474,2.474,0,0,0,1.956.868,2.92,2.92,0,0,0,2.419-1.09,5.3,5.3,0,0,0,.868-3.333v-7.363h5.056Z" transform="translate(-464.28 -513.03)"/><path class="b" d="M541.26,539.893H536.2v-1.265a7.078,7.078,0,0,1-4.929,1.738,7.324,7.324,0,0,1-5.482-2.353,9.211,9.211,0,0,1,0-12.085,7.3,7.3,0,0,1,5.482-2.371,7.078,7.078,0,0,1,4.929,1.738v-8.151h5.055Zm-6.208-4.977a4.34,4.34,0,0,0,0-5.891,3.708,3.708,0,0,0-2.734-1.171,3.586,3.586,0,0,0-2.748,1.155,4.619,4.619,0,0,0,0,5.923,3.613,3.613,0,0,0,2.748,1.137A3.737,3.737,0,0,0,535.052,534.916Z" transform="translate(-454.907 -516.481)"/><path class="b" d="M546.536,541.828h-5.464l2.558-5.907-6.571-15.357h5.434l3.76,9.257,4.011-9.257H555.7Z" transform="translate(-441.321 -513.045)"/><path class="b" d="M564.265,539.1h-5.023l-9.006-21.17h5.751l5.751,14.028,5.781-14.028h5.753Z" transform="translate(-428.085 -515.689)"/><path class="b" d="M567.7,517.667a2.785,2.785,0,0,1,.836,2.021,2.674,2.674,0,0,1-.836,2.006,2.916,2.916,0,0,1-2.1.806,2.853,2.853,0,0,1-2.085-.806,2.693,2.693,0,0,1-.824-2.006,2.94,2.94,0,0,1,5.011-2.021Zm-4.63,22.559V524.362h5.055v15.864Z" transform="translate(-415.577 -516.813)"/><path class="b" d="M584.56,539.893H579.5v-1.265a7.078,7.078,0,0,1-4.929,1.738,7.32,7.32,0,0,1-5.48-2.353,9.211,9.211,0,0,1,0-12.085,7.293,7.293,0,0,1,5.48-2.371,7.078,7.078,0,0,1,4.929,1.738v-8.151h5.057Zm-6.21-4.977a4.34,4.34,0,0,0,0-5.891,3.7,3.7,0,0,0-2.732-1.171,3.583,3.583,0,0,0-2.748,1.155,4.619,4.619,0,0,0,0,5.923,3.61,3.61,0,0,0,2.748,1.137A3.732,3.732,0,0,0,578.35,534.916Z" transform="translate(-411.411 -516.481)"/><path class="b" d="M594.71,536.68h-5.053v-1.265a7.086,7.086,0,0,1-4.929,1.738,7.325,7.325,0,0,1-5.484-2.353,9.211,9.211,0,0,1,0-12.085,7.3,7.3,0,0,1,5.484-2.371,7.085,7.085,0,0,1,4.929,1.738v-1.265h5.053ZM588.5,531.7a4.335,4.335,0,0,0,0-5.891,3.7,3.7,0,0,0-2.734-1.171,3.592,3.592,0,0,0-2.748,1.155,4.619,4.619,0,0,0,0,5.923,3.619,3.619,0,0,0,2.748,1.137A3.73,3.73,0,0,0,588.5,531.7Z" transform="translate(-401.215 -513.267)"/><path class="b" d="M599.685,517.932a11.953,11.953,0,0,1,8.407,2.923,10.8,10.8,0,0,1,0,15.325,11.971,11.971,0,0,1-8.407,2.923h-8.373v-21.17Zm-.188,16.652a6.71,6.71,0,0,0,4.755-1.66,6.338,6.338,0,0,0,0-8.816,6.7,6.7,0,0,0-4.755-1.658h-2.971v12.134Z" transform="translate(-386.822 -515.689)"/><path class="b" d="M607.686,517.667a2.785,2.785,0,0,1,.836,2.021,2.675,2.675,0,0,1-.836,2.006,2.916,2.916,0,0,1-2.1.806,2.854,2.854,0,0,1-2.085-.806,2.692,2.692,0,0,1-.822-2.006,2.835,2.835,0,0,1,2.907-2.875A2.82,2.82,0,0,1,607.686,517.667Zm-4.63,22.559V524.362h5.057v15.864Z" transform="translate(-375.405 -516.813)"/><path class="b" d="M624.2,535.1a6.817,6.817,0,0,1-2.448,5.579,9.833,9.833,0,0,1-6.432,2.006q-5.653,0-7.96-3.824l4.2-2.273a6.054,6.054,0,0,0,1.722,1.53,4.217,4.217,0,0,0,2.006.427,4.045,4.045,0,0,0,2.86-1.01,3.693,3.693,0,0,0,1.09-2.844v-.441a7.083,7.083,0,0,1-4.773,1.517,7.393,7.393,0,0,1-5.4-2.229,7.5,7.5,0,0,1-2.243-5.545,7.321,7.321,0,0,1,2.243-5.45,7.443,7.443,0,0,1,5.4-2.2,7.094,7.094,0,0,1,4.773,1.517v-1.044H624.2Zm-6.036-4.5a3.656,3.656,0,0,0,0-5.182,3.658,3.658,0,0,0-2.622-1.026,3.783,3.783,0,0,0-2.732,1.012,3.415,3.415,0,0,0-1.06,2.59,3.451,3.451,0,0,0,1.074,2.606,3.778,3.778,0,0,0,2.718,1.028A3.652,3.652,0,0,0,618.166,530.6Z" transform="translate(-371.242 -513.267)"/><path class="b" d="M631.729,522.159a6.754,6.754,0,0,1,1.69,4.789v9.732H628.4v-8.66a3.315,3.315,0,0,0-.76-2.259,2.485,2.485,0,0,0-1.958-.866,2.913,2.913,0,0,0-2.417,1.088,5.3,5.3,0,0,0-.87,3.334v7.363h-5.055V520.816h5.055v1.518a6.426,6.426,0,0,1,4.867-1.99A5.826,5.826,0,0,1,631.729,522.159Z" transform="translate(-360.68 -513.267)"/><path class="b" d="M644.282,536.68h-5.056v-1.265a7.082,7.082,0,0,1-4.929,1.738,7.32,7.32,0,0,1-5.48-2.353,9.211,9.211,0,0,1,0-12.085,7.293,7.293,0,0,1,5.48-2.371,7.081,7.081,0,0,1,4.929,1.738v-1.265h5.056Zm-6.208-4.977a4.34,4.34,0,0,0,0-5.891,3.7,3.7,0,0,0-2.734-1.171,3.589,3.589,0,0,0-2.748,1.155,4.619,4.619,0,0,0,0,5.923,3.617,3.617,0,0,0,2.748,1.137A3.733,3.733,0,0,0,638.074,531.7Z" transform="translate(-351.416 -513.267)"/></g></g></svg>