<svg xmlns="http://www.w3.org/2000/svg" width="440.498" height="62.856" viewBox="0 0 440.498 62.856"><defs><style>.a{fill:#003687;}.b{fill:#fff;}</style></defs><g transform="translate(-704.962 -459.352)"><g transform="translate(704.962 459.352)"><path class="a" d="M799.477,460.292c.493-.026,1.067-.047,1.056-.059a1.113,1.113,0,0,0-.464-.152,7.891,7.891,0,0,0-.858.043C799.171,460.177,799.366,460.233,799.477,460.292Z" transform="translate(-613.257 -458.644)"/><path class="a" d="M798.934,460.851l-.191-.095h-.383l-.191.063.574.061Z" transform="translate(-614.266 -457.986)"/><path class="a" d="M805.755,461.646c-.156,0-.241,0-.318,0a10.42,10.42,0,0,0-2.137.053l-.764-.124c-.574.012-1.146.022-1.72.032l.022.01c-.27.022-.387.03-.466.038l-.7-.172-.15.122a2.777,2.777,0,0,1-.487.016l-.318-.014.574-.061-1.91-.032.055.065a20.718,20.718,0,0,1-3-.024l-.168.122h3.208l.048,0,.045.051,3.248.032-.191-.047.231-.008v-.081l.152.073.191.187.191.032c.882-.043,2.5-.152,4.021-.156l.006.006.03-.006a13.655,13.655,0,0,1,2.63.188l-.955.061h.381l.191.095.955-.095-.383.095q1.361.006,2.719.016l-.235.077.383-.032v-.043l2.1.012-.574-.03c-.326-.193-.16-.077-.764-.156-.594.03-2.658-.116-4.627-.221l.343-.083-.7.063-.691-.034.043-.03-.241.022-.187-.008Z" transform="translate(-618.061 -457.279)"/><path class="a" d="M792.719,460.741c-.314.134-.1.093.535.152Z" transform="translate(-619.707 -458)"/><path class="a" d="M782.571,460.579l3.63.063a19.359,19.359,0,0,0-3.248-.28,6.629,6.629,0,0,1-.955.061Z" transform="translate(-630 -458.369)"/><path class="a" d="M797.291,461.167l.574-.032-.955.032Z" transform="translate(-615.49 -457.617)"/><path class="a" d="M798.749,461.34l.766.095,2.1.093v-.063l-2.1-.156Z" transform="translate(-613.701 -457.449)"/><path class="a" d="M786.259,460.362v.124l.192-.032Z" transform="translate(-625.855 -458.369)"/><path class="a" d="M792.96,460.82l-.04,0,.231.065Z" transform="translate(-619.373 -457.925)"/><path class="a" d="M787.8,460.882h-.574C787.752,460.921,787.408,460.951,787.8,460.882Z" transform="translate(-624.913 -457.863)"/><path class="a" d="M784.8,460.457l-.572.03.572.032Z" transform="translate(-627.833 -458.277)"/><path class="a" d="M787.9,460.658a.283.283,0,0,1,.189-.093,14.781,14.781,0,0,0,3.631.187l-.192-.063v-.032l-.955-.185a11.722,11.722,0,0,0-2.865.124l-.383-.156.192.28Z" transform="translate(-624.818 -458.292)"/><path class="a" d="M790.788,460.971l.618-.182-.044.026.381.032h2.484c-.659-.191.016,0,.191-.217l.7.095.059.03v-.022l.383.053.191-.251a5.886,5.886,0,0,0-1.912.156l.191-.124-.584.008.012-.008-.047.008-1.673.024-.148.085-1.379-.085-.955.28Q790.025,460.926,790.788,460.971Z" transform="translate(-622.933 -458.201)"/><path class="a" d="M797.3,461.181l1.338.063-.574-.093Z" transform="translate(-615.114 -457.601)"/><path class="a" d="M798.937,461.182l-.381.032.572.093Z" transform="translate(-613.889 -457.571)"/><path class="a" d="M804.136,461.443l-15.857-.529-.955.063.192.093h.191c1.482-.012,7.107.235,11.381.361-.239.01-.473.022-.708.034a2.759,2.759,0,0,0,.335.049c.32-.01.616-.032.9-.047-.051-.006-.108-.018-.166-.026A41.789,41.789,0,0,0,804.136,461.443Z" transform="translate(-624.818 -457.832)"/><path class="a" d="M794.088,461.5l-.677.061.846.061Z" transform="translate(-618.895 -457.259)"/><path class="a" d="M793.667,461.55l-.17.12.17-.03Z" transform="translate(-618.812 -457.213)"/><path class="a" d="M799.621,461.892l.381.03.383-.093-.764.032Z" transform="translate(-612.852 -456.942)"/><path class="a" d="M799.545,461.922l-.191-.093C799.338,461.928,799.178,461.845,799.545,461.922Z" transform="translate(-613.159 -456.942)"/><path class="a" d="M792.983,461.656l.845.03-.168-.059v-.093Z" transform="translate(-619.312 -457.229)"/><path class="a" d="M797.372,461.261l-.572-.063h-.766l-.189.093.572-.03Z" transform="translate(-616.527 -457.556)"/><path class="a" d="M794.876,461.072l.766.032-.191-.063Z" transform="translate(-617.47 -457.709)"/><path class="a" d="M797.389,461.245h-.383c.087.061-.012.185.383.095l2.865.093-.189-.063Z" transform="translate(-615.397 -457.51)"/><path class="a" d="M793.006,460.914l-2.293.093q4.01.08,8.024.156Z" transform="translate(-621.521 -457.832)"/><path class="a" d="M789.158,460.755l-.381-.093C788.953,460.731,788.568,460.7,789.158,460.755Z" transform="translate(-623.404 -458.077)"/><path class="a" d="M789.938,460.9l1.529.063-.383-.063Z" transform="translate(-622.275 -457.848)"/><path class="a" d="M806.595,461.189c-4.066-.245-6.614-.249-8.405-.373-.381.02-.763.041-1.146.063l-.572-.156-.191.156-.383-.219v.156h-1.91l.574-.156c.235.049.2.055.381,0,.217-.047.2.008.192-.061l-2.484.03a10.834,10.834,0,0,0,2.1.468C796.81,460.749,804.041,461.361,806.595,461.189Z" transform="translate(-619.637 -458.139)"/><path class="a" d="M855.742,465.455l-.17.061C855.789,465.571,855.742,465.455,855.742,465.455Z" transform="translate(-558.408 -453.413)"/><path class="a" d="M858.134,464.865a7.539,7.539,0,0,0,1.352,0l-.507-.122v-.091l-1.352.183Z" transform="translate(-556.409 -454.195)"/><path class="a" d="M854.713,465.578l-.168.061C854.634,465.615,854.728,465.647,854.713,465.578Z" transform="translate(-559.408 -453.294)"/><path class="a" d="M852.921,465.609h0Z" transform="translate(-560.994 -453.264)"/><path class="a" d="M786.508,461.55l-.065.008.4.053Z" transform="translate(-625.676 -457.213)"/><path class="a" d="M858.138,464.312l.339-.032-.507-.03v.213Z" transform="translate(-556.075 -454.585)"/><path class="a" d="M781.216,460.392l-.572-.093C780.768,460.36,780.427,460.362,781.216,460.392Z" transform="translate(-631.318 -458.43)"/><path class="a" d="M880.146,473.542l.128.116.04.006Z" transform="translate(-534.496 -445.544)"/><path class="a" d="M874.326,474.545h-.112l.034.03A.693.693,0,0,0,874.326,474.545Z" transform="translate(-540.268 -444.568)"/><path class="a" d="M874.363,474.623l-.079-.063C874.154,474.6,874.1,474.556,874.363,474.623Z" transform="translate(-540.305 -444.554)"/><path class="a" d="M847.336,489.352l.353,0-.161-.045Z" transform="translate(-566.423 -430.201)"/><path class="a" d="M875.82,473.077l.191.095h.32a.942.942,0,0,0-.128-.032Z" transform="translate(-538.706 -445.997)"/><path class="a" d="M876.079,473.125c.057.014.115.028.162.043l.091-.043Z" transform="translate(-538.454 -445.95)"/><path class="a" d="M877.466,470.4l.763.03v-.061Z" transform="translate(-537.104 -448.637)"/><path class="a" d="M712.712,459.9l1.146-.156-.383-.032-1.527-.061Z" transform="translate(-698.164 -459.056)"/><path class="a" d="M712.813,459.64h-.381C712.71,459.683,712.493,459.674,712.813,459.64Z" transform="translate(-697.693 -459.072)"/><path class="a" d="M711.556,459.717l.381.061.957-.124-.574-.061-.383.061c-.55.087,0,.008-.764,0l.383.032Z" transform="translate(-698.918 -459.117)"/><path class="a" d="M745.919,459.415l-1.529.063-.383.032q.574.077,1.146.156Z" transform="translate(-666.969 -459.291)"/><path class="a" d="M746.217,459.476v-.03l.381-.032c-.762.006-.213.085-.764,0l-.383-.063-.572.063.955.124Z" transform="translate(-666.12 -459.352)"/><path class="a" d="M744.681,459.4H744.3C744.62,459.434,744.4,459.441,744.681,459.4Z" transform="translate(-666.685 -459.305)"/><path class="a" d="M754.991,488.57l.507.12a3.985,3.985,0,0,0,1.352-.213,6.957,6.957,0,0,0,2.026.152l-.337-.152A17.348,17.348,0,0,0,754.991,488.57Z" transform="translate(-656.28 -431.061)"/><path class="a" d="M748.912,488.521c1.626-.043.86-.053,1.859-.032C751.149,488.264,749.62,488.343,748.912,488.521Z" transform="translate(-662.196 -431.134)"/><path class="a" d="M752.422,488.59l1.184-.03v-.032h-1.184Z" transform="translate(-658.78 -430.961)"/><path class="a" d="M717.532,490.161l.234-.041-.349-.008Z" transform="translate(-692.841 -429.42)"/><path class="a" d="M860.612,463.232h-.17l-.675.274Z" transform="translate(-554.325 -455.576)"/><path class="a" d="M821.515,460.783l-.864-.057-.328.053c.274.018.541.04.831.049A3.012,3.012,0,0,0,821.515,460.783Z" transform="translate(-592.708 -458.015)"/><path class="a" d="M820.031,461.671l-1.336.124.572.032Z" transform="translate(-594.292 -457.095)"/><path class="a" d="M817.918,461.9l.191-.032v-.217c-1,.1-.414.17-.381.185Z" transform="translate(-595.427 -457.11)"/><path class="a" d="M819.066,461.766v-.095l-1.146.187.955.032C818.863,461.762,818.571,461.815,819.066,461.766Z" transform="translate(-595.046 -457.095)"/><path class="a" d="M841.333,461.514c.748-.014,1.486-.036,2.228-.057l-.2-.154c-.754.034-1.515.063-2.249.1C841.075,461.406,841.3,461.514,841.333,461.514Z" transform="translate(-572.481 -457.453)"/><path class="a" d="M821.971,462.031a9.729,9.729,0,0,0-1.146.032l.191.093q1.24.047,2.482.093l-.191-.217.191.063.383-.063.191.156.191-.249h-1.912c.393-.081.128-.032-.572-.156-.637.075-.219-.01-.574.124h.574Z" transform="translate(-592.219 -456.987)"/><path class="a" d="M834.388,461.473l.312-.116-.977-.041c-.067.03-.259.075-.168.089C833.759,461.435,834.1,461.451,834.388,461.473Z" transform="translate(-579.855 -457.442)"/><path class="a" d="M816.736,461.7v-.124a7.564,7.564,0,0,1-1.146-.093l-.574.156A13.465,13.465,0,0,1,816.736,461.7Z" transform="translate(-597.873 -457.279)"/><path class="a" d="M801.063,461.526l.191-.124-.383-.03-.574.03.574.124Z" transform="translate(-612.194 -457.386)"/><path class="a" d="M817.045,462l-.383-.093C816.721,461.942,816.482,461.936,817.045,462Z" transform="translate(-596.272 -456.865)"/><path class="a" d="M813.369,461.638a14.772,14.772,0,0,0,2.1-.093h-.381v-.063A5.754,5.754,0,0,0,813.369,461.638Z" transform="translate(-599.475 -457.279)"/><path class="a" d="M812.372,461.449v.061l-.383.063-1.527-.156.191.093-.383.093c1.107.053,3.674.041,4.777.219l.572-.187-.191.156c.864-.1.913-.091.955-.249-.728,0-1.766-.118-1.146.032q-.953-.124-1.91-.251c-.268,0-.04.006-.189-.03l-.383.156-1.91-.095.381.032Z" transform="translate(-602.489 -457.463)"/><path class="a" d="M814.144,461.843l3.82.187-3.056-.249-.764.032Z" transform="translate(-598.721 -456.987)"/><path class="a" d="M851.876,462.16a2.218,2.218,0,0,0-.3-.043,3.563,3.563,0,0,0-.363.035l.292.045Z" transform="translate(-562.646 -456.661)"/><path class="a" d="M859.761,462.831l-.507.03.675.122Z" transform="translate(-554.826 -455.967)"/><path class="a" d="M884.655,469.058l-.083-.16q-1.486.015-2.967.034l.085.15Z" transform="translate(-533.077 -450.063)"/><path class="a" d="M881.128,469.656l4.483.055A11.474,11.474,0,0,0,881.128,469.656Z" transform="translate(-533.541 -449.509)"/><path class="a" d="M882.451,468.668l-4.43-.028A11.181,11.181,0,0,0,882.451,468.668Z" transform="translate(-536.564 -450.314)"/><path class="a" d="M885.877,479.34a14.843,14.843,0,0,0,2.086-.533,1.755,1.755,0,0,0-1.867-.843c-.7.075-1.661.4-1.805.7C884.074,479.119,884.907,479.457,885.877,479.34Z" transform="translate(-530.497 -441.256)"/><path class="a" d="M876.04,469.008l-.543-.073-.675.063a2.482,2.482,0,0,0,.322.047C875.45,469.038,875.742,469.02,876.04,469.008Z" transform="translate(-539.676 -450.027)"/><path class="a" d="M885.083,476.3l-.026.033.28-.013Z" transform="translate(-529.717 -442.858)"/><path class="a" d="M858.348,461.619l-.328.017.3.025Z" transform="translate(-556.027 -457.146)"/><path class="a" d="M862.506,467.924l-.17.061C862.561,468.04,862.5,467.936,862.506,467.924Z" transform="translate(-551.827 -451.011)"/><path class="a" d="M890.175,486.442c-1.048-.067-1.669.245-1.095.734.393.336.018,1.281,1.744.845a11.729,11.729,0,0,0,2.2-.989C892.266,486.267,891.1,486.5,890.175,486.442Z" transform="translate(-526.016 -433)"/><path class="a" d="M811.5,461.261l-.763.093c-.6-.006-.1,0-.192-.093a5.457,5.457,0,0,1-.955.032l-.383.124.764.063C811.384,461.441,811.015,461.474,811.5,461.261Z" transform="translate(-603.526 -457.494)"/><path class="a" d="M871.847,469.221l-.155-.05-.227.045Z" transform="translate(-542.943 -449.797)"/><path class="a" d="M873.921,468.736c-.5-.051-.951-.118-1.519-.146a5.094,5.094,0,0,0-.985.116c.211.065.7.116,1.2.189C873.236,468.821,873.577,468.78,873.921,468.736Z" transform="translate(-542.994 -450.363)"/><path class="a" d="M865.813,468.73a2.485,2.485,0,0,0-.422-.13c-.414.01-.809.035-1.21.055a1.118,1.118,0,0,0,.359.107C864.944,468.766,865.367,468.744,865.813,468.73Z" transform="translate(-550.031 -450.353)"/><path class="a" d="M812.933,461.841l1.689.032.17-.061-.337-.032-1.521-.061Z" transform="translate(-599.899 -457.049)"/><path class="a" d="M806.049,461.149c-.168-.055-.13,0,0-.061l-.955-.032c-.408.146-.393.018,0,.187C806.059,461.2,805.55,461.253,806.049,461.149Z" transform="translate(-607.819 -457.694)"/><path class="a" d="M804.2,460.3l-.369-.128-2.636.109.355.156Z" transform="translate(-611.316 -458.559)"/><path class="a" d="M802.022,461.257l6.306.03c-.041-.138-.207-.024.381-.124l-1.527-.093v.156h-.191a14.079,14.079,0,0,0-3.822-.063l-.189-.032-.191-.03.191-.187-2.293.063C801.744,461,802.118,461.034,802.022,461.257Z" transform="translate(-611.816 -457.832)"/><path class="a" d="M804.93,461.449l-.191-.093-.955.061.955.063Z" transform="translate(-608.802 -457.402)"/><path class="a" d="M804.064,461.514l-.764.03.572.032Z" transform="translate(-609.273 -457.248)"/><path class="a" d="M805.056,461.711l.337-.03.17-.032C804.977,461.62,805.425,461.626,805.056,461.711Z" transform="translate(-607.564 -457.132)"/><path class="a" d="M803.784,461.575l3.63.093-3.248-.154Z" transform="translate(-608.802 -457.248)"/><path class="a" d="M801.359,461.545l-.383.032C801.317,461.58,801.686,461.59,801.359,461.545Z" transform="translate(-611.534 -457.218)"/><path class="a" d="M803.592,461.672l-.17-.091-.507.03Z" transform="translate(-609.647 -457.183)"/><path class="a" d="M801.456,461.277l-.383.032,1.338.03Z" transform="translate(-611.44 -457.479)"/><path class="a" d="M801.267,461.4s.028.075.763.032Z" transform="translate(-611.251 -457.356)"/><path class="a" d="M815.884,461.918V461.9l.241.03c-.259.026.091.049.333.081l-.11-.055.44.053v-.03l-.483-.043-.037-.02c-.047,0-.049.006-.083.008l-.3-.026v-.012l-.286-.016-.162-.043-.109.028c-2.164-.118-3.926-.168-5.939-.312-.927.037-.47.041-.764.093C810.442,461.665,813.311,462.054,815.884,461.918Z" transform="translate(-604.091 -457.218)"/><path class="a" d="M802.823,461.64c.146.016.148.032.17,0l.168-.059-.844.059C802.742,461.689,802.342,461.67,802.823,461.64Z" transform="translate(-610.23 -457.183)"/><path class="a" d="M801.2,461.565v.091l.507-.059Z" transform="translate(-611.313 -457.199)"/><path class="a" d="M809.338,461.658l-.5.059-.892.03.191.032c1.995.118,3.307.189,5.349.185l-3.982-.215Z" transform="translate(-604.751 -457.108)"/><path class="a" d="M807.947,461.544l.766.095.191-.032.189-.032-.764-.061Z" transform="translate(-604.751 -457.248)"/><path class="a" d="M808.53,461.291l-.383-.061-.191.061c.045.051-.213.026.383.124Z" transform="translate(-604.759 -457.525)"/><path class="a" d="M811.713,461.891v-.032l-.764-.061.572.124Z" transform="translate(-601.83 -456.972)"/><path class="a" d="M808.131,461.733l-.574-.032-.189-.061C807.7,461.748,807.176,461.735,808.131,461.733Z" transform="translate(-605.315 -457.126)"/><path class="a" d="M809.587,461.7l.507-.03-.507-.032c-.432.087-.32-.022-.507.152C809.731,461.741,809.258,461.818,809.587,461.7Z" transform="translate(-603.648 -457.124)"/><path class="a" d="M806.2,461.592l-.191.063.572.032Z" transform="translate(-606.635 -457.172)"/><path class="a" d="M805.988,461.611l-.675.093.675.03Z" transform="translate(-607.314 -457.154)"/><path class="a" d="M807,461.26c-.112-.008-.256-.024-.341-.02a3.656,3.656,0,0,0-.365.041l.7.024A.184.184,0,0,1,807,461.26Z" transform="translate(-606.359 -457.515)"/><path class="a" d="M806.164,461.626l-.17-.03-.168.061.337.03Z" transform="translate(-606.814 -457.168)"/><path class="a" d="M807.549,461.291l.191-.061-.955.093.955.061Z" transform="translate(-605.88 -457.525)"/><path class="a" d="M807.261,461.671l-.572-.063.381.095Z" transform="translate(-605.975 -457.157)"/><path class="a" d="M807.167,461.135l-.381.093C807.325,461.159,807.228,461.247,807.167,461.135Z" transform="translate(-605.88 -457.617)"/><path class="a" d="M861.734,478.219l-.168.061C861.809,478.331,861.761,478.274,861.734,478.219Z" transform="translate(-552.576 -440.993)"/><path class="a" d="M867.547,477.847l-.168-.184H866.7l.17.093-.17.03Z" transform="translate(-547.577 -441.534)"/><path class="a" d="M867.3,478.083c-.61,0-.231-.037-.507.061h.675Z" transform="translate(-547.494 -441.131)"/><path class="a" d="M866.01,477.708l-.17-.061-.507.184,2.2.061-.337-.245.17-.061Z" transform="translate(-548.91 -441.609)"/><path class="a" d="M866.767,477.893v-.061c-.809-.065-.426.069-.844-.091l-.675.152h1.519Z" transform="translate(-548.993 -441.458)"/><path class="a" d="M865.068,478.463v-.213l-.677.184Z" transform="translate(-549.827 -440.963)"/><path class="a" d="M865.912,478.063l.337.061-.337-.183-.507.183a1.41,1.41,0,0,0-1.014-.032l1.521.093Z" transform="translate(-549.827 -441.264)"/><path class="a" d="M865.756,477.957l-.337.12.337.032Z" transform="translate(-548.827 -441.248)"/><path class="a" d="M867.385,477.91l-.168.061C867.432,478.028,867.385,477.91,867.385,477.91Z" transform="translate(-547.077 -441.294)"/><path class="a" d="M868.063,478.034l-.675.122.507.03Z" transform="translate(-546.911 -441.173)"/><path class="a" d="M868.33,477.956l.844.03-.17-.091Z" transform="translate(-545.994 -441.308)"/><path class="a" d="M866.522,478.1l.17.091.337-.122-1.182-.03A3.5,3.5,0,0,0,866.522,478.1Z" transform="translate(-548.41 -441.173)"/><path class="a" d="M870.151,480.6c1.328-.128,2.952.144,3.755-.7a15.9,15.9,0,0,0-8.072-.42C866.621,480.774,868.652,480.392,870.151,480.6Z" transform="translate(-548.423 -440.082)"/><path class="a" d="M866.189,477.864l.677.03-.677-.122Z" transform="translate(-548.077 -441.429)"/><path class="a" d="M866.446,478.186h.677l-.507-.152Z" transform="translate(-547.827 -441.173)"/><path class="a" d="M883.392,473.418l.339-.061-.846.122C883.487,473.462,883.122,473.517,883.392,473.418Z" transform="translate(-531.831 -445.724)"/><path class="a" d="M877.57,474.127l.17-.122-.677.093Z" transform="translate(-537.496 -445.094)"/><path class="a" d="M878.581,474.608a2.954,2.954,0,0,0-.339.037,4.373,4.373,0,0,0,.533.061c.229,0,.436-.037.653-.057C879.146,474.634,878.871,474.616,878.581,474.608Z" transform="translate(-536.349 -444.507)"/><path class="a" d="M882.365,473.527l-.507.091.337.032Z" transform="translate(-532.83 -445.559)"/><path class="a" d="M876.378,474.19c.568-.039.12.024.507-.061Z" transform="translate(-538.163 -444.973)"/><path class="a" d="M880.339,475.183a5.105,5.105,0,0,0-1.065-.112,8.427,8.427,0,0,0-1.01.118l1.569.144C880.029,475.28,880.447,475.217,880.339,475.183Z" transform="translate(-536.329 -444.056)"/><path class="a" d="M870.727,478v.122l1.184-.032Z" transform="translate(-543.662 -441.203)"/><path class="a" d="M870.212,478.372l.337-.093-.337-.03-.17.091Z" transform="translate(-544.328 -440.963)"/><path class="a" d="M873.3,475.537l.572-.032-.191-.061Z" transform="translate(-541.155 -443.693)"/><path class="a" d="M872.309,478.125l-.168-.122h-2.366l-.675.243.337.154a8.776,8.776,0,0,1,2.534.03l-.17-.3.17.12Z" transform="translate(-545.244 -441.203)"/><path class="a" d="M876.293,474.45c.558-.073.2.01.507-.12l-.507.03Z" transform="translate(-538.246 -444.777)"/><path class="a" d="M875.769,474.219l-.337-.152-.337.152.337.093v.03Z" transform="translate(-539.412 -445.033)"/><path class="a" d="M876.287,474.2l.17.093v-.213h-.17l-.337.12Z" transform="translate(-538.579 -445.018)"/><path class="a" d="M877.663,474.05l1.012-.122h-.337Z" transform="translate(-536.912 -445.169)"/><path class="a" d="M864.128,477.849l-.507.061C864.227,477.918,863.747,477.934,864.128,477.849Z" transform="translate(-550.576 -441.353)"/><path class="a" d="M863.615,477.988l-.337.152.677.03.168-.122h-.337Z" transform="translate(-550.91 -441.218)"/><path class="a" d="M864.633,478.361l.17.091c.6-.191-.817-.2-1.182-.184A4.483,4.483,0,0,0,864.633,478.361Z" transform="translate(-550.576 -440.952)"/><path class="a" d="M863.872,478.3l-.337.122.507.03Z" transform="translate(-550.66 -440.918)"/><path class="a" d="M863.792,478.033l.507.061-.17-.091Z" transform="translate(-550.41 -441.203)"/><path class="a" d="M863.7,477.554l-.17-.122-.168.061Z" transform="translate(-550.826 -441.759)"/><path class="a" d="M867.116,477.34v-.032l-1.184.093.507.03.17.061C866.9,477.383,866.362,477.4,867.116,477.34Z" transform="translate(-548.327 -441.88)"/><path class="a" d="M865.052,478.9a3.361,3.361,0,0,0-.525-.077c-.286,0-.6.026-.9.041l.5.085C864.436,478.936,864.744,478.92,865.052,478.9Z" transform="translate(-550.566 -440.404)"/><path class="a" d="M862.672,478.126h-.17l-.337.154.845.059Z" transform="translate(-551.993 -441.084)"/><path class="a" d="M862.508,478.342l.005.006h0Z" transform="translate(-551.66 -440.873)"/><path class="a" d="M863.008,478.327l-.5.036.328.178C863.436,478.422,863.073,478.526,863.008,478.327Z" transform="translate(-551.654 -440.888)"/><path class="a" d="M862.843,478.523l-.164-.178-.343.026Z" transform="translate(-551.827 -440.871)"/><path class="a" d="M863.614,477.955l-.337-.122-.17.122Z" transform="translate(-551.076 -441.369)"/><path class="a" d="M871.923,477.463l-.168.061.505.061Z" transform="translate(-542.661 -441.729)"/><path class="a" d="M872.6,478.372c-.442-.014-.856-.034-1.267-.034-.116,0-.371.087-.322.091.349.034.758.055,1.148.081Z" transform="translate(-543.39 -440.877)"/><path class="a" d="M869.614,478.266v.061l.677.032C870.088,478.216,870.1,478.282,869.614,478.266Z" transform="translate(-544.745 -440.949)"/><path class="a" d="M868.844,476.475c.32.02.087.041.337,0l.507.03A1.268,1.268,0,0,0,868.844,476.475Z" transform="translate(-545.494 -442.751)"/><path class="a" d="M869.341,476.413l-1.182.122,1.012.122c.29-.126-.343-.063.339-.122Z" transform="translate(-546.161 -442.75)"/><path class="a" d="M870.727,477l.337.061.507-.122Z" transform="translate(-543.662 -442.24)"/><path class="a" d="M869.443,477.926l.507.061A1.361,1.361,0,0,0,869.443,477.926Z" transform="translate(-544.911 -441.278)"/><path class="a" d="M867.73,477.275l.339-.091-.17-.093Z" transform="translate(-546.578 -442.09)"/><path class="a" d="M867.044,477.153l-.17.061h.507l.17-.122C866.963,477.122,867.162,477.064,867.044,477.153Z" transform="translate(-547.411 -442.09)"/><path class="a" d="M868.479,477.612l-.505-.3v.091c-.533-.122-.166-.012-.17-.152l-.844.12,1.352.184Z" transform="translate(-547.327 -441.939)"/><path class="a" d="M867.474,477.214l.337.061-.17-.183Z" transform="translate(-546.827 -442.09)"/><path class="a" d="M867.816,477.378l.337.091C868.145,477.445,868.323,477.317,867.816,477.378Z" transform="translate(-546.494 -441.827)"/><path class="a" d="M866.955,477.215l-.17-.154-.168.122Z" transform="translate(-547.66 -442.12)"/><path class="a" d="M868.153,477.262l-.337.032C868.195,477.294,867.891,477.3,868.153,477.262Z" transform="translate(-546.494 -441.924)"/><path class="a" d="M869.429,478.142v-.093c-.86.071-.689,0-1.014.152l1.014.122Z" transform="translate(-545.911 -441.159)"/><path class="a" d="M824.3,462.033l.191.124v-.217l-.766.124Z" transform="translate(-589.394 -456.834)"/><path class="a" d="M858.693,465.96c.112.01.3.006.458.01l-.091-.079-.432.018C858.646,465.926,858.616,465.952,858.693,465.96Z" transform="translate(-555.435 -452.989)"/><path class="a" d="M858.906,464.683l-.337.061.677.061Z" transform="translate(-555.492 -454.165)"/><path class="a" d="M859.425,464.064a3.75,3.75,0,0,1,.844.032v-.032c-.345-.11.081-.059-.844-.091Z" transform="translate(-554.659 -454.855)"/><path class="a" d="M861.823,478.341h.505l-.168-.122Z" transform="translate(-552.326 -440.993)"/><path class="a" d="M794.941,461.789l-.374-.028-.026.049Z" transform="translate(-617.795 -457.008)"/><path class="a" d="M857.285,465.067h.337l-.17-.091Z" transform="translate(-556.742 -453.879)"/><path class="a" d="M858.912,464.822v.091h.844Z" transform="translate(-555.158 -454.029)"/><path class="a" d="M861.9,478.385v-.122l-.675-.059-.17.091.677.03Z" transform="translate(-553.076 -441.008)"/><path class="a" d="M857.285,464.958l.507.03.507-.122v-.03l-1.014-.091.507.182-.339-.03Z" transform="translate(-556.742 -454.104)"/><path class="a" d="M859.249,464.757l-.17-.12-.168.152Z" transform="translate(-555.158 -454.209)"/><path class="a" d="M858.732,464.019l-.505.213.505-.061.17-.12Z" transform="translate(-555.825 -454.811)"/><path class="a" d="M859.392,464.355l-.5-.069-.635.065a3.1,3.1,0,0,0,.355.039C858.883,464.385,859.134,464.367,859.392,464.355Z" transform="translate(-555.791 -454.551)"/><path class="a" d="M859.246,464.519c-.525-.083-.166-.03-.677.03l.677.091-.17.061C859.623,464.631,859.22,464.551,859.246,464.519Z" transform="translate(-555.492 -454.366)"/><path class="a" d="M861.554,478.493l.168-.182-1.012.152Z" transform="translate(-553.409 -440.903)"/><path class="a" d="M861.73,478.1l-.507.213.677-.093Z" transform="translate(-552.91 -441.113)"/><path class="a" d="M862.412,478.463l.17-.12-.844.03Z" transform="translate(-552.409 -440.872)"/><path class="a" d="M1144.9,508.138c-1.91-.87-4.278-.846-6.641-.9-6.2-.146-12.4-.069-18.6.138a31,31,0,0,1-7.7.353,13.476,13.476,0,0,0-3.433.43,8.231,8.231,0,0,1-1.348.217,7.081,7.081,0,0,0-2.871-.067c-.681-.067-1.361-.142-2.044-.189v-.049l-.426.024c-.87-.039-1.736-.059-2.6-.045l-.031-.041.572-.124c2.549.118,3.147-.264,5.541-.56-.255-.144-.509-.29-.764-.436.594-.077,2.119-.255,1.338-.31-.122-.053-2.1-.308-1.721-.623,1.117-.941,3.461-1.089,2.841-1.434a7.965,7.965,0,0,1,1.6.14,9.155,9.155,0,0,0,1.7-.107c.734-.205,1.122-.5,1.113-.894l.085.03a3.956,3.956,0,0,0,1.347.061c1.6.4,3.769.286,4.743,1.279-.006.183,0,.367.006.549q1.19.308,2.38.612h0c3.41,1.381,5.919-.383,8.861-.643a3.48,3.48,0,0,0,.953.357,45.8,45.8,0,0,0,7.369-.251c1.308,2.164,5.2-.039,7.482.468q-1.657-.974-3.315-1.943h0c-2.038-1.1-5.361-1.513-6.641-3.338,3.751.839,6.389-.422,9.562-.8-2.518-1.482-5.917-.176-8.482-.981q-1.267-.095-2.534-.193c-1.906-.963-4.416-.329-6.572-.629-1.729-1-3.455-2.208-5.2-.008h0c-1.056.043-2.119.061-3.167.136-4.39.316-8.141.781-2.806,3.248.1.047-.31.373-.479.568h0c.13.077.262.152.395.229-.207.051-.412.1-.621.148h0c.085-.124.16-.251.229-.377-2.786.625-5.063-.888-7.8-.47-.02.109-.049.215-.075.322l-1.5-.024-.17.14,1.63.051-.012.047c-2.717.339-5.14.294-6.43-1.241q-.654-.015-1.308-.028c-.793,1.032.821,1.421,1.906,1.949-.175.067-.351.134-.527.2l-.572-.03c.168-.209.5-.14-.191-.28l-1.91-.375-.191.28-.191-.03-.191-.079v-.172l-1.144.095-.262-.071c-.111-.6-.31-1.162-2.271-1.04-.8.051-1.081.28-1.154.57-.089.006-.191.022-.286.032l.276.02a1.3,1.3,0,0,0,.03.475l-.918-.081.764-.185-1.719-.095-.383.28c-.059-.219.038-.26-.572-.31l-1.371-.118c.16-.132.318-.268.468-.414l-6.574-1.906a1.747,1.747,0,0,1-.707-.095,9.374,9.374,0,0,1,1.115-.207c-.841-.142-.785-.158-.764-.217-.207-.154.188-.109.764-.219-2.291-.154-2.383-.026-2.865-.373a3.259,3.259,0,0,1-1.146.093l.572-.093-.191-.032c-1.316.034-1.205.083-1.718-.061l1.146-.28c-1.109-.108-3.358-.191-3.82-.249a5.047,5.047,0,0,0,1.146-.095l-.766-.03-1.146-.156.955-.156,3.623.122-.144.087a15.955,15.955,0,0,0,5.136-.051l-3.624-.118a20.932,20.932,0,0,1,3.607-.259c-.12-.316-1.271-.493-1.719-.809.345-.03.667-.063,1-.095v.091l1.184.093-.338-.093-.842-.091c.483-.045.965-.089,1.424-.136l.093.014.1-.036.181-.022-.116.15c.811-.012.16-.03.675.091-.805.018-.833-.02-.844.213l1.182-.274.17.152-.507.093a8.844,8.844,0,0,0,1.352.061l-.338-.306,1.014-.122-.17-.3.17.091a8.043,8.043,0,0,1,1.519.032c1.024-.063.272.022.677-.152l.675.243c.144-.063-.209-.061.17-.061.219-.055.136.018.168.061l.846-.061.168-.243-1.014.03.507-.274-.675.122c-.184-.075-.085.026.168.091l-.168.061-.677.032-.491-.245.373-.045-.347-.095a34.478,34.478,0,0,1,3.508-.041c.454-.02.026-.01.675.059l.17-.152.337.152,1.014-.03-.507-.184.338.061-.507-.365c-.6.063-.7-.067-1.182.091l-.844-.181.168.181-1.012-.12-.677.213c.053-.1.109-.2.162-.294l.176.081c.513-.093.371-.134.243-.256l.081,0,.183.1h.677l.095-.059.75.03.168.061c.175-.018.278-.03.355-.04l7.823.32-.191-.095q-2.59-.151-5.177-.306l.063,0-.262-.01-.548-.032c.349-.1.2-.132.3-.233.5.154.245-.016.507.152,1.07-.186,1-.128,1.182-.3l.17.245.17-.367a5.531,5.531,0,0,1-2.028-.03l-.17.274-.338-.306-.337.213-.338-.333h-.337l.1-.115c.825.079,2.654.154,4.345.213v.012c.738.043,1.464.069,2.236.065.207.006.412.014.578.02v.108l1.521-.061-.294-.132q.648-.041,1.377-.118l.521.081.085-.014v.032l.337-.061.128-.045.024,0-.006,0,.024-.01-.04,0a12.068,12.068,0,0,0-2.437-.548c.381,0,1.044-.006,1.292-.032h.507l-.675-.091a1.727,1.727,0,0,0-1.267.089l-.189-.043a.752.752,0,0,1,.1-.045l-.17-.032a4.831,4.831,0,0,0-.957.11l-.462.024.406-.2a16.489,16.489,0,0,1-1.718.053l-1.866-.152.574-.032q-1.1-.163-2.194-.328l1.216.045,2.316.189-.383-.156c1.142-.107,2.085-.124,2.484-.217-.045,0-.081-.01-.124-.014a2.9,2.9,0,0,0,.371-.059l1.014.152.507-.122a4.154,4.154,0,0,0,1.182.061l-.17-.213h.677l.17.061-.144-.116c.677.059,1.35.138,2.058.219l1.336-.156c-.446-.032-.89-.063-1.336-.093l1.336-.124v-.032a4.21,4.21,0,0,1-1.028-.363l.482-.006c-.128-.093-.183-.026.168-.091l-.675-.213c-.426.081-.292-.008-.472.1-.063-.026-.134-.049-.205-.073v-.034l.221-.061c.529-.012.215-.01.624-.146l.17.152,1.168-.511c.55.156,1.1.312,1.65.466a7.645,7.645,0,0,0,1.72-.185,6.962,6.962,0,0,1-3.439-.655l2.484.251-.191-.063v-.217l-3.631-.219c2.693-.262.754-.588-.033-1.02a11.655,11.655,0,0,0,1.961.085l.338.03v-.184l-2.026-.059.124-.035c.369,0,.7,0,1.026,0a12.7,12.7,0,0,1,1.72.13,4.865,4.865,0,0,0,1.014-.061l.326-.03c.333,0,.659.006.979,0l-.079-.063c-.069-.03-.15-.055-.227-.083l.016-.006.507.122.337-.091-.17-.032c-.335-.022-.612-.037-.85-.047-.17-.049-.353-.093-.539-.132l1.727.059.17-.071c.16.01.318.018.476.018a.8.8,0,0,0,.138-.018l.063.01a11.545,11.545,0,0,0,2.364-.061l-.675-.03s-1.362-.124-2.547-.124l-.024-.012-.061.01a8.142,8.142,0,0,0-1.085.065c-.793-.022-.193.043-.507.12-.389-.083.075-.085-.5-.061h-.006l.333-.391h.006l.166.178h.507l-.507-.395h.507l.339.395c.41-.093.343-.053,1.182.032.576-.036-.085-.087.507-.061.173-.158.027-.2-.507-.213a6.017,6.017,0,0,0,1.182-.152c.564.108.744.1.507.213,1.214-.091.44-.207.86-.3l.491.03.126.045-.126.045.507.093,1.519-.213v-.093l.507.274.148-.4.359-.087.507.183.17-.183v.093l.844-.274.168.12.507-.213-.337.122.17-.152,1.34.026-1,.065.844.091a6.042,6.042,0,0,1,1.689-.12l-.209-.189-.614-.089.894-.081-3.563-.079-.225-.142,1.014-.059-.675.12,1.519.061c-.341-.091.083-.089-.505-.061l3.546-.639a33.543,33.543,0,0,0-5.71.657c.053,0,.14.006.306.014.389-.055.359-.022.539.045l-.949-.02.022-.026-.116.022-1.247-.028.061-.026h-.337c-.355.034-.592.053-.819.065l-.083-.178a2.692,2.692,0,0,1-1.338-.032l.383.124-.574.063v-.032l-.383-.124.383-.061-.383-.063,1.338-.032a1.785,1.785,0,0,0-.474-.3l-.29.142-.416-.118-.347-.1-1.338.061-.383-.061.191-.219c.466.089.034.118.763.095-.588-.13-.061-.049.766-.124l.764.185.383-.156c-.673.014-.215.034-.574-.061l.73.059.012.01.458-.043.33.162c-1.028.01-.407-.081-.955.061l.572.187.191-.032c.84-.276.73-.2.762-.45l.338-.024c-.044.02-.091.043-.144.069q.669.015,1.338.032l-.32.233c-1.223.12-2.245.231-2.4.292,1.189-.107,2.632.073,2.871-.152l.338.122q1.69-.231,3.38-.458v-.012c.921-.014,3.109-.053,3.772-.15,3.771-.552,1-1.111,3.248-1.5l-1.146-.217,1.146.187h.189l-.189-.56-1.529.061v-.124l-.191-.032,1.338.032v-.032c-1.235-.108-.856-.243-.574-.466-.967.057.041.1-.955.061l.383-.032.572-.217a1.68,1.68,0,0,1-1.146-.5c-.574.1-.323,0-.381.154-1.811-.329-.045-.328-2.1-.529l.572-.061a26.331,26.331,0,0,0-5.54-.655l-.537-.314.055.006a5.036,5.036,0,0,0,.744-.189c.067-.034-.251-.081-.393-.122l-.774.089-.051-.03h-1.91l.764-.154-1.91-.126-.381.095-.191-.124c.02-.093-.095-.012.381-.156a3.564,3.564,0,0,1-1.454-.268h.008l-.03,0a6.128,6.128,0,0,0-.817-.1l-.034.016-.071-.008.1-.1-4.392-.436-.574.124-.191-.249c-.756.03-.215.045-.764-.061-.5.055-.335.12-.572.03-1.438.045-4.248-.241-6.044-.32-2.9-.718-7.243-1.669-9.857-1.326l-1.351-.7.507-.274v.12c.649-.316-.322-.637-.507-.7l-.507.122-.505-.274v.184l-1.014-.152-.337.059c.264-.1-.089-.083.505-.059l-.337-.4v.122c-.276-.146-.943-.446-1.851-.805-.057-.022-.122-.045-.18-.069-2.691-1.046-7.306-2.518-10.471-2.141l-.168-.367-.17.061c-.578.089-.284.012-.17.183l-.675-.032.17-.365c-.491.041-.474.223-1.02.395a2.517,2.517,0,0,1-.693-.233l.361.022c-.278-.126-.008-.077-.339-.122l-.1.055a1.962,1.962,0,0,0-.574-.3l.168-.061.339.061.507.152c.393-.065-.027-.028.505-.032.057-.3-1.494-.294-2.2-.426l-.675.122.337-.243-.337-.061a1.956,1.956,0,0,1-.677.061c.517.095,0,.026.677.059l-.677.184v-.213l-.675.122v-.093l.338-.243c.134,0,.231,0,.331,0h.006a2.436,2.436,0,0,0,1.014-.211c.156.136-.083.1-.507.274l.507-.061c.043.061.065.036.337,0,.339.142.125.041.844.061.115.1.227.2.339.3.182-.215-.136-.14.675-.365-.616.018-.547.128-.675.03l-.677-.152.677.122.338-.183-1.182.032.844-.122v-.152l-.17.091c-.945-.13.264-.284.17-.487.858.01.387,0,.168-.152h.677l-.337-.091-.17.061c-.706.083-.3,0-.338.152l-.507-.152v-.154c-.383.067-.868-.028-.507.061l-.507-.03.337-.152.339-.032q.506.139,1.012.274l.17-.03-.507-.245.844.245.337-.093a1.449,1.449,0,0,1,.635.608l-.466-.028-.17.091.637-.057a.688.688,0,0,1,.04.087l.675-.091c.136.049-.187.071.339.245h.168c.122-.174-.249-.239-1.012-.335v-.061l1.012-.091.17.213c.1-.235.762-.361-.17-.4l.507-.243.337.182c.055.067.089.012-.168.061l1.014.183-.507-.152c.653-.067,1.069-.012.844-.215l-.338.154-.17-.093a1.434,1.434,0,0,0-.606-.223c.438-.059.308-.008.1-.142l-.148.134a4.634,4.634,0,0,0-.866-.1l.844-.487-.337.272c1.008-.1.446-.043.507-.213l1.182-.091-.168.122-1.184.243.339.061.675-.152.337.213.17-.184.507.4.507-.03c-.17-.142-.339-.284-.507-.426,1.022-.11,2-.1,1.859-.458l1.182.183-.675.091.168.03.17.032.675-.061-1.182-.336.675.032-.844-.274h-.168l-.677.243-.168-.122-.339.184.677-.426-.677.091-1.182-.639h.17c.329.343.783.432,1.857.519-.156-.063-.138-.022.17-.061-.055-.235-.112-.468-.17-.7h.339l.168.03c.325.152.079,0-.168.184l.507.03c.369-.045.838-.089,1.292-.128.18-.008.2-.008.181-.014.746-.061,1.4-.1,1.4-.1l.337-.183c-.724-.1-.7-.089-1.012-.4l-.677.184-.17-.061-.505-.243.505.182.507-.03-.168-.245c-.858.014-.3-.089-.844.032l.168-.3v.152a2.605,2.605,0,0,1,1.352-.061l.337-.306-.168.184.844-.184c-.9-.17-.736-.122-1.014-.333l-.337.061c-.726-.328.071-.628-2.026-1.067-1.044.288-15.83-.75-20.1-.456l-11.657-.184c-3.161.371-28.266-.594-34.294-.395-.1,0-.2,0-.308.008l-.154-.152v.124l.087.03c-.732.02-1.456.035-2.17.043.176-.168.012-.2.365-.353a9.286,9.286,0,0,1-1.529-.061l.191.185-.572-.061-.383.249.383-.063,1.32.108c-3.19.036-6.18-.037-8.833-.112l-1.083-.152-.4.11c-2.721-.075-5.016-.126-6.693-.01l-1.089-.067-.075-.039c-.531-.032-.284-.008-.33.071l-.085-.014-.262-.118-.168.152c-.622-.02-1-.038-1.275-.053l-.128-.061-.454.024c-.144-.01-.3-.02-.509-.032l-.844-.03v.03l1.012.061c-1.4.093-3.769.122-6.657.116l-.189-.077-.2.077-.318,0,.136-.043q-.24.027-.426.041c-4.193-.02-9.325-.1-14.267-.187l-.018-.01-.095.008-.6-.01.122-.061-.949.047c-7.861-.13-14.91-.235-16.408-.022q-3.67-.044-7.338-.091c-1.65-.079-3.161-.154-4.487-.225v-.11l-.17-.03-.663.095-.543-.03c-.1-.079-.154-.17-.107-.257h.359l.276.1.16-.172h.01v.142l.61-.083-.521-.067c.049,0,.079,0,.16-.012l1.7.055-.426.077h.844l.168-.032v-.142c.063.012.122.028.17.035v.107l.29.026.12.059c.3-.039.6-.081.9-.122l.3.053c.067.043.213,0,.708.1h.191l.381-.187v.187c4.81-.185,16.175.606,18.34.343a3.863,3.863,0,0,1-1.144-.219c-1.961.075-3.453-.292-5.16.032v-.156c-1.7.227-2.528-.144-4.011.063l-.572-.343-2.293-.063v-.03c1.231-.126.491-.049.572-.219q1.051-.077,2.1-.156c-1.859-.134-10.842-.02-12.036-.185a58.925,58.925,0,0,0-6.237-.347,5.494,5.494,0,0,0-.9-.053c-.219-.085-.478-.164-.734-.245.332.008.663.016.994.022l.608-.116.347.085v.063h.191L935.1,462h.383v.032l-.572.124c1.474.043,3.919.1,4.966.156v.124l.763-.061.383.03c.036-.049-.089-.114.191-.061a23.66,23.66,0,0,0-4.585-.156l-1.338-.249-1,.081.43-.081-.383-.063a6.8,6.8,0,0,1-1.338-.061l-.764.154c-.071-.034.158-.2-.381-.124-.148-.026-.377-.053-.671-.077-1.042-.231-2.281-.428-3.672-.6l.138-.067-.191-.032v.093c-.247-.032-.5-.061-.752-.091l-.012,0v0c-8.1-.912-67.71-1.024-80.509-.981v-.018h-.383l.079.02-.988,0,.337-.055c-.76-.006-1.373.095-.957-.03l-.189-.032v.12l-.639,0-.316-.154a2.885,2.885,0,0,1-.957.093l.138.067c-3.65.022-7.243.047-10.672.067-5.051-.389-18.636-.41-29.006-.472l0,0v0c-5.931-.034-10.808-.083-12.417-.223q-1.432.08-2.867.156l.383-.124-.763.124-.574.032.574.063c-4.357.329-15.422-.418-20.441.124-.434-.205-8.818-.207-11.081-.124-12.543.1-21.146.207-33.688.31l-4.629.229c-.529-.014-1.024-.034-1.44-.065l.572-.063-.572-.03-.766-.124.383.124-2.865-.156c-1.131.1-3.893.15-7.48.186v61.946l.785-.055h0l6.194-.178c4.153,1.008,6.42-1.894,10.39-1.269h0c3.735.142,6.947-.8,10.38-1.279l2.573-.055,1.415-.047a11.969,11.969,0,0,0,5.657-.132c9.325-2.869,15.9-1.754,25.825-2.166,6.389-.266,12.778-.4,19.164-.446l-.059.006v.03l1.689-.03-.184-.018q2.835-.015,5.671-.01l-.588.028.675.091.677-.032v-.087c.27,0,.541,0,.811,0l-.136.026h.677l-.12-.022c.584,0,1.17.008,1.754.01l.055.012-.016-.01.839,0,.022.006h.337l.006,0q1.841.012,3.68.034l.032.028c.041-.012.071-.016.108-.026q2.72.032,5.442.075l-1.326.073.337.122.168.03a2.634,2.634,0,0,1,1.352-.12l.205-.093.075,0-.111.059h.337l-.107-.057.245,0,.2.053q.693-.012,1.385-.028c14.97.268,29.941.756,44.909.957,24.924.337,96.493.093,121.367-.643q23.446-.7,46.829-.32c-.1.006-.2.022-.294.034a2.313,2.313,0,0,0,.329.041c.113,0,.231-.026.359-.039-.089-.012-.177-.026-.266-.034q20.232.358,40.412,1.685c4.019.27,8.474.8,11.738-1.389.847-.566,3.193-.7,4.218.43h0c-.008,1.334-.041,1.456,2.7,1.642,14.652.992,28.858.541,41.827-3.548,3.846.866,7.632-.272,11.465-.1.466.02,1.75.3,1.208-.574-.937-1.517,2.432-2.133,3.034-2.985C1142.247,510.452,1147.085,510.071,1144.9,508.138Zm-124.672.669-.12-.085a1.379,1.379,0,0,1,.233.049C1020.3,508.783,1020.262,508.793,1020.226,508.807Zm1.581-.444c-.387.081-.736.176-1.069.278-.178-.032-.377.034-.248-.075,0,0,.132-.176.763-.124l-.381-.217.189.093,2.867-.249.17.024A19.354,19.354,0,0,0,1021.807,508.363Zm5.941-4.9-.336-.493a1.863,1.863,0,0,1,.655.491C1027.969,503.46,1027.87,503.458,1027.748,503.462Zm22.706.377-.018-.051c.075.01.15.022.227.028C1050.592,503.821,1050.531,503.838,1050.454,503.838Z" transform="translate(-704.962 -459.229)"/><path class="a" d="M854.963,465.576l-.505-.152-.17.122Z" transform="translate(-559.658 -453.444)"/><path class="a" d="M855.744,465.744l.675.091.17-.365Z" transform="translate(-558.241 -453.399)"/><path class="a" d="M856.59,465.3l-.675.032C856.418,465.418,856.118,465.393,856.59,465.3Z" transform="translate(-558.075 -453.564)"/><path class="a" d="M855.742,466.04v-.091l-.17.213S856.266,466.087,855.742,466.04Z" transform="translate(-558.408 -452.933)"/><path class="a" d="M856.771,464.961v.091l.675.091Z" transform="translate(-557.242 -453.894)"/><path class="a" d="M856.081,466.1h-.17l-.168.091.337.032Z" transform="translate(-558.241 -452.783)"/><path class="a" d="M856.677,465.563l-.505.12h.337Z" transform="translate(-557.825 -453.308)"/><path class="a" d="M856.172,465.161v.183l.505-.03Z" transform="translate(-557.825 -453.699)"/><path class="a" d="M857.018,465.732v-.03l-.675.12C857.032,465.775,856.562,465.86,857.018,465.732Z" transform="translate(-557.658 -453.173)"/><path class="a" d="M854.459,466.117l.337.061v-.152l-.168.03Z" transform="translate(-559.492 -452.858)"/><path class="a" d="M855.052,465.748l-.507.061.337.061Z" transform="translate(-559.408 -453.128)"/><path class="a" d="M855.049,465.7c-.655.069-.379.012-.675.152Z" transform="translate(-559.574 -453.173)"/><path class="a" d="M854.545,465.208v.061C854.776,465.224,854.728,465.259,854.545,465.208Z" transform="translate(-559.408 -453.654)"/><path class="a" d="M854.288,465.528l.844-.274c-.422.051-.12.059-.507,0Z" transform="translate(-559.658 -453.609)"/><path class="a" d="M855.829,466.01v.122l.507.061Z" transform="translate(-558.158 -452.873)"/><path class="a" d="M855.915,465.839l.507.032-.17-.061.17-.061Z" transform="translate(-558.075 -453.128)"/><path class="a" d="M854.887,465.638c.284-.047.308.026.507-.122h-.168Z" transform="translate(-559.075 -453.354)"/><path class="a" d="M855.829,464.9l.337.03-.168-.122Z" transform="translate(-558.158 -454.045)"/><path class="a" d="M857.024,465.451l.168-.243-.507.061Z" transform="translate(-557.325 -453.654)"/><path class="a" d="M856.428,465.034l.507-.152-.507-.03Z" transform="translate(-557.575 -453.999)"/><path class="a" d="M855.143,465.731h.337l-.507-.091v.122Z" transform="translate(-558.991 -453.233)"/><path class="a" d="M856.331,465.47h-.17l-.675.152.675.032Z" transform="translate(-558.491 -453.399)"/><path class="a" d="M855.572,465.839c.369-.063.205-.008,0-.091Z" transform="translate(-558.408 -453.128)"/><path class="a" d="M854.8,465.5l.337.032-.17-.154Z" transform="translate(-559.158 -453.489)"/><path class="a" d="M855.567,465.73l.17-.184h-.507v.093l.337-.032Z" transform="translate(-558.741 -453.324)"/><path class="a" d="M855.572,465.9l.339.093h.168l.17-.093-.677-.059Z" transform="translate(-558.408 -453.038)"/><path class="a" d="M855.4,465.686l.507.061A1.3,1.3,0,0,0,855.4,465.686Z" transform="translate(-558.575 -453.189)"/><path class="a" d="M854.887,465.9l.677.213C856,465.916,854.986,465.908,854.887,465.9Z" transform="translate(-559.075 -452.978)"/></g><path class="b" d="M868.492,471.721l-.217,4.976h-.9q-5.383,0-5.383,5.848v4.881h-4.974V471.814h4.974V474.8a6,6,0,0,1,5.383-3.2A4.621,4.621,0,0,1,868.492,471.721Z" transform="translate(147.96 11.915)"/><path class="b" d="M875.276,471.721l-.219,4.976h-.9q-5.381,0-5.381,5.848v4.881H863.8V471.814h4.976V474.8a5.991,5.991,0,0,1,5.381-3.2A4.639,4.639,0,0,1,875.276,471.721Z" transform="translate(154.559 11.915)"/><path class="b" d="M853.464,485.759a6.7,6.7,0,0,1-2.411,5.489,9.669,9.669,0,0,1-6.33,1.975q-5.567,0-7.835-3.763l4.134-2.239a6.035,6.035,0,0,0,1.7,1.507,4.176,4.176,0,0,0,1.975.42,3.973,3.973,0,0,0,2.814-.994,3.631,3.631,0,0,0,1.073-2.8v-.436a6.963,6.963,0,0,1-4.7,1.494,7.276,7.276,0,0,1-5.319-2.192,7.39,7.39,0,0,1-2.208-5.459,7.209,7.209,0,0,1,2.208-5.365,7.333,7.333,0,0,1,5.319-2.16,6.972,6.972,0,0,1,4.7,1.492V471.7h4.883Zm-5.941-4.431a3.4,3.4,0,0,0,1.057-2.567,3.354,3.354,0,0,0-1.057-2.533,3.594,3.594,0,0,0-2.581-1.012,3.732,3.732,0,0,0-2.691,1,3.642,3.642,0,0,0,.016,5.116,3.716,3.716,0,0,0,2.675,1.01A3.593,3.593,0,0,0,847.524,481.327Z" transform="translate(127.857 11.563)"/><path class="b" d="M863.516,487.314H858.54v-1.245a6.971,6.971,0,0,1-4.852,1.711,7.2,7.2,0,0,1-5.4-2.316,9.066,9.066,0,0,1,0-11.9,7.178,7.178,0,0,1,5.4-2.332,6.971,6.971,0,0,1,4.852,1.711V471.7h4.976Zm-6.11-4.9a4.275,4.275,0,0,0,0-5.8,3.647,3.647,0,0,0-2.691-1.152,3.533,3.533,0,0,0-2.705,1.136,4.547,4.547,0,0,0,0,5.83,3.561,3.561,0,0,0,2.705,1.121A3.682,3.682,0,0,0,857.405,482.416Z" transform="translate(137.306 11.563)"/><path class="b" d="M730.367,470.189a6.9,6.9,0,0,1,2.893,4.432l-5.037,1.026a3.4,3.4,0,0,0-1.306-2.162,3.816,3.816,0,0,0-2.332-.762,3.2,3.2,0,0,0-2.023.606,1.85,1.85,0,0,0-.777,1.509q0,1.367,1.679,1.742l4.325.963q5.721,1.276,5.72,6.065a5.783,5.783,0,0,1-2.457,4.976,10.207,10.207,0,0,1-6.124,1.772,11,11,0,0,1-6.174-1.663,6.346,6.346,0,0,1-2.942-4.649l5.288-1.026a4.36,4.36,0,0,0,6.361,2.486,1.828,1.828,0,0,0,.825-1.555,1.631,1.631,0,0,0-.42-1.18,2.885,2.885,0,0,0-1.509-.655L722,481.183q-5.593-1.279-5.6-6.036a5.76,5.76,0,0,1,2.271-4.789,9.429,9.429,0,0,1,5.971-1.772A9.776,9.776,0,0,1,730.367,470.189Z" transform="translate(10.558 8.986)"/><path class="b" d="M743.253,487.314h-4.976v-1.245a6.97,6.97,0,0,1-4.852,1.711,7.2,7.2,0,0,1-5.394-2.316,9.067,9.067,0,0,1,0-11.9,7.177,7.177,0,0,1,5.394-2.332,6.97,6.97,0,0,1,4.852,1.711V471.7h4.976Zm-6.111-4.9a4.275,4.275,0,0,0,0-5.8,3.646,3.646,0,0,0-2.691-1.152,3.532,3.532,0,0,0-2.705,1.136,4.547,4.547,0,0,0,0,5.83,3.561,3.561,0,0,0,2.705,1.121A3.682,3.682,0,0,0,737.142,482.416Z" transform="translate(20.284 11.563)"/><path class="b" d="M736.477,490.427V468.035h4.976v22.392Z" transform="translate(30.666 8.449)"/><path class="b" d="M841.379,473.023a6.641,6.641,0,0,1,1.665,4.712v9.579H838.1v-8.522a3.263,3.263,0,0,0-.748-2.224,2.446,2.446,0,0,0-1.928-.854,2.874,2.874,0,0,0-2.379,1.071,5.219,5.219,0,0,0-.854,3.281v7.247h-4.978V471.7h4.978v1.494a6.321,6.321,0,0,1,4.789-1.959A5.728,5.728,0,0,1,841.379,473.023Z" transform="translate(118.957 11.563)"/><path class="b" d="M834.126,487.079H829.15v-1.245a6.971,6.971,0,0,1-4.852,1.711,7.2,7.2,0,0,1-5.394-2.316,9.067,9.067,0,0,1,0-11.9A7.179,7.179,0,0,1,824.3,471a6.971,6.971,0,0,1,4.852,1.711v-1.243h4.976Zm-6.11-4.9a4.272,4.272,0,0,0,0-5.8,3.646,3.646,0,0,0-2.689-1.152,3.534,3.534,0,0,0-2.707,1.136,4.547,4.547,0,0,0,0,5.831,3.561,3.561,0,0,0,2.707,1.119A3.673,3.673,0,0,0,828.015,482.179Z" transform="translate(108.709 11.332)"/><path class="b" d="M816.715,476.242l-5.1,1.1c-.369-.752-.738-1.547-1.148-2.32a3.029,3.029,0,0,0-2.857-1.847,11.564,11.564,0,0,0-2.464-.116,6.564,6.564,0,0,0-5.112,6.026,6.18,6.18,0,0,0,4.741,6.3c3.208.858,5.884-1.1,6.72-4.516.018-.065.1-.116-.026.024l5.158.929a9.942,9.942,0,0,1-7.172,7.89,11.482,11.482,0,0,1-10.935-2.316,8.586,8.586,0,0,1-3.218-6.215c-.049-.651-.541-1.342-.412-1.922.4-1.79.432-3.664,1.361-5.341a10.221,10.221,0,0,1,6.882-5.381c3.236-.622,6.637-.43,9.573,1.8A12.579,12.579,0,0,1,816.715,476.242Z" transform="translate(87.488 8.645)"/><path class="b" d="M807.38,467.872h4.655v8.19c.612-.294,1-.45,1.359-.661a7.511,7.511,0,0,1,4.1-.977,5.414,5.414,0,0,1,5.379,5.394c.217,3.52.049,7.065.049,10.668H818.19c0-2.437.008-4.931,0-7.425a4.03,4.03,0,0,0-.426-2.433c-.209-.316-.022-.947-.517-1.186a6.138,6.138,0,0,0-1.831-.695,3,3,0,0,0-2.914,2.05,7.147,7.147,0,0,0-.478,2.646c.044,2.285.014,4.57.014,7.026-1.513.2-3.049.012-4.655.115Z" transform="translate(99.66 8.291)"/><path class="b" d="M751.478,487.03h-5l-6.347-15.483h5.2l3.662,9.585,3.664-9.607h5.193Z" transform="translate(34.222 11.846)"/><path class="b" d="M765.417,480.546H753.971a4.013,4.013,0,0,0,1.211,2.208,3.1,3.1,0,0,0,2.147.809,3.492,3.492,0,0,0,3.328-1.8l4.418.9a7.451,7.451,0,0,1-3,3.656,8.9,8.9,0,0,1-4.743,1.227,8.1,8.1,0,0,1-5.846-2.316,8.582,8.582,0,0,1,0-11.9A8.106,8.106,0,0,1,757.361,471a7.774,7.774,0,0,1,5.69,2.273,8.25,8.25,0,0,1,2.366,6Zm-10.076-4.85a3.245,3.245,0,0,0-1.275,1.8H760.5a3.318,3.318,0,0,0-1.178-1.837,3.215,3.215,0,0,0-1.961-.62A3.445,3.445,0,0,0,755.341,475.7Z" transform="translate(42.938 11.332)"/><path class="b" d="M783.149,472.991a6.257,6.257,0,0,1,1.71,4.558v9.765h-4.946v-8.707a2.945,2.945,0,0,0-.744-2.1,2.469,2.469,0,0,0-1.867-.791,2.712,2.712,0,0,0-2.224,1.01,4.548,4.548,0,0,0-.825,2.938v7.652h-4.978v-8.707a2.938,2.938,0,0,0-.746-2.1,2.5,2.5,0,0,0-1.9-.791,2.633,2.633,0,0,0-2.192,1.01,4.684,4.684,0,0,0-.791,2.938v7.652h-4.978V471.7h4.978v1.431a5.891,5.891,0,0,1,4.6-1.9,5.593,5.593,0,0,1,5.1,2.642,6.59,6.59,0,0,1,5.534-2.642A5.7,5.7,0,0,1,783.149,472.991Z" transform="translate(52.262 11.563)"/><path class="b" d="M787.851,473.347a8.294,8.294,0,0,1,0,11.85,8.605,8.605,0,0,1-6.063,2.3,8.744,8.744,0,0,1-6.142-2.3,8.263,8.263,0,0,1,0-11.85,8.744,8.744,0,0,1,6.142-2.3A8.605,8.605,0,0,1,787.851,473.347Zm-3.419,8.818a3.978,3.978,0,0,0,1.119-2.908,3.925,3.925,0,0,0-1.135-2.906,3.608,3.608,0,0,0-2.628-1.138,3.722,3.722,0,0,0-2.705,1.138,3.891,3.891,0,0,0-1.15,2.906,3.935,3.935,0,0,0,1.135,2.908,3.708,3.708,0,0,0,2.721,1.135A3.59,3.59,0,0,0,784.432,482.164Z" transform="translate(66.344 11.379)"/><path class="b" d="M787.483,482.008q.311,1.835,2.768,1.835a2.652,2.652,0,0,0,1.476-.357,1.042,1.042,0,0,0,.545-.886q0-.873-1.553-1.15l-3.175-.622q-4.54-.843-4.54-4.542a4.617,4.617,0,0,1,1.867-3.84A7.678,7.678,0,0,1,789.722,471a8.58,8.58,0,0,1,4.741,1.213,5.132,5.132,0,0,1,2.35,3.267l-4.542.9a1.986,1.986,0,0,0-.825-1.306,2.873,2.873,0,0,0-1.788-.531,2.077,2.077,0,0,0-1.354.359,1.094,1.094,0,0,0-.42.854c0,.558.395.923,1.184,1.089l3.668.746a5.836,5.836,0,0,1,3.236,1.695,4.363,4.363,0,0,1,1.089,3,4.466,4.466,0,0,1-1.959,3.889,8.8,8.8,0,0,1-5.132,1.367,9.938,9.938,0,0,1-4.96-1.135,4.589,4.589,0,0,1-2.38-3.405Z" transform="translate(75.577 11.332)"/><path class="b" d="M884.574,473.347a8.295,8.295,0,0,1,0,11.85,8.6,8.6,0,0,1-6.063,2.3,8.742,8.742,0,0,1-6.14-2.3,8.258,8.258,0,0,1,0-11.85,8.742,8.742,0,0,1,6.14-2.3A8.6,8.6,0,0,1,884.574,473.347Zm-3.419,8.818a3.97,3.97,0,0,0,1.119-2.908,3.925,3.925,0,0,0-1.135-2.906,3.607,3.607,0,0,0-2.628-1.138,3.729,3.729,0,0,0-2.705,1.138,3.892,3.892,0,0,0-1.15,2.906,3.936,3.936,0,0,0,1.134,2.908,3.708,3.708,0,0,0,2.721,1.135A3.586,3.586,0,0,0,881.155,482.164Z" transform="translate(160.462 11.379)"/><path class="b" d="M884.207,482.008q.308,1.835,2.768,1.835a2.661,2.661,0,0,0,1.476-.357,1.044,1.044,0,0,0,.543-.886c0-.582-.515-.965-1.553-1.15l-3.173-.622q-4.54-.843-4.542-4.542a4.617,4.617,0,0,1,1.867-3.84A7.678,7.678,0,0,1,886.444,471a8.587,8.587,0,0,1,4.743,1.213,5.129,5.129,0,0,1,2.348,3.267l-4.542.9a1.979,1.979,0,0,0-.825-1.306,2.872,2.872,0,0,0-1.788-.531,2.071,2.071,0,0,0-1.352.359,1.094,1.094,0,0,0-.42.854c0,.558.395.923,1.182,1.089l3.67.746a5.836,5.836,0,0,1,3.234,1.695,4.363,4.363,0,0,1,1.089,3,4.469,4.469,0,0,1-1.957,3.889,8.805,8.805,0,0,1-5.134,1.367,9.925,9.925,0,0,1-4.958-1.135,4.589,4.589,0,0,1-2.38-3.405Z" transform="translate(169.696 11.332)"/></g></svg>