<svg xmlns="http://www.w3.org/2000/svg" width="482.332" height="62.856" viewBox="0 0 482.332 62.856"><defs><style>.a{fill:#003687;}.b{fill:#fff;}</style></defs><g transform="translate(-542.396 -373.678)"><g transform="translate(542.396 373.678)"><path class="a" d="M695.36,374.618c.493-.026,1.068-.047,1.056-.059a1.113,1.113,0,0,0-.464-.152,7.916,7.916,0,0,0-.86.043C695.052,374.5,695.25,374.559,695.36,374.618Z" transform="translate(-393.817 -372.971)"/><path class="a" d="M694.814,375.177l-.191-.095h-.381l-.191.063.572.061Z" transform="translate(-394.826 -372.312)"/><path class="a" d="M701.636,375.972c-.154,0-.241,0-.316,0a10.4,10.4,0,0,0-2.137.053l-.766-.124c-.572.012-1.146.022-1.719.032l.022.01c-.27.022-.389.03-.468.037l-.7-.172-.15.122a2.79,2.79,0,0,1-.489.016l-.316-.014.572-.061-1.91-.032.057.065a20.726,20.726,0,0,1-3-.024l-.17.122h3.21l.047,0,.045.051,3.248.032-.191-.047.229-.008v-.081l.154.073.192.187.189.032c.882-.043,2.5-.152,4.021-.156l.006.006.031-.006a13.623,13.623,0,0,1,2.628.187l-.955.061h.383l.189.095.957-.095-.383.095q1.358.006,2.717.016l-.233.077.381-.032v-.043l2.1.012-.572-.03c-.326-.193-.162-.077-.764-.156-.594.03-2.658-.116-4.629-.221l.343-.083-.7.063L702.1,376l.042-.03-.241.022-.185-.008Z" transform="translate(-398.622 -371.605)"/><path class="a" d="M688.6,375.067c-.314.134-.1.093.535.152Z" transform="translate(-400.267 -372.326)"/><path class="a" d="M678.454,374.905l3.63.063a19.4,19.4,0,0,0-3.248-.28,6.644,6.644,0,0,1-.957.061Z" transform="translate(-410.56 -372.695)"/><path class="a" d="M693.174,375.493l.572-.032-.955.032Z" transform="translate(-396.051 -371.943)"/><path class="a" d="M694.631,375.666l.764.095,2.1.093v-.063l-2.1-.156Z" transform="translate(-394.26 -371.775)"/><path class="a" d="M682.141,374.688v.124l.189-.032Z" transform="translate(-406.414 -372.695)"/><path class="a" d="M688.839,375.146l-.037,0,.229.065Z" transform="translate(-399.932 -372.251)"/><path class="a" d="M683.681,375.208h-.572C683.632,375.247,683.289,375.277,683.681,375.208Z" transform="translate(-405.472 -372.189)"/><path class="a" d="M680.681,374.783l-.574.03.574.032Z" transform="translate(-408.393 -372.603)"/><path class="a" d="M683.778,374.984a.293.293,0,0,1,.191-.093,14.771,14.771,0,0,0,3.63.187l-.191-.063v-.032l-.955-.185a11.74,11.74,0,0,0-2.867.124l-.381-.156.191.28Z" transform="translate(-405.378 -372.618)"/><path class="a" d="M686.671,375.3l.618-.182-.045.026.383.032h2.484c-.661-.191.016,0,.189-.217l.706.095.059.03v-.022l.381.053.191-.251a5.872,5.872,0,0,0-1.91.156l.191-.124-.586.008.012-.008-.047.008-1.671.024-.148.085-1.381-.085-.955.28C685.651,375.236,686.162,375.267,686.671,375.3Z" transform="translate(-403.494 -372.527)"/><path class="a" d="M693.178,375.507l1.338.063-.572-.093Z" transform="translate(-395.674 -371.927)"/><path class="a" d="M694.82,375.508l-.383.032.574.093Z" transform="translate(-394.449 -371.897)"/><path class="a" d="M700.017,375.769l-15.856-.529-.955.063.191.093h.189c1.482-.012,7.107.235,11.381.361-.239.01-.472.022-.706.034a2.655,2.655,0,0,0,.335.049c.318-.01.616-.032.9-.047-.051-.006-.111-.018-.166-.026A41.782,41.782,0,0,0,700.017,375.769Z" transform="translate(-405.378 -372.158)"/><path class="a" d="M689.968,375.829l-.675.061.844.061Z" transform="translate(-399.455 -371.585)"/><path class="a" d="M689.548,375.876l-.17.12.17-.03Z" transform="translate(-399.372 -371.539)"/><path class="a" d="M695.5,376.218l.383.03.381-.093-.764.032Z" transform="translate(-393.413 -371.268)"/><path class="a" d="M695.426,376.248l-.189-.093C695.219,376.254,695.059,376.171,695.426,376.248Z" transform="translate(-393.719 -371.268)"/><path class="a" d="M688.865,375.982l.845.03-.17-.059v-.093Z" transform="translate(-399.871 -371.555)"/><path class="a" d="M693.255,375.587l-.574-.063h-.764l-.191.093.574-.03Z" transform="translate(-397.087 -371.882)"/><path class="a" d="M690.758,375.4l.764.032-.191-.063Z" transform="translate(-398.029 -372.035)"/><path class="a" d="M693.271,375.571h-.383c.087.061-.014.185.383.095l2.865.093-.191-.063Z" transform="translate(-395.956 -371.836)"/><path class="a" d="M688.887,375.24l-2.293.093q4.013.08,8.025.156Z" transform="translate(-402.081 -372.158)"/><path class="a" d="M685.041,375.081l-.383-.093C684.834,375.057,684.449,375.024,685.041,375.081Z" transform="translate(-403.965 -372.403)"/><path class="a" d="M685.82,375.224l1.527.063-.381-.063Z" transform="translate(-402.834 -372.174)"/><path class="a" d="M702.477,375.515c-4.066-.245-6.616-.249-8.405-.373-.383.02-.764.041-1.146.063l-.574-.156-.189.156-.383-.219v.156h-1.91l.572-.156c.235.049.2.055.383,0,.215-.047.2.008.191-.061l-2.484.03a10.8,10.8,0,0,0,2.1.468C692.69,375.075,699.922,375.687,702.477,375.515Z" transform="translate(-400.196 -372.465)"/><path class="a" d="M751.622,379.781l-.168.061C751.669,379.9,751.622,379.781,751.622,379.781Z" transform="translate(-338.967 -367.739)"/><path class="a" d="M754.014,379.191a7.545,7.545,0,0,0,1.354,0l-.507-.122v-.091l-1.352.184Z" transform="translate(-336.968 -368.521)"/><path class="a" d="M750.6,379.9l-.17.061C750.517,379.942,750.612,379.973,750.6,379.9Z" transform="translate(-339.968 -367.62)"/><path class="a" d="M748.8,379.935h0Z" transform="translate(-341.553 -367.59)"/><path class="a" d="M682.391,375.876l-.067.008.4.053Z" transform="translate(-406.236 -371.539)"/><path class="a" d="M754.021,378.638l.337-.032-.507-.03v.213Z" transform="translate(-336.635 -368.911)"/><path class="a" d="M677.1,374.718l-.572-.093C676.651,374.686,676.308,374.688,677.1,374.718Z" transform="translate(-411.879 -372.757)"/><path class="a" d="M776.027,387.868l.128.116.042.006Z" transform="translate(-315.056 -359.87)"/><path class="a" d="M770.208,388.871h-.113l.036.03A.551.551,0,0,0,770.208,388.871Z" transform="translate(-320.828 -358.894)"/><path class="a" d="M770.244,388.949l-.077-.063C770.035,388.923,769.983,388.882,770.244,388.949Z" transform="translate(-320.865 -358.88)"/><path class="a" d="M743.217,403.678l.353,0-.161-.045Z" transform="translate(-346.983 -344.527)"/><path class="a" d="M771.7,387.4l.191.095h.322a1.051,1.051,0,0,0-.13-.032Z" transform="translate(-319.266 -360.323)"/><path class="a" d="M771.961,387.451c.057.014.114.028.16.043l.093-.043Z" transform="translate(-319.013 -360.276)"/><path class="a" d="M773.347,384.722l.766.03v-.061Z" transform="translate(-317.664 -362.963)"/><path class="a" d="M550.146,374.231l1.146-.156-.381-.032-1.529-.061Z" transform="translate(-535.598 -373.382)"/><path class="a" d="M550.249,373.966h-.383C550.146,374.009,549.927,374,550.249,373.966Z" transform="translate(-535.127 -373.398)"/><path class="a" d="M548.99,374.043l.383.061.955-.124-.574-.061-.381.061c-.552.087,0,.008-.766,0l.383.032Z" transform="translate(-536.352 -373.444)"/><path class="a" d="M585.352,373.741l-1.529.063-.381.032q.571.077,1.146.156Z" transform="translate(-502.455 -373.617)"/><path class="a" d="M585.651,373.8v-.03l.383-.032c-.764.006-.213.085-.766,0l-.381-.063-.574.063.955.124Z" transform="translate(-501.608 -373.678)"/><path class="a" d="M584.115,373.726h-.383C584.054,373.76,583.835,373.767,584.115,373.726Z" transform="translate(-502.173 -373.631)"/><path class="a" d="M739.031,403.359l.375.16c.679-.03,1.359-.059,2.038-.087l-.154-.1Z" transform="translate(-351.056 -344.825)"/><path class="a" d="M594.425,402.9l.507.12a3.981,3.981,0,0,0,1.352-.213,6.97,6.97,0,0,0,2.028.152l-.339-.152A17.349,17.349,0,0,0,594.425,402.9Z" transform="translate(-491.768 -345.387)"/><path class="a" d="M711.433,403.754a2.637,2.637,0,0,0,.339.041c.278-.006.545-.024.815-.038a2.306,2.306,0,0,0-.312-.043C711.99,403.722,711.719,403.74,711.433,403.754Z" transform="translate(-377.911 -344.451)"/><path class="a" d="M739.25,403.9a1.989,1.989,0,0,0,.3.043c.108,0,.235-.024.353-.036a1.978,1.978,0,0,0-.3-.043A2.933,2.933,0,0,0,739.25,403.9Z" transform="translate(-350.843 -344.308)"/><path class="a" d="M588.346,402.847c1.626-.043.86-.053,1.859-.032C590.585,402.59,589.056,402.669,588.346,402.847Z" transform="translate(-497.683 -345.46)"/><path class="a" d="M591.857,402.916l1.182-.03v-.032h-1.182Z" transform="translate(-494.267 -345.287)"/><path class="a" d="M554.967,404.487l.234-.041-.348-.008Z" transform="translate(-530.275 -343.746)"/><path class="a" d="M756.494,377.558h-.168l-.677.274Z" transform="translate(-334.885 -369.902)"/><path class="a" d="M717.4,375.109l-.862-.057-.329.053c.276.018.541.039.831.049A3,3,0,0,0,717.4,375.109Z" transform="translate(-373.268 -372.341)"/><path class="a" d="M715.914,376l-1.338.124.574.032Z" transform="translate(-374.852 -371.421)"/><path class="a" d="M713.8,376.231l.192-.032v-.217c-1,.1-.416.17-.383.185Z" transform="translate(-375.987 -371.436)"/><path class="a" d="M714.946,376.092V376l-1.144.187.955.032C714.743,376.088,714.451,376.141,714.946,376.092Z" transform="translate(-375.606 -371.421)"/><path class="a" d="M737.213,375.84c.748-.014,1.488-.036,2.227-.057l-.2-.154c-.756.034-1.515.063-2.249.1C736.957,375.732,737.18,375.84,737.213,375.84Z" transform="translate(-353.04 -371.78)"/><path class="a" d="M717.852,376.357a9.751,9.751,0,0,0-1.146.032l.191.093q1.24.047,2.484.093l-.191-.217.191.063.381-.063.191.156.191-.249h-1.91c.391-.081.128-.032-.574-.156-.637.075-.219-.01-.572.124h.572Z" transform="translate(-372.78 -371.313)"/><path class="a" d="M730.271,375.8l.31-.116-.977-.041c-.065.032-.257.075-.168.089C729.642,375.761,729.985,375.777,730.271,375.8Z" transform="translate(-360.415 -371.768)"/><path class="a" d="M712.616,376.025V375.9a7.609,7.609,0,0,1-1.146-.093l-.572.156A13.445,13.445,0,0,1,712.616,376.025Z" transform="translate(-378.432 -371.605)"/><path class="a" d="M696.944,375.852l.191-.124-.383-.03-.572.03.572.124Z" transform="translate(-392.753 -371.712)"/><path class="a" d="M712.925,376.327l-.381-.093C712.6,376.268,712.364,376.262,712.925,376.327Z" transform="translate(-376.831 -371.191)"/><path class="a" d="M709.251,375.964a14.765,14.765,0,0,0,2.1-.093h-.383v-.063A5.731,5.731,0,0,0,709.251,375.964Z" transform="translate(-380.034 -371.605)"/><path class="a" d="M708.255,375.775v.061l-.383.063-1.529-.156.191.093-.383.093c1.109.053,3.676.041,4.777.219l.574-.187-.191.156c.862-.1.911-.091.955-.249-.728,0-1.766-.118-1.146.032-.637-.083-1.273-.166-1.91-.251-.27,0-.039.006-.191-.03l-.383.156-1.91-.095.383.032Z" transform="translate(-383.049 -371.789)"/><path class="a" d="M710.026,376.169l3.82.187-3.056-.249-.764.032Z" transform="translate(-379.28 -371.313)"/><path class="a" d="M747.756,376.486a2.192,2.192,0,0,0-.3-.043,3.489,3.489,0,0,0-.361.036l.292.045Z" transform="translate(-343.205 -370.987)"/><path class="a" d="M755.642,377.157l-.507.03.677.122Z" transform="translate(-335.385 -370.293)"/><path class="a" d="M780.535,383.384l-.083-.16q-1.483.015-2.965.034l.083.15Z" transform="translate(-313.635 -364.389)"/><path class="a" d="M777.009,383.982l4.485.055A11.483,11.483,0,0,0,777.009,383.982Z" transform="translate(-314.101 -363.835)"/><path class="a" d="M778.331,382.994l-4.427-.028A11.171,11.171,0,0,0,778.331,382.994Z" transform="translate(-317.123 -364.64)"/><path class="a" d="M781.758,393.666a14.69,14.69,0,0,0,2.086-.533,1.75,1.75,0,0,0-1.865-.843c-.7.075-1.661.4-1.807.7C779.955,393.445,780.79,393.783,781.758,393.666Z" transform="translate(-311.056 -355.582)"/><path class="a" d="M771.922,383.334l-.543-.073-.675.063a2.434,2.434,0,0,0,.322.047C771.332,383.364,771.625,383.346,771.922,383.334Z" transform="translate(-320.235 -364.353)"/><path class="a" d="M780.965,390.628l-.026.033.28-.013Z" transform="translate(-310.277 -357.184)"/><path class="a" d="M754.229,375.945l-.328.017.3.025Z" transform="translate(-336.586 -371.472)"/><path class="a" d="M758.386,382.25l-.168.061C758.441,382.366,758.38,382.262,758.386,382.25Z" transform="translate(-332.385 -365.337)"/><path class="a" d="M786.058,400.768c-1.05-.067-1.669.245-1.1.734.395.335.02,1.281,1.744.844a11.807,11.807,0,0,0,2.2-.988C788.147,400.593,786.977,400.83,786.058,400.768Z" transform="translate(-306.575 -347.326)"/><path class="a" d="M707.379,375.587l-.764.093c-.6-.006-.1,0-.191-.093a5.458,5.458,0,0,1-.955.032l-.381.124.763.063C707.264,375.767,706.9,375.8,707.379,375.587Z" transform="translate(-384.085 -371.82)"/><path class="a" d="M767.728,383.547l-.155-.05-.227.045Z" transform="translate(-323.503 -364.123)"/><path class="a" d="M769.8,383.062c-.5-.051-.953-.118-1.521-.146a5.119,5.119,0,0,0-.984.116c.213.065.7.116,1.2.189C769.117,383.147,769.46,383.106,769.8,383.062Z" transform="translate(-323.554 -364.689)"/><path class="a" d="M761.694,383.056a2.542,2.542,0,0,0-.42-.13c-.416.01-.809.036-1.212.055a1.12,1.12,0,0,0,.359.107C760.828,383.092,761.248,383.07,761.694,383.056Z" transform="translate(-330.591 -364.679)"/><path class="a" d="M708.815,376.167l1.689.032.168-.061-.337-.032-1.519-.061Z" transform="translate(-380.458 -371.375)"/><path class="a" d="M701.93,375.475c-.166-.055-.13,0,0-.061l-.955-.032c-.409.146-.391.018,0,.187C701.942,375.526,701.433,375.579,701.93,375.475Z" transform="translate(-388.379 -372.02)"/><path class="a" d="M700.086,374.621l-.367-.128-2.638.109.357.156Z" transform="translate(-391.876 -372.885)"/><path class="a" d="M697.9,375.583l6.3.03c-.039-.138-.205-.024.383-.124l-1.529-.093v.156h-.191a14.065,14.065,0,0,0-3.82-.063l-.191-.032-.191-.03.191-.187-2.293.063C697.627,375.331,698,375.36,697.9,375.583Z" transform="translate(-392.376 -372.158)"/><path class="a" d="M700.811,375.775l-.189-.093-.957.061.957.063Z" transform="translate(-389.362 -371.728)"/><path class="a" d="M699.946,375.84l-.765.03.574.032Z" transform="translate(-389.833 -371.574)"/><path class="a" d="M700.937,376.037l.339-.03.168-.032C700.858,375.946,701.306,375.952,700.937,376.037Z" transform="translate(-388.124 -371.458)"/><path class="a" d="M699.665,375.9l3.63.093-3.248-.154Z" transform="translate(-389.362 -371.574)"/><path class="a" d="M697.239,375.871l-.381.031C697.2,375.907,697.566,375.916,697.239,375.871Z" transform="translate(-392.093 -371.544)"/><path class="a" d="M699.472,376l-.168-.091-.507.03Z" transform="translate(-390.207 -371.509)"/><path class="a" d="M697.337,375.6l-.383.032,1.338.03Z" transform="translate(-392 -371.805)"/><path class="a" d="M697.148,375.729s.03.075.764.032Z" transform="translate(-391.811 -371.682)"/><path class="a" d="M711.766,376.244v-.016l.241.03c-.259.026.091.049.331.081l-.11-.055.44.053v-.03l-.482-.043-.037-.02c-.049,0-.051.006-.085.008l-.3-.026v-.012l-.286-.016-.164-.043-.109.028c-2.162-.118-3.926-.168-5.937-.312-.927.037-.47.041-.764.093C706.322,375.991,709.193,376.38,711.766,376.244Z" transform="translate(-384.65 -371.544)"/><path class="a" d="M698.7,375.966c.146.016.15.032.17,0l.17-.059-.846.059C698.625,376.016,698.223,376,698.7,375.966Z" transform="translate(-390.79 -371.509)"/><path class="a" d="M697.084,375.891v.091l.507-.059Z" transform="translate(-391.873 -371.525)"/><path class="a" d="M705.218,375.984l-.5.059-.89.03.191.032c1.995.118,3.3.189,5.349.185l-3.984-.215Z" transform="translate(-385.31 -371.434)"/><path class="a" d="M703.829,375.87l.764.095.191-.032.191-.031-.766-.061Z" transform="translate(-385.31 -371.574)"/><path class="a" d="M704.411,375.617l-.381-.061-.191.061c.045.051-.215.026.381.124Z" transform="translate(-385.319 -371.851)"/><path class="a" d="M707.6,376.217v-.032l-.766-.061.574.124Z" transform="translate(-382.39 -371.298)"/><path class="a" d="M704.012,376.059l-.572-.032-.191-.061C703.583,376.074,703.057,376.061,704.012,376.059Z" transform="translate(-385.875 -371.452)"/><path class="a" d="M705.467,376.029l.507-.03-.507-.032c-.43.087-.32-.022-.505.152C705.611,376.067,705.138,376.144,705.467,376.029Z" transform="translate(-384.208 -371.45)"/><path class="a" d="M702.083,375.918l-.191.063.574.032Z" transform="translate(-387.195 -371.498)"/><path class="a" d="M701.871,375.937l-.677.093.677.03Z" transform="translate(-387.874 -371.48)"/><path class="a" d="M702.881,375.586c-.112-.008-.256-.024-.339-.02-.142.006-.247.026-.367.041l.7.024A.353.353,0,0,1,702.881,375.586Z" transform="translate(-386.919 -371.841)"/><path class="a" d="M702.046,375.952l-.17-.03-.168.061.338.03Z" transform="translate(-387.374 -371.494)"/><path class="a" d="M703.431,375.617l.191-.061-.955.093.955.061Z" transform="translate(-386.441 -371.851)"/><path class="a" d="M703.144,376l-.574-.063.383.095Z" transform="translate(-386.535 -371.483)"/><path class="a" d="M703.05,375.461l-.383.093C703.206,375.485,703.109,375.573,703.05,375.461Z" transform="translate(-386.441 -371.943)"/><path class="a" d="M725.706,398.224l.191-.093-.574.032Z" transform="translate(-364.395 -349.883)"/><path class="a" d="M757.617,392.545l-.17.061C757.69,392.657,757.644,392.6,757.617,392.545Z" transform="translate(-333.136 -355.319)"/><path class="a" d="M763.429,392.173l-.17-.183h-.675l.168.093-.168.03Z" transform="translate(-328.136 -355.86)"/><path class="a" d="M763.177,392.409c-.61,0-.231-.038-.507.061h.677Z" transform="translate(-328.053 -355.457)"/><path class="a" d="M761.89,392.034l-.17-.061-.505.184,2.2.061-.339-.245.17-.061Z" transform="translate(-329.469 -355.935)"/><path class="a" d="M762.65,392.219v-.061c-.811-.065-.426.069-.847-.091l-.675.152h1.521Z" transform="translate(-329.553 -355.784)"/><path class="a" d="M760.948,392.789v-.213l-.675.184Z" transform="translate(-330.386 -355.289)"/><path class="a" d="M761.792,392.389l.339.061-.339-.183-.507.183a1.4,1.4,0,0,0-1.012-.032l1.519.093Z" transform="translate(-330.386 -355.59)"/><path class="a" d="M761.637,392.283l-.337.12.337.032Z" transform="translate(-329.386 -355.574)"/><path class="a" d="M763.268,392.236l-.17.061C763.313,392.354,763.268,392.236,763.268,392.236Z" transform="translate(-327.637 -355.62)"/><path class="a" d="M763.946,392.36l-.677.122.507.03Z" transform="translate(-327.471 -355.499)"/><path class="a" d="M764.211,392.282l.844.03-.168-.091Z" transform="translate(-326.554 -355.634)"/><path class="a" d="M762.4,392.421l.168.091.339-.122-1.184-.03A3.514,3.514,0,0,0,762.4,392.421Z" transform="translate(-328.97 -355.499)"/><path class="a" d="M766.032,394.925c1.328-.128,2.952.144,3.755-.7a15.893,15.893,0,0,0-8.072-.42C762.5,395.1,764.534,394.718,766.032,394.925Z" transform="translate(-328.983 -354.408)"/><path class="a" d="M762.071,392.19l.675.03-.675-.122Z" transform="translate(-328.636 -355.755)"/><path class="a" d="M762.328,392.512H763l-.507-.152Z" transform="translate(-328.386 -355.499)"/><path class="a" d="M779.274,387.744l.337-.061-.844.122C779.367,387.788,779,387.843,779.274,387.744Z" transform="translate(-312.39 -360.05)"/><path class="a" d="M773.45,388.453l.17-.122-.675.093Z" transform="translate(-318.055 -359.42)"/><path class="a" d="M774.462,388.934a2.973,2.973,0,0,0-.339.037,4.469,4.469,0,0,0,.533.061c.229,0,.436-.037.653-.057C775.029,388.96,774.754,388.942,774.462,388.934Z" transform="translate(-316.909 -358.833)"/><path class="a" d="M778.245,387.853l-.505.091.337.032Z" transform="translate(-313.389 -359.885)"/><path class="a" d="M772.26,388.516c.568-.039.12.024.505-.061Z" transform="translate(-318.722 -359.299)"/><path class="a" d="M776.22,389.509a5.1,5.1,0,0,0-1.065-.112,8.436,8.436,0,0,0-1.01.118l1.571.144C775.912,389.606,776.328,389.543,776.22,389.509Z" transform="translate(-316.888 -358.382)"/><path class="a" d="M766.609,392.329v.122l1.182-.032Z" transform="translate(-324.22 -355.529)"/><path class="a" d="M766.092,392.7l.339-.093-.339-.03-.168.091Z" transform="translate(-324.887 -355.289)"/><path class="a" d="M769.184,389.863l.572-.032-.189-.061Z" transform="translate(-321.715 -358.019)"/><path class="a" d="M768.192,392.451l-.17-.122h-2.366l-.675.243.337.154a8.775,8.775,0,0,1,2.533.03l-.168-.3.168.12Z" transform="translate(-325.804 -355.529)"/><path class="a" d="M772.174,388.776c.56-.073.2.01.507-.12l-.507.03Z" transform="translate(-318.805 -359.103)"/><path class="a" d="M771.652,388.545l-.337-.152-.339.152.339.093v.03Z" transform="translate(-319.972 -359.359)"/><path class="a" d="M772.169,388.529l.168.093v-.213h-.168l-.337.12Z" transform="translate(-319.138 -359.344)"/><path class="a" d="M773.544,388.376l1.014-.122h-.337Z" transform="translate(-317.472 -359.495)"/><path class="a" d="M760.009,392.175l-.507.061C760.11,392.244,759.63,392.26,760.009,392.175Z" transform="translate(-331.136 -355.679)"/><path class="a" d="M759.5,392.314l-.338.152.675.03.17-.122h-.337Z" transform="translate(-331.469 -355.544)"/><path class="a" d="M760.516,392.687l.168.091c.6-.191-.817-.2-1.182-.183A4.482,4.482,0,0,0,760.516,392.687Z" transform="translate(-331.136 -355.278)"/><path class="a" d="M759.755,392.622l-.337.122.505.03Z" transform="translate(-331.219 -355.244)"/><path class="a" d="M759.673,392.359l.507.061-.168-.091Z" transform="translate(-330.97 -355.529)"/><path class="a" d="M759.584,391.88l-.17-.122-.17.061Z" transform="translate(-331.386 -356.085)"/><path class="a" d="M763,391.666v-.032l-1.182.093.507.03.168.061C762.781,391.709,762.244,391.723,763,391.666Z" transform="translate(-328.886 -356.206)"/><path class="a" d="M760.934,393.228a3.358,3.358,0,0,0-.525-.077c-.288,0-.6.026-.9.041l.5.085C760.316,393.262,760.624,393.246,760.934,393.228Z" transform="translate(-331.125 -354.73)"/><path class="a" d="M758.552,392.452h-.168l-.337.154.844.059Z" transform="translate(-332.552 -355.41)"/><path class="a" d="M758.389,392.669l.005.006h0Z" transform="translate(-332.219 -355.199)"/><path class="a" d="M758.891,392.653l-.5.035.328.178C759.317,392.748,758.956,392.852,758.891,392.653Z" transform="translate(-332.214 -355.214)"/><path class="a" d="M758.725,392.849l-.164-.178-.343.026Z" transform="translate(-332.385 -355.196)"/><path class="a" d="M759.5,392.281l-.337-.122-.17.122Z" transform="translate(-331.636 -355.695)"/><path class="a" d="M767.806,391.789l-.17.061.507.061Z" transform="translate(-323.221 -356.055)"/><path class="a" d="M768.482,392.7c-.444-.014-.856-.034-1.269-.034-.114,0-.369.087-.32.091.347.034.756.055,1.146.081Z" transform="translate(-323.949 -355.203)"/><path class="a" d="M765.5,392.592v.061l.675.032C765.968,392.543,765.981,392.608,765.5,392.592Z" transform="translate(-325.304 -355.275)"/><path class="a" d="M764.725,390.8c.32.02.089.041.337,0l.507.03A1.267,1.267,0,0,0,764.725,390.8Z" transform="translate(-326.054 -357.077)"/><path class="a" d="M765.222,390.739l-1.182.122,1.014.122c.288-.126-.345-.063.337-.122Z" transform="translate(-326.72 -357.076)"/><path class="a" d="M766.609,391.325l.337.061.507-.122Z" transform="translate(-324.22 -356.566)"/><path class="a" d="M765.324,392.252l.507.061A1.351,1.351,0,0,0,765.324,392.252Z" transform="translate(-325.471 -355.604)"/><path class="a" d="M763.612,391.6l.337-.091-.168-.093Z" transform="translate(-327.137 -356.416)"/><path class="a" d="M762.924,391.479l-.168.061h.507l.168-.122C762.845,391.448,763.042,391.39,762.924,391.479Z" transform="translate(-327.97 -356.416)"/><path class="a" d="M764.362,391.938l-.507-.3v.091c-.531-.122-.166-.012-.17-.152l-.844.12,1.352.183Z" transform="translate(-327.887 -356.265)"/><path class="a" d="M763.355,391.54l.337.061-.168-.183Z" transform="translate(-327.387 -356.416)"/><path class="a" d="M763.7,391.7l.337.091C764.026,391.771,764.2,391.643,763.7,391.7Z" transform="translate(-327.053 -356.153)"/><path class="a" d="M762.836,391.541l-.168-.154-.17.122Z" transform="translate(-328.22 -356.446)"/><path class="a" d="M764.035,391.588l-.337.032C764.075,391.62,763.771,391.624,764.035,391.588Z" transform="translate(-327.053 -356.25)"/><path class="a" d="M765.311,392.468v-.093c-.86.071-.689,0-1.014.152l1.014.122Z" transform="translate(-326.47 -355.484)"/><path class="a" d="M720.183,376.359l.191.124v-.217l-.764.124Z" transform="translate(-369.953 -371.16)"/><path class="a" d="M754.575,380.286c.112.01.3.006.456.01l-.089-.079-.432.018C754.528,380.252,754.5,380.278,754.575,380.286Z" transform="translate(-335.994 -367.315)"/><path class="a" d="M754.788,379.009l-.337.061.675.061Z" transform="translate(-336.051 -368.491)"/><path class="a" d="M755.307,378.39a3.876,3.876,0,0,1,.844.032v-.032c-.345-.11.079-.059-.844-.091Z" transform="translate(-335.218 -369.181)"/><path class="a" d="M757.7,392.667h.507l-.17-.122Z" transform="translate(-332.886 -355.319)"/><path class="a" d="M1023.713,422.464c-1.91-.87-4.278-.846-6.641-.9-6.2-.146-12.4-.069-18.6.138a31,31,0,0,1-7.7.353,13.451,13.451,0,0,0-3.431.43,8.277,8.277,0,0,1-1.35.217,7.073,7.073,0,0,0-2.869-.067c-.683-.067-1.364-.142-2.046-.189v-.049l-.426.024c-.87-.039-1.736-.059-2.6-.045l-.032-.042.572-.124c2.549.118,3.147-.264,5.54-.56l-.764-.436c.594-.077,2.119-.255,1.338-.31-.122-.053-2.094-.308-1.721-.624,1.117-.941,3.461-1.089,2.841-1.434a7.961,7.961,0,0,1,1.6.14,9.154,9.154,0,0,0,1.7-.107c.734-.205,1.123-.5,1.113-.892l.085.028a3.969,3.969,0,0,0,1.35.061c1.6.4,3.766.286,4.741,1.279-.006.183,0,.367.006.548q1.19.308,2.38.612h0c3.41,1.381,5.921-.383,8.861-.643a3.466,3.466,0,0,0,.955.357,45.78,45.78,0,0,0,7.367-.251c1.308,2.164,5.2-.039,7.482.468q-1.657-.974-3.315-1.943h0c-2.038-1.1-5.361-1.513-6.641-3.338,3.753.839,6.389-.422,9.562-.805-2.518-1.482-5.917-.176-8.482-.981q-1.267-.095-2.533-.193c-1.906-.963-4.416-.33-6.572-.629-1.729-1-3.455-2.208-5.2-.008h0c-1.056.043-2.119.061-3.167.136-4.39.316-8.141.781-2.806,3.248.1.047-.31.373-.479.568h0c.13.077.262.152.395.229-.207.051-.412.1-.621.148h0c.083-.124.158-.251.227-.377-2.786.625-5.063-.888-7.8-.47-.022.109-.051.215-.077.322l-1.5-.024-.17.14,1.63.051-.012.047c-2.717.339-5.14.294-6.43-1.241l-1.308-.028c-.793,1.032.821,1.421,1.906,1.949l-.525.2-.574-.03c.168-.209.5-.14-.191-.28l-1.91-.375-.191.28-.191-.03-.191-.079v-.172l-1.144.095-.26-.071c-.113-.6-.312-1.162-2.273-1.04-.8.051-1.081.28-1.154.57-.089.008-.191.022-.286.032l.276.02a1.31,1.31,0,0,0,.03.476l-.917-.081.764-.186-1.719-.095-.383.28c-.059-.219.039-.26-.572-.31l-1.371-.118c.16-.132.318-.268.468-.414l-6.574-1.906a1.743,1.743,0,0,1-.706-.095,9.4,9.4,0,0,1,1.115-.207c-.841-.142-.785-.158-.764-.217-.205-.154.188-.108.764-.219-2.291-.154-2.383-.026-2.865-.373a3.258,3.258,0,0,1-1.146.093l.572-.093-.189-.032c-1.318.034-1.208.083-1.721-.061l1.146-.28c-1.109-.109-3.358-.191-3.82-.249a5.056,5.056,0,0,0,1.146-.095l-.766-.03L952.8,412l.955-.156,3.623.122-.144.087a15.957,15.957,0,0,0,5.136-.051l-3.625-.118a20.94,20.94,0,0,1,3.607-.258c-.12-.316-1.271-.493-1.719-.809.345-.03.667-.063,1-.095v.091l1.182.093-.337-.093-.843-.091c.483-.045.965-.089,1.425-.136l.093.014.1-.036.183-.022-.118.15c.811-.012.16-.03.675.091-.805.018-.833-.02-.844.213l1.182-.274.17.152-.507.093a8.848,8.848,0,0,0,1.352.061l-.337-.306,1.014-.122-.17-.3.17.091a8.042,8.042,0,0,1,1.519.032c1.024-.063.272.022.677-.152l.675.243c.146-.063-.209-.061.17-.061.219-.055.136.018.17.061l.844-.061.168-.243-1.012.03.505-.274-.675.122c-.184-.075-.085.026.17.091l-.17.061-.677.032-.491-.245.373-.045-.347-.095a34.46,34.46,0,0,1,3.508-.042c.454-.018.026-.01.675.059l.17-.152.337.152,1.014-.03-.507-.183.338.061-.507-.365c-.6.063-.7-.067-1.182.091l-.844-.182.168.182-1.012-.12-.677.213.162-.292.176.079c.515-.093.371-.134.243-.256l.081,0,.183.1h.677l.095-.059.752.03.166.061c.176-.018.278-.03.355-.039l7.823.32-.191-.095q-2.587-.151-5.177-.306l.063,0-.26-.01-.551-.032c.349-.1.2-.132.3-.233.5.154.245-.014.507.152,1.071-.185,1-.128,1.182-.3l.17.245.17-.367a5.532,5.532,0,0,1-2.028-.03l-.168.274-.339-.306-.337.215-.338-.335h-.337l.1-.114c.825.079,2.654.154,4.345.213v.012c.74.043,1.464.069,2.236.065.207.006.412.014.578.02v.109l1.521-.061-.294-.132q.648-.041,1.377-.118l.521.081.085-.014v.032l.337-.061.13-.045.022,0-.006,0,.024-.01-.039,0a12.072,12.072,0,0,0-2.437-.549c.381,0,1.044-.006,1.294-.031h.505l-.675-.091a1.726,1.726,0,0,0-1.267.089l-.189-.043a.761.761,0,0,1,.1-.045l-.17-.032a4.848,4.848,0,0,0-.957.11l-.462.024.406-.2a16.452,16.452,0,0,1-1.717.053l-1.868-.152.574-.032-2.194-.328,1.215.045,2.316.189-.383-.156c1.144-.107,2.085-.124,2.484-.217-.045,0-.081-.01-.122-.014a2.909,2.909,0,0,0,.369-.059l1.014.152.507-.122a4.165,4.165,0,0,0,1.182.061l-.17-.213h.677l.17.061-.144-.116c.677.059,1.35.138,2.058.219l1.336-.156-1.336-.093,1.336-.124v-.032a4.238,4.238,0,0,1-1.028-.363l.481-.006c-.128-.093-.183-.026.168-.091l-.675-.213c-.426.081-.292-.008-.472.1-.063-.026-.132-.049-.205-.073v-.034l.223-.061c.527-.012.213-.01.621-.146l.17.152,1.168-.511,1.649.466a7.647,7.647,0,0,0,1.721-.186,6.97,6.97,0,0,1-3.439-.655l2.484.251-.191-.063V404.9l-3.63-.219c2.693-.262.754-.588-.033-1.02a11.667,11.667,0,0,0,1.961.085l.338.03V403.6l-2.026-.061.126-.036c.369,0,.7,0,1.024,0a12.683,12.683,0,0,1,1.72.13,4.866,4.866,0,0,0,1.014-.061l.326-.03c.333,0,.659.006.979,0l-.079-.063c-.069-.03-.148-.055-.227-.083l.016-.006.507.122.337-.091-.17-.032c-.335-.022-.612-.037-.85-.047-.17-.049-.351-.093-.539-.132l1.728.059.168-.071c.16.01.32.018.476.018a.8.8,0,0,0,.138-.018l.063.01a11.547,11.547,0,0,0,2.364-.061l-.675-.03s-1.359-.124-2.545-.124l-.026-.012-.059.01a8.14,8.14,0,0,0-1.087.065c-.793-.022-.193.043-.507.12-.387-.083.075-.085-.5-.061h-.006l.333-.391h.006l.166.18h.507l-.507-.4h.507l.339.4c.41-.095.343-.055,1.182.03.576-.035-.085-.087.507-.061.174-.158.028-.2-.507-.213a6.017,6.017,0,0,0,1.182-.152c.566.109.744.1.507.213,1.213-.091.44-.207.86-.3l.491.03.126.045-.126.045.507.093,1.519-.213v-.093l.507.274.148-.4.359-.087.507.184.17-.184v.091l.845-.272.168.12.507-.213-.337.122.17-.152,1.34.026-1,.065.844.091a6.041,6.041,0,0,1,1.689-.12l-.209-.189-.614-.089.894-.081-3.563-.079-.223-.142,1.012-.059-.675.12,1.519.061c-.341-.091.083-.089-.505-.061l3.548-.639a33.529,33.529,0,0,0-5.712.657c.053,0,.14.006.306.014.389-.055.359-.022.539.045l-.947-.02.02-.026-.116.022-1.247-.028.061-.026h-.337c-.355.034-.592.053-.819.065l-.083-.178a2.692,2.692,0,0,1-1.338-.032l.383.124-.574.063v-.032l-.381-.124.381-.061-.381-.063,1.336-.032a1.79,1.79,0,0,0-.474-.3l-.29.142-.416-.118-.347-.1-1.338.061-.383-.061.191-.219c.468.089.034.118.764.095-.588-.13-.061-.049.766-.124l.764.186.383-.156c-.673.014-.215.034-.574-.061l.73.059.012.01.458-.043.33.162c-1.028.01-.406-.081-.955.061l.572.187.191-.032c.84-.276.73-.2.762-.45l.339-.024c-.045.02-.093.043-.146.069l1.338.032-.32.233c-1.223.12-2.245.231-2.4.292,1.19-.1,2.632.073,2.871-.152l.339.122,3.378-.458v-.012c.921-.014,3.109-.053,3.772-.15,3.771-.552,1-1.111,3.248-1.5l-1.146-.217,1.146.187h.189l-.189-.56-1.529.061v-.124l-.191-.032,1.338.032v-.032c-1.235-.109-.856-.243-.572-.466-.969.057.04.1-.957.061l.383-.032.574-.217a1.67,1.67,0,0,1-1.146-.5c-.576.1-.326,0-.383.154-1.811-.329-.045-.327-2.1-.529l.572-.061a26.318,26.318,0,0,0-5.538-.655l-.539-.314.055.006a5.042,5.042,0,0,0,.744-.189c.067-.034-.251-.081-.393-.122l-.774.089-.051-.03h-1.91l.764-.154-1.91-.126-.381.095-.191-.124c.022-.093-.095-.012.381-.156a3.56,3.56,0,0,1-1.454-.268h.008l-.028,0a6.239,6.239,0,0,0-.817-.1l-.036.016-.071-.008.107-.1q-2.2-.216-4.394-.436l-.574.124-.191-.249c-.756.03-.215.045-.764-.061-.5.055-.333.12-.572.03-1.438.045-4.248-.241-6.043-.32-2.9-.718-7.243-1.669-9.858-1.324l-1.352-.7.507-.274v.12c.649-.316-.322-.637-.507-.7l-.505.122-.507-.274v.183l-1.014-.152-.338.059c.265-.1-.089-.083.507-.059l-.339-.4v.122c-.276-.146-.943-.446-1.851-.805-.057-.022-.122-.045-.18-.069-2.691-1.046-7.306-2.518-10.471-2.141l-.168-.367-.17.061c-.578.089-.284.012-.168.183l-.677-.032.17-.365c-.491.041-.474.223-1.02.395a2.515,2.515,0,0,1-.693-.233l.361.022c-.278-.126-.008-.077-.339-.122l-.1.055a1.941,1.941,0,0,0-.574-.3l.168-.061.339.061.507.152c.393-.065-.028-.028.507-.032.055-.3-1.5-.294-2.2-.426l-.677.122.337-.243-.337-.061a1.956,1.956,0,0,1-.677.061c.517.095,0,.026.677.059l-.677.183v-.213l-.675.122v-.093l.337-.243c.134,0,.231,0,.333,0h0a2.4,2.4,0,0,0,1.014-.211c.156.138-.083.1-.507.274l.507-.061c.043.061.065.036.339,0,.338.142.122.041.843.061l.339.3c.182-.215-.136-.14.675-.365-.616.018-.547.128-.675.03l-.677-.152.677.122.338-.183-1.182.032.844-.122v-.152l-.17.091c-.945-.13.265-.284.17-.487.858.01.387,0,.168-.152h.677l-.337-.091-.17.061c-.706.083-.3,0-.338.152l-.507-.152v-.154c-.383.067-.868-.028-.507.061l-.507-.03.339-.152.338-.032,1.012.274.17-.03-.507-.245.845.245.339-.093a1.455,1.455,0,0,1,.633.608l-.466-.028-.168.091.635-.057a.682.682,0,0,1,.039.087l.677-.091c.134.049-.189.071.337.245h.168c.122-.172-.249-.239-1.012-.335V385.2l1.012-.091.17.213c.1-.233.762-.361-.17-.4l.507-.243.337.182c.055.067.091.012-.168.061l1.014.183-.507-.152c.653-.067,1.069-.012.845-.215l-.338.154-.17-.093a1.436,1.436,0,0,0-.606-.223c.438-.059.308-.008.1-.142l-.148.134a4.633,4.633,0,0,0-.866-.1l.844-.487-.337.274c1.008-.1.448-.045.507-.215l1.182-.091-.168.122-1.184.243.339.061.675-.152.337.213.17-.182.507.395.507-.03-.507-.426c1.022-.109,2-.1,1.859-.458l1.182.184-.675.091.168.03.17.032.675-.061-1.182-.335.677.032-.846-.274h-.168l-.677.243-.168-.122-.339.183.677-.426-.677.091-1.182-.639h.17c.33.343.783.432,1.857.519-.156-.063-.138-.022.17-.061-.055-.235-.112-.468-.17-.7h.339l.168.03c.326.152.079,0-.168.183l.507.03c.369-.045.839-.089,1.292-.128.18-.008.2-.008.182-.014.746-.061,1.4-.1,1.4-.1l.337-.183c-.724-.1-.7-.089-1.012-.4l-.677.183-.168-.061-.507-.243.507.182.505-.03-.168-.245c-.858.014-.3-.089-.844.032l.168-.3v.152a2.605,2.605,0,0,1,1.352-.061l.339-.306-.17.183.844-.183c-.9-.17-.736-.122-1.014-.333l-.337.061c-.726-.328.071-.627-2.026-1.067-1.044.288-15.83-.75-20.1-.456l-11.657-.183c-3.161.371-28.266-.594-34.294-.395-.1,0-.2,0-.306.008l-.156-.152v.124l.087.03q-1.1.033-2.17.043c.176-.168.012-.2.365-.353a9.288,9.288,0,0,1-1.529-.061l.191.185-.572-.061-.383.249.383-.063,1.32.109c-3.188.036-6.18-.037-8.833-.112l-1.083-.15-.4.109c-2.721-.075-5.016-.126-6.693-.01l-1.089-.067-.075-.039c-.531-.032-.284-.008-.329.071l-.085-.014-.262-.118-.168.152c-.622-.02-1-.038-1.275-.053l-.128-.061-.454.024c-.144-.01-.3-.02-.509-.032l-.844-.03v.03l1.014.061c-1.4.093-3.771.122-6.657.116l-.189-.077-.2.077-.318,0,.136-.043c-.16.018-.3.032-.426.043-4.193-.022-9.325-.107-14.267-.189l-.016-.01-.1.008-.6-.01.122-.061-.949.047c-7.861-.13-14.911-.235-16.408-.022q-3.67-.044-7.338-.091c-1.649-.079-3.161-.154-4.487-.225v-.11l-.17-.03-.663.095-.541-.03c-.1-.079-.156-.17-.109-.257h.359l.276.1.16-.172h.01v.142l.61-.083-.521-.067c.049,0,.079,0,.16-.012l1.7.055-.426.077h.844l.168-.032v-.142c.063.012.122.028.17.036v.107l.29.026.12.059.9-.122.3.053c.067.043.215,0,.708.1h.191l.383-.187v.187c4.81-.186,16.173.606,18.34.343a3.865,3.865,0,0,1-1.146-.219c-1.961.075-3.453-.292-5.157.032v-.156c-1.7.227-2.527-.144-4.013.063l-.572-.343-2.293-.063v-.03c1.231-.126.491-.049.572-.219l2.1-.156c-1.859-.134-10.84-.02-12.036-.186a58.956,58.956,0,0,0-6.237-.347,5.5,5.5,0,0,0-.9-.053c-.219-.085-.478-.164-.734-.245l.994.022c.2-.038.406-.077.61-.116l.345.085v.063h.191l.383-.187h.381v.032l-.572.124c1.474.043,3.919.1,4.966.156v.124l.763-.061.383.03c.036-.049-.089-.114.191-.061a23.66,23.66,0,0,0-4.585-.156l-1.338-.249-1,.081.43-.081-.383-.063a6.809,6.809,0,0,1-1.338-.061l-.764.156c-.071-.035.16-.2-.381-.126-.148-.026-.377-.053-.671-.077-1.042-.231-2.281-.428-3.672-.6l.138-.067-.189-.032v.093c-.249-.032-.5-.061-.754-.091l-.012,0v0c-8.1-.911-105.143-1.024-117.942-.981V374.4h-.383l.081.02-.989,0,.335-.055c-.76-.006-1.371.095-.955-.03l-.191-.032v.12l-.639,0-.316-.154a2.87,2.87,0,0,1-.955.093l.136.069c-3.648.02-7.243.045-10.67.065-5.051-.389-18.638-.41-29.006-.472l0,0v0c-5.931-.034-10.811-.083-12.419-.223q-1.432.08-2.865.156l.381-.124-.764.124-.572.032.572.063c-4.354.33-15.422-.418-20.441.124-.434-.205-8.818-.207-11.081-.124l-37.634.31-4.629.229c-.529-.014-1.024-.034-1.44-.065l.572-.063-.572-.03-.764-.124.381.124q-1.432-.08-2.865-.156c-1.13.1-3.893.15-7.48.185v61.947l.785-.055h0l6.193-.178c4.153,1.008,6.422-1.894,10.39-1.269h0c3.735.142,6.947-.8,10.38-1.279l2.575-.055,1.413-.047a11.97,11.97,0,0,0,5.657-.132c9.325-2.869,19.843-1.754,29.774-2.166,6.387-.266,12.776-.4,19.165-.446l-.061.006v.03l1.689-.03-.182-.018q2.835-.015,5.669-.01l-.588.028.677.091.675-.032v-.087c.27,0,.541,0,.811,0l-.134.026h.675l-.12-.022c.586,0,1.17.008,1.754.012l.055.01-.014-.01.837,0,.024.006h.337l.006,0q1.838.012,3.68.034l.03.028c.042-.012.071-.016.109-.026q2.723.033,5.442.075l-1.326.073.337.122.17.03a2.629,2.629,0,0,1,1.352-.12l.2-.093.077,0-.113.059h.339l-.109-.057.245,0,.2.053q.693-.012,1.385-.028c14.972.268,29.942.756,44.911.957,24.922.337,133.924.093,158.8-.643q23.446-.7,46.829-.32c-.1.006-.2.022-.294.034a2.322,2.322,0,0,0,.329.041,3.609,3.609,0,0,0,.359-.04c-.089-.012-.178-.026-.266-.034q20.235.358,40.412,1.685c4.019.27,8.474.8,11.74-1.389.844-.566,3.19-.7,4.217.43h0c-.008,1.334-.042,1.456,2.7,1.642,14.652.992,28.858.541,41.827-3.548,3.846.866,7.632-.272,11.466-.1.466.02,1.75.3,1.208-.574-.937-1.517,2.433-2.133,3.035-2.985C1021.061,424.778,1025.9,424.4,1023.713,422.464Zm-20.3-4.323c-.071.006-.13.024-.207.024l-.018-.051C1003.268,418.123,1003.341,418.135,1003.418,418.141Zm-22.6-.355c-.1,0-.2,0-.318,0l-.338-.493A1.83,1.83,0,0,1,980.823,417.786Zm-69.843,4.069c-.337.051-.677.1-1.016.144l-.144-.071c-.13.069-.128.081,0,.089-4.066.5-8.257.432-12.4.552a1.8,1.8,0,0,1-.781-.237c.62-.026,4.392.109,5.921,0-1.671-.182-2.129-.15-2.985-.31h.5a7.2,7.2,0,0,1,.957.03l-.574-.124-.91.089c-.132-.024-.272-.053-.428-.089-2.042.154-5.386-.256-7.068-.061l.955.061c-.748.061-2.082.049-3.482.006a6.291,6.291,0,0,0-3.337-.385,3.8,3.8,0,0,1-.389.211c-.706-.045-1.223-.087-1.389-.112v-.061h1.529l.189-.095-.764-.03-1.719-.095v-.124l2.673-.032-.381-.156,1.527.187,5.732-.061v.03c-.28.148-.58.069.381.187l-1.336.124h4.966c.363-.085-.695-.026-1.338-.061h.383l-.191-.095a23.877,23.877,0,0,1,3.822.249l.764-.093-.383-.093c1.44.085,7.865.286,8.979.093l.764.28.574-.124v.156l.572-.124Zm20.046.509-1.146.217a23.2,23.2,0,0,0-2.675-.03l-.572-.187-.574.032v.032q1.077.281,2.155.566a19.021,19.021,0,0,0-6.243-.233c-.825-.109-1.638-.231-2.393-.406-.4-.089-.807-.191-1.213-.3.809-.17,3.494-.262,5.021-.594,1.792.229,2.107-.093,2.865.28l.383-.156.764.249.574-.219v.406l.381.093v-.124l.191.185a4.159,4.159,0,0,1,1.338,0h-1.146l.572.126.955.154a1.783,1.783,0,0,1,.766-.124Zm41.956.769-.118-.085a1.3,1.3,0,0,1,.231.049C973.059,423.109,973.017,423.119,972.982,423.133Zm1.58-.444c-.385.081-.736.176-1.069.278-.178-.032-.375.034-.249-.075,0,0,.132-.174.766-.124l-.383-.217.191.093,2.865-.249.172.024A19.353,19.353,0,0,0,974.562,422.689Z" transform="translate(-542.396 -373.555)"/><path class="a" d="M690.822,376.115l-.374-.028-.026.049Z" transform="translate(-398.355 -371.334)"/><path class="a" d="M753.166,379.393h.337l-.168-.091Z" transform="translate(-337.301 -368.205)"/><path class="a" d="M754.793,379.148v.091h.844Z" transform="translate(-335.718 -368.355)"/><path class="a" d="M757.779,392.712v-.122l-.677-.059-.168.091.675.03Z" transform="translate(-333.635 -355.334)"/><path class="a" d="M753.166,379.284l.507.03.507-.122v-.03l-1.014-.091.507.181-.337-.03Z" transform="translate(-337.301 -368.43)"/><path class="a" d="M755.13,379.083l-.168-.12-.17.152Z" transform="translate(-335.718 -368.535)"/><path class="a" d="M754.615,378.345l-.507.213.507-.061.17-.12Z" transform="translate(-336.385 -369.137)"/><path class="a" d="M755.276,378.681l-.5-.069-.637.065a3.15,3.15,0,0,0,.355.039C754.765,378.711,755.017,378.693,755.276,378.681Z" transform="translate(-336.351 -368.877)"/><path class="a" d="M755.126,378.845c-.525-.083-.166-.03-.675.03l.675.091-.17.061C755.5,378.958,755.1,378.877,755.126,378.845Z" transform="translate(-336.051 -368.692)"/><path class="a" d="M724.778,398.273l-.191-.032-.191-.032C724.117,398.285,724.622,398.261,724.778,398.273Z" transform="translate(-365.377 -349.807)"/><path class="a" d="M724.452,398.242l.955.061-.191-.093Z" transform="translate(-365.242 -349.807)"/><path class="a" d="M757.436,392.82l.17-.182-1.014.152Z" transform="translate(-333.969 -355.229)"/><path class="a" d="M725.605,398.068h-.572v.093l.764.032Z" transform="translate(-364.677 -349.945)"/><path class="a" d="M723.1,398.113l.572-.061-.383-.063Z" transform="translate(-366.561 -350.022)"/><path class="a" d="M718.053,398.019v-.061l-.572.03Z" transform="translate(-372.026 -350.052)"/><path class="a" d="M725.544,398.3l-.189-.093C724.77,398.236,725.331,398.267,725.544,398.3Z" transform="translate(-364.615 -349.807)"/><path class="a" d="M728.9,398.163l-.191.061C728.927,398.177,728.909,398.232,728.9,398.163Z" transform="translate(-361.097 -349.852)"/><path class="a" d="M757.612,392.422l-.507.213.675-.093Z" transform="translate(-333.469 -355.439)"/><path class="a" d="M737.712,398.319l.191-.093-.574.032Z" transform="translate(-352.712 -349.791)"/><path class="a" d="M758.295,392.789l.17-.12-.847.03Z" transform="translate(-332.969 -355.198)"/><path class="a" d="M726.1,398.334l1.146.093v-.28l-.955.093C726.435,398.336,726.6,398.279,726.1,398.334Z" transform="translate(-363.641 -349.868)"/><path class="a" d="M728.519,398.224l.189-.093-.189.032Z" transform="translate(-361.285 -349.883)"/><path class="a" d="M750.846,379.9l-.507-.152-.17.122Z" transform="translate(-340.218 -367.77)"/><path class="a" d="M751.625,380.07l.675.091.17-.365Z" transform="translate(-338.801 -367.725)"/><path class="a" d="M752.473,379.626l-.677.032C752.3,379.744,752,379.719,752.473,379.626Z" transform="translate(-338.635 -367.89)"/><path class="a" d="M751.622,380.366v-.091l-.168.213S752.149,380.413,751.622,380.366Z" transform="translate(-338.967 -367.259)"/><path class="a" d="M752.652,379.287v.091l.677.091Z" transform="translate(-337.802 -368.22)"/><path class="a" d="M751.963,380.429h-.168l-.17.091.338.032Z" transform="translate(-338.801 -367.109)"/><path class="a" d="M752.56,379.889l-.507.12h.337Z" transform="translate(-338.385 -367.634)"/><path class="a" d="M752.053,379.487v.183l.507-.03Z" transform="translate(-338.385 -368.025)"/><path class="a" d="M752.9,380.058v-.03l-.677.12C752.915,380.1,752.443,380.186,752.9,380.058Z" transform="translate(-338.218 -367.499)"/><path class="a" d="M750.341,380.443l.337.061v-.152l-.17.03Z" transform="translate(-340.05 -367.184)"/><path class="a" d="M750.933,380.074l-.507.061.339.061Z" transform="translate(-339.968 -367.454)"/><path class="a" d="M750.932,380.028c-.657.069-.381.012-.677.152Z" transform="translate(-340.134 -367.499)"/><path class="a" d="M750.426,379.534v.061C750.657,379.55,750.609,379.585,750.426,379.534Z" transform="translate(-339.968 -367.98)"/><path class="a" d="M750.169,379.854l.846-.274c-.422.051-.12.059-.507,0Z" transform="translate(-340.218 -367.935)"/><path class="a" d="M751.711,380.336v.122l.505.061Z" transform="translate(-338.717 -367.199)"/><path class="a" d="M751.8,380.165l.507.032-.17-.061.17-.061Z" transform="translate(-338.635 -367.454)"/><path class="a" d="M750.769,379.964c.282-.047.308.026.507-.122h-.17Z" transform="translate(-339.634 -367.68)"/><path class="a" d="M751.711,379.225l.338.03-.17-.122Z" transform="translate(-338.717 -368.371)"/><path class="a" d="M752.9,379.777l.17-.243-.507.061Z" transform="translate(-337.884 -367.98)"/><path class="a" d="M752.31,379.361l.507-.152-.507-.03Z" transform="translate(-338.134 -368.325)"/><path class="a" d="M751.024,380.057h.338l-.507-.091v.122Z" transform="translate(-339.551 -367.559)"/><path class="a" d="M752.213,379.8h-.168l-.677.152.677.032Z" transform="translate(-339.051 -367.725)"/><path class="a" d="M751.454,380.165c.369-.063.205-.008,0-.091Z" transform="translate(-338.967 -367.454)"/><path class="a" d="M750.683,379.825l.337.032-.168-.154Z" transform="translate(-339.718 -367.815)"/><path class="a" d="M751.45,380.057l.168-.184h-.507v.093l.339-.032Z" transform="translate(-339.301 -367.65)"/><path class="a" d="M751.454,380.226l.337.093h.17l.168-.093-.675-.059Z" transform="translate(-338.967 -367.364)"/><path class="a" d="M751.283,380.012l.505.061A1.291,1.291,0,0,0,751.283,380.012Z" transform="translate(-339.134 -367.515)"/><path class="a" d="M750.769,380.228l.675.213C751.876,380.242,750.868,380.234,750.769,380.228Z" transform="translate(-339.634 -367.304)"/></g><g transform="translate(573.101 390.157)"><path class="b" d="M572.513,384.513a6.915,6.915,0,0,1,2.893,4.434l-5.037,1.026a3.406,3.406,0,0,0-1.306-2.162,3.821,3.821,0,0,0-2.334-.762,3.19,3.19,0,0,0-2.02.606,1.846,1.846,0,0,0-.779,1.509c0,.912.562,1.494,1.681,1.742l4.323.963q5.724,1.276,5.722,6.065a5.783,5.783,0,0,1-2.456,4.976,10.214,10.214,0,0,1-6.126,1.772,11.013,11.013,0,0,1-6.174-1.663,6.35,6.35,0,0,1-2.94-4.648l5.288-1.028a4.357,4.357,0,0,0,6.359,2.488,1.823,1.823,0,0,0,.825-1.555,1.63,1.63,0,0,0-.42-1.182,2.884,2.884,0,0,0-1.507-.653l-4.355-.931q-5.6-1.279-5.6-6.036a5.764,5.764,0,0,1,2.269-4.789,9.438,9.438,0,0,1,5.972-1.772A9.775,9.775,0,0,1,572.513,384.513Z" transform="translate(-557.958 -381.171)"/><path class="b" d="M584.281,395.108H572.835a4.012,4.012,0,0,0,1.212,2.208,3.105,3.105,0,0,0,2.147.811,3.5,3.5,0,0,0,3.327-1.8l4.418.9a7.434,7.434,0,0,1-3,3.654,8.9,8.9,0,0,1-4.741,1.227,8.09,8.09,0,0,1-5.846-2.316,8.582,8.582,0,0,1,0-11.9,8.1,8.1,0,0,1,5.878-2.334,7.778,7.778,0,0,1,5.69,2.273,8.258,8.258,0,0,1,2.366,6Zm-10.079-4.85a3.271,3.271,0,0,0-1.275,1.8h6.436a3.3,3.3,0,0,0-1.18-1.835,3.206,3.206,0,0,0-1.959-.622A3.469,3.469,0,0,0,574.2,390.258Z" transform="translate(-548.233 -378.595)"/><path class="b" d="M594.121,400.086a6.711,6.711,0,0,1-2.411,5.489,9.675,9.675,0,0,1-6.328,1.975q-5.57,0-7.839-3.763l4.137-2.239a6.029,6.029,0,0,0,1.695,1.507,4.184,4.184,0,0,0,1.973.42,3.975,3.975,0,0,0,2.816-.994,3.638,3.638,0,0,0,1.073-2.8v-.436a6.971,6.971,0,0,1-4.7,1.494,7.265,7.265,0,0,1-5.317-2.194,7.382,7.382,0,0,1-2.208-5.458,7.209,7.209,0,0,1,2.208-5.365,7.329,7.329,0,0,1,5.317-2.162,6.981,6.981,0,0,1,4.7,1.494v-1.026h4.883Zm-5.941-4.432a3.4,3.4,0,0,0,1.058-2.567,3.358,3.358,0,0,0-1.058-2.533,3.594,3.594,0,0,0-2.581-1.012,3.732,3.732,0,0,0-2.691,1,3.366,3.366,0,0,0-1.04,2.549,3.4,3.4,0,0,0,1.056,2.567,3.718,3.718,0,0,0,2.676,1.01A3.6,3.6,0,0,0,588.18,395.654Z" transform="translate(-539.413 -378.595)"/><path class="b" d="M603.248,401.41h-4.976v-1.494a6.321,6.321,0,0,1-4.789,1.959,5.725,5.725,0,0,1-4.4-1.788,6.635,6.635,0,0,1-1.665-4.712V385.8h4.946v8.522a3.262,3.262,0,0,0,.746,2.224,2.441,2.441,0,0,0,1.928.856,2.876,2.876,0,0,0,2.38-1.073,5.219,5.219,0,0,0,.854-3.281V385.8h4.976Z" transform="translate(-529.291 -378.364)"/><path class="b" d="M608.745,385.812l-.217,4.974h-.9q-5.381,0-5.38,5.848v4.883H597.27V385.9h4.976v2.985a5.991,5.991,0,0,1,5.38-3.2A4.618,4.618,0,0,1,608.745,385.812Z" transform="translate(-519.705 -378.472)"/><path class="b" d="M609.026,382.871a2.743,2.743,0,0,1,.823,1.991,2.638,2.638,0,0,1-.823,1.975,2.876,2.876,0,0,1-2.07.791,2.816,2.816,0,0,1-2.052-.791,2.657,2.657,0,0,1-.809-1.975,2.791,2.791,0,0,1,2.861-2.831A2.783,2.783,0,0,1,609.026,382.871Zm-4.558,22.2V389.463h4.978v15.613Z" transform="translate(-513.063 -382.03)"/><path class="b" d="M625.688,404.753h-4.974v-1.245a6.974,6.974,0,0,1-4.852,1.711,7.2,7.2,0,0,1-5.4-2.316,9.066,9.066,0,0,1,0-11.9,7.184,7.184,0,0,1,5.4-2.334,6.966,6.966,0,0,1,4.852,1.713v-8.025h4.974Zm-6.111-4.9a4.267,4.267,0,0,0,0-5.8,3.647,3.647,0,0,0-2.691-1.152,3.529,3.529,0,0,0-2.705,1.136,4.547,4.547,0,0,0,0,5.83,3.558,3.558,0,0,0,2.705,1.121A3.677,3.677,0,0,0,619.577,399.854Z" transform="translate(-509.03 -381.708)"/><path class="b" d="M635.838,401.641h-4.974V400.4a6.973,6.973,0,0,1-4.852,1.711,7.2,7.2,0,0,1-5.4-2.316,9.067,9.067,0,0,1,0-11.9,7.183,7.183,0,0,1,5.4-2.334,6.966,6.966,0,0,1,4.852,1.713v-1.245h4.974Zm-6.109-4.9a4.272,4.272,0,0,0,0-5.8,3.651,3.651,0,0,0-2.693-1.152,3.535,3.535,0,0,0-2.705,1.136,4.547,4.547,0,0,0,0,5.83,3.564,3.564,0,0,0,2.705,1.121A3.681,3.681,0,0,0,629.729,396.741Z" transform="translate(-499.151 -378.595)"/><path class="b" d="M645.991,404.753h-4.978v-1.245a6.967,6.967,0,0,1-4.852,1.711,7.2,7.2,0,0,1-5.394-2.316,9.067,9.067,0,0,1,0-11.9,7.179,7.179,0,0,1,5.394-2.334,6.959,6.959,0,0,1,4.852,1.713v-8.025h4.978Zm-6.113-4.9a4.272,4.272,0,0,0,0-5.8,3.646,3.646,0,0,0-2.689-1.152,3.526,3.526,0,0,0-2.705,1.136,4.547,4.547,0,0,0,0,5.83,3.555,3.555,0,0,0,2.705,1.121A3.675,3.675,0,0,0,639.878,399.854Z" transform="translate(-489.274 -381.708)"/><path class="b" d="M659.8,401.641h-4.976V400.4a6.971,6.971,0,0,1-4.852,1.711,7.2,7.2,0,0,1-5.394-2.316,9.066,9.066,0,0,1,0-11.9,7.178,7.178,0,0,1,5.394-2.334,6.963,6.963,0,0,1,4.852,1.713v-1.245H659.8Zm-6.11-4.9a4.272,4.272,0,0,0,0-5.8,3.648,3.648,0,0,0-2.691-1.152,3.532,3.532,0,0,0-2.7,1.136,4.546,4.546,0,0,0,0,5.83,3.561,3.561,0,0,0,2.7,1.121A3.677,3.677,0,0,0,653.686,396.741Z" transform="translate(-475.838 -378.595)"/><path class="b" d="M656.679,404.753V382.361h4.974v22.392Z" transform="translate(-461.895 -381.708)"/><path class="b" d="M677.957,401.641h-4.978V400.4a6.97,6.97,0,0,1-4.852,1.711,7.2,7.2,0,0,1-5.394-2.316,9.066,9.066,0,0,1,0-11.9,7.179,7.179,0,0,1,5.394-2.334,6.962,6.962,0,0,1,4.852,1.713v-1.245h4.978Zm-6.113-4.9a4.273,4.273,0,0,0,0-5.8,3.646,3.646,0,0,0-2.689-1.152,3.526,3.526,0,0,0-2.705,1.136,4.54,4.54,0,0,0,0,5.83,3.555,3.555,0,0,0,2.705,1.121A3.675,3.675,0,0,0,671.844,396.741Z" transform="translate(-458.168 -378.595)"/><path class="b" d="M675.5,396.57q.308,1.838,2.766,1.835a2.669,2.669,0,0,0,1.478-.355,1.049,1.049,0,0,0,.543-.888q0-.873-1.555-1.15l-3.171-.622q-4.54-.841-4.542-4.542a4.615,4.615,0,0,1,1.866-3.84,7.69,7.69,0,0,1,4.852-1.448,8.577,8.577,0,0,1,4.743,1.215,5.139,5.139,0,0,1,2.348,3.265l-4.542.9a1.991,1.991,0,0,0-.825-1.306,2.876,2.876,0,0,0-1.788-.531,2.071,2.071,0,0,0-1.352.359,1.091,1.091,0,0,0-.42.856q0,.838,1.182,1.087l3.67.746a5.837,5.837,0,0,1,3.234,1.7,4.358,4.358,0,0,1,1.089,3,4.463,4.463,0,0,1-1.959,3.889,8.788,8.788,0,0,1-5.132,1.367,9.933,9.933,0,0,1-4.96-1.135,4.586,4.586,0,0,1-2.378-3.406Z" transform="translate(-448.305 -378.595)"/><path class="b" d="M707,403.987H702.02V393.6l-5.444,10.388h-3.171l-5.473-10.449v10.449h-4.978V383.149h5.039l7,12.906,7-12.906H707Z" transform="translate(-436.328 -380.941)"/><path class="b" d="M712.688,401.41H707.71v-1.494a6.313,6.313,0,0,1-4.787,1.959,5.732,5.732,0,0,1-4.4-1.788,6.643,6.643,0,0,1-1.665-4.712V385.8H701.8v8.522a3.262,3.262,0,0,0,.746,2.224,2.442,2.442,0,0,0,1.93.856,2.879,2.879,0,0,0,2.38-1.073,5.22,5.22,0,0,0,.852-3.281V385.8h4.978Z" transform="translate(-422.8 -378.364)"/><path class="b" d="M706.116,406.1a4.62,4.62,0,0,0,1.243.249,1.3,1.3,0,0,0,.949-.343,1.184,1.184,0,0,0,.357-.9V389.463h4.947v16.2a4.947,4.947,0,0,1-1.354,3.636,4.861,4.861,0,0,1-3.625,1.369,8.692,8.692,0,0,1-3.266-.653Zm7.044-23.231a2.735,2.735,0,0,1,.823,1.991,2.632,2.632,0,0,1-.823,1.975,2.869,2.869,0,0,1-2.068.791,2.815,2.815,0,0,1-2.052-.791,2.658,2.658,0,0,1-.811-1.975,2.893,2.893,0,0,1,4.931-1.991Z" transform="translate(-414.517 -382.03)"/><path class="b" d="M727.292,395.108H715.846a4.026,4.026,0,0,0,1.213,2.208,3.1,3.1,0,0,0,2.147.811,3.5,3.5,0,0,0,3.327-1.8l4.416.9a7.43,7.43,0,0,1-3,3.654,8.9,8.9,0,0,1-4.741,1.227,8.087,8.087,0,0,1-5.846-2.316,8.582,8.582,0,0,1,0-11.9,8.1,8.1,0,0,1,5.876-2.334,7.779,7.779,0,0,1,5.692,2.273,8.256,8.256,0,0,1,2.364,6Zm-10.076-4.85a3.274,3.274,0,0,0-1.277,1.8h6.438a3.3,3.3,0,0,0-1.182-1.835,3.2,3.2,0,0,0-1.959-.622A3.463,3.463,0,0,0,717.216,390.258Z" transform="translate(-409.071 -378.595)"/><path class="b" d="M732.024,385.812l-.217,4.974h-.9q-5.381,0-5.383,5.848v4.883h-4.974V385.9h4.974v2.985a6,6,0,0,1,5.383-3.2A4.62,4.62,0,0,1,732.024,385.812Z" transform="translate(-399.746 -378.472)"/><path class="b" d="M743.2,395.108H731.752a4.012,4.012,0,0,0,1.212,2.208,3.105,3.105,0,0,0,2.147.811,3.5,3.5,0,0,0,3.327-1.8l4.418.9a7.434,7.434,0,0,1-3,3.654,8.9,8.9,0,0,1-4.741,1.227,8.091,8.091,0,0,1-5.846-2.316,8.582,8.582,0,0,1,0-11.9,8.1,8.1,0,0,1,5.878-2.334,7.778,7.778,0,0,1,5.69,2.273,8.258,8.258,0,0,1,2.366,6Zm-10.079-4.85a3.271,3.271,0,0,0-1.275,1.8h6.436a3.3,3.3,0,0,0-1.18-1.835,3.206,3.206,0,0,0-1.959-.622A3.469,3.469,0,0,0,733.12,390.258Z" transform="translate(-393.595 -378.595)"/><path class="b" d="M740.769,396.57q.308,1.838,2.766,1.835a2.659,2.659,0,0,0,1.478-.355,1.047,1.047,0,0,0,.545-.888q0-.873-1.555-1.15l-3.173-.622q-4.54-.841-4.542-4.542a4.616,4.616,0,0,1,1.869-3.84,7.69,7.69,0,0,1,4.852-1.448,8.569,8.569,0,0,1,4.741,1.215,5.133,5.133,0,0,1,2.348,3.265l-4.54.9a2,2,0,0,0-.825-1.306,2.88,2.88,0,0,0-1.788-.531,2.076,2.076,0,0,0-1.354.359,1.091,1.091,0,0,0-.42.856q0,.838,1.184,1.087l3.668.746a5.837,5.837,0,0,1,3.236,1.7,4.356,4.356,0,0,1,1.087,3,4.463,4.463,0,0,1-1.959,3.889,8.785,8.785,0,0,1-5.13,1.367,9.945,9.945,0,0,1-4.962-1.135,4.587,4.587,0,0,1-2.378-3.406Z" transform="translate(-384.791 -378.595)"/></g></g></svg>