<svg xmlns="http://www.w3.org/2000/svg" width="16.992" height="17.01" viewBox="0 0 16.992 17.01"><defs><style>.a{fill:none;stroke:#0046ad;stroke-width:1.3px;}</style></defs><path class="a" d="M304.2,219.633a7.332,7.332,0,0,0,.731,3.1,15.584,15.584,0,0,0,3.53,4.943,14.216,14.216,0,0,0,5.283,3.225,5.01,5.01,0,0,0,4.818-.709,3.6,3.6,0,0,0,1.074-1.226,1.5,1.5,0,0,0-.535-2.022,8.211,8.211,0,0,0-2.2-.9c-.508-.146-1.027-.258-1.543-.378a1.33,1.33,0,0,0-1.409.51c-.373.446-.565.472-1.1.216a8.5,8.5,0,0,1-2.277-1.734,7.527,7.527,0,0,1-1.557-2.121,2.364,2.364,0,0,1-.144-.437.437.437,0,0,1,.186-.514,1.5,1.5,0,0,0,.65-1.742,17.66,17.66,0,0,0-1-3.15,2.12,2.12,0,0,0-.8-.948,1.576,1.576,0,0,0-1.841.209A4.663,4.663,0,0,0,304.2,219.633Z" transform="translate(-303.554 -214.857)"/></svg>