<svg xmlns="http://www.w3.org/2000/svg" width="19.365" height="16.269" viewBox="0 0 19.365 16.269"><defs><style>.a{fill:none;stroke-linecap:round;stroke-linejoin:round;}.b,.c{stroke:none;}.c{fill:#fff;}</style></defs><g class="a" transform="translate(409.591 -74.652)"><path class="b" d="M-408.291,88.078a7.012,7.012,0,0,0,5.054-1.424,3.529,3.529,0,0,1-3.213-2.4,3.8,3.8,0,0,0,1.54-.073,3.467,3.467,0,0,1-1.978-1.222,3.374,3.374,0,0,1-.756-2.2,3.569,3.569,0,0,0,1.541.417,3.46,3.46,0,0,1-1.428-2.1,3.415,3.415,0,0,1,.375-2.492,9.864,9.864,0,0,0,7.1,3.6c-.022-.225-.049-.43-.061-.635a3.444,3.444,0,0,1,4.016-3.553,3.389,3.389,0,0,1,1.826.931.255.255,0,0,0,.274.071,7.031,7.031,0,0,0,1.848-.7c.047-.026.1-.049.175-.09a3.484,3.484,0,0,1-1.427,1.852l.018.044c.31-.066.624-.118.93-.2s.6-.2.934-.312a4.919,4.919,0,0,1-.394.519c-.388.391-.789.771-1.194,1.146a.3.3,0,0,0-.112.25,9.987,9.987,0,0,1-3.144,7.545,8.979,8.979,0,0,1-4.784,2.4,10,10,0,0,1-5.283-.443,9.623,9.623,0,0,1-1.778-.873C-408.232,88.127-408.246,88.113-408.291,88.078Z"/><path class="c" d="M -403.0155944824219 89.6214599609375 C -402.3993835449219 89.6214599609375 -401.7784118652344 89.56492614746094 -401.1533508300781 89.45381164550781 C -399.3225402832031 89.12839508056641 -397.70654296875 88.34977722167969 -396.3698425292969 87.05527496337891 C -394.2445678710938 84.99702453613281 -393.2007141113281 82.47158813476563 -393.2256469726563 79.50985717773438 C -393.2265319824219 79.40194702148438 -393.1939697265625 79.33501434326172 -393.1134033203125 79.26024627685547 C -392.7091064453125 78.88517761230469 -392.3080139160156 78.50605773925781 -391.919677734375 78.11463165283203 C -391.7748107910156 77.96866607666016 -391.6675415039063 77.78547668457031 -391.5255737304688 77.59577178955078 C -391.860595703125 77.70903778076172 -392.1558837890625 77.82392120361328 -392.4599304199219 77.90731811523438 C -392.7654113769531 77.99108123779297 -393.0794677734375 78.04344177246094 -393.3898315429688 78.10955810546875 L -393.4078674316406 78.06598663330078 C -392.7332153320313 77.61405181884766 -392.2480773925781 77.01901245117188 -391.9812316894531 76.21435546875 C -392.06103515625 76.25534820556641 -392.1096496582031 76.27858734130859 -392.1566772460938 76.30481719970703 C -392.7384643554688 76.62917327880859 -393.3562927246094 76.85685729980469 -394.0047302246094 77.00730133056641 C -394.038818359375 77.01522827148438 -394.0694580078125 77.01968383789063 -394.0980224609375 77.01968383789063 C -394.1637573242188 77.01968383789063 -394.2184448242188 76.99605560302734 -394.2786560058594 76.936767578125 C -394.7880554199219 76.43490600585938 -395.3994140625 76.13215637207031 -396.1044311523438 76.00544738769531 C -396.3036499023438 75.96963500976563 -396.50146484375 75.95244598388672 -396.6966552734375 75.95244598388672 C -398.6013488769531 75.95244598388672 -400.2392272949219 77.59100341796875 -400.1204528808594 79.55827331542969 C -400.1080627441406 79.76363372802734 -400.0812683105469 79.96807098388672 -400.0591735839844 80.19321441650391 C -402.9345703125 79.99472808837891 -405.2907104492188 78.78752136230469 -407.1566162109375 76.5953369140625 C -407.6025085449219 77.39276123046875 -407.7249755859375 78.22037506103516 -407.5317077636719 79.08700561523438 C -407.3388366699219 79.951904296875 -406.8567504882813 80.63558197021484 -406.1038208007813 81.18277740478516 C -406.6797790527344 81.16410827636719 -407.1636657714844 81.00850677490234 -407.6448059082031 80.76583099365234 C -407.6482849121094 81.60687255859375 -407.39453125 82.32895660400391 -406.8887329101563 82.96136474609375 C -406.3842163085938 83.59214782714844 -405.7276916503906 83.98825836181641 -404.9106140136719 84.18312835693359 C -405.2109069824219 84.26811218261719 -405.5018005371094 84.30055236816406 -405.7956848144531 84.30055236816406 C -406.0106506347656 84.30055236816406 -406.2272033691406 84.28319549560547 -406.4502563476563 84.25634765625 C -405.8639526367188 85.73381805419922 -404.8109436035156 86.5181884765625 -403.2371826171875 86.65411376953125 C -404.5399169921875 87.63857269287109 -405.9637756347656 88.11211395263672 -407.5416870117188 88.11211395263672 C -407.78759765625 88.11211395263672 -408.0374755859375 88.10059356689453 -408.2909545898438 88.07772827148438 C -408.2462768554688 88.11297607421875 -408.231689453125 88.12689208984375 -408.2148742675781 88.13736724853516 C -407.6515808105469 88.48835754394531 -407.0596008300781 88.78203582763672 -406.4367065429688 89.01046752929688 C -405.314208984375 89.42207336425781 -404.173095703125 89.6214599609375 -403.0155944824219 89.6214599609375 M -403.0155944824219 90.92146301269531 C -404.3331909179688 90.92146301269531 -405.6348266601563 90.68915557861328 -406.88427734375 90.23099517822266 C -407.5758056640625 89.97738647460938 -408.2547912597656 89.64420318603516 -408.9023742675781 89.24070739746094 C -408.9831237792969 89.19039154052734 -409.0418701171875 89.14242553710938 -409.0734558105469 89.11665344238281 L -409.0961608886719 89.09833526611328 C -409.5477905273438 88.74201202392578 -409.7115478515625 88.13123321533203 -409.4987182617188 87.59677124023438 C -409.3005065917969 87.09901428222656 -408.8194885253906 86.77769470214844 -408.2915344238281 86.77769470214844 C -408.2526245117188 86.77769470214844 -408.2134704589844 86.77943420410156 -408.1741333007813 86.78298187255859 C -407.9598693847656 86.80231475830078 -407.7471008300781 86.81211090087891 -407.5416870117188 86.81211090087891 C -407.1307983398438 86.81211090087891 -406.7351684570313 86.77336120605469 -406.3526306152344 86.69514465332031 C -406.9042358398438 86.18630218505859 -407.34326171875 85.53044891357422 -407.6585998535156 84.73584747314453 C -407.7545166015625 84.49414825439453 -407.7742004394531 84.23394775390625 -407.7221984863281 83.98770141601563 C -407.7844848632813 83.91841888427734 -407.8450927734375 83.84693145751953 -407.9039306640625 83.77336120605469 C -408.5992736816406 82.90397644042969 -408.949462890625 81.89029693603516 -408.9447937011719 80.76045227050781 C -408.9435119628906 80.45193481445313 -408.8329162597656 80.15892791748047 -408.6399230957031 79.92930603027344 C -408.7042236328125 79.74822235107422 -408.7577514648438 79.56175994873047 -408.800537109375 79.36995697021484 C -409.0648193359375 78.18486785888672 -408.8934936523438 77.03787231445313 -408.291259765625 75.96087646484375 C -408.0835266113281 75.58933258056641 -407.70703125 75.34303283691406 -407.2833862304688 75.30152130126953 C -407.2409973144531 75.29737091064453 -407.1986083984375 75.29531860351563 -407.156494140625 75.29531860351563 C -406.7776184082031 75.29531860351563 -406.4149780273438 75.46099090576172 -406.1666564941406 75.75272369384766 C -404.8347473144531 77.31753540039063 -403.2594299316406 78.28913879394531 -401.3803405761719 78.6982421875 C -401.2459716796875 77.75740814208984 -400.8219909667969 76.87828826904297 -400.1441345214844 76.15826416015625 C -399.2432250976563 75.2012939453125 -397.9866638183594 74.65244293212891 -396.6966552734375 74.65244293212891 C -396.4223937988281 74.65244293212891 -396.145751953125 74.67717742919922 -395.8744201660156 74.7259521484375 C -395.1048889160156 74.8642578125 -394.4179992675781 75.1617431640625 -393.8253173828125 75.61244964599609 C -393.45556640625 75.49642181396484 -393.1137084960938 75.34998321533203 -392.7897033691406 75.16935729980469 C -392.7358093261719 75.13929748535156 -392.6871032714844 75.11469268798828 -392.6399841308594 75.09090423583984 C -392.6210021972656 75.08130645751953 -392.5997619628906 75.07059478759766 -392.5752258300781 75.0579833984375 C -392.3874816894531 74.96155548095703 -392.1838684082031 74.91433715820313 -391.9814758300781 74.91433715820313 C -391.6775512695313 74.91433715820313 -391.3763122558594 75.02081298828125 -391.1355895996094 75.22699737548828 C -390.7494506835938 75.55770111083984 -390.5928649902344 76.08161163330078 -390.7301025390625 76.56744384765625 C -390.6338806152344 76.64187622070313 -390.5469970703125 76.730712890625 -390.4729614257813 76.83286285400391 C -390.1387939453125 77.29393768310547 -390.1435852050781 77.91880798339844 -390.4847717285156 78.37470245361328 C -390.5173645019531 78.41826629638672 -390.5516357421875 78.4674072265625 -390.587890625 78.51941680908203 C -390.6910400390625 78.66736602783203 -390.8194274902344 78.85148620605469 -390.9969482421875 79.03035736083984 C -391.3166809082031 79.35264587402344 -391.6427001953125 79.66444396972656 -391.9289855957031 79.93321228027344 C -392.0039978027344 83.07933807373047 -393.1924743652344 85.78781890869141 -395.4654541015625 87.98912811279297 C -396.9542846679688 89.43094635009766 -398.7914123535156 90.35436248779297 -400.9258422851563 90.73375701904297 C -401.6265563964844 90.85830688476563 -402.3296508789063 90.92146301269531 -403.0155944824219 90.92146301269531 Z"/></g></svg>