<svg xmlns="http://www.w3.org/2000/svg" width="25.422" height="21.391" viewBox="0 0 25.422 21.391"><defs><style>.a{fill:none;stroke-linecap:round;stroke-linejoin:round;}.b,.c{stroke:none;}.c{fill:#0046ad;}</style></defs><g class="a" transform="translate(410.091 -74.152)"><path class="b" d="M-408.291,91.735a9.126,9.126,0,0,0,6.578-1.853,4.593,4.593,0,0,1-4.182-3.121,4.94,4.94,0,0,0,2-.1,4.513,4.513,0,0,1-2.575-1.59,4.391,4.391,0,0,1-.984-2.858,4.646,4.646,0,0,0,2.006.543,4.5,4.5,0,0,1-1.859-2.728,4.445,4.445,0,0,1,.488-3.243,12.838,12.838,0,0,0,9.238,4.683c-.029-.293-.064-.559-.08-.826a4.482,4.482,0,0,1,5.227-4.624,4.411,4.411,0,0,1,2.376,1.212.332.332,0,0,0,.357.092,9.152,9.152,0,0,0,2.405-.914c.061-.034.125-.064.228-.118a4.534,4.534,0,0,1-1.857,2.41l.023.057c.4-.086.813-.154,1.21-.263s.78-.258,1.216-.405a6.406,6.406,0,0,1-.513.675c-.505.509-1.028,1-1.554,1.491a.391.391,0,0,0-.146.325,13,13,0,0,1-4.092,9.821A11.687,11.687,0,0,1-399,93.526a13.019,13.019,0,0,1-6.877-.577,12.527,12.527,0,0,1-2.314-1.136C-408.214,91.8-408.233,91.78-408.291,91.735Z"/><path class="c" d="M -401.4245300292969 93.74382781982422 C -400.6224975585938 93.74382781982422 -399.8142700195313 93.67024230957031 -399.0007019042969 93.52561950683594 C -396.6177673339844 93.10205841064453 -394.5144348144531 92.08861541748047 -392.7745666503906 90.40372467041016 C -390.0083312988281 87.7247314453125 -388.6496887207031 84.43765258789063 -388.68212890625 80.58272552490234 C -388.6832885742188 80.4422607421875 -388.6408996582031 80.35514068603516 -388.5360412597656 80.25783538818359 C -388.0098266601563 79.76963806152344 -387.4877624511719 79.27618408203125 -386.9822998046875 78.7667236328125 C -386.7937622070313 78.57672119140625 -386.6541442871094 78.33829498291016 -386.4693603515625 78.09138488769531 C -386.9054260253906 78.23879241943359 -387.2897644042969 78.38832855224609 -387.6854858398438 78.49687194824219 C -388.0830993652344 78.60588836669922 -388.4918823242188 78.67404937744141 -388.8958435058594 78.76010894775391 L -388.9193420410156 78.70339202880859 C -388.0411987304688 78.11515808105469 -387.4097595214844 77.34067535400391 -387.0624389648438 76.29334259033203 C -387.1662902832031 76.34669494628906 -387.2295837402344 76.37693023681641 -387.2908020019531 76.41109466552734 C -388.0480346679688 76.83325958251953 -388.8522033691406 77.12960815429688 -389.6961975097656 77.325439453125 C -389.7405700683594 77.33575439453125 -389.7804260253906 77.341552734375 -389.8175964355469 77.341552734375 C -389.9031677246094 77.341552734375 -389.974365234375 77.310791015625 -390.0527038574219 77.23361206054688 C -390.7157287597656 76.58039855957031 -391.5115051269531 76.18634796142578 -392.4291076660156 76.02140808105469 C -392.6883850097656 75.97480010986328 -392.9458618164063 75.95243072509766 -393.1999206542969 75.95243072509766 C -395.6790771484375 75.95243072509766 -397.8109130859375 78.08516693115234 -397.6563415527344 80.64574432373047 C -397.6401672363281 80.91302490234375 -397.6053161621094 81.17913055419922 -397.5765686035156 81.47216033935547 C -401.3191223144531 81.21381378173828 -404.3858337402344 79.64255523681641 -406.8144836425781 76.78922271728516 C -407.3948669433594 77.82713317871094 -407.5542297363281 78.90434265136719 -407.3027038574219 80.03234100341797 C -407.0516662597656 81.1580810546875 -406.4241638183594 82.04794311523438 -405.4441833496094 82.76016235351563 C -406.1938171386719 82.73585510253906 -406.8236389160156 82.53333282470703 -407.4499206542969 82.21746826171875 C -407.4544372558594 83.31214904785156 -407.1241760253906 84.25201416015625 -406.4657897949219 85.07514953613281 C -405.8091125488281 85.89616394042969 -404.9546203613281 86.41173553466797 -403.8911437988281 86.66537475585938 C -404.281982421875 86.77598571777344 -404.6605834960938 86.81821441650391 -405.0431213378906 86.81821441650391 C -405.3229064941406 86.81821441650391 -405.6047973632813 86.79562377929688 -405.8951110839844 86.76067352294922 C -405.1319885253906 88.68373107910156 -403.7613830566406 89.70464324951172 -401.7129821777344 89.88156890869141 C -403.4086303710938 91.16292572021484 -405.2619323730469 91.77928924560547 -407.3157348632813 91.77928924560547 C -407.6357727050781 91.77928924560547 -407.9609985351563 91.76429748535156 -408.2909240722656 91.73453521728516 C -408.2327575683594 91.78040313720703 -408.2137756347656 91.79852294921875 -408.1919250488281 91.81214141845703 C -407.4587097167969 92.26900482177734 -406.6882019042969 92.6512451171875 -405.8774719238281 92.94855499267578 C -404.4164428710938 93.48429870605469 -402.93115234375 93.74382781982422 -401.4245300292969 93.74382781982422 M -401.424560546875 95.54383087158203 C -403.1522521972656 95.54383087158203 -404.8589477539063 95.23924255371094 -406.4971618652344 94.63851165771484 C -407.4042053222656 94.30589294433594 -408.2946472167969 93.86896514892578 -409.1438293457031 93.33985137939453 C -409.2549743652344 93.27056121826172 -409.3346252441406 93.20552062988281 -409.3774108886719 93.17057800292969 C -409.384521484375 93.16477966308594 -409.3934326171875 93.15745544433594 -409.4054870605469 93.14794921875 C -410.031005859375 92.65469360351563 -410.2579040527344 91.80892181396484 -409.9632873535156 91.06879425048828 C -409.6888732910156 90.37948608398438 -409.0228271484375 89.93448638916016 -408.2917175292969 89.93448638916016 C -408.2378234863281 89.93448638916016 -408.1836547851563 89.93689727783203 -408.1291809082031 89.94181060791016 C -407.8535461425781 89.96668243408203 -407.5798645019531 89.97929382324219 -407.3157043457031 89.97929382324219 C -406.8618469238281 89.97929382324219 -406.42236328125 89.94239807128906 -405.9956665039063 89.86807250976563 C -406.6529541015625 89.21751403808594 -407.1810913085938 88.40005493164063 -407.5681762695313 87.42459106445313 C -407.6939697265625 87.10761260986328 -407.7250671386719 86.76762390136719 -407.6668395996094 86.44287109375 C -407.7366943359375 86.36381530761719 -407.804931640625 86.28266143798828 -407.8714599609375 86.199462890625 C -408.7922973632813 85.04820251464844 -409.2560729980469 83.70596313476563 -409.2499084472656 82.21004486083984 C -409.2482299804688 81.80416870117188 -409.1099243164063 81.41773223876953 -408.866943359375 81.10749053955078 C -408.9431762695313 80.88577270507813 -409.0074462890625 80.65786743164063 -409.0595703125 80.42411804199219 C -409.4094848632813 78.85481262207031 -409.1827087402344 77.33628845214844 -408.3855590820313 75.91071319580078 C -408.0978698730469 75.39627075195313 -407.5765686035156 75.05525970458984 -406.989990234375 74.997802734375 C -406.9312744140625 74.99205017089844 -406.8726196289063 74.98921203613281 -406.8142700195313 74.98921203613281 C -406.2897033691406 74.98921203613281 -405.7875671386719 75.21862030029297 -405.4437866210938 75.62252807617188 C -403.7530822753906 77.60887145996094 -401.7584533691406 78.85396575927734 -399.3854370117188 79.39565277099609 C -399.1900329589844 78.19267272949219 -398.6357727050781 77.07047271728516 -397.7657165527344 76.14630126953125 C -396.57275390625 74.87917327880859 -394.9085998535156 74.15243530273438 -393.1999206542969 74.15243530273438 C -392.8365783691406 74.15243530273438 -392.4700622558594 74.18518829345703 -392.1106262207031 74.24980926513672 C -391.1110534667969 74.42948150634766 -390.2168579101563 74.81198883056641 -389.4421691894531 75.39012908935547 C -388.9881286621094 75.24403381347656 -388.5669860839844 75.06174468994141 -388.1672973632813 74.83891296386719 C -388.0953979492188 74.79878234863281 -388.0309448242188 74.76625061035156 -387.9686279296875 74.73477935791016 C -387.944091796875 74.72238922119141 -387.9166564941406 74.70854949951172 -387.8849487304688 74.69225311279297 C -387.625 74.5587158203125 -387.343017578125 74.49331665039063 -387.0627746582031 74.49331665039063 C -386.6419372558594 74.49331665039063 -386.2248840332031 74.64072418212891 -385.8915710449219 74.92620086669922 C -385.3753356933594 75.36833953857422 -385.1553955078125 76.05997467041016 -385.3119201660156 76.71266174316406 C -385.2008361816406 76.80593109130859 -385.099853515625 76.9136962890625 -385.0119018554688 77.03507232666016 C -384.5491943359375 77.67346954345703 -384.5558471679688 78.53868103027344 -385.0282592773438 79.16991424560547 C -385.0696105957031 79.22517395019531 -385.1137084960938 79.28841400146484 -385.1603698730469 79.35536193847656 C -385.2969970703125 79.55131530761719 -385.4670104980469 79.79517364501953 -385.7046203613281 80.03459167480469 C -386.1095886230469 80.44276428222656 -386.5222778320313 80.83806610107422 -386.8876342773438 81.18153381347656 C -386.9962158203125 85.28633117675781 -388.5536193847656 88.8216552734375 -391.5223388671875 91.69673919677734 C -393.4759521484375 93.58863830566406 -395.8860473632813 94.80020904541016 -398.6856994628906 95.29784393310547 C -399.6039123535156 95.46107482910156 -400.5254211425781 95.54383087158203 -401.424560546875 95.54383087158203 Z"/></g></svg>