<svg xmlns="http://www.w3.org/2000/svg" width="25.086" height="17.544" viewBox="0 0 25.086 17.544"><defs><style>.a{fill:#fff;}</style></defs><path class="a" d="M1014.334,7597.419c-2.57,0-5.141-.011-7.711,0a4.582,4.582,0,0,0-4.638,3.452,5.558,5.558,0,0,0-.152,1.344c-.014,2.633-.021,5.267,0,7.9a4.534,4.534,0,0,0,3.288,4.621,6.286,6.286,0,0,0,1.656.208q7.587.023,15.175.008a4.6,4.6,0,0,0,4.947-4.9q.016-3.888,0-7.775a4.583,4.583,0,0,0-4.912-4.863c-2.551-.008-5.1,0-7.651,0m-.036,1.094c2.549,0,5.1.064,7.647-.02a3.631,3.631,0,0,1,3.854,3.807q-.056,3.885,0,7.774a3.643,3.643,0,0,1-3.85,3.809q-7.584-.1-15.17,0a3.641,3.641,0,0,1-3.853-3.806q.06-3.888,0-7.774a3.632,3.632,0,0,1,3.85-3.81c2.5.084,5.015.02,7.522.02" transform="translate(-1001.819 -7597.415)"/><path class="a" d="M1021.415,7608.007c-.261-.3-.4-.585-.619-.7q-2.351-1.242-4.734-2.421c-.613-.3-1.1.063-1.114.831-.022.942-.006,1.887-.006,2.83,0,.554-.016,1.109,0,1.662.032.85.523,1.151,1.272.775,1.492-.749,2.982-1.5,4.457-2.282a4.106,4.106,0,0,0,.739-.693" transform="translate(-1004.993 -7599.196)"/></svg>