<svg xmlns="http://www.w3.org/2000/svg" width="32.652" height="22.835" viewBox="0 0 32.652 22.835"><defs><style>.a{fill:#003687;}</style></defs><path class="a" d="M1018.108,7597.42c-3.346,0-6.691-.015-10.037,0a5.963,5.963,0,0,0-6.037,4.493,7.229,7.229,0,0,0-.2,1.749c-.018,3.427-.028,6.854,0,10.282a5.9,5.9,0,0,0,4.28,6.016,8.232,8.232,0,0,0,2.155.271q9.875.031,19.752.01c3.94,0,6.423-2.462,6.44-6.372q.021-5.06,0-10.12c-.017-3.861-2.5-6.319-6.393-6.33-3.32-.01-6.638,0-9.958,0m-.046,1.423c3.318,0,6.639.084,9.953-.025a4.727,4.727,0,0,1,5.016,4.955q-.073,5.057,0,10.119a4.742,4.742,0,0,1-5.011,4.957q-9.871-.126-19.745,0a4.739,4.739,0,0,1-5.015-4.953q.079-5.061,0-10.119a4.728,4.728,0,0,1,5.011-4.959c3.26.109,6.527.025,9.791.025" transform="translate(-1001.819 -7597.415)"/><path class="a" d="M1023.369,7608.98c-.339-.395-.516-.761-.805-.913q-3.06-1.617-6.162-3.151c-.8-.395-1.426.081-1.449,1.082-.029,1.227-.008,2.455-.008,3.684,0,.721-.021,1.443.006,2.163.041,1.105.681,1.5,1.656,1.009,1.942-.975,3.881-1.956,5.8-2.97a5.343,5.343,0,0,0,.962-.9" transform="translate(-1001.995 -7597.513)"/></svg>